<svg xmlns="http://www.w3.org/2000/svg" width="299.985" height="295.796" viewBox="0 0 299.985 295.796">
  <g id="Forgot_password-cuate_1_" data-name="Forgot password-cuate (1)" transform="translate(-46.98 -54.5)">
    <g id="freepik--Shadow--inject-3" transform="translate(50.46 315.157)">
      <path id="Path_4456" data-name="Path 4456" d="M344.722,424.869c0,9.708-65.593,17.569-146.516,17.569S51.69,434.577,51.69,424.869,117.283,407.3,198.206,407.3,344.722,415.161,344.722,424.869Z" transform="translate(-51.69 -407.3)" fill="#ebebeb"/>
    </g>
    <g id="freepik--Plant--inject-3" transform="translate(280.498 217.747)">
      <path id="Path_4457" data-name="Path 4457" d="M396.68,291.912a29.035,29.035,0,0,1-.569,11.2,30.633,30.633,0,0,1-1.714,4.95c-.894,2.054-1.825,4.049-1.6,6.295.214.14-.525.118-.554-.1-5.992-3.413-13.676-4.041-18.286-9.6a19.209,19.209,0,0,1-3.8-9.339,28.12,28.12,0,0,1,.214-11.274,11.417,11.417,0,0,1,5.46-7.447c2.889-1.478,6.812-1.4,9.915-.443C392.4,278.215,395.734,285.462,396.68,291.912Z" transform="translate(-364.783 -275.455)" fill="#e58f6b"/>
      <path id="Path_4458" data-name="Path 4458" d="M401.538,338.59q-1.219-4.086-2.475-8.164c-1.64-5.327-3.347-10.632-5.246-15.877q-1.7-4.706-3.583-9.331a57.129,57.129,0,0,1,.739-5.792c.5-2.32,1.226-4.566,1.906-6.834.044-.14-.185-.214-.244-.081-1.345,3.133-3.1,7.137-3.14,10.846q-2.216-5.231-4.714-10.307a43.958,43.958,0,0,1,.222-8.585.1.1,0,0,0-.2-.037,30.5,30.5,0,0,0-.591,7.573q-1.928-3.812-4.086-7.529c-.133-.222-.436,0-.325.229,2.253,4.337,4.337,8.762,6.3,13.247a28.754,28.754,0,0,0-9.4-5.438c-.148-.059-.259.163-.111.222a34.184,34.184,0,0,1,10.166,6.731q2.106,4.921,4.027,9.93A30.958,30.958,0,0,0,376.943,302c-.17-.044-.214.214-.052.259,5.748,1.729,10.2,4.987,14.577,8.866.5,1.352,1,2.7,1.478,4.056q2.771,7.7,5.283,15.515,1.212,3.694,2.379,7.477a84.424,84.424,0,0,0,2.586,8.127c.1.244.547.192.488-.111A76.837,76.837,0,0,0,401.538,338.59Z" transform="translate(-366.568 -277.781)" fill="#263238"/>
      <path id="Path_4459" data-name="Path 4459" d="M396.167,290.6a15.006,15.006,0,0,0-2.157,5.379c0,.052.066.081.089,0a45.977,45.977,0,0,1,2.335-5.275C396.529,290.559,396.271,290.448,396.167,290.6Z" transform="translate(-371.134 -279.392)" fill="#263238"/>
      <path id="Path_4460" data-name="Path 4460" d="M380.543,306.89a15.722,15.722,0,0,0-5.371-1.81c-.052,0-.081.066,0,.089.864.355,1.773.606,2.645.946s1.736.739,2.623,1.056a.155.155,0,0,0,.1-.281Z" transform="translate(-366.201 -283.193)" fill="#263238"/>
      <path id="Path_4461" data-name="Path 4461" d="M377.733,286.829A10.5,10.5,0,0,0,376,285.758a.1.1,0,0,0-.1.155,10.852,10.852,0,0,0,1.707,1.1C377.719,287.08,377.844,286.9,377.733,286.829Z" transform="translate(-366.398 -278.145)" fill="#263238"/>
      <path id="Path_4462" data-name="Path 4462" d="M426.995,313.717c-4.315,1.278-8.652,2.46-12.966,3.731-.377.111-7.669-13.868-5.031-21.071a23.465,23.465,0,0,1,14.666-13.9c3.081-1.049,6.864-1.928,10.122-1.212A8.509,8.509,0,0,1,439.7,287c1.278,3.694.85,8.127.155,11.888a20.754,20.754,0,0,1-4.248,9.7A17.109,17.109,0,0,1,426.995,313.717Z" transform="translate(-374.899 -276.905)" fill="#e58f6b"/>
      <path id="Path_4463" data-name="Path 4463" d="M432.984,303.454a56.753,56.753,0,0,1-8.467,3.332,35.638,35.638,0,0,0-5.645,2.047c1.825-4.064,3.82-8.038,5.948-11.984a19.323,19.323,0,0,0,7.817-4.034.121.121,0,0,0-.155-.185,38.782,38.782,0,0,1-7.388,3.694c.576-1.064,1.153-2.12,1.744-3.177.163-.3-.236-.584-.436-.3a91,91,0,0,0-6.132,10.3,46.8,46.8,0,0,1-.443-9.435c0-.081-.111-.089-.126,0a31.5,31.5,0,0,0,.1,10.344c-1.478,3.022-2.889,6.117-4.13,9.25-.488-1.884-1.13-3.738-1.559-5.637a25.97,25.97,0,0,1-.621-8.3c0-.081-.111-.089-.126,0a29.324,29.324,0,0,0,1.884,15.264c-.739,1.884-1.411,3.775-2.039,5.674a113.041,113.041,0,0,0-5.733,29.937.185.185,0,1,0,.369,0,148.379,148.379,0,0,1,6.428-29.553c1.249-3.761,2.689-7.388,4.27-11,2.549-.739,5.091-1.773,7.6-2.638a23.915,23.915,0,0,0,7-3.436.11.11,0,1,0-.155-.155Z" transform="translate(-374.652 -279.934)" fill="#263238"/>
      <path id="Path_4464" data-name="Path 4464" d="M444.7,301.8c-2.638.938-5.172,2.253-7.772,3.206-.126.044-.052.236.067.214a17.742,17.742,0,0,0,7.809-3.273C444.884,301.879,444.8,301.761,444.7,301.8Z" transform="translate(-382.326 -282.333)" fill="#263238"/>
      <path id="Path_4465" data-name="Path 4465" d="M417.92,294.036c.037-.14-.17-.222-.214-.074a13.342,13.342,0,0,0-.517,7.5c0,.1.185.1.185,0A42.222,42.222,0,0,1,417.92,294.036Z" transform="translate(-377.099 -280.268)" fill="#263238"/>
      <path id="Path_4466" data-name="Path 4466" d="M432.65,286.464A6.487,6.487,0,0,0,431.5,290.6c0,.089.155.14.177.037.325-1.4.864-2.66,1.293-4.012a.185.185,0,0,0-.325-.163Z" transform="translate(-380.923 -278.311)" fill="#263238"/>
      <path id="Path_4467" data-name="Path 4467" d="M363.818,330.555c1.263,4.019,4.27,9.568,9.028,9.6,3.088,0,6.191-.34,9.287-.384,3.31-.052,6.649-.044,9.937.155.273,0-.4-9.922-8.356-14.776-2.216-1.359-4.957-1.788-7.492-2.335a34.649,34.649,0,0,0-8.866-.924c-1.832.074-3.354.458-4,2.335S363.2,328.619,363.818,330.555Z" transform="translate(-363.048 -287.582)" fill="#e58f6b"/>
      <path id="Path_4468" data-name="Path 4468" d="M368.632,326.149c1.936.5,3.886,1.071,5.829,1.685a21.409,21.409,0,0,0-1.6-1.566c-.835-.687-1.751-1.241-2.645-1.854-.074-.044,0-.192.067-.155A10.883,10.883,0,0,1,374.971,328c2.423.776,4.817,1.64,7.122,2.586a27.336,27.336,0,0,1,4.566,2.4A18.4,18.4,0,0,0,385,330.117a15.829,15.829,0,0,0-3.864-3.1.126.126,0,0,1,.126-.214,11.333,11.333,0,0,1,6.206,6.731,26.758,26.758,0,0,1,4.514,4.1c5.268,5.984,9.42,13.949,9.435,22.069,0,.192-.31.251-.347.044a45.068,45.068,0,0,0-10.048-21.574,17.01,17.01,0,0,0-1.16-1.263,35.594,35.594,0,0,0-4.352-.325c-1.692,0-3.376.251-5.061.384-2.778.229-5.851.259-8.363-1.138-.111-.059,0-.251.089-.207,5.593,2.032,11.452-.547,17.052.665a26.155,26.155,0,0,0-8.26-5.327l-.517-.207c-3.583.428-7.388,1.367-10.861.2a.084.084,0,0,1,.044-.163c3.376.842,6.612-.222,9.945-.392-3.628-1.411-7.329-2.534-10.964-3.938C368.307,326.341,368.3,326.061,368.632,326.149Z" transform="translate(-364.441 -288.2)" fill="#263238"/>
      <path id="Path_4469" data-name="Path 4469" d="M366.549,331.6a49.406,49.406,0,0,0,5.224.4.033.033,0,1,1,0,.066,10.8,10.8,0,0,1-5.268-.332C366.423,331.71,366.468,331.585,366.549,331.6Z" transform="translate(-363.939 -290.119)" fill="#263238"/>
      <path id="Path_4470" data-name="Path 4470" d="M382.472,326.938a8.519,8.519,0,0,1,2.586,1.8.108.108,0,0,1-.133.17c-.436-.318-.887-.621-1.345-.909a14.48,14.48,0,0,1-1.256-.8.155.155,0,0,1,.148-.259Z" transform="translate(-368.071 -288.9)" fill="#263238"/>
      <path id="Path_4471" data-name="Path 4471" d="M420.586,339.927c-.059.126.133.251.207.111h0a.192.192,0,0,0,.126.081,80.616,80.616,0,0,0,9.723,1.7c2.63.236,5.667.377,7.972-1.145,3.125-2.076,5.172-7.61,3.487-11.127-1.995-4.174-8.016-1.906-11.038-.421a22.165,22.165,0,0,0-10.477,10.8Z" transform="translate(-378.072 -288.96)" fill="#e58f6b"/>
      <path id="Path_4472" data-name="Path 4472" d="M413.986,342.712a30.848,30.848,0,0,1,5.807-4.433,19.949,19.949,0,0,1,5.911-6.007c.118-.081.214.1.111.185a26.753,26.753,0,0,0-4.965,5.216,54.433,54.433,0,0,1,7.285-3.31,9.716,9.716,0,0,1,3.916-3.923s.074,0,.044.052a16.04,16.04,0,0,0-3.539,3.694c1.478-.547,2.955-1.064,4.47-1.559.133-.044.185.163.059.207-2.66,1.042-5.379,2.135-8.016,3.4a30.789,30.789,0,0,0,9.708,0c.089,0,.126.111,0,.133a19.121,19.121,0,0,1-10.3.155,48.365,48.365,0,0,0-4.884,2.734,12.139,12.139,0,0,1,3.945.325,30.091,30.091,0,0,0,6.938.783.082.082,0,0,1,0,.163c-4.027.687-7.832-1.138-11.821-.665a30.524,30.524,0,0,0-4.152,3.4,31.031,31.031,0,0,0-6.058,8.548c-1.685,3.421-2.593,7.041-3.953,10.573a.126.126,0,1,1-.244-.066C405.445,355.353,408.91,347.677,413.986,342.712Z" transform="translate(-373.807 -289.816)" fill="#263238"/>
      <path id="Path_4473" data-name="Path 4473" d="M433.856,333.365a4.671,4.671,0,0,1,1.034-1.249,3.888,3.888,0,0,1,1.189-.887c.037,0,.059,0,.037.066-.332.369-.791.65-1.145,1s-.658.783-1.02,1.138a.061.061,0,0,1-.1-.074Z" transform="translate(-381.538 -290.022)" fill="#263238"/>
      <path id="Path_4474" data-name="Path 4474" d="M442.824,336.767c.6-.148,1.226-.14,1.832-.266a16.449,16.449,0,0,0,1.781-.532.074.074,0,0,1,.059.133,5.911,5.911,0,0,1-3.694.85C442.728,336.937,442.736,336.789,442.824,336.767Z" transform="translate(-383.865 -291.26)" fill="#263238"/>
      <path id="Path_4475" data-name="Path 4475" d="M394.98,361.97l.525,6,1.8,20.259h15.87l2.239-20.259.658-6Z" transform="translate(-371.388 -298.051)" fill="#455a64"/>
      <path id="Path_4476" data-name="Path 4476" d="M394.98,361.97l.525,6h19.9l.658-6Z" transform="translate(-371.388 -298.051)" fill="#263238"/>
      <rect id="Rectangle_1133" data-name="Rectangle 1133" width="24.233" height="4.869" transform="translate(46.259 67.148) rotate(180)" fill="#455a64"/>
    </g>
    <g id="freepik--Floor--inject-3" transform="translate(46.98 307.51)">
      <path id="Path_4477" data-name="Path 4477" d="M46.98,397.312l37.5-.177,37.5-.066,75-.118,75,.118,37.5.066,37.5.177-37.5.185-37.5.066-75,.118-75-.118-37.5-.066Z" transform="translate(-46.98 -396.95)" fill="#263238"/>
    </g>
    <g id="freepik--Screen--inject-3" transform="translate(162.136 54.5)">
      <path id="Path_4478" data-name="Path 4478" d="M337.722,69.189V308.612c0,6.768-5.068,12.242-11.319,12.242H214.664c-6.265,0-11.334-5.475-11.334-12.242V69.189c0-13.786,5.068-14.459,11.334-14.459h22.409c1.3,0,2.364,1.478,2.364,3.31v.791c0,4.293,2.349,4.307,5.231,4.307h51.762c2.911,0,5.246,0,5.246-4.307V58.04c0-1.832,1.049-3.31,2.372-3.31h22.379C332.654,54.73,337.722,56.562,337.722,69.189Z" transform="translate(-202.971 -54.56)" fill="#f4ede6"/>
      <path id="Path_4479" data-name="Path 4479" d="M337.722,69.189V308.612c0,6.768-5.068,12.242-11.319,12.242H214.664c-6.265,0-11.334-5.475-11.334-12.242V69.189c0-13.786,5.068-14.459,11.334-14.459h22.409c1.3,0,2.364,1.478,2.364,3.31v.791c0,4.293,2.349,4.307,5.231,4.307h51.762c2.911,0,5.246,0,5.246-4.307V58.04c0-1.832,1.049-3.31,2.372-3.31h22.379C332.654,54.73,337.722,56.562,337.722,69.189Z" transform="translate(-202.971 -54.56)" fill="#f4ede6"/>
      <path id="Path_4480" data-name="Path 4480" d="M337.6,69.129l.185,198.448v40.318a17.2,17.2,0,0,1-.229,3.133,13,13,0,0,1-2.578,5.689,12.762,12.762,0,0,1-2.268,2.216,12.139,12.139,0,0,1-2.785,1.478,10.588,10.588,0,0,1-3.1.628c-1.057.066-2.076,0-3.11.037H286.535l-49.6.052H215.224a13.506,13.506,0,0,1-3.162-.281,11.23,11.23,0,0,1-5.489-3.1,12.8,12.8,0,0,1-3.2-5.438,13.713,13.713,0,0,1-.5-3.14c-.059-1.064,0-2.076,0-3.118v-6.2l.185-198.448V70.385a51.314,51.314,0,0,1,.281-6.206l.236-1.544.355-1.522c.148-.5.332-.99.5-1.478a14.569,14.569,0,0,1,.739-1.4,7.388,7.388,0,0,1,2.15-2.283,8.637,8.637,0,0,1,2.955-1.13,35.059,35.059,0,0,1,6.214-.3h20.089a2.7,2.7,0,0,1,.8.059,2.106,2.106,0,0,1,.739.355,3.746,3.746,0,0,1,1.278,2.881,10.152,10.152,0,0,0,.273,3.044,2.734,2.734,0,0,0,.739,1.263,2.955,2.955,0,0,0,1.315.672,13.639,13.639,0,0,0,3.066.2h52.708a4.522,4.522,0,0,0,2.881-.835,2.83,2.83,0,0,0,.85-1.271,5.81,5.81,0,0,0,.259-1.478c0-.51,0-1.027,0-1.544a4.352,4.352,0,0,1,.318-1.529,3.029,3.029,0,0,1,.916-1.256,2.083,2.083,0,0,1,.694-.362,2.807,2.807,0,0,1,.783-.059H325.9a22.824,22.824,0,0,1,3.1.17A8.652,8.652,0,0,1,334.47,57.4a11.511,11.511,0,0,1,2.586,5.6A33.84,33.84,0,0,1,337.6,69.129Zm0,0a33.853,33.853,0,0,0-.554-6.169,11.526,11.526,0,0,0-2.571-5.549,8.652,8.652,0,0,0-5.482-2.542,22.7,22.7,0,0,0-3.088-.155H304.178a2.9,2.9,0,0,0-.739.066,2.157,2.157,0,0,0-.672.347,2.955,2.955,0,0,0-.887,1.219,8.545,8.545,0,0,0-.332,3.044,6.1,6.1,0,0,1-.266,1.537,2.955,2.955,0,0,1-.8,1.33,4.581,4.581,0,0,1-2.955.864H244.806a14.185,14.185,0,0,1-3.11-.207,3.2,3.2,0,0,1-1.419-.739,2.955,2.955,0,0,1-.82-1.352,10.787,10.787,0,0,1-.3-3,3.524,3.524,0,0,0-1.2-2.652,2.164,2.164,0,0,0-.658-.318,3.007,3.007,0,0,0-.739-.052H216.421a35.626,35.626,0,0,0-6.162.3,8.534,8.534,0,0,0-2.822,1.093,7.137,7.137,0,0,0-2.061,2.216c-.266.429-.458.909-.687,1.359a7.861,7.861,0,0,0-.48,1.478l-.355,1.478-.222,1.522a49.132,49.132,0,0,0-.273,6.169V101.43l.185,198.448v9.28a13.106,13.106,0,0,0,.473,2.955,12.05,12.05,0,0,0,3.007,5.172,10.587,10.587,0,0,0,5.172,2.955,12.961,12.961,0,0,0,3,.273h21.751l49.6.052h40.3a10.159,10.159,0,0,0,2.955-.6,11.165,11.165,0,0,0,2.675-1.411,12.258,12.258,0,0,0,2.18-2.106,12.56,12.56,0,0,0,2.5-5.482,17.467,17.467,0,0,0,.222-3.051v-40.3Z" transform="translate(-202.844 -54.5)" fill="#263238"/>
      <path id="Path_4481" data-name="Path 4481" d="M337.722,69.189v28.7H203.33v-28.7c0-13.786,5.068-14.459,11.334-14.459h22.409c1.3,0,2.364,1.478,2.364,3.31v.791c0,4.293,2.349,4.307,5.231,4.307h51.762c2.911,0,5.246,0,5.246-4.307V58.04c0-1.832,1.049-3.31,2.372-3.31h22.379C332.654,54.73,337.722,56.562,337.722,69.189Z" transform="translate(-202.971 -54.56)" fill="#e58f6b"/>
      <g id="freepik--u5Zjqx--inject-3" transform="translate(25.375 4.559)">
        <path id="Path_4482" data-name="Path 4482" d="M242.029,61.653l-.222.214-.118.126a2.955,2.955,0,0,0-4.174,0l-.111-.126-.214-.214h0c.089-.081.177-.163.273-.236a3.354,3.354,0,0,1,1.478-.687,1.041,1.041,0,0,0,.421-.059h.65a3.429,3.429,0,0,1,.739.185,3.3,3.3,0,0,1,.517.244,4.033,4.033,0,0,1,.5.347l.229.207Z" transform="translate(-237.19 -60.67)" fill="#f4ede6"/>
        <path id="Path_4483" data-name="Path 4483" d="M238.44,63.014l-.34-.34a2.453,2.453,0,0,1,3.48,0l-.34.34a1.98,1.98,0,0,0-2.8,0Z" transform="translate(-237.428 -61.004)" fill="#f4ede6"/>
        <path id="Path_4484" data-name="Path 4484" d="M241.127,63.685l-.34.34a1.071,1.071,0,0,0-1.478,0l-.34-.34a1.478,1.478,0,0,1,2.157,0Z" transform="translate(-237.655 -61.335)" fill="#f4ede6"/>
        <path id="Path_4485" data-name="Path 4485" d="M240.636,64.619a.3.3,0,0,1-.3.3.31.31,0,1,1,0-.613.3.3,0,0,1,.3.31Z" transform="translate(-237.917 -61.619)" fill="#f4ede6"/>
      </g>
      <path id="Path_4486" data-name="Path 4486" d="M215.19,62.574a.894.894,0,1,1,.894.894A.894.894,0,0,1,215.19,62.574Z" transform="translate(-206.069 -56.375)" fill="#f4ede6"/>
      <path id="Path_4487" data-name="Path 4487" d="M219,62.574a.887.887,0,1,1,.257.632.894.894,0,0,1-.257-.632Z" transform="translate(-207.064 -56.375)" fill="#f4ede6"/>
      <path id="Path_4488" data-name="Path 4488" d="M222.79,62.574a.887.887,0,1,1,.26.634.894.894,0,0,1-.26-.634Z" transform="translate(-208.054 -56.375)" fill="#f4ede6"/>
      <path id="Path_4489" data-name="Path 4489" d="M226.58,62.574a.894.894,0,1,1,.894.894A.894.894,0,0,1,226.58,62.574Z" transform="translate(-209.044 -56.375)" fill="#f4ede6"/>
      <path id="Path_4490" data-name="Path 4490" d="M230.38,62.574a.894.894,0,1,1,.894.894A.894.894,0,0,1,230.38,62.574Z" transform="translate(-210.036 -56.375)" fill="#f4ede6"/>
      <path id="Path_4491" data-name="Path 4491" d="M369.025,64.339H361.77V61h7.255Zm-6.886-.369h6.516V61.355h-6.516Z" transform="translate(-244.352 -56.197)" fill="#f4ede6"/>
      <rect id="Rectangle_1134" data-name="Rectangle 1134" width="4.677" height="2.216" transform="translate(118.024 5.357)" fill="#f4ede6"/>
      <rect id="Rectangle_1135" data-name="Rectangle 1135" width="0.643" height="1.795" transform="translate(124.673 5.571)" fill="#f4ede6"/>
      <path id="Path_4492" data-name="Path 4492" d="M218.507,99.843l-3.967-3.716,3.967-3.716.613.65-3.266,3.066,3.266,3.066Z" transform="translate(-205.899 -64.401)" fill="#f4ede6"/>
      <path id="Path_4493" data-name="Path 4493" d="M269.943,97.075h-.857v1.515a.392.392,0,0,1-.776,0V94.474a.384.384,0,0,1,.384-.384h1.249a1.478,1.478,0,0,1,0,2.955Zm-.857-.739h.857a.739.739,0,1,0,0-1.433h-.857Z" transform="translate(-219.942 -64.84)" fill="#f4ede6"/>
      <path id="Path_4494" data-name="Path 4494" d="M275.537,97.83h-1.692l-.34.909a.406.406,0,0,1-.362.244.355.355,0,0,1-.133,0,.392.392,0,0,1-.229-.5l1.537-4.108a.4.4,0,0,1,.739,0l1.574,4.093a.392.392,0,0,1-.229.5.355.355,0,0,1-.133,0,.392.392,0,0,1-.355-.244Zm-.288-.739-.562-1.478-.569,1.478Z" transform="translate(-221.104 -64.848)" fill="#f4ede6"/>
      <path id="Path_4495" data-name="Path 4495" d="M278.853,97.708a.369.369,0,0,1,.51-.044,2.217,2.217,0,0,0,1.33.532,1.559,1.559,0,0,0,.872-.251.635.635,0,0,0,.3-.5.458.458,0,0,0-.059-.229.738.738,0,0,0-.214-.207,2.675,2.675,0,0,0-.953-.325h0a3.959,3.959,0,0,1-.894-.273,1.478,1.478,0,0,1-.65-.539,1.094,1.094,0,0,1-.163-.576,1.278,1.278,0,0,1,.562-1.012,2.061,2.061,0,0,1,1.2-.369,2.734,2.734,0,0,1,1.478.554.362.362,0,0,1,.1.5.355.355,0,0,1-.5.1,2.032,2.032,0,0,0-1.123-.443,1.33,1.33,0,0,0-.783.236.562.562,0,0,0-.266.436.333.333,0,0,0,.052.2.65.65,0,0,0,.192.177,2.4,2.4,0,0,0,.864.31h0a3.857,3.857,0,0,1,.96.288,1.655,1.655,0,0,1,.7.584,1.108,1.108,0,0,1,.163.591,1.352,1.352,0,0,1-.6,1.079,2.165,2.165,0,0,1-1.286.4,3,3,0,0,1-1.788-.739.377.377,0,0,1-.015-.473Z" transform="translate(-222.676 -64.793)" fill="#f4ede6"/>
      <path id="Path_4496" data-name="Path 4496" d="M285.058,97.707a.362.362,0,0,1,.5-.044,2.29,2.29,0,0,0,1.337.532,1.515,1.515,0,0,0,.864-.251.628.628,0,0,0,.3-.5.4.4,0,0,0-.066-.229.68.68,0,0,0-.207-.207,2.675,2.675,0,0,0-.953-.325h0a3.843,3.843,0,0,1-.894-.273,1.478,1.478,0,0,1-.65-.539,1.094,1.094,0,0,1-.163-.576,1.278,1.278,0,0,1,.562-1.012,2.046,2.046,0,0,1,1.2-.369,2.734,2.734,0,0,1,1.515.554.362.362,0,0,1-.4.6,2.01,2.01,0,0,0-1.116-.443,1.33,1.33,0,0,0-.783.236.562.562,0,0,0-.266.436.333.333,0,0,0,.052.2.739.739,0,0,0,.185.177,2.5,2.5,0,0,0,.872.31h0a3.96,3.96,0,0,1,.96.288,1.588,1.588,0,0,1,.695.584,1.049,1.049,0,0,1,.17.591,1.352,1.352,0,0,1-.6,1.079,2.165,2.165,0,0,1-1.286.4,3,3,0,0,1-1.788-.739.369.369,0,0,1-.052-.473Z" transform="translate(-224.3 -64.793)" fill="#f4ede6"/>
      <path id="Path_4497" data-name="Path 4497" d="M297.639,94.687l-1.707,4.056a.184.184,0,0,1,0,.066h0l-.037.044h-.052a.126.126,0,0,1-.059.044h-.273a.178.178,0,0,1-.059-.044H295.4V98.81h0a.183.183,0,0,1,0-.066l-.909-2.157-.916,2.157v.066l-.037.044h-.044l-.052.044h-.281a.178.178,0,0,1-.059-.044h-.052l-.037-.044h0a.465.465,0,0,0,0-.066l-2.024-4.056a.4.4,0,0,1,.739-.3L293.1,97.62l.9-2.143a.377.377,0,0,1,.362-.236.406.406,0,0,1,.325.273l.894,2.143,1.359-3.229a.384.384,0,0,1,.51-.2A.369.369,0,0,1,297.639,94.687Z" transform="translate(-225.858 -64.853)" fill="#f4ede6"/>
      <path id="Path_4498" data-name="Path 4498" d="M305.174,94.649a2.571,2.571,0,0,1,0,3.532,2.3,2.3,0,0,1-1.662.739,2.349,2.349,0,0,1-1.707-.739,2.593,2.593,0,0,1,0-3.532,2.313,2.313,0,0,1,1.707-.739,2.261,2.261,0,0,1,1.662.739Zm-.089,1.766a1.84,1.84,0,0,0-.473-1.219,1.478,1.478,0,0,0-2.216,0,1.766,1.766,0,0,0-.473,1.219,1.721,1.721,0,0,0,.473,1.212,1.478,1.478,0,0,0,2.216,0A1.788,1.788,0,0,0,305.085,96.415Z" transform="translate(-228.509 -64.793)" fill="#f4ede6"/>
      <path id="Path_4499" data-name="Path 4499" d="M312.617,98.39a.384.384,0,0,1-.244.488.584.584,0,0,1-.155,0h0a.562.562,0,0,1-.273-.074.783.783,0,0,1-.222-.244,1.936,1.936,0,0,1-.14-.835.569.569,0,0,0-.089-.3.6.6,0,0,0-.207-.2,1.2,1.2,0,0,0-.392-.17h-.82v1.515a.392.392,0,0,1-.392.384.384.384,0,0,1-.384-.384V94.474a.384.384,0,0,1,.384-.384h1.249a1.478,1.478,0,0,1,.946,2.645,1.02,1.02,0,0,1,.244.259,1.3,1.3,0,0,1,.229.739,1.61,1.61,0,0,0,0,.406.384.384,0,0,1,.266.251Zm-.975-2.8a.739.739,0,0,0-.739-.739h-.857v1.433h.857A.739.739,0,0,0,311.642,95.59Z" transform="translate(-230.648 -64.839)" fill="#f4ede6"/>
      <path id="Path_4500" data-name="Path 4500" d="M315.32,98.589V94.474a.384.384,0,0,1,.384-.384h.857a2.446,2.446,0,0,1,0,4.884h-.82a.384.384,0,0,1-.421-.384Zm.776-.392h.465a1.67,1.67,0,0,0,0-3.332h-.428Z" transform="translate(-232.22 -64.84)" fill="#f4ede6"/>
      <path id="Path_4501" data-name="Path 4501" d="M228.71,269.819v-3.051a.281.281,0,0,1,.288-.288h1.692a.288.288,0,0,1,.281.288.3.3,0,0,1-.281.288h-1.4V268h1.2a.288.288,0,1,1,0,.576h-1.2v.953h1.4a.288.288,0,0,1,0,.569H229a.281.281,0,0,1-.288-.281Z" transform="translate(-209.6 -109.864)" fill="#263238"/>
      <path id="Path_4502" data-name="Path 4502" d="M234.963,268.991v1.241a.273.273,0,0,1-.281.273.281.281,0,0,1-.273-.273v-1.241a.539.539,0,0,0-.539-.517.525.525,0,0,0-.517.532v1.226a.317.317,0,0,1,0,.037h0v.037h0a.288.288,0,0,1-.259.163h-.052a.281.281,0,0,1-.222-.273v-1.226h0V268.2a.273.273,0,0,1,.273-.281.251.251,0,0,1,.244.155,1.138,1.138,0,0,1,.554-.155,1.093,1.093,0,0,0,1.625,0,1.079,1.079,0,0,1,1.079,1.086v1.226a.273.273,0,0,1-.273.273.281.281,0,0,1-.281-.273v-1.226a.532.532,0,0,0-1.057,0Z" transform="translate(-210.673 -110.24)" fill="#263238"/>
      <path id="Path_4503" data-name="Path 4503" d="M241.538,269.22v1.012a.273.273,0,0,1-.273.273.281.281,0,0,1-.273-.222,1.2,1.2,0,0,1-1.566-.155,1.342,1.342,0,0,1,0-1.818,1.2,1.2,0,0,1,.879-.392,1.182,1.182,0,0,1,.687.229.288.288,0,0,1,.273-.229.281.281,0,0,1,.273.281Zm-.554,0a.739.739,0,0,0-.2-.532.636.636,0,0,0-.48-.214.621.621,0,0,0-.48.214.809.809,0,0,0,0,1.064.643.643,0,0,0,.48.207.65.65,0,0,0,.48-.207A.739.739,0,0,0,240.984,269.22Z" transform="translate(-212.306 -110.24)" fill="#263238"/>
      <path id="Path_4504" data-name="Path 4504" d="M244.341,266.912a.273.273,0,0,1-.281.281.281.281,0,0,1-.281-.281V266.8a.281.281,0,0,1,.281-.281.273.273,0,0,1,.281.281Zm0,.931v2.024a.281.281,0,0,1-.562,0v-2.024a.281.281,0,1,1,.562,0Z" transform="translate(-213.536 -109.874)" fill="#263238"/>
      <path id="Path_4505" data-name="Path 4505" d="M245.9,266.52a.288.288,0,0,1,.288.288v3.022a.288.288,0,0,1-.569,0v-3.051A.288.288,0,0,1,245.9,266.52Z" transform="translate(-214.016 -109.874)" fill="#263238"/>
      <rect id="Rectangle_1136" data-name="Rectangle 1136" width="97.953" height="8.674" transform="translate(18.578 163.953)" fill="#ebebeb"/>
      <path id="Path_4506" data-name="Path 4506" d="M231.382,282.383a1.286,1.286,0,0,1,1.263-1.293,1.241,1.241,0,0,1,1.249,1.2h0a.125.125,0,0,1,0,.052.251.251,0,0,1-.266.207h-1.648a.635.635,0,0,0,.177.34.776.776,0,0,0,.495.229.879.879,0,0,0,.539-.126.273.273,0,0,1,.384,0,.236.236,0,0,1,0,.332,1.308,1.308,0,0,1-2.216-.953Zm.561-.251h1.478a.85.85,0,0,0-.739-.547A.739.739,0,0,0,231.944,282.132Z" transform="translate(-210.292 -113.68)" fill="#c7c7c7"/>
      <path id="Path_4507" data-name="Path 4507" d="M238.073,282.122v1.241a.273.273,0,0,1-.273.273.281.281,0,0,1-.281-.273v-1.241a.539.539,0,0,0-.532-.517.525.525,0,0,0-.525.532v1.226h0a.288.288,0,0,1-.259.163h-.052a.281.281,0,0,1-.222-.273v-1.226h0v-.805a.276.276,0,0,1,.525-.126,1.094,1.094,0,0,1,.554-.155,1.064,1.064,0,0,1,.813.362,1.042,1.042,0,0,1,.813-.362,1.079,1.079,0,0,1,1.071,1.086v1.226a.273.273,0,0,1-.273.273.281.281,0,0,1-.281-.273v-1.226a.525.525,0,0,0-.517-.532.539.539,0,0,0-.561.628Z" transform="translate(-211.486 -113.64)" fill="#c7c7c7"/>
      <path id="Path_4508" data-name="Path 4508" d="M244.65,282.39V283.4a.273.273,0,0,1-.273.273.288.288,0,0,1-.273-.222,1.16,1.16,0,0,1-.687.222,1.189,1.189,0,0,1-.879-.377,1.315,1.315,0,0,1-.347-.909,1.3,1.3,0,0,1,.347-.909,1.2,1.2,0,0,1,.879-.392,1.16,1.16,0,0,1,.687.229.3.3,0,0,1,.273-.229.281.281,0,0,1,.273.281Zm-.547,0a.739.739,0,0,0-.207-.532.643.643,0,0,0-.96,0,.809.809,0,0,0,0,1.064.658.658,0,0,0,.96,0A.739.739,0,0,0,244.1,282.39Z" transform="translate(-213.12 -113.68)" fill="#c7c7c7"/>
      <path id="Path_4509" data-name="Path 4509" d="M247.453,280.066a.281.281,0,1,1-.554,0v-.111a.281.281,0,1,1,.554,0Zm0,.931v2.024a.281.281,0,0,1-.554,0V281a.281.281,0,1,1,.554,0Z" transform="translate(-214.349 -113.298)" fill="#c7c7c7"/>
      <path id="Path_4510" data-name="Path 4510" d="M249.041,279.69a.3.3,0,0,1,.3.288v3.051a.288.288,0,0,1-.3.281.281.281,0,0,1-.281-.281v-3.051a.288.288,0,0,1,.281-.288Z" transform="translate(-214.836 -113.314)" fill="#c7c7c7"/>
      <path id="Path_4511" data-name="Path 4511" d="M252.54,282.39V283.4a.266.266,0,0,1-.273.273.273.273,0,0,1-.266-.222,1.2,1.2,0,0,1-1.566-.155,1.342,1.342,0,0,1,0-1.818,1.2,1.2,0,0,1,.879-.392,1.182,1.182,0,0,1,.687.229.281.281,0,0,1,.266-.229.273.273,0,0,1,.273.281Zm-.547,0a.739.739,0,0,0-.2-.532.643.643,0,0,0-.48-.214.621.621,0,0,0-.48.214.809.809,0,0,0,0,1.064.643.643,0,0,0,.48.207.665.665,0,0,0,.48-.207A.739.739,0,0,0,251.994,282.39Z" transform="translate(-215.181 -113.68)" fill="#c7c7c7"/>
      <path id="Path_4512" data-name="Path 4512" d="M257.1,283.051a.281.281,0,0,1-.281.273.273.273,0,0,1-.273-.222,1.219,1.219,0,0,1-.7.222,1.293,1.293,0,1,1,0-2.586,1.174,1.174,0,0,1,.687.222v-.975a.288.288,0,0,1,.569,0v2.047h0Zm-1.256-1.744a.658.658,0,0,0-.488.207.739.739,0,0,0-.207.525.694.694,0,0,0,.207.51.65.65,0,0,0,.968,0,.7.7,0,0,0,.207-.51.739.739,0,0,0-.207-.525.65.65,0,0,0-.51-.207Z" transform="translate(-216.349 -113.328)" fill="#c7c7c7"/>
      <path id="Path_4513" data-name="Path 4513" d="M261,281.366a.281.281,0,0,1-.273.281.5.5,0,0,0-.31.1.739.739,0,0,0-.236.244,1.726,1.726,0,0,0-.214.436v.983a.273.273,0,0,1-.281.273.266.266,0,0,1-.273-.273v-2.039a.266.266,0,0,1,.273-.266.273.273,0,0,1,.281.266v.037a.74.74,0,0,1,.111-.1,1.13,1.13,0,0,1,.65-.2.266.266,0,0,1,.273.266Z" transform="translate(-217.618 -113.682)" fill="#c7c7c7"/>
      <path id="Path_4514" data-name="Path 4514" d="M261.88,282.383a1.286,1.286,0,0,1,1.263-1.293,1.241,1.241,0,0,1,1.249,1.2h0a.125.125,0,0,1,0,.052.251.251,0,0,1-.266.207h-1.648a.687.687,0,0,0,.177.34.8.8,0,0,0,.5.229.879.879,0,0,0,.539-.126.288.288,0,0,1,.392,0,.236.236,0,0,1,0,.332,1.308,1.308,0,0,1-.931.34A1.278,1.278,0,0,1,261.88,282.383Zm.569-.251h1.478a.85.85,0,0,0-.739-.547A.739.739,0,0,0,262.449,282.132Z" transform="translate(-218.263 -113.68)" fill="#c7c7c7"/>
      <path id="Path_4515" data-name="Path 4515" d="M266.191,282.95a.273.273,0,0,1,.392,0,1,1,0,0,0,.569.229.665.665,0,0,0,.347-.1.207.207,0,0,0,.1-.155.1.1,0,0,0,0-.052.178.178,0,0,0-.066-.059,1.234,1.234,0,0,0-.414-.148h0a2.009,2.009,0,0,1-.451-.133.827.827,0,0,1-.355-.3.6.6,0,0,1-.089-.325.739.739,0,0,1,.3-.569,1.108,1.108,0,0,1,.635-.192,1.278,1.278,0,0,1,.776.288.288.288,0,0,1,.089.384.281.281,0,0,1-.384.066.931.931,0,0,0-.48-.185.532.532,0,0,0-.31.089.155.155,0,0,0-.081.118v.044c0,.044,0,0,.052.052a1.286,1.286,0,0,0,.377.126h0a2.032,2.032,0,0,1,.48.155.738.738,0,0,1,.369.3.694.694,0,0,1,.1.34.739.739,0,0,1-.325.6,1.153,1.153,0,0,1-.672.207,1.478,1.478,0,0,1-.923-.355.281.281,0,0,1-.03-.421Z" transform="translate(-219.368 -113.693)" fill="#c7c7c7"/>
      <path id="Path_4516" data-name="Path 4516" d="M269.571,282.95a.266.266,0,0,1,.384,0,1,1,0,0,0,.569.229.7.7,0,0,0,.355-.1.192.192,0,0,0,.089-.155.059.059,0,0,0,0-.052s0-.037-.066-.059a1.234,1.234,0,0,0-.414-.148h0a2.009,2.009,0,0,1-.451-.133.887.887,0,0,1-.362-.3.665.665,0,0,1-.089-.325.739.739,0,0,1,.31-.569,1.093,1.093,0,0,1,.635-.192,1.3,1.3,0,0,1,.776.288.272.272,0,1,1-.3.451.909.909,0,0,0-.473-.185.518.518,0,0,0-.31.089.155.155,0,0,0-.081.118.082.082,0,0,0,0,.044.228.228,0,0,0,.059.052,1.212,1.212,0,0,0,.377.126h0a2.033,2.033,0,0,1,.48.155.739.739,0,0,1,.369.3.62.62,0,0,1,.1.34.739.739,0,0,1-.325.6,1.138,1.138,0,0,1-.672.207,1.478,1.478,0,0,1-.916-.355.273.273,0,0,1-.037-.421Z" transform="translate(-220.25 -113.693)" fill="#c7c7c7"/>
      <path id="Path_4517" data-name="Path 4517" d="M276.532,281.515a1.737,1.737,0,0,1-.2.827h0a1.109,1.109,0,0,1-.126.185.827.827,0,0,1-.406.244.406.406,0,0,1-.133,0,.443.443,0,0,1-.392-.192.421.421,0,0,1-.089-.155.99.99,0,0,1-.465.118.96.96,0,0,1-.739-.31,1.086,1.086,0,0,1-.288-.739,1.064,1.064,0,0,1,.288-.739.968.968,0,0,1,.739-.318,1,1,0,0,1,.739.318,1.057,1.057,0,0,1,.281.739v.672h0a.392.392,0,0,0,.066-.081,1.256,1.256,0,0,0,.133-.562,1.234,1.234,0,1,0-1.241,1.234,1.383,1.383,0,0,0,.31,0,.281.281,0,0,1,.347.2.3.3,0,0,1-.207.355,1.81,1.81,0,1,1,1.359-1.758Zm-1.382,0a.5.5,0,0,0-.126-.347.421.421,0,0,0-.6,0,.539.539,0,0,0,0,.694.414.414,0,0,0,.3.126.421.421,0,0,0,.3-.126.5.5,0,0,0,.163-.347Z" transform="translate(-221.139 -113.329)" fill="#c7c7c7"/>
      <path id="Path_4518" data-name="Path 4518" d="M282.243,282.122v1.241a.273.273,0,0,1-.273.273.281.281,0,0,1-.281-.273v-1.241a.539.539,0,0,0-.532-.517.525.525,0,0,0-.525.532v1.226h0a.288.288,0,0,1-.259.163h-.052a.281.281,0,0,1-.222-.273v-1.226h0v-.805a.276.276,0,0,1,.525-.126,1.093,1.093,0,0,1,.554-.155,1.064,1.064,0,0,1,.813.362,1.027,1.027,0,0,1,.805-.362,1.079,1.079,0,0,1,1.079,1.086v1.226a.273.273,0,0,1-.273.273.281.281,0,0,1-.281-.273v-1.226a.525.525,0,0,0-.525-.532.539.539,0,0,0-.554.628Z" transform="translate(-223.022 -113.64)" fill="#c7c7c7"/>
      <path id="Path_4519" data-name="Path 4519" d="M288.818,282.39V283.4a.273.273,0,0,1-.273.273.288.288,0,0,1-.273-.222,1.16,1.16,0,0,1-.687.222,1.189,1.189,0,0,1-.879-.377,1.342,1.342,0,0,1,0-1.818,1.2,1.2,0,0,1,.879-.392,1.159,1.159,0,0,1,.687.229.3.3,0,0,1,.273-.229.281.281,0,0,1,.273.281Zm-.547,0a.739.739,0,0,0-.207-.532.643.643,0,0,0-.96,0,.809.809,0,0,0,0,1.064.658.658,0,0,0,.96,0,.739.739,0,0,0,.244-.532Z" transform="translate(-224.654 -113.68)" fill="#c7c7c7"/>
      <path id="Path_4520" data-name="Path 4520" d="M291.623,280.066a.281.281,0,1,1-.554,0v-.111a.281.281,0,1,1,.554,0Zm0,.931v2.024a.281.281,0,0,1-.554,0V281a.281.281,0,1,1,.554,0Z" transform="translate(-225.886 -113.298)" fill="#c7c7c7"/>
      <path id="Path_4521" data-name="Path 4521" d="M293.211,279.69a.3.3,0,0,1,.3.288v3.051a.288.288,0,0,1-.3.281.281.281,0,0,1-.281-.281v-3.051a.288.288,0,0,1,.281-.288Z" transform="translate(-226.373 -113.314)" fill="#c7c7c7"/>
      <path id="Path_4522" data-name="Path 4522" d="M294.937,283.6a.329.329,0,1,1-.347.392A.392.392,0,0,1,294.937,283.6Z" transform="translate(-226.806 -114.335)" fill="#c7c7c7"/>
      <path id="Path_4523" data-name="Path 4523" d="M295.85,282.39a1.323,1.323,0,0,1,1.315-1.3,1.359,1.359,0,0,1,.82.288.274.274,0,0,1-.332.436.783.783,0,0,0-.488-.17.739.739,0,1,0,0,1.478.842.842,0,0,0,.488-.163.274.274,0,0,1,.332.436,1.4,1.4,0,0,1-.82.273,1.308,1.308,0,0,1-1.315-1.278Z" transform="translate(-227.135 -113.68)" fill="#c7c7c7"/>
      <path id="Path_4524" data-name="Path 4524" d="M300.182,283.3a1.256,1.256,0,0,1-.362-.909,1.315,1.315,0,0,1,.362-.909,1.219,1.219,0,0,1,.887-.392,1.175,1.175,0,0,1,.864.392,1.286,1.286,0,0,1,.362.909,1.227,1.227,0,0,1-.362.909,1.153,1.153,0,0,1-.864.4A1.2,1.2,0,0,1,300.182,283.3Zm.207-.909a.827.827,0,0,0,.185.547.68.68,0,0,0,.5.192.65.65,0,0,0,.473-.192.813.813,0,0,0,0-1.086.705.705,0,0,0-.968,0,.82.82,0,0,0-.185.539Z" transform="translate(-228.172 -113.68)" fill="#c7c7c7"/>
      <path id="Path_4525" data-name="Path 4525" d="M306.533,282.122v1.241a.273.273,0,0,1-.273.273.281.281,0,0,1-.281-.273v-1.241a.539.539,0,0,0-.532-.517.525.525,0,0,0-.525.532v1.226h0a.288.288,0,0,1-.259.163h-.052a.281.281,0,0,1-.222-.273v-1.226h0v-.805a.276.276,0,0,1,.525-.126,1.094,1.094,0,0,1,.554-.155,1.064,1.064,0,0,1,.813.362,1.027,1.027,0,0,1,.805-.362,1.079,1.079,0,0,1,1.079,1.086v1.226a.273.273,0,0,1-.273.273.281.281,0,0,1-.281-.273v-1.226a.525.525,0,0,0-.525-.532.539.539,0,0,0-.554.628Z" transform="translate(-229.366 -113.64)" fill="#c7c7c7"/>
      <path id="Path_4526" data-name="Path 4526" d="M233.99,238.475l11.134-.089,11.134-.03,22.276-.067,22.268.067,11.134.03,11.134.089-11.134.089L300.8,238.6l-22.268.059-22.276-.059-11.134-.037Z" transform="translate(-210.979 -102.501)" fill="#263238"/>
      <path id="Path_4527" data-name="Path 4527" d="M245.12,245.155l9.08-.089,9.08-.03,18.16-.066,18.16.066,9.073.03,9.08.089-9.08.089-9.073.037-18.16.059-18.16-.059-9.08-.037Z" transform="translate(-213.886 -104.246)" fill="#263238"/>
      <path id="Path_4528" data-name="Path 4528" d="M227.99,310.275l12.242-.1,12.242-.03,24.492-.059,24.485.059,12.25.03,12.242.1-12.242.089-12.25.03-24.485.059-24.492-.059-12.242-.03Z" transform="translate(-209.412 -121.254)" fill="#ebebeb"/>
      <rect id="Rectangle_1137" data-name="Rectangle 1137" width="76.653" height="11.902" transform="translate(29.225 201.854)" fill="#e58f6b"/>
      <path id="Path_4529" data-name="Path 4529" d="M263.019,335.973a.842.842,0,0,0-.377-.7,1.337,1.337,0,0,0-.539-.229h-1.167v1.84a.163.163,0,0,1-.325,0v-4.337a.155.155,0,0,1,.148-.155h1.33a1.33,1.33,0,0,1,.561,2.527h.066a1.175,1.175,0,0,1,.621,1.034,1.913,1.913,0,0,0,.059.539.273.273,0,0,0,.074.118.177.177,0,0,1,.177.1.185.185,0,0,1-.111.214h-.089a.37.37,0,0,1-.3-.214A1.633,1.633,0,0,1,263.019,335.973Zm-.931-3.273h-1.153v2.01h1.182a1,1,0,0,0,0-2.01Z" transform="translate(-217.931 -127.078)" fill="#f4ede6"/>
      <path id="Path_4530" data-name="Path 4530" d="M265.86,335.922a1.581,1.581,0,0,1,3.155-.118h0a.155.155,0,0,1-.163.148h-2.674a1.286,1.286,0,0,0,1.263,1.256,1.212,1.212,0,0,0,1.049-.6.17.17,0,0,1,.214-.052.177.177,0,0,1,.059.229,1.566,1.566,0,0,1-1.323.739,1.6,1.6,0,0,1-1.581-1.6Zm.34-.259h2.468a1.249,1.249,0,0,0-2.468,0Z" transform="translate(-219.303 -127.596)" fill="#f4ede6"/>
      <path id="Path_4531" data-name="Path 4531" d="M271.332,336.849a.163.163,0,0,1,.229,0,1.706,1.706,0,0,0,1,.384.931.931,0,0,0,.613-.207.488.488,0,0,0,.251-.4.517.517,0,0,0-.236-.4,1.633,1.633,0,0,0-.694-.236h0a1.81,1.81,0,0,1-.739-.251.68.68,0,0,1-.355-.584.82.82,0,0,1,.355-.643,1.4,1.4,0,0,1,.8-.214,1.758,1.758,0,0,1,.968.347.177.177,0,0,1,.052.229.155.155,0,0,1-.222.044,1.477,1.477,0,0,0-.8-.325,1,1,0,0,0-.621.185.5.5,0,0,0-.207.377.4.4,0,0,0,.185.325,1.7,1.7,0,0,0,.665.222h0a2.372,2.372,0,0,1,.791.266.82.82,0,0,1,.369.665.842.842,0,0,1-.377.665,1.33,1.33,0,0,1-.805.259,1.958,1.958,0,0,1-1.2-.465.155.155,0,0,1-.015-.244Z" transform="translate(-220.718 -127.576)" fill="#f4ede6"/>
      <path id="Path_4532" data-name="Path 4532" d="M275.77,335.922a1.581,1.581,0,0,1,3.155-.118h0a.155.155,0,0,1-.163.148h-2.674a1.286,1.286,0,0,0,1.263,1.256,1.212,1.212,0,0,0,1.049-.6.163.163,0,1,1,.266.177,1.544,1.544,0,0,1-1.315.739A1.6,1.6,0,0,1,275.77,335.922Zm.34-.259h2.468a1.249,1.249,0,0,0-2.468,0Z" transform="translate(-221.891 -127.596)" fill="#f4ede6"/>
      <path id="Path_4533" data-name="Path 4533" d="M282.231,333.929a.17.17,0,0,1-.155.163h-.392v2.372a.259.259,0,0,0,.244.244.163.163,0,1,1,0,.325.554.554,0,0,1-.576-.569v-2.372h-.406c-.155,0-.155-.081-.155-.163s0-.155.155-.155h.406v-1.212a.177.177,0,0,1,.163-.163.185.185,0,0,1,.17.163v1.212h.421a.162.162,0,0,1,.126.155Z" transform="translate(-223.202 -127.08)" fill="#f4ede6"/>
      <path id="Path_4534" data-name="Path 4534" d="M287.59,332.525a.155.155,0,0,1,.163-.155h1.315a1.33,1.33,0,0,1,0,2.652l-1.182.03v1.825a.163.163,0,0,1-.325,0Zm1.478,2.18a1,1,0,1,0,0-2.01h-1.182v2.01Z" transform="translate(-224.97 -127.073)" fill="#f4ede6"/>
      <path id="Path_4535" data-name="Path 4535" d="M295.366,334.42v2.955a.163.163,0,1,1-.318,0v-.488a1.478,1.478,0,0,1-1.226.65,1.633,1.633,0,0,1,0-3.258,1.514,1.514,0,0,1,1.226.635v-.48a.159.159,0,0,1,.318-.015Zm-.318,1.478a1.226,1.226,0,1,0-1.226,1.315,1.271,1.271,0,0,0,1.212-1.323Z" transform="translate(-226.208 -127.571)" fill="#f4ede6"/>
      <path id="Path_4536" data-name="Path 4536" d="M297.989,336.849a.155.155,0,0,1,.222,0,1.744,1.744,0,0,0,1,.384.96.96,0,0,0,.621-.207.48.48,0,0,0,.244-.4.532.532,0,0,0-.229-.4,1.67,1.67,0,0,0-.694-.236h0a1.892,1.892,0,0,1-.739-.251.687.687,0,0,1-.347-.584.835.835,0,0,1,.347-.643,1.478,1.478,0,0,1,.805-.214,1.781,1.781,0,0,1,.968.347.163.163,0,0,1,.044.229.148.148,0,0,1-.214.044,1.478,1.478,0,0,0-.8-.325.983.983,0,0,0-.621.185.5.5,0,0,0-.207.377.4.4,0,0,0,.185.325,1.7,1.7,0,0,0,.665.222h0a2.431,2.431,0,0,1,.791.266.82.82,0,0,1,.369.665.842.842,0,0,1-.377.665,1.352,1.352,0,0,1-.813.259,1.98,1.98,0,0,1-1.219-.525A.148.148,0,0,1,297.989,336.849Z" transform="translate(-227.685 -127.577)" fill="#f4ede6"/>
      <path id="Path_4537" data-name="Path 4537" d="M302.333,336.849a.163.163,0,0,1,.229,0,1.722,1.722,0,0,0,1,.384.96.96,0,0,0,.621-.207.5.5,0,0,0,.244-.4.532.532,0,0,0-.229-.4,1.67,1.67,0,0,0-.694-.236h0a1.891,1.891,0,0,1-.739-.251.672.672,0,0,1-.347-.584.813.813,0,0,1,.347-.643,1.4,1.4,0,0,1,.8-.214,1.81,1.81,0,0,1,.975.347.17.17,0,0,1,.044.229.155.155,0,0,1-.222.044,1.478,1.478,0,0,0-.8-.325.96.96,0,0,0-.613.185.5.5,0,0,0-.207.377.4.4,0,0,0,.185.325,1.655,1.655,0,0,0,.665.222h0a2.431,2.431,0,0,1,.791.266.813.813,0,0,1,.362.665.835.835,0,0,1-.369.665,1.367,1.367,0,0,1-.813.259,1.98,1.98,0,0,1-1.2-.465.155.155,0,0,1-.022-.244Z" transform="translate(-228.816 -127.576)" fill="#f4ede6"/>
      <path id="Path_4538" data-name="Path 4538" d="M307.969,337.5a.111.111,0,0,1-.066-.074l-1.226-2.911a.163.163,0,0,1,.081-.207.155.155,0,0,1,.207.089l1.086,2.564.739-1.788a.17.17,0,0,1,.148-.1.192.192,0,0,1,.163.1l.739,1.788,1.071-2.564a.162.162,0,0,1,.207-.089.155.155,0,0,1,.089.207l-1.219,2.9a.17.17,0,0,1-.059.081.118.118,0,0,1-.081.037h0a.162.162,0,0,1-.126-.1h0l-.739-1.8-.739,1.8h0a.17.17,0,0,1-.14.1h-.059Z" transform="translate(-229.96 -127.575)" fill="#f4ede6"/>
      <path id="Path_4539" data-name="Path 4539" d="M315.814,334.259a1.633,1.633,0,1,1-1.544,1.625,1.588,1.588,0,0,1,1.544-1.625Zm0,2.955a1.315,1.315,0,1,0-1.226-1.315,1.278,1.278,0,0,0,1.226,1.3Z" transform="translate(-231.946 -127.565)" fill="#f4ede6"/>
      <path id="Path_4540" data-name="Path 4540" d="M319.92,334.422a.162.162,0,0,1,.17-.163.155.155,0,0,1,.148.162v.739l.052-.081a1.574,1.574,0,0,1,1.3-.8.163.163,0,1,1,0,.325,1.182,1.182,0,0,0-.946.532,3.207,3.207,0,0,0-.392.739.111.111,0,0,0,0,.059v1.426a.155.155,0,0,1-.148.163.163.163,0,0,1-.17-.163Z" transform="translate(-233.422 -127.566)" fill="#f4ede6"/>
      <path id="Path_4541" data-name="Path 4541" d="M326.2,336.387a1.559,1.559,0,0,1-1.249.635,1.633,1.633,0,0,1,0-3.258,1.559,1.559,0,0,1,1.249.635v-1.877a.163.163,0,0,1,.325,0v4.337a.163.163,0,1,1-.325,0Zm0-.938v-.1a1.3,1.3,0,1,0,0,.1Z" transform="translate(-234.338 -127.07)" fill="#f4ede6"/>
      <circle id="Ellipse_22" data-name="Ellipse 22" cx="17.119" cy="17.119" r="17.119" transform="translate(70.473 62.099)" fill="#455a64"/>
      <circle id="Ellipse_23" data-name="Ellipse 23" cx="11.696" cy="11.696" r="11.696" transform="translate(30.392 92.213)" fill="#ebebeb"/>
      <path id="Path_4542" data-name="Path 4542" d="M299.226,153.114v12.264h-3.472V153.114a7.924,7.924,0,1,0-15.811,0v12.264H276.47V153.114c0-6.686,5.105-12.124,11.378-12.124S299.226,146.428,299.226,153.114Z" transform="translate(-222.074 -77.089)" fill="#c7c7c7"/>
      <path id="Path_4543" data-name="Path 4543" d="M276.47,161.72l3.472.14v8.947H276.47Z" transform="translate(-222.074 -82.503)" fill="#a6a6a6"/>
      <path id="Path_4544" data-name="Path 4544" d="M306.042,162.928v8.157H302.57v-8.3Z" transform="translate(-228.89 -82.78)" fill="#a6a6a6"/>
      <rect id="Rectangle_1138" data-name="Rectangle 1138" width="31.651" height="28.711" transform="translate(49.949 81.315)" fill="#e58f6b"/>
      <rect id="Rectangle_1139" data-name="Rectangle 1139" width="15.826" height="28.711" transform="translate(65.774 81.315)" opacity="0.1"/>
      <path id="Path_4545" data-name="Path 4545" d="M292.157,183.568l1.33,6.287h-5.63l1.33-6.287a2.815,2.815,0,1,1,2.955,0Z" transform="translate(-225.046 -86.848)" fill="#263238"/>
      <path id="Path_4546" data-name="Path 4546" d="M281.368,380.747a1.869,1.869,0,1,1-.545-1.327A1.869,1.869,0,0,1,281.368,380.747Z" transform="translate(-222.377 -139.217)" fill="#dbdbdb"/>
      <path id="Path_4547" data-name="Path 4547" d="M296.109,380.407a2.83,2.83,0,1,1-2.83-2.837A2.83,2.83,0,0,1,296.109,380.407Z" transform="translate(-225.725 -138.878)" fill="#c7c7c7"/>
      <path id="Path_4548" data-name="Path 4548" d="M309.6,380.747a1.877,1.877,0,1,1-1.877-1.877,1.877,1.877,0,0,1,1.877,1.877Z" transform="translate(-229.747 -139.217)" fill="#dbdbdb"/>
      <path id="Path_4549" data-name="Path 4549" d="M255.83,224.913v-3.931a.362.362,0,0,1,.369-.362h2.172a.369.369,0,0,1,.362.362.377.377,0,0,1-.362.377h-1.8v1.219h1.552a.369.369,0,1,1,0,.739h-1.552v1.6a.369.369,0,0,1-.369.362.362.362,0,0,1-.369-.362Z" transform="translate(-216.683 -97.886)" fill="#263238"/>
      <path id="Path_4550" data-name="Path 4550" d="M260.768,225.257a1.67,1.67,0,0,1-.458-1.167,1.766,1.766,0,0,1,.458-1.167,1.566,1.566,0,0,1,1.145-.5,1.478,1.478,0,0,1,1.116.5,1.7,1.7,0,0,1,.465,1.167,1.611,1.611,0,0,1-.465,1.167,1.478,1.478,0,0,1-1.116.51,1.552,1.552,0,0,1-1.145-.51Zm.266-1.167a1.049,1.049,0,0,0,.244.7.879.879,0,0,0,.635.251.864.864,0,0,0,.613-.251,1.071,1.071,0,0,0,0-1.4.931.931,0,0,0-.613-.251.946.946,0,0,0-.635.251,1.057,1.057,0,0,0-.244.694Z" transform="translate(-217.853 -98.356)" fill="#263238"/>
      <path id="Path_4551" data-name="Path 4551" d="M268.014,222.777a.355.355,0,0,1-.355.347.658.658,0,0,0-.4.126.982.982,0,0,0-.3.325,1.92,1.92,0,0,0-.273.554v1.263a.362.362,0,0,1-.369.355.355.355,0,0,1-.355-.355v-2.615a.355.355,0,0,1,.355-.347.362.362,0,0,1,.369.347v.074a.739.739,0,0,1,.133-.133,1.477,1.477,0,0,1,.842-.259.347.347,0,0,1,.355.318Z" transform="translate(-219.329 -98.359)" fill="#263238"/>
      <path id="Path_4552" data-name="Path 4552" d="M272.812,224.094v1.234a1.6,1.6,0,0,1-2.3,1.433.355.355,0,0,1-.155-.48.369.369,0,0,1,.48-.17.739.739,0,0,0,.377.1.894.894,0,0,0,.872-.739,1.581,1.581,0,0,1-.872.266,1.515,1.515,0,0,1-1.13-.51,1.64,1.64,0,0,1-.465-1.167,1.729,1.729,0,0,1,.465-1.182,1.559,1.559,0,0,1,1.13-.5,1.478,1.478,0,0,1,.894.281.347.347,0,0,1,.347-.281.355.355,0,0,1,.355.355v1.322Zm-.739,0a1.042,1.042,0,0,0-.259-.68.827.827,0,0,0-.628-.288.805.805,0,0,0-.613.288.975.975,0,0,0-.266.68.953.953,0,0,0,.266.687.813.813,0,0,0,.613.266.835.835,0,0,0,.628-.266,1.012,1.012,0,0,0,.3-.694Z" transform="translate(-220.285 -98.346)" fill="#263238"/>
      <path id="Path_4553" data-name="Path 4553" d="M276.108,225.257a1.633,1.633,0,0,1-.458-1.167,1.729,1.729,0,0,1,.458-1.167,1.559,1.559,0,0,1,1.145-.5,1.478,1.478,0,0,1,1.108.5,1.67,1.67,0,0,1,.465,1.167,1.581,1.581,0,0,1-.465,1.167,1.478,1.478,0,0,1-1.108.51,1.537,1.537,0,0,1-1.145-.51Zm.266-1.167a1.086,1.086,0,0,0,.236.7.909.909,0,0,0,.643.251.879.879,0,0,0,.613-.251,1.071,1.071,0,0,0,0-1.4.953.953,0,0,0-.613-.251.982.982,0,0,0-.643.251,1.094,1.094,0,0,0-.236.695Z" transform="translate(-221.859 -98.356)" fill="#263238"/>
      <path id="Path_4554" data-name="Path 4554" d="M282.682,222.309a.377.377,0,0,1-.369.369h-.163v1.854a.369.369,0,0,1,.362.377.355.355,0,0,1-.362.362.739.739,0,0,1-.739-.739v-1.854h-.2a.369.369,0,0,1-.362-.369.362.362,0,0,1,.362-.362h.2v-.968a.369.369,0,0,1,.739,0v.968h.163a.369.369,0,0,1,.369.362Z" transform="translate(-223.218 -97.884)" fill="#263238"/>
      <path id="Path_4555" data-name="Path 4555" d="M289.262,223.474h-.813v1.478a.369.369,0,0,1-.377.362.362.362,0,0,1-.362-.362v-3.931a.362.362,0,0,1,.362-.362h1.189a1.426,1.426,0,1,1,0,2.844Zm-.813-.739h.813a.687.687,0,1,0,0-1.367h-.813Z" transform="translate(-225.009 -97.895)" fill="#263238"/>
      <path id="Path_4556" data-name="Path 4556" d="M295.542,224.083v1.3a.347.347,0,0,1-.347.355.355.355,0,0,1-.347-.288,1.478,1.478,0,0,1-.887.288,1.537,1.537,0,0,1-1.13-.488,1.744,1.744,0,0,1,0-2.342,1.544,1.544,0,0,1,1.13-.495,1.478,1.478,0,0,1,.887.3.349.349,0,1,1,.695.066Zm-.739,0a1,1,0,0,0-.259-.687.835.835,0,0,0-.621-.273.82.82,0,0,0-.621.273,1,1,0,0,0-.251.687,1.027,1.027,0,0,0,.251.687.864.864,0,0,0,.621.259.879.879,0,0,0,.621-.259,1.034,1.034,0,0,0,.3-.687Z" transform="translate(-226.229 -98.349)" fill="#263238"/>
      <path id="Path_4557" data-name="Path 4557" d="M298.19,224.789a.355.355,0,0,1,.5-.052,1.2,1.2,0,0,0,.739.3.9.9,0,0,0,.451-.126.288.288,0,0,0,.118-.2.081.081,0,0,0,0-.067.163.163,0,0,0-.081-.081,1.545,1.545,0,0,0-.532-.185h0a2.83,2.83,0,0,1-.584-.177,1.138,1.138,0,0,1-.458-.384.8.8,0,0,1-.111-.421.938.938,0,0,1,.392-.739,1.477,1.477,0,0,1,.82-.244,1.758,1.758,0,0,1,1,.362.369.369,0,0,1,.1.5.347.347,0,0,1-.488.1,1.145,1.145,0,0,0-.613-.251.673.673,0,0,0-.4.126c-.089.059-.111.118-.111.148v.052a.163.163,0,0,0,.074.066,1.189,1.189,0,0,0,.488.163h0a2.469,2.469,0,0,1,.613.192,1.012,1.012,0,0,1,.473.392.857.857,0,0,1,.126.443.953.953,0,0,1-.414.739,1.478,1.478,0,0,1-.864.266,1.928,1.928,0,0,1-1.189-.458.362.362,0,0,1-.052-.451Z" transform="translate(-227.732 -98.354)" fill="#263238"/>
      <path id="Path_4558" data-name="Path 4558" d="M302.53,224.789a.347.347,0,0,1,.5-.052,1.219,1.219,0,0,0,.739.3.909.909,0,0,0,.458-.126.288.288,0,0,0,.118-.2.081.081,0,0,0,0-.066s0-.052-.089-.081a1.433,1.433,0,0,0-.532-.185h0a2.83,2.83,0,0,1-.584-.177,1.086,1.086,0,0,1-.458-.384.8.8,0,0,1-.111-.421.938.938,0,0,1,.392-.739,1.477,1.477,0,0,1,.82-.244,1.758,1.758,0,0,1,1,.362.369.369,0,0,1,.1.5.355.355,0,0,1-.495.1,1.123,1.123,0,0,0-.606-.251.658.658,0,0,0-.4.126c-.089.059-.111.118-.111.148v.052a.163.163,0,0,0,.074.066,1.189,1.189,0,0,0,.488.163h0a2.431,2.431,0,0,1,.621.192,1.049,1.049,0,0,1,.473.392.857.857,0,0,1,.126.443.938.938,0,0,1-.421.739,1.478,1.478,0,0,1-.864.266,1.928,1.928,0,0,1-1.182-.458.355.355,0,0,1-.052-.451Z" transform="translate(-228.865 -98.354)" fill="#263238"/>
      <path id="Path_4559" data-name="Path 4559" d="M311.412,222.982l-1.1,2.578v.059h0l-.037.044h-.3a.082.082,0,0,0-.044,0h-.059a.081.081,0,0,1-.037,0h0v-.044h0a.3.3,0,0,1,0-.059l-.488-1.145-.473,1.145v.059h0l-.044.044h0v.037c0,.037-.044,0-.059,0h-.207a.074.074,0,0,1-.059,0h-.037v-.044h0V225.6l-1.093-2.579a.347.347,0,0,1,.192-.458.332.332,0,0,1,.443.2l.783,1.788.465-1.108a.355.355,0,0,1,.325-.214.34.34,0,0,1,.325.214l.473,1.108.783-1.788a.34.34,0,0,1,.451-.2A.347.347,0,0,1,311.412,222.982Z" transform="translate(-230.137 -98.386)" fill="#263238"/>
      <path id="Path_4560" data-name="Path 4560" d="M314.835,225.257a1.64,1.64,0,0,1-.465-1.167,1.736,1.736,0,0,1,.465-1.167,1.544,1.544,0,0,1,1.138-.5,1.478,1.478,0,0,1,1.116.5,1.7,1.7,0,0,1,.465,1.167,1.611,1.611,0,0,1-.465,1.167,1.478,1.478,0,0,1-1.116.51A1.522,1.522,0,0,1,314.835,225.257Zm.266-1.167a1.049,1.049,0,0,0,.236.7.894.894,0,0,0,.635.251.857.857,0,0,0,.613-.251,1.071,1.071,0,0,0,0-1.4.916.916,0,0,0-.613-.251.96.96,0,0,0-.635.251A1.057,1.057,0,0,0,315.1,224.09Z" transform="translate(-231.972 -98.356)" fill="#263238"/>
      <path id="Path_4561" data-name="Path 4561" d="M322.076,222.777a.355.355,0,0,1-.355.347.694.694,0,0,0-.4.126,1.063,1.063,0,0,0-.3.325,1.921,1.921,0,0,0-.273.554v1.263a.362.362,0,0,1-.369.355.347.347,0,0,1-.347-.355v-2.615a.347.347,0,0,1,.347-.347.362.362,0,0,1,.369.347v.074a.6.6,0,0,1,.14-.133,1.478,1.478,0,0,1,.835-.259.347.347,0,0,1,.355.318Z" transform="translate(-233.45 -98.359)" fill="#263238"/>
      <path id="Path_4562" data-name="Path 4562" d="M326.67,224.913a.358.358,0,0,1-.709.074,1.6,1.6,0,0,1-.909.288,1.662,1.662,0,1,1,0-3.325,1.552,1.552,0,0,1,.894.281v-1.256a.362.362,0,0,1,.369-.355.355.355,0,0,1,.355.355v2.638h0Zm-1.618-2.216a.865.865,0,0,0-.621.273.938.938,0,0,0-.266.672.916.916,0,0,0,.266.658.85.85,0,0,0,1.249,0,.946.946,0,0,0,.266-.658.968.968,0,0,0-.266-.672.864.864,0,0,0-.628-.3Z" transform="translate(-234.328 -97.886)" fill="#263238"/>
      <path id="Path_4563" data-name="Path 4563" d="M330.824,223.392v.429a.318.318,0,0,1-.325.325.325.325,0,0,1-.325-.325v-.687h0a.34.34,0,0,1,.325-.325.739.739,0,1,0-.635-1.108.332.332,0,0,1-.451.118.325.325,0,0,1-.118-.443,1.4,1.4,0,1,1,1.529,2.061Zm0,1.478v.118a.318.318,0,0,1-.325.325.325.325,0,0,1-.325-.325v-.118a.325.325,0,0,1,.325-.325.318.318,0,0,1,.325.3Z" transform="translate(-235.859 -97.902)" fill="#263238"/>
    </g>
    <g id="freepik--Character--inject-3" transform="translate(49.78 142.591)">
      <path id="Path_4564" data-name="Path 4564" d="M149.48,329.51l1.751,10.513,11.88,64.145h1.914l-8.637-64.145L155.11,329.51Z" transform="translate(-76.551 -214.417)" fill="#dbdbdb"/>
      <path id="Path_4565" data-name="Path 4565" d="M155.11,329.51h-5.63l1.751,10.513h5.157Z" transform="translate(-76.551 -214.417)" fill="#a6a6a6"/>
      <path id="Path_4566" data-name="Path 4566" d="M98.99,404.168H100.9l11.88-64.145,1.751-10.513h-5.63l-1.278,10.513Z" transform="translate(-63.364 -214.417)" fill="#dbdbdb"/>
      <path id="Path_4567" data-name="Path 4567" d="M111.958,329.51l-1.278,10.513h5.157l1.751-10.513Z" transform="translate(-66.417 -214.417)" fill="#a6a6a6"/>
      <path id="Path_4568" data-name="Path 4568" d="M50.77,404.168h1.914l11.88-64.145,1.751-10.513h-5.63l-1.278,10.513Z" transform="translate(-50.77 -214.417)" fill="#dbdbdb"/>
      <path id="Path_4569" data-name="Path 4569" d="M62.46,340.023h5.157l1.751-10.513h-5.63Z" transform="translate(-53.823 -214.417)" fill="#a6a6a6"/>
      <path id="Path_4570" data-name="Path 4570" d="M54.88,316.066h87.033V306.9H109.331L98.382,259.14H58.2Z" transform="translate(-51.843 -196.038)" fill="#dbdbdb"/>
      <path id="Path_4571" data-name="Path 4571" d="M54.88,316.066h4.743l3.1-56.926H58.2Z" transform="translate(-51.843 -196.038)" fill="#a6a6a6"/>
      <path id="Path_4572" data-name="Path 4572" d="M154.84,422.863c-1.64.207-46.45-10.247-47.905-11.659-.177-.155,1.4-8.829,1.4-8.829C109.07,398.836,121.246,370,121.246,370l29.324,7.226-12.442,26.76s5.586,3.783,10.388,7.388a64.76,64.76,0,0,1,6.073,4.861C156.015,417.979,156.481,422.671,154.84,422.863Z" transform="translate(-65.435 -224.992)" fill="#eb9481"/>
      <path id="Path_4573" data-name="Path 4573" d="M106.925,418.684c1.478,1.411,46.273,11.866,47.913,11.659s1.175-4.884-.244-6.59a65.158,65.158,0,0,0-6.073-4.854h0c-4.795-3.605-10.38-7.388-10.38-7.388l2.748-5.955L112.5,398.64c-2.15,5.356-3.916,9.967-4.174,11.252C108.329,409.863,106.748,418.529,106.925,418.684Z" transform="translate(-65.433 -232.472)" fill="#ebebeb"/>
      <path id="Path_4574" data-name="Path 4574" d="M154.857,432.213c-1.692.177-46.871-9.945-48.341-11.422-.569-.554.525-7.211,2.076-15.22a.442.442,0,0,1,.052-.251l29.213,6.206-.118.5s15.552,11.6,16.993,13.395S156.52,432.043,154.857,432.213Z" transform="translate(-65.29 -234.217)" fill="#e58f6b"/>
      <path id="Path_4575" data-name="Path 4575" d="M155.539,435.625c-7.573-1.891-38.293-8.814-45.925-10.115-.059,0-.066,0,0,.044,7.462,2.047,38.242,8.718,45.911,10.2C155.694,435.78,155.694,435.661,155.539,435.625Z" transform="translate(-66.126 -239.49)" fill="#263238"/>
      <path id="Path_4576" data-name="Path 4576" d="M149.969,414.443c-2.874-1.234-6.649-1.6-9.405,0-.111.066,0,.214.089.207a43.233,43.233,0,0,1,9.221.148.2.2,0,0,0,.1-.355Z" transform="translate(-74.21 -236.321)" fill="#263238"/>
      <path id="Path_4577" data-name="Path 4577" d="M152.5,416.863c-2.867-1.234-6.649-1.6-9.405,0-.111.066,0,.214.089.207a43.724,43.724,0,0,1,9.221.14.192.192,0,0,0,.1-.347Z" transform="translate(-74.871 -236.954)" fill="#263238"/>
      <path id="Path_4578" data-name="Path 4578" d="M155.029,419.275c-2.867-1.226-6.649-1.588-9.405,0-.111.066,0,.214.089.207a43.238,43.238,0,0,1,9.221.14.2.2,0,0,0,.1-.347Z" transform="translate(-75.531 -237.585)" fill="#263238"/>
      <path id="Path_4579" data-name="Path 4579" d="M156.743,406.658c-.813-1.884-3.17-1.648-4.655-.879a16.343,16.343,0,0,0-6.154,5.822.074.074,0,0,0,.044.118.377.377,0,0,0,.384.48c2.682-.355,5.593-.414,8.083-1.581C155.894,409.931,157.512,408.438,156.743,406.658Zm-6.428,4.167c-1.315.207-2.63.355-3.938.613a48.854,48.854,0,0,1,3.694-3.325,17.91,17.91,0,0,1,1.973-1.352c1.071-.613,4.987-1.544,3.694,1.618-.687,1.744-3.849,2.194-5.423,2.445Z" transform="translate(-75.621 -234.188)" fill="#263238"/>
      <path id="Path_4580" data-name="Path 4580" d="M135.166,408.595c2.216,1.6,5.09,2.216,7.654,3.029a.384.384,0,0,0,.473-.4.08.08,0,0,0,.067-.111,16.372,16.372,0,0,0-4.987-6.849c-1.322-1.027-3.6-1.684-4.743,0S133.866,407.657,135.166,408.595Zm-.872-2.438c-.665-3.339,3.014-1.714,3.96-.916a17.5,17.5,0,0,1,1.692,1.7,48.393,48.393,0,0,1,3,3.931c-1.234-.495-2.5-.872-3.753-1.315C137.693,409.023,134.664,408,134.294,406.157Z" transform="translate(-72.299 -233.672)" fill="#263238"/>
      <path id="Path_4581" data-name="Path 4581" d="M154.12,434.974c7.1,1.552,12.6,2.66,13.173,2.6,1.7-.17,1.322-5.017-.118-6.8a64.661,64.661,0,0,0-5.911-4.95Z" transform="translate(-77.763 -239.571)" opacity="0.2"/>
      <path id="Path_4582" data-name="Path 4582" d="M132.957,377.169l-31.1-7.329s25.947-59.483,23.642-62.5c-1.145-1.515-30.1-1.958-39.305-9.76-11.962-10.137-3.938-25.622-3.938-25.622L114.627,271s-.392,6.753.872,7.765c.827.68,39.357,3.923,43.591,16.9C164.276,311.591,132.957,377.169,132.957,377.169Z" transform="translate(-58.306 -199.136)" fill="#37474f"/>
      <path id="Path_4583" data-name="Path 4583" d="M141.9,405.635c-.813-.384-8.866-2.748-10.676-3.207-3.635-.931-7.285-1.847-10.942-2.682-1.914-.436-6.007-1.382-6.258-1.337-.118,0-.14.222,0,.259,3.546,1.167,7.144,2.157,10.743,3.162s15.988,3.982,17.074,4.056C141.924,405.894,142.057,405.687,141.9,405.635Z" transform="translate(-67.265 -232.412)" fill="#263238"/>
      <path id="Path_4584" data-name="Path 4584" d="M132.454,305.769a4.987,4.987,0,0,0-2.438-.739l-14.038-2.342c-4.366-.739-8.762-1.382-13.107-2.216a29.708,29.708,0,0,1-10.344-3.583,15.013,15.013,0,0,1-6.361-8.312,26.871,26.871,0,0,1-.82-10.654c.081-.872.244-1.736.406-2.593a.052.052,0,1,0-.1,0c-1.19,6.649-1.293,14.3,3.694,19.586a19.922,19.922,0,0,0,9.139,5.061,103.953,103.953,0,0,0,11.762,2.283l14.038,2.335c2.216.377,4.529.665,6.76,1.13a2.327,2.327,0,0,1,1.212.539,1.721,1.721,0,0,1,.2,1.618c-.222,1.1-.525,2.216-.835,3.266-2.549,8.7-21.359,53.048-21.862,54a.089.089,0,0,0,.155.081c4.285-7.625,18.36-42.534,21.189-50.757a52.573,52.573,0,0,0,1.832-6.4C133.016,307.232,133.141,306.353,132.454,305.769Z" transform="translate(-59.702 -200.251)" fill="#263238"/>
      <path id="Path_4585" data-name="Path 4585" d="M216.427,428.106c-1.566.525-46.413-.1-48.12-1.2-1.869-1.781-2.667-44.093-2.667-44.093l28.851-.236,1.8,30.38s6.228,2.593,11.651,5.172h0a65.194,65.194,0,0,1,6.915,3.554C216.611,423.082,217.993,427.589,216.427,428.106Z" transform="translate(-80.771 -228.278)" fill="#eb9481"/>
      <path id="Path_4586" data-name="Path 4586" d="M166.7,416.78c.429,9.509,1.042,18.278,1.877,19.062,1.707,1.093,46.546,1.729,48.127,1.2s.185-5.017-1.552-6.406a64.814,64.814,0,0,0-6.923-3.554h0c-5.423-2.578-11.651-5.172-11.651-5.172l-.3-5.113Z" transform="translate(-81.048 -237.21)" fill="#ebebeb"/>
      <path id="Path_4587" data-name="Path 4587" d="M217.632,438.384c-1.625.539-47.92.318-49.671-.813-.68-.414-1.042-7.152-1.241-15.308V422l29.863-.185v.5s17.68,8,19.483,9.442S219.25,437.86,217.632,438.384Z" transform="translate(-81.053 -238.526)" fill="#e58f6b"/>
      <path id="Path_4588" data-name="Path 4588" d="M218.288,441.72c-7.8-.229-39.3-.414-47.026-.052-.066,0-.066.052,0,.052,7.728.4,39.224.325,47.026.133C218.451,441.86,218.451,441.727,218.288,441.72Z" transform="translate(-82.227 -243.657)" fill="#263238"/>
      <path id="Path_4589" data-name="Path 4589" d="M208.381,421.917c-3.066-.584-6.827-.133-9.184,2.039-.089.089,0,.214.133.185a43.266,43.266,0,0,1,9.043-1.832.2.2,0,0,0,.007-.392Z" transform="translate(-89.526 -238.491)" fill="#263238"/>
      <path id="Path_4590" data-name="Path 4590" d="M211.38,423.687c-3.074-.584-6.827-.133-9.184,2.039-.1.089,0,.214.126.185a43.264,43.264,0,0,1,9.043-1.832.2.2,0,0,0,.015-.392Z" transform="translate(-90.309 -238.953)" fill="#263238"/>
      <path id="Path_4591" data-name="Path 4591" d="M214.37,425.507c-3.074-.584-6.827-.133-9.184,2.039-.1.089,0,.214.126.185a43.265,43.265,0,0,1,9.043-1.832.2.2,0,0,0,.015-.392Z" transform="translate(-91.09 -239.428)" fill="#263238"/>
      <path id="Path_4592" data-name="Path 4592" d="M213.729,412.582c-1.2-1.67-3.45-.931-4.736.14a16.357,16.357,0,0,0-4.765,7,.081.081,0,0,0,.074.111.377.377,0,0,0,.48.384c2.542-.924,5.371-1.6,7.551-3.273C213.6,415.959,214.867,414.156,213.729,412.582Zm-5.379,5.445c-1.241.488-2.5.909-3.694,1.441a46.836,46.836,0,0,1,2.874-4.027,17.419,17.419,0,0,1,1.633-1.751c.916-.827,4.544-2.578,3.99.783C212.821,416.328,209.821,417.451,208.351,418.028Z" transform="translate(-90.848 -235.857)" fill="#263238"/>
      <path id="Path_4593" data-name="Path 4593" d="M192.746,419.544c2.519,1.086,5.43,1.049,8.127,1.323a.4.4,0,0,0,.377-.5.081.081,0,0,0,0-.126,16.373,16.373,0,0,0-6.339-5.615c-1.515-.739-3.871-.879-4.625,1.027S191.268,418.909,192.746,419.544Zm-1.382-2.216c-1.367-3.125,2.579-2.32,3.694-1.744a17.972,17.972,0,0,1,2.017,1.293,48.756,48.756,0,0,1,3.775,3.2c-1.315-.214-2.63-.31-3.953-.48-1.6-.177-4.78-.525-5.534-2.246Z" transform="translate(-87.161 -236.516)" fill="#263238"/>
      <path id="Path_4594" data-name="Path 4594" d="M173.84,382.641H141.332s.406-58.714-2.143-61.965c-3.4-4.344-50.979-4.248-61.182-18.4-9.161-12.723-1.426-30.72-1.426-30.72l36.032-1.071a75.137,75.137,0,0,1-3.339,11.334s43.4,8,55.56,21.293C173.005,312.091,173.84,382.641,173.84,382.641Z" transform="translate(-56.714 -199)" fill="#37474f"/>
      <path id="Path_4595" data-name="Path 4595" d="M126.26,282.49a17.672,17.672,0,0,0-3.051.975c-1.034.4-2.054.842-3.051,1.33a60.887,60.887,0,0,0-5.7,3.221c-.059,0,0,.111.059.081,1.943-1.012,3.96-1.921,5.977-2.785l2.911-1.256a29.851,29.851,0,0,0,2.955-1.3.148.148,0,0,0-.1-.266Z" transform="translate(-67.398 -202.136)" fill="#263238"/>
      <path id="Path_4596" data-name="Path 4596" d="M125.735,270.43c-.414,1.64-.739,3.3-1.249,4.928a19.985,19.985,0,0,1-.739,2.216c-.236.606-.6,1.308-1.308,1.441s-1.049-.539-.983-1.212.266-1.478.414-2.216c.17-.85.347-1.707.5-2.556.074-.429.155-.857.229-1.286a10.923,10.923,0,0,1,.155-1.167.036.036,0,0,0,.044.037h0s.052,0,.052-.044a.148.148,0,0,0-.044-.126c-.044-.044-.044,0-.074,0-.155.089-.163.3-.214.458-.133.414-.266.835-.392,1.249-.229.783-.451,1.574-.65,2.364s-.392,1.581-.584,2.372a3.694,3.694,0,0,0-.163,1.825,1.4,1.4,0,0,0,1.293,1.057l-.089.155c-.074.163-.126.332-.185.5s-.118.34-.17.51a1.579,1.579,0,0,0-.044.259c0,.1,0,.185,0,.281s.185.236.259.1a2.61,2.61,0,0,1,.155-.236,1.521,1.521,0,0,0,.118-.273c.052-.163.1-.325.14-.5s.1-.332.126-.5a2,2,0,0,0,0-.3,1.847,1.847,0,0,0,.953-.362,3.177,3.177,0,0,0,.983-1.478c.244-.68.436-1.389.628-2.091a30.063,30.063,0,0,0,1.049-5.29C126.045,270.3,125.779,270.238,125.735,270.43Z" transform="translate(-69.03 -198.958)" fill="#263238"/>
      <path id="Path_4597" data-name="Path 4597" d="M94.328,275.889c-.148.813-.244,1.64-.436,2.445s-.4,1.581-.658,2.349a8.334,8.334,0,0,1-1,2.12,7.92,7.92,0,0,1-1.6,1.625,13.565,13.565,0,0,1-3.864,2.143,17.8,17.8,0,0,1-2.143.628,10.851,10.851,0,0,1-1.145.207,2.409,2.409,0,0,0-.924.207.192.192,0,0,0,0,.325,3.421,3.421,0,0,0,1.707.052,13.651,13.651,0,0,0,1.825-.318,13.3,13.3,0,0,0,3.45-1.478,10.81,10.81,0,0,0,2.926-2.335,8.127,8.127,0,0,0,1.544-3.376,16.513,16.513,0,0,0,.5-4.581C94.476,275.815,94.343,275.8,94.328,275.889Z" transform="translate(-59.049 -200.397)" fill="#263238"/>
      <path id="Path_4598" data-name="Path 4598" d="M147.358,342.983q-.48-7.669-1.271-15.3c-.133-1.256-.259-2.519-.414-3.768a11.577,11.577,0,0,0-.635-2.867,5.637,5.637,0,0,0-4.27-3.362c-2.276-.576-4.632-.924-6.945-1.293s-4.743-.739-7.122-1.057c-4.81-.672-9.6-1.293-14.414-2.1a114.147,114.147,0,0,1-14.148-3.177c-4.256-1.286-8.622-2.874-12.028-5.822-7.337-6.346-7.6-16.993-6.709-25.859.126-1.256.281-2.5.436-3.761a.052.052,0,1,0-.1,0c-.576,5.009-1.256,10.055-.739,15.1a24.7,24.7,0,0,0,4,11.7,21.97,21.97,0,0,0,10.129,7.455,79.846,79.846,0,0,0,13.5,3.879c9.509,1.995,19.209,2.837,28.777,4.47,1.182.2,2.357.414,3.532.643a14.87,14.87,0,0,1,3.192.857c2.172.968,2.771,3.081,3.037,5.268.628,5.068,1.049,10.166,1.419,15.264.739,10.262,1.13,20.584,1.116,30.875v6.819c0,.111.17.1.17,0C148.142,366.581,148.009,353.275,147.358,342.983Z" transform="translate(-58.094 -200.066)" fill="#263238"/>
      <path id="Path_4599" data-name="Path 4599" d="M197.03,415.266c-7.388-.5-28.563-.3-28.814-.192-.111.052-.081.251.037.259,3.694.266,27.669.392,28.74.2C197.111,415.51,197.155,415.273,197.03,415.266Z" transform="translate(-81.426 -236.73)" fill="#263238"/>
      <path id="Path_4600" data-name="Path 4600" d="M122.087,286a121.225,121.225,0,0,1,19.653,4.027,137.616,137.616,0,0,1,18.966,6.864c3.45,1.544,6.79,3.273,10.092,5.09.066.037,0,.133-.059.1a152.332,152.332,0,0,0-18.471-8.046,149.484,149.484,0,0,0-19.209-5.571c-3.694-.8-7.388-1.419-11.082-2.032C121.77,286.352,121.836,285.931,122.087,286Z" transform="translate(-69.335 -203.051)" fill="#263238"/>
      <path id="Path_4601" data-name="Path 4601" d="M158.177,350.112c-.229-3.532-.6-7.063-1.175-10.565-.236-1.411-.3-3.236-1.781-3.938-.687-.332-14.474-2.726-16.454-2.689a.1.1,0,0,0-.044.177c.185.081,13.3,2.556,14.954,2.955a2.615,2.615,0,0,1,1.84.96,6.723,6.723,0,0,1,.554,2.268,145.66,145.66,0,0,1,1.832,20.754q.081,2.9.1,5.77c0,1.98-.066,3.982.081,5.948a.163.163,0,0,0,.325,0c.148-1.788.1-3.613.1-5.408s0-3.605,0-5.416C158.5,357.316,158.421,353.71,158.177,350.112Z" transform="translate(-73.73 -215.308)" fill="#263238"/>
      <path id="Path_4602" data-name="Path 4602" d="M123.252,223.776c9.317,12.39,31.444,29.812,36.638,25.755,6.383-4.98,5.172-23.3,5.334-25.659.14-2.519-20.79-1.884-19.948.687.5,1.522.739,3.155.332,3-1.234-.488-3.975-2.955-15.863-9.6C123.134,214.238,117.083,215.575,123.252,223.776Z" transform="translate(-69.03 -184.768)" fill="#eb9481"/>
      <path id="Path_4603" data-name="Path 4603" d="M141.95,223.946l-4.9,4.81-6.147,6.029s-7-6.782-10.026-12.375c-2.216-4.115-2.29-7.588-.089-8.341a4.935,4.935,0,0,1,3.28.31C132,217.34,141.95,223.946,141.95,223.946Z" transform="translate(-68.636 -184.228)" fill="#e58f6b"/>
      <path id="Path_4604" data-name="Path 4604" d="M142.735,225.788c-1.958,1.788-9.051,8.415-9.6,9.6,0,0,.052.089.081.081,1.153-.561,7.846-7.588,9.642-9.531C142.882,225.87,142.772,225.759,142.735,225.788Z" transform="translate(-72.28 -187.326)" fill="#263238"/>
      <path id="Path_4605" data-name="Path 4605" d="M137.051,228.808l-6.147,6.029s-7-6.782-10.026-12.375c-2.216-4.115-2.29-7.588-.089-8.341Z" transform="translate(-68.636 -184.28)" fill="#263238"/>
      <path id="Path_4606" data-name="Path 4606" d="M173.269,209.151c1.182,4.012.392,13.166-.643,15.3s-16.653,1.315-18.042-.695-4.33-15.826-2.711-19.778S172.028,204.991,173.269,209.151Z" transform="translate(-77.052 -181.254)" fill="#eb9481"/>
      <path id="Path_4607" data-name="Path 4607" d="M154.538,190.033c-.672-1.818-3.953-7.026-5.534-6.42s-.17,4.728.451,6.383c1.293,3.406,1.249,8.437,1.19,10.876s5.637,0,5.637,0A36.324,36.324,0,0,0,154.538,190.033Z" transform="translate(-76.237 -176.3)" fill="#eb9481"/>
      <path id="Path_4608" data-name="Path 4608" d="M153.638,207.107s-.222,4.293,2.061,5.172,3.081-2.556,3.147-2.793c0,.222-.111,4.174,2.283,4.832s2.778-2.881,2.793-3.11c.059.214.879,3.081,2.8,3.17,3.317.148,1.426-7.233,2.889-9.486,0,0,4.1,2.047,4.226,2.083,0,0-1.655-7.063-4.795-8.866a2.313,2.313,0,0,0-2.874.406s-.281-2.335-2.15-2.911c-.953-.3-2.276.975-2.276.975a2.9,2.9,0,0,0-1.995-2.268c-1.345-.332-2.645.968-2.955,1.544C154.214,200.3,153.638,207.107,153.638,207.107Z" transform="translate(-77.635 -179.092)" fill="#eb9481"/>
      <path id="Path_4609" data-name="Path 4609" d="M157.061,195.94H157a20.635,20.635,0,0,0-3.443,11.777.122.122,0,0,0,.244,0,42.217,42.217,0,0,1,3.258-11.777Z" transform="translate(-77.615 -179.532)" fill="#263238"/>
      <path id="Path_4610" data-name="Path 4610" d="M163.477,197.315c0-.037-.052-.074-.081,0A19.305,19.305,0,0,0,160.44,210.4c0,.163.214.273.192.089C160.359,207.341,161.873,200.817,163.477,197.315Z" transform="translate(-79.369 -179.88)" fill="#263238"/>
      <path id="Path_4611" data-name="Path 4611" d="M167.5,213.063a26.556,26.556,0,0,1,1.98-12.856c0-.059-.059-.081-.089-.044a17.406,17.406,0,0,0-2.453,6.812,11.821,11.821,0,0,0,.406,6.11C167.376,213.16,167.517,213.16,167.5,213.063Z" transform="translate(-81.052 -180.63)" fill="#263238"/>
      <path id="Path_4612" data-name="Path 4612" d="M153.633,210.882a13.6,13.6,0,0,0,.325,2.453,4.573,4.573,0,0,0,1.027,2.143,1.478,1.478,0,0,0,.968.451,2.143,2.143,0,0,0,1.079-.214,2.63,2.63,0,0,0,1.249-1.758l.436-1.773.207,1.81a7.277,7.277,0,0,0,.643,2.327,2.682,2.682,0,0,0,1.552,1.522,1.522,1.522,0,0,0,1.8-.635,4.581,4.581,0,0,0,.635-2.216l.133-2.15.576,2.061a7.159,7.159,0,0,0,.695,1.648,2.852,2.852,0,0,0,1.175,1.175,1.352,1.352,0,0,0,1.433-.148,2.955,2.955,0,0,0,.783-1.478,23.258,23.258,0,0,0,.5-3.694c.059-.628.118-1.256.207-1.884a4.432,4.432,0,0,1,.547-1.81,4.839,4.839,0,0,0-.377,1.832c-.037.621-.044,1.249-.052,1.884a20.828,20.828,0,0,1-.318,3.8,3.576,3.576,0,0,1-.887,1.832,1.95,1.95,0,0,1-2.113.3,3.524,3.524,0,0,1-1.478-1.426,7.551,7.551,0,0,1-.8-1.817l.739-.081a5.334,5.334,0,0,1-.739,2.623,2.217,2.217,0,0,1-1.175.924,2.49,2.49,0,0,1-1.478,0,3.354,3.354,0,0,1-1.973-1.921,8.408,8.408,0,0,1-.665-2.571l.643.044a3.162,3.162,0,0,1-1.655,2.1,2.756,2.756,0,0,1-1.352.2,1.95,1.95,0,0,1-1.212-.635,4.677,4.677,0,0,1-.953-2.372A11.319,11.319,0,0,1,153.633,210.882Z" transform="translate(-77.63 -182.867)" fill="#263238"/>
      <path id="Path_4613" data-name="Path 4613" d="M152.195,222.642s-11.319-13.683-3.8-15.515c2.216-.539,12.043-.074,11.991,1.9-.074,2.542-4.2,3.118-6.856,3.059,0,0,4.507,4.115,2.578,8.127a4.433,4.433,0,0,1-3.908,2.431Z" transform="translate(-75.593 -182.399)" fill="#eb9481"/>
      <path id="Path_4614" data-name="Path 4614" d="M148.47,207.266a9.228,9.228,0,0,1,2.645-.554,20.859,20.859,0,0,1,2.719-.059,31.329,31.329,0,0,1,5.408.65,4.766,4.766,0,0,1,1.352.495,1.869,1.869,0,0,1,.628.539,1.477,1.477,0,0,1,.207.406,1.573,1.573,0,0,1,.052.443,2.313,2.313,0,0,1-.613,1.478,4.389,4.389,0,0,1-1.2.872,8.275,8.275,0,0,1-2.7.739,18.934,18.934,0,0,1-2.741.1l.207-.554a10.921,10.921,0,0,1,1.345,1.6,10.529,10.529,0,0,1,1.012,1.8,7.219,7.219,0,0,1,.517,1.995,5.364,5.364,0,0,1-.17,2.032,6.014,6.014,0,0,0-.044-1.995,7.078,7.078,0,0,0-.665-1.862,9.836,9.836,0,0,0-1.064-1.67,11.191,11.191,0,0,0-1.345-1.426l-.613-.525h.827a19.525,19.525,0,0,0,2.638-.185,8.128,8.128,0,0,0,2.468-.695,2.186,2.186,0,0,0,1.4-1.67c.007-.694-.85-.975-1.662-1.19a25.026,25.026,0,0,0-2.608-.51c-.879-.14-1.766-.273-2.652-.355a17.223,17.223,0,0,0-5.334.1Z" transform="translate(-76.287 -182.325)" fill="#263238"/>
      <path id="Path_4615" data-name="Path 4615" d="M154.42,231.65l.613,1.751.591,1.758,1.2,3.495c.4,1.167.805,2.327,1.234,3.48.214.576.429,1.153.665,1.721s.48,1.138.739,1.714a23.641,23.641,0,0,1-1.781-3.266c-.517-1.13-.953-2.3-1.367-3.465s-.739-2.357-1.071-3.554A32.294,32.294,0,0,1,154.42,231.65Z" transform="translate(-77.841 -188.859)" fill="#263238"/>
      <path id="Path_4616" data-name="Path 4616" d="M116.966,264.963c-1.108.887-44.987,1.382-45.172,1.071-.5-.842,11.4-40.872,30.107-53.314,3.3-2.216,8.319-.672,10.491,1.027,1.093.857,4.263,7.337,4.7,12.634S117.668,264.394,116.966,264.963Z" transform="translate(-56.257 -183.627)" fill="#e58f6b"/>
      <path id="Path_4617" data-name="Path 4617" d="M120.008,253.959v.325c-.207-.126-.421-.266-.621-.414a18.248,18.248,0,0,1-4.064-4.433c-1.153-1.633-2.216-3.339-3.236-5.024a45.851,45.851,0,0,0-4.891-6.782l-.229-.244A18.694,18.694,0,0,0,104.6,235.3a12.767,12.767,0,0,0-11.178-1.943,12.146,12.146,0,0,0-4.433,2.6l.539-.9a12.073,12.073,0,0,1,3.775-2.039,13.129,13.129,0,0,1,5.984-.369,12.9,12.9,0,0,1,5.5,2.431,18.752,18.752,0,0,1,2.571,2.32c.081.089.163.17.236.259a46.488,46.488,0,0,1,4.743,6.649c1.049,1.692,2.076,3.391,3.214,5.017a18.123,18.123,0,0,0,3.982,4.337C119.705,253.76,119.853,253.863,120.008,253.959Zm-4.137,1.891a15.1,15.1,0,0,1-6.021-1.478c-3.8-1.81-6.864-4.8-9.915-7.691-1.108-1.049-2.216-2.1-3.376-3.088l-.185-.163c-.384-.325-.739-.643-1.182-.953a14.643,14.643,0,0,0-5.645-2.881,9.176,9.176,0,0,0-2.46-.222l-.17.3a8.867,8.867,0,0,1,2.571.207,14.422,14.422,0,0,1,5.519,2.844c.384.3.739.6,1.123.909a2.03,2.03,0,0,1,.192.163c1.167.99,2.283,2.061,3.4,3.118,3.037,2.9,6.11,5.911,9.974,7.772a15.264,15.264,0,0,0,6.169,1.537,15.98,15.98,0,0,0,4.145-.436c0-.126,0-.244,0-.369a15.929,15.929,0,0,1-4.137.436Zm4.108-10.344c-.451-.739-.916-1.478-1.411-2.216a16.616,16.616,0,0,0-4.152-4.322,9.8,9.8,0,0,0-5.726-1.655,7.681,7.681,0,0,0-1.3.074l-.414.052a12.563,12.563,0,0,0-1.278.236,14.865,14.865,0,0,0-2.815,1.057,34.26,34.26,0,0,0-6.509,4.684c-.081.066-.163.14-.244.2-.916.791-1.84,1.566-2.785,2.3a24.513,24.513,0,0,1-5.046,3.118,16.38,16.38,0,0,1-5.741,1.374h-.916c0,.066-.059.133-.081.2l1.012-.037a16.609,16.609,0,0,0,5.807-1.374,25.216,25.216,0,0,0,5.105-3.125c.968-.739,1.906-1.529,2.837-2.32l.236-.2a33.307,33.307,0,0,1,6.443-4.61,14.29,14.29,0,0,1,2.763-1.027,11.768,11.768,0,0,1,1.478-.259h.421c.355-.037.739-.052,1.064-.059a9.6,9.6,0,0,1,5.563,1.625,16.254,16.254,0,0,1,4.064,4.256c.591.85,1.138,1.721,1.67,2.615a3.5,3.5,0,0,1-.052-.613Z" transform="translate(-58.812 -189.069)" fill="#f4ede6"/>
      <path id="Path_4618" data-name="Path 4618" d="M124.057,218.339c-2.571-.111-5.667-4.972-6.457-8.415-.052-.236,3.118-8.179,3.583-9.819.1-.332,9.6,5.423,9.6,5.423a27.025,27.025,0,0,0-2.778,6.007C127.921,211.771,126.547,218.45,124.057,218.339Z" transform="translate(-68.224 -180.616)" fill="#eb9481"/>
      <path id="Path_4619" data-name="Path 4619" d="M122.863,200.23c-.229,2.785-.288,10.188,5.268,11.91a6.435,6.435,0,0,0,1.027.222c.111-.451.177-.739.185-.8a27.078,27.078,0,0,1,2.778-6h0a.739.739,0,0,0-.155-.1h0c-.066-.052-.155-.1-.259-.163l-.111-.066c-.059-.044-.133-.081-.207-.126l-.266-.163-.443-.259-.163-.1-.34-.207-1.345-.8-.51-.3c-.222-.126-.443-.251-.658-.392l-.658-.377-.081-.044-1.116-.65-.369-.214-.739-.4-.48-.266-.946-.5-.214-.1Z" transform="translate(-69.579 -180.652)" fill="#263238"/>
      <path id="Path_4620" data-name="Path 4620" d="M125.735,182.278c-2.423,3.133-4.433,14.038-2.771,17.311,2.4,4.692,8.267,7.277,12.745,3.953,4.344-3.221,6.709-17.525,4.677-20.687C137.394,178.289,129.318,177.653,125.735,182.278Z" transform="translate(-69.466 -175.135)" fill="#eb9481"/>
      <path id="Path_4621" data-name="Path 4621" d="M136.341,197.58s-.066,0-.066.052c-.163.739-.473,1.581-1.2,1.662v.044C135.912,199.427,136.311,198.319,136.341,197.58Z" transform="translate(-72.787 -179.96)" fill="#263238"/>
      <path id="Path_4622" data-name="Path 4622" d="M135.7,196.3c-1.175-.384-1.862,1.987-.739,2.349S136.68,196.62,135.7,196.3Z" transform="translate(-72.609 -179.614)" fill="#263238"/>
      <path id="Path_4623" data-name="Path 4623" d="M142.376,198.78s.052.052,0,.081c-.236.739-.392,1.6.2,2.039h0C141.815,200.583,142.014,199.43,142.376,198.78Z" transform="translate(-74.611 -180.274)" fill="#263238"/>
      <path id="Path_4624" data-name="Path 4624" d="M143.3,198c1.2.266.591,2.66-.525,2.416S142.283,197.781,143.3,198Z" transform="translate(-74.644 -180.065)" fill="#263238"/>
      <path id="Path_4625" data-name="Path 4625" d="M133.959,205.743c.118.229.214.517.465.628a1.921,1.921,0,0,0,.842.081s.044.037,0,.052a1.042,1.042,0,0,1-1.057.081.82.82,0,0,1-.355-.835.052.052,0,1,1,.1-.007Z" transform="translate(-72.466 -182.08)" fill="#263238"/>
      <path id="Path_4626" data-name="Path 4626" d="M138.434,200.43s-.155,1.145-.3,1.662a11.688,11.688,0,0,0-3.125-.392c-.251,0-.2-.177.1-.259a4.573,4.573,0,0,1,2.7.074c.081-.133.207-1.766.288-1.744a4.647,4.647,0,0,1,1.108.591c.384-2.372.392-4.795.813-7.152a.074.074,0,0,1,.14,0,38.565,38.565,0,0,1-.547,7.735C139.579,201.265,138.656,200.578,138.434,200.43Z" transform="translate(-72.731 -178.806)" fill="#263238"/>
      <path id="Path_4627" data-name="Path 4627" d="M134.837,193.6c.34-.052.658-.052,1-.074a1.655,1.655,0,0,1,1.034.126.517.517,0,0,1,.17.606,1.286,1.286,0,0,1-1.13.628,1.891,1.891,0,0,1-1.315-.31.547.547,0,0,1,.244-.975Z" transform="translate(-72.606 -178.893)" fill="#263238"/>
      <path id="Path_4628" data-name="Path 4628" d="M145.726,194.111a9.13,9.13,0,0,0-.791-.621,1.611,1.611,0,0,0-.916-.48.5.5,0,0,0-.48.4,1.271,1.271,0,0,0,.576,1.16,1.862,1.862,0,0,0,1.263.48.547.547,0,0,0,.347-.938Z" transform="translate(-74.998 -178.767)" fill="#263238"/>
      <path id="Path_4629" data-name="Path 4629" d="M130.239,194.506c.909.347,1.079-1.552,1.123-2.216a11.747,11.747,0,0,1,.51-2.01,11.129,11.129,0,0,1-.975,1.832C130.476,192.622,129.331,194.144,130.239,194.506Z" transform="translate(-71.436 -178.054)" fill="#f4ede6"/>
      <path id="Path_4630" data-name="Path 4630" d="M121.782,191.433s-1.736-7.7-.14-11.282c.739-1.618,3.376-1.98,3.376-1.98a3.99,3.99,0,0,1,2.468-3.406c2.6-1.2,7.255.82,7.255.82s4.6-3.45,8.4-.207-.739,7.277-.739,7.277.85,2.822-3.694,3.3c-4.433.465-11.688-3.871-11.688-3.871a28.747,28.747,0,0,1-2.837,8.083,2.608,2.608,0,0,1-2.4,1.271Z" transform="translate(-69.104 -173.799)" fill="#263238"/>
      <path id="Path_4631" data-name="Path 4631" d="M136.839,175.829a8.127,8.127,0,0,0-2.9-1.6,8.644,8.644,0,0,0-2.955-.5,4.869,4.869,0,0,0-4.433,2.379,3.413,3.413,0,0,0-.2,2.638c0,.037.066,0,.052,0-.591-1.6.6-3.376,1.995-4.078a7.314,7.314,0,0,1,5.172-.163,14.192,14.192,0,0,1,3.125,1.419.09.09,0,0,0,.148-.1Z" transform="translate(-70.463 -173.732)" fill="#263238"/>
      <path id="Path_4632" data-name="Path 4632" d="M150.655,178.572a3.982,3.982,0,0,0-1.8-3.273,6.745,6.745,0,0,0-4.211-1.241,8.445,8.445,0,0,0-4.241,1.382v.052a7.477,7.477,0,0,1,7.639-.259,3.694,3.694,0,0,1,.983,6.1,7.662,7.662,0,0,1-3.775,1.884v.052a7.765,7.765,0,0,0,3.62-1.478A4.433,4.433,0,0,0,150.655,178.572Z" transform="translate(-74.179 -173.815)" fill="#263238"/>
      <path id="Path_4633" data-name="Path 4633" d="M141.1,188.9a14.074,14.074,0,0,1-5.844-.894,28.557,28.557,0,0,1-5.556-2.741c-1.02-.635-2.017-1.315-3-2.01,0,0-.059,0,0,.052a31.357,31.357,0,0,0,5.334,3.827A15.722,15.722,0,0,0,137.8,189a13.3,13.3,0,0,0,3.339-.052S141.13,188.9,141.1,188.9Z" transform="translate(-70.594 -176.22)" fill="#263238"/>
      <path id="Path_4634" data-name="Path 4634" d="M124.088,194.436s-1.145-4.167-2.955-3.871-1.781,5.748-.236,7.041a1.914,1.914,0,0,0,2.734-.074Z" transform="translate(-68.787 -178.124)" fill="#eb9481"/>
      <path id="Path_4635" data-name="Path 4635" d="M121.659,192.68v.044A4.873,4.873,0,0,1,123,196.418a1.064,1.064,0,0,0-1.4-.805v.074a1.19,1.19,0,0,1,1.086.827,5.911,5.911,0,0,1,.236,1.2c0,.133.236.148.244,0h0C123.75,196.108,123.307,193.448,121.659,192.68Z" transform="translate(-69.269 -178.68)" fill="#263238"/>
      <path id="Path_4636" data-name="Path 4636" d="M107.169,221.348c-2.165,12.087-.864,37.429,4.64,41.677,6.376,4.913,34.289,5.911,40.495,4.093,2.475-.739-3.413-17.089-6.162-17.067-11.548.081-21.271-1.249-22.261-2.615-1.522-2.091-5.5-16.83-8.223-26.066C112.252,209.771,108.137,215.925,107.169,221.348Z" transform="translate(-65.241 -184.453)" fill="#eb9481"/>
      <path id="Path_4637" data-name="Path 4637" d="M195.831,239.449,178.1,251.033a.739.739,0,0,0-.111,1.241l8.245,6.191a1.662,1.662,0,0,0,1.781,0l17.732-11.585a.739.739,0,0,0,.111-1.249l-8.245-6.184a1.662,1.662,0,0,0-1.781,0Z" transform="translate(-83.921 -190.828)" fill="#263238"/>
      <path id="Path_4638" data-name="Path 4638" d="M194.8,238.749l-17.732,11.585a.739.739,0,0,0-.111,1.241l8.245,6.191a1.662,1.662,0,0,0,1.781,0l17.732-11.585a.739.739,0,0,0,.111-1.249l-8.245-6.184a1.662,1.662,0,0,0-1.781,0Z" transform="translate(-83.652 -190.645)" fill="#37474f"/>
      <path id="Path_4639" data-name="Path 4639" d="M194.813,239.983l-16.254,10.624c-.5.325-.569.842-.155,1.153l7.388,5.534a1.574,1.574,0,0,0,1.655,0L203.7,246.662c1.02-.658.909-1.057.5-1.367l-1.478-1.108a.384.384,0,0,0-.4.044h-.059a.48.48,0,0,1-.665-.052l-3.421-2.564c-.192-.148-.34-.266,0-.473l.052-.037c.14-.089.177-.207.089-.273l-1.478-1.108C196.387,239.429,195.767,239.377,194.813,239.983Z" transform="translate(-84.034 -190.912)" fill="#f4ede6"/>
      <path id="Path_4640" data-name="Path 4640" d="M207.452,243.267l.931.739a.126.126,0,0,0,.126,0h0a.059.059,0,0,0,0-.089l-.938-.694a.1.1,0,0,0-.118,0h0C207.423,243.208,207.423,243.245,207.452,243.267Z" transform="translate(-91.686 -191.876)" fill="#f4ede6"/>
      <path id="Path_4641" data-name="Path 4641" d="M189.49,248.339l6.265,4.7,6.989-4.551-6.273-4.706Z" transform="translate(-87 -192.027)" fill="#e58f6b"/>
      <path id="Path_4642" data-name="Path 4642" d="M191.47,253.516l3.657,2.748.414-.273-3.657-2.741Z" transform="translate(-87.517 -194.5)" fill="#a6a6a6"/>
      <path id="Path_4643" data-name="Path 4643" d="M189.65,253.473l4.329,3.251.207-.133-4.337-3.251Z" transform="translate(-87.042 -194.523)" fill="#a6a6a6"/>
      <path id="Path_4644" data-name="Path 4644" d="M189.14,253.8l4.33,3.251.207-.133-4.337-3.251Z" transform="translate(-86.909 -194.61)" fill="#a6a6a6"/>
      <path id="Path_4645" data-name="Path 4645" d="M188.63,254.14l4.329,3.243.207-.133L188.837,254Z" transform="translate(-86.776 -194.696)" fill="#a6a6a6"/>
      <path id="Path_4646" data-name="Path 4646" d="M209.25,247.441l.783.584.163-.111-.776-.584Z" transform="translate(-92.161 -192.954)" fill="#a6a6a6"/>
      <path id="Path_4647" data-name="Path 4647" d="M208.83,247.711l.776.584.17-.111L209,247.6Z" transform="translate(-92.051 -193.024)" fill="#a6a6a6"/>
      <path id="Path_4648" data-name="Path 4648" d="M208.41,247.981l.783.591.163-.111-.776-.591Z" transform="translate(-91.942 -193.095)" fill="#a6a6a6"/>
      <path id="Path_4649" data-name="Path 4649" d="M188.183,250.836a.569.569,0,0,0,0,.288,1.389,1.389,0,0,0,.421,0c.273,0,.48-.177.332-.3a.332.332,0,0,0-.347,0s.17-.14.044-.229S188.235,250.644,188.183,250.836Z" transform="translate(-86.654 -193.8)" fill="#e58f6b"/>
      <path id="Path_4650" data-name="Path 4650" d="M182.23,255.459l5.054,3.8,1.618-1.049-5.061-3.8Z" transform="translate(-85.104 -194.803)" fill="#e58f6b"/>
      <path id="Path_4651" data-name="Path 4651" d="M164.48,276.967c1.359,0,12.8-2.837,16.254-4.78a38.728,38.728,0,0,0,9.945-7.6c4.522-4.847,7.189-8.629,7.277-10.72.1-2.431,0-2.859-9.139,4.6-5.172,4.211-8.5,3.694-11.156,2.689a38.409,38.409,0,0,0-21.47-1.323S159.249,276.952,164.48,276.967Z" transform="translate(-78.303 -194.249)" fill="#eb9481"/>
      <path id="Path_4652" data-name="Path 4652" d="M179.411,261.608c-2.785-.953,8.253-3.332,9.523-6.443s-2.194-3.221-5.223-2.335c-10.639,3.155-16.882.569-23.273,4.943-.68.458-2.682,1.478-2.719,1.8C157.416,262.635,179.411,261.608,179.411,261.608Z" transform="translate(-78.702 -194.265)" fill="#eb9481"/>
      <path id="Path_4653" data-name="Path 4653" d="M173.74,255.55a23.34,23.34,0,0,0-5.911.17,14.311,14.311,0,0,0-5.009,2.157c-.066.037,0,.148.059.111,3.28-1.973,7.144-2.165,10.861-2.349a.044.044,0,1,0,0-.089Z" transform="translate(-80.028 -195.071)" fill="#263238"/>
      <path id="Path_4654" data-name="Path 4654" d="M104.521,237.323l6.723-1.263,8.467-1.588a108.341,108.341,0,0,0-4.433-15.308c-2.5-6.044-6.649-8.016-8.932.288C104.129,227.615,104.521,237.323,104.521,237.323Z" transform="translate(-64.801 -184.225)" fill="#e58f6b"/>
      <path id="Path_4655" data-name="Path 4655" d="M105.33,240.614c2.586-.584,12.08-2.608,13.343-2.409,0,0,.044.1,0,.111-1.116.628-10.713,2.1-13.336,2.453C105.308,240.776,105.278,240.628,105.33,240.614Z" transform="translate(-65.012 -190.567)" fill="#263238"/>
      <path id="Path_4656" data-name="Path 4656" d="M105.676,240.889c-.4.118-.8.222-1.2.325h-.111v-.126c-.1-1.057-.118-2.12-.118-3.177s.052-2.12.126-3.177.17-2.113.318-3.162.3-2.091.525-3.133c0,1.064-.074,2.113-.126,3.17s-.118,2.106-.177,3.162c-.111,2.1-.259,4.2-.347,6.31l-.118-.089C104.848,240.97,105.262,240.919,105.676,240.889Z" transform="translate(-64.738 -188.02)" fill="#263238"/>
      <path id="Path_4657" data-name="Path 4657" d="M103.773,231.65a12.464,12.464,0,0,1,.473,1.965c.052.332.1.665.133,1a9.334,9.334,0,0,1,.052,1.02,7.964,7.964,0,0,1-.547-1.958A8.407,8.407,0,0,1,103.773,231.65Z" transform="translate(-64.608 -188.859)" fill="#263238"/>
      <path id="Path_4658" data-name="Path 4658" d="M123.552,238.083l.547-.163-.044.074c-.288-.879-.517-1.766-.776-2.645l-.687-2.66c-.443-1.773-.857-3.546-1.241-5.349a21.749,21.749,0,0,1,1,2.571,24.283,24.283,0,0,1,.739,2.645c.2.887.429,1.788.606,2.689s.332,1.8.443,2.719v.066h-.059A4.664,4.664,0,0,1,123.552,238.083Z" transform="translate(-69.204 -187.733)" fill="#263238"/>
      <path id="Path_4659" data-name="Path 4659" d="M123.177,229.75a4.994,4.994,0,0,1,.251,1.537,4.646,4.646,0,0,1-.052.783,2.756,2.756,0,0,1-.2.739,10.925,10.925,0,0,1-.118-1.537,7.329,7.329,0,0,1,.118-1.522Z" transform="translate(-69.649 -188.362)" fill="#263238"/>
    </g>
    <g id="freepik--speech-bubble--inject-3" transform="translate(127.258 91.65)">
      <path id="Path_4660" data-name="Path 4660" d="M173.083,163.976a4.551,4.551,0,1,1-1.6-3.1,4.559,4.559,0,0,1,1.6,3.1Z" transform="translate(-157.816 -119.154)" fill="#f4ede6"/>
      <path id="Path_4661" data-name="Path 4661" d="M173.018,163.915a4.651,4.651,0,1,1-4.95-4.338,4.751,4.751,0,0,1,4.95,4.338Zm0,0a4.366,4.366,0,0,0-4.913-3.967,4.433,4.433,0,0,0-3.8,4.721,4.372,4.372,0,1,0,8.711-.754Z" transform="translate(-157.752 -119.093)" fill="#263238"/>
      <path id="Path_4662" data-name="Path 4662" d="M161.211,176a2.534,2.534,0,1,1-2.748-2.312A2.534,2.534,0,0,1,161.211,176Z" transform="translate(-155.771 -122.777)" fill="#f4ede6"/>
      <path id="Path_4663" data-name="Path 4663" d="M161.077,175.948a2.726,2.726,0,1,1-1.954-2.357A2.741,2.741,0,0,1,161.077,175.948Zm0,0a2.416,2.416,0,0,0-.931-1.685,2.357,2.357,0,1,0,.3,3.5A2.416,2.416,0,0,0,161.077,175.948Z" transform="translate(-155.637 -122.726)" fill="#263238"/>
      <path id="Path_4664" data-name="Path 4664" d="M205.108,128.457a13.3,13.3,0,0,1-18.382,13.868,11.164,11.164,0,0,1-17.732-.037,8.362,8.362,0,0,1-1.478.31,9.058,9.058,0,0,1-8.541-14.185A13.3,13.3,0,0,1,176.9,109.159a11.164,11.164,0,0,1,19.165,3.044,7.085,7.085,0,0,1,1.433-.325,7.3,7.3,0,0,1,6.28,12.168A13,13,0,0,1,205.108,128.457Z" transform="translate(-155.752 -104.832)" fill="#f4ede6"/>
      <path id="Path_4665" data-name="Path 4665" d="M204.993,128.408a13.506,13.506,0,0,1-.953,6.812,14.214,14.214,0,0,1-1.751,3.007,13.765,13.765,0,0,1-2.475,2.431,13.439,13.439,0,0,1-13.247,1.721h.126a11.363,11.363,0,0,1-18.042.052l.266.089a9.206,9.206,0,0,1-2.837.392,8.778,8.778,0,0,1-2.83-.473,9.376,9.376,0,0,1-4.6-3.362,10.041,10.041,0,0,1-1.308-2.571,9.8,9.8,0,0,1-.473-2.844,9.376,9.376,0,0,1,1.692-5.46v.384a13.617,13.617,0,0,1,.739-17.732,13.764,13.764,0,0,1,8.452-4.241,13.557,13.557,0,0,1,9.132,2.313l-.325.052a11.355,11.355,0,0,1,19.446,3.184l-.1-.044a7.44,7.44,0,0,1,4.758.059,7.337,7.337,0,0,1,2.955,11.873h0A12.989,12.989,0,0,1,204.993,128.408Zm0,0a13.033,13.033,0,0,0-1.352-4.433h0a7.263,7.263,0,0,0-3.007-11.747,7.174,7.174,0,0,0-4.669,0h-.074v-.074a11.082,11.082,0,0,0-3.4-4.64,10.982,10.982,0,0,0-15.508,1.729l-.133.177-.192-.133a13.02,13.02,0,0,0-17.5,18.84l.155.2-.148.214a8.652,8.652,0,0,0-1.588,5.054,8.969,8.969,0,0,0,.421,2.652,9.265,9.265,0,0,0,1.2,2.4,8.925,8.925,0,0,0,4.263,3.184,8.334,8.334,0,0,0,2.66.48,8.458,8.458,0,0,0,2.682-.332l.163-.052.111.14a11.156,11.156,0,0,0,3.812,3.2,11.008,11.008,0,0,0,13.661-3.074l.052-.066h.074a13.107,13.107,0,0,0,13.114-1.581,13.934,13.934,0,0,0,2.482-2.409,14.089,14.089,0,0,0,1.758-2.955,13.461,13.461,0,0,0,.96-6.775Z" transform="translate(-155.637 -104.783)" fill="#263238"/>
      <path id="Path_4666" data-name="Path 4666" d="M197.182,131.559l-.421,2.017a1.478,1.478,0,0,1-1.832,1.2,1.552,1.552,0,0,1-1.2-1.84l.672-3.229.044-.052c.044-.052,0,0,0-.074a1.6,1.6,0,0,1,1.84-1.2,3.558,3.558,0,1,0-1.862-5.866,1.559,1.559,0,1,1-2.32-2.076,6.649,6.649,0,1,1,5.135,11.082Zm-1.411,6.8-.118.561a1.522,1.522,0,0,1-1.84,1.2,1.566,1.566,0,0,1-1.2-1.84l.118-.561a1.574,1.574,0,0,1,1.84-1.189A1.552,1.552,0,0,1,195.771,138.356Z" transform="translate(-165.041 -108.296)" fill="#e58f6b"/>
      <path id="Path_4667" data-name="Path 4667" d="M175.789,127.469l-.214-2.01a1.478,1.478,0,0,1,1.352-1.736,1.559,1.559,0,0,1,1.729,1.352l.406,3.273v.066c0,.066,0,0,.037.059a1.588,1.588,0,0,1-1.352,1.729,3.554,3.554,0,1,0,.872,7.048,3.487,3.487,0,0,0,2.808-2.1,1.566,1.566,0,0,1,2.069-.835,1.544,1.544,0,0,1,.8,2.039,6.649,6.649,0,1,1-8.445-8.866Zm-.85-6.886-.074-.569a1.478,1.478,0,0,1,1.352-1.729,1.544,1.544,0,0,1,1.729,1.352l.074.562a1.581,1.581,0,0,1-1.352,1.736,1.537,1.537,0,0,1-1.729-1.352Z" transform="translate(-159.791 -108.307)" fill="#e58f6b"/>
    </g>
  </g>
</svg>
