<svg xmlns="http://www.w3.org/2000/svg" width="185.692" height="112.895" viewBox="0 0 185.692 112.895">
  <g id="Group_412" data-name="Group 412" transform="translate(-202.599 -481.552)">
    <g id="Parking-pana_1_" data-name="Parking-pana (1)" transform="translate(185.489 448.782)">
      <g id="freepik--background-complete--inject-155" transform="translate(31.652 32.77)">
        <rect id="Rectangle_1175" data-name="Rectangle 1175" width="37.092" height="3.977" transform="translate(4.786 102.83)" fill="#e0e0e0"/>
        <rect id="Rectangle_1176" data-name="Rectangle 1176" width="37.092" height="3.977" transform="translate(64.461 102.83)" fill="#e0e0e0"/>
        <rect id="Rectangle_1177" data-name="Rectangle 1177" width="37.092" height="3.977" transform="translate(120.437 102.83)" fill="#e0e0e0"/>
        <path id="Path_4861" data-name="Path 4861" d="M239.148,122.09a15.008,15.008,0,0,1-9.237-6.683,12.434,12.434,0,0,1-.969-10.624c1.008-2.7,2.953-5.078,3.787-7.829.945-3.117.382-6.431-.2-9.624s-1.179-6.494-.291-9.626,3.678-6.078,7.273-6.3a8.537,8.537,0,0,1,7.792,4.74c1.384,2.73,1.4,5.855,1.073,8.831s-.956,5.974-.758,8.961c.4,6.063,4.182,11.772,3.738,17.832-.231,3.156-1.59,5.174-3.917,7.548a9.509,9.509,0,0,1-8.294,2.764" transform="translate(-187.895 -61.358)" fill="#ebebeb"/>
        <path id="Path_4862" data-name="Path 4862" d="M274.822,211.264c-.036,0-.062-13.432-.062-30s.026-30,.062-30,.062,13.429.062,30S274.843,211.264,274.822,211.264Z" transform="translate(-222.378 -120.49)" fill="#e0e0e0"/>
        <path id="Path_4863" data-name="Path 4863" d="M263.812,216.066a4.679,4.679,0,0,1-.574-.488c-.343-.312-.81-.753-1.3-1.257s-.943-.951-1.27-1.278a4.4,4.4,0,0,1-.52-.543,5,5,0,0,1,.574.488c.343.312.81.753,1.3,1.257s.943.951,1.27,1.278A4.9,4.9,0,0,1,263.812,216.066Z" transform="translate(-211.563 -165.815)" fill="#e0e0e0"/>
        <rect id="Rectangle_1178" data-name="Rectangle 1178" width="20.855" height="2.452" transform="translate(42.179 88.284)" fill="#e0e0e0"/>
        <path id="Path_4864" data-name="Path 4864" d="M275.493,168.8a4.356,4.356,0,0,0,1.275-.52,3.454,3.454,0,0,0,1.021-.99,3.215,3.215,0,0,0,.556-1.559v-.055l.073.06a2.766,2.766,0,0,0-1.535.81,5.653,5.653,0,0,0-.857,1.107c-.205.338-.348.623-.447.818a2.1,2.1,0,0,1-.158.307,1.6,1.6,0,0,1,.114-.322,7.463,7.463,0,0,1,.413-.842,5.434,5.434,0,0,1,.849-1.138,2.858,2.858,0,0,1,1.6-.855h.078v.125a3.246,3.246,0,0,1-.582,1.616,3.375,3.375,0,0,1-1.07,1,3.22,3.22,0,0,1-.948.387,1.929,1.929,0,0,1-.278.049A.378.378,0,0,1,275.493,168.8Z" transform="translate(-222.866 -131.112)" fill="#e0e0e0"/>
        <path id="Path_4865" data-name="Path 4865" d="M275.7,172.113a7.747,7.747,0,0,1,.875-1.039,8.436,8.436,0,0,1,.969-.974,7.47,7.47,0,0,1-.873,1.039,7.941,7.941,0,0,1-.971.974Z" transform="translate(-223.074 -134.429)" fill="#e0e0e0"/>
        <path id="Path_4866" data-name="Path 4866" d="M472.205,134.277a16.428,16.428,0,0,1-10.081-6.372,10.552,10.552,0,0,1-1.057-10.13c1.1-2.574,3.223-4.842,4.133-7.46,1.039-2.977.418-6.13-.221-9.172s-1.286-6.187-.319-9.177a9,9,0,0,1,7.938-6,9.569,9.569,0,0,1,8.512,4.517c1.517,2.6,1.527,5.582,1.174,8.426s-1.039,5.689-.829,8.543c.439,5.779,4.566,11.219,4.081,16.993-.26,3.008-1.738,4.935-4.275,7.2a11.332,11.332,0,0,1-9.055,2.634" transform="translate(-359.673 -72.137)" fill="#ebebeb"/>
        <path id="Path_4867" data-name="Path 4867" d="M511.09,219.3c-.039,0-.07-12.8-.07-28.588s.031-28.588.07-28.588.068,12.8.068,28.588S511.127,219.3,511.09,219.3Z" transform="translate(-397.269 -128.521)" fill="#e0e0e0"/>
        <path id="Path_4868" data-name="Path 4868" d="M499.152,223.863a5.114,5.114,0,0,1-.629-.465c-.374-.3-.883-.72-1.418-1.2s-1.039-.907-1.387-1.218a4.827,4.827,0,0,1-.558-.52,5.116,5.116,0,0,1,.629.465c.374.3.883.719,1.421,1.2s1.039.907,1.384,1.216A4.968,4.968,0,0,1,499.152,223.863Z" transform="translate(-385.529 -171.708)" fill="#e0e0e0"/>
        <rect id="Rectangle_1179" data-name="Rectangle 1179" width="22.764" height="2.335" transform="translate(102.631 88.401)" fill="#e0e0e0"/>
        <path id="Path_4869" data-name="Path 4869" d="M511.881,178.833a5.41,5.41,0,0,0,1.39-.486,3.61,3.61,0,0,0,1.117-.943,2.839,2.839,0,0,0,.605-1.494v-.052l.081.057a3.148,3.148,0,0,0-1.675.779,5.436,5.436,0,0,0-.935,1.052c-.223.322-.382.595-.488.779a2.019,2.019,0,0,1-.174.291,1.468,1.468,0,0,1,.125-.306,6.545,6.545,0,0,1,.452-.8,5.181,5.181,0,0,1,.927-1.083,3.265,3.265,0,0,1,1.748-.816h.086v.119a2.873,2.873,0,0,1-.636,1.54,3.613,3.613,0,0,1-1.169.953,4.019,4.019,0,0,1-1.039.369,2.685,2.685,0,0,1-.3.047.547.547,0,0,1-.109-.005Z" transform="translate(-397.847 -138.655)" fill="#e0e0e0"/>
        <path id="Path_4870" data-name="Path 4870" d="M512.11,181.972a7.5,7.5,0,0,1,.953-.995,8,8,0,0,1,1.06-.927,7.655,7.655,0,0,1-.953.995A8.5,8.5,0,0,1,512.11,181.972Z" transform="translate(-398.076 -141.794)" fill="#e0e0e0"/>
        <circle id="Ellipse_25" data-name="Ellipse 25" cx="5.821" cy="5.821" r="5.821" transform="matrix(0.19, -0.982, 0.982, 0.19, 140.616, 17.947)" fill="#ebebeb"/>
        <path id="Path_4871" data-name="Path 4871" d="M636.431,119.131a23.514,23.514,0,0,1-.062-2.405,23.445,23.445,0,0,1,.062-2.405,23.959,23.959,0,0,1,.06,2.405A24.013,24.013,0,0,1,636.431,119.131Z" transform="translate(-490.053 -93.137)" fill="#e0e0e0"/>
        <path id="Path_4872" data-name="Path 4872" d="M616.4,109.1c.029.016-.52,1.021-1.223,2.244a24.485,24.485,0,0,1-1.333,2.182c-.034-.016.519-1.021,1.226-2.244A25.2,25.2,0,0,1,616.4,109.1Z" transform="translate(-473.385 -89.272)" fill="#e0e0e0"/>
        <path id="Path_4873" data-name="Path 4873" d="M602.44,100.83a26.572,26.572,0,0,1-2.8,2.226A12.832,12.832,0,0,1,601,101.895,13.251,13.251,0,0,1,602.44,100.83Z" transform="translate(-462.87 -83.151)" fill="#e0e0e0"/>
        <path id="Path_4874" data-name="Path 4874" d="M655.921,112.258a3.187,3.187,0,0,1-.153-.59c-.083-.369-.2-.873-.351-1.429s-.3-1.039-.413-1.41a3.571,3.571,0,0,1-.164-.59,2.664,2.664,0,0,1,.247.561c.133.353.3.849.447,1.408s.26,1.07.32,1.442A2.7,2.7,0,0,1,655.921,112.258Z" transform="translate(-503.732 -88.637)" fill="#e0e0e0"/>
        <path id="Path_4875" data-name="Path 4875" d="M672.2,99.173a19.85,19.85,0,0,1-1.722-1.426,20.906,20.906,0,0,1-1.644-1.517,20.094,20.094,0,0,1,1.725,1.426,19.51,19.51,0,0,1,1.642,1.517Z" transform="translate(-514.088 -79.746)" fill="#e0e0e0"/>
        <path id="Path_4876" data-name="Path 4876" d="M676.815,83.711a5.663,5.663,0,0,1-.7-.094c-.431-.073-1.039-.166-1.691-.242s-1.268-.122-1.7-.148a4.724,4.724,0,0,1-.707-.062,3.611,3.611,0,0,1,.712-.026,16.3,16.3,0,0,1,1.712.114,17.105,17.105,0,0,1,1.7.278A3.4,3.4,0,0,1,676.815,83.711Z" transform="translate(-516.442 -70.051)" fill="#e0e0e0"/>
        <path id="Path_4877" data-name="Path 4877" d="M674.365,63.513c0,.034-1.255.369-2.818.751s-2.842.662-2.857.631,1.255-.369,2.818-.751S674.357,63.482,674.365,63.513Z" transform="translate(-513.984 -55.526)" fill="#e0e0e0"/>
        <path id="Path_4878" data-name="Path 4878" d="M657.187,38.079c.029.021-.574.982-1.348,2.153a24.18,24.18,0,0,1-1.452,2.078,25.338,25.338,0,0,1,1.351-2.151C656.512,38.991,657.159,38.058,657.187,38.079Z" transform="translate(-503.396 -36.7)" fill="#e0e0e0"/>
        <path id="Path_4879" data-name="Path 4879" d="M639.63,32.77a5.469,5.469,0,0,1,0,.8c0,.494-.016,1.177-.016,1.93s0,1.434.021,1.927a5.435,5.435,0,0,1,0,.8,4.775,4.775,0,0,1-.078-.8c-.031-.494-.057-1.177-.057-1.93s.023-1.439.052-1.933A4.815,4.815,0,0,1,639.63,32.77Z" transform="translate(-492.377 -32.77)" fill="#e0e0e0"/>
        <path id="Path_4880" data-name="Path 4880" d="M613.416,44.206a25.025,25.025,0,0,1-1.372-2.127,25.1,25.1,0,0,1-1.268-2.19c.031-.018.642.935,1.371,2.127S613.444,44.188,613.416,44.206Z" transform="translate(-471.113 -38.04)" fill="#e0e0e0"/>
        <path id="Path_4881" data-name="Path 4881" d="M597.876,62.733a2.886,2.886,0,0,1-.621-.1c-.379-.078-.9-.205-1.465-.374s-1.075-.343-1.436-.481a3.011,3.011,0,0,1-.574-.26,3.614,3.614,0,0,1,.6.171c.369.119.875.281,1.442.447s1.078.307,1.452.408A3.927,3.927,0,0,1,597.876,62.733Z" transform="translate(-458.532 -54.052)" fill="#e0e0e0"/>
        <path id="Path_4882" data-name="Path 4882" d="M593.933,83.44a14.359,14.359,0,0,1-1.86.239,14.056,14.056,0,0,1-1.873.119,14.7,14.7,0,0,1,1.86-.242A14.285,14.285,0,0,1,593.933,83.44Z" transform="translate(-455.882 -70.278)" fill="#e0e0e0"/>
        <path id="Path_4883" data-name="Path 4883" d="M157.446,60.782c.114-.821-1.039-1.494-1.914-1.558a4.9,4.9,0,0,1-1.236-.109c-.852-.3-1.192-1.395-2.023-1.746a2.382,2.382,0,0,0-1.938.275,5.055,5.055,0,0,1-1.868.727c-.587.036-1.221-.182-1.733.1-.382.213-.582.655-.933.912a2.223,2.223,0,0,1-1.221.332,3.4,3.4,0,0,0-1.255.205.991.991,0,0,0-.631,1.008Z" transform="translate(-124.607 -50.896)" fill="#ebebeb"/>
        <path id="Path_4884" data-name="Path 4884" d="M604.926,168.96c.112-.821-1.039-1.5-1.914-1.559a4.906,4.906,0,0,1-1.239-.106c-.852-.3-1.19-1.4-2.021-1.746a2.39,2.39,0,0,0-1.938.273,5.067,5.067,0,0,1-1.87.727c-.584.039-1.221-.179-1.733.107-.379.213-.579.652-.932.912a2.213,2.213,0,0,1-1.218.33,3.473,3.473,0,0,0-1.257.205,1,1,0,0,0-.629,1.01Z" transform="translate(-455.854 -130.976)" fill="#ebebeb"/>
        <path id="Path_4885" data-name="Path 4885" d="M98.544,104.2c.195-1.413-1.8-2.577-3.3-2.7a8.57,8.57,0,0,1-2.135-.184c-1.468-.52-2.055-2.408-3.486-3.01a4.1,4.1,0,0,0-3.34.473,8.7,8.7,0,0,1-3.221,1.252c-1.008.065-2.1-.309-2.987.184-.657.366-1,1.125-1.608,1.559a3.976,3.976,0,0,1-2.1.569,6.117,6.117,0,0,0-2.166.353,1.71,1.71,0,0,0-1.083,1.74Z" transform="translate(-73.096 -81.142)" fill="#f5f5f5"/>
        <path id="Path_4886" data-name="Path 4886" d="M372.18,91.3c.169-1.229-1.558-2.242-2.87-2.338a7.363,7.363,0,0,1-1.857-.161c-1.275-.444-1.784-2.094-3.031-2.618a3.56,3.56,0,0,0-2.9.41,7.358,7.358,0,0,1-2.805,1.091c-.875.057-1.818-.26-2.6.158-.574.319-.873.979-1.4,1.369a3.285,3.285,0,0,1-1.818.5,5.193,5.193,0,0,0-1.883.306,1.491,1.491,0,0,0-.945,1.512Z" transform="translate(-278.111 -72.184)" fill="#f5f5f5"/>
      </g>
      <g id="freepik--Floor--inject-155" transform="translate(17.11 121.991)">
        <path id="Path_4887" data-name="Path 4887" d="M202.8,384.048c0,.036-41.573.068-92.842.068s-92.85-.031-92.85-.068,41.56-.068,92.85-.068S202.8,384.009,202.8,384.048Z" transform="translate(-17.11 -381.975)" fill="#263238"/>
        <path id="Path_4888" data-name="Path 4888" d="M74.727,378.525H70.6l.54-2.005h3.587Z" transform="translate(-56.706 -376.452)" fill="#e0e0e0"/>
        <path id="Path_4889" data-name="Path 4889" d="M74.491,378.34a.972.972,0,0,1,0-.151v-.405l-.026-1.449.049.052-3.587.016.065-.049-.078.3c-.164.6-.319,1.174-.465,1.707l-.086-.078c1.184,0,2.208.018,2.94.031l.865.018a2.831,2.831,0,0,1,.322.016,1.966,1.966,0,0,1-.294.016l-.849.018c-.73.013-1.771.026-2.985.031H70.28l.021-.083.457-1.709.081-.3v-.049h.052l3.587.018h.052v.049c0,.631-.018,1.138-.029,1.481v.395A.423.423,0,0,1,74.491,378.34Z" transform="translate(-56.469 -376.267)" fill="#263238"/>
        <path id="Path_4890" data-name="Path 4890" d="M701.417,378.525H697.29l.54-2.005h3.587Z" transform="translate(-520.614 -376.452)" fill="#e0e0e0"/>
        <path id="Path_4891" data-name="Path 4891" d="M701.2,378.333a.97.97,0,0,1,0-.151v-.405c0-.364-.016-.855-.026-1.449l.049.052-3.587.016.065-.049c-.026.093-.052.195-.078.3-.164.6-.319,1.174-.465,1.707l-.062-.081c1.184,0,2.208.018,2.94.031l.865.018a2.873,2.873,0,0,1,.322.016,1.966,1.966,0,0,1-.294.016l-.849.018c-.73.013-1.771.026-2.984.031H697l.021-.083.457-1.709c.029-.1.055-.2.081-.3v-.049h.052l3.587.018h.052v.049c0,.631-.018,1.138-.029,1.481v.395A.569.569,0,0,1,701.2,378.333Z" transform="translate(-520.399 -376.26)" fill="#263238"/>
        <path id="Path_4892" data-name="Path 4892" d="M276.249,376.52H270.21l-.54,2.005h7.12Z" transform="translate(-204.068 -376.452)" fill="#e0e0e0"/>
        <path id="Path_4893" data-name="Path 4893" d="M276,376.328a1.012,1.012,0,0,1,.044.127l.114.387c.1.359.247.857.423,1.478l.016.055h-.057c-1.558,0-3.93.023-6.577.023h-.631l.023-.086c.19-.7.374-1.374.543-2l.013-.049h.049l4.343.026,1.257.021h.33a.543.543,0,0,1,.109,0h-.462l-1.249.021-4.327.026.062-.047c-.169.629-.348,1.3-.538,2l-.065-.083h.543c2.647,0,5.018,0,6.577.023l-.042.055c-.158-.616-.283-1.112-.374-1.47-.039-.164-.073-.3-.1-.4A.975.975,0,0,1,276,376.328Z" transform="translate(-203.816 -376.26)" fill="#263238"/>
        <path id="Path_4894" data-name="Path 4894" d="M493.347,376.52H487.31l-.54,2.005h7.117Z" transform="translate(-364.776 -376.452)" fill="#e0e0e0"/>
        <path id="Path_4895" data-name="Path 4895" d="M493.1,376.328a.654.654,0,0,1,.044.127c.031.1.068.229.117.387.1.359.244.857.421,1.478l.016.055h-.057c-1.559,0-3.927.023-6.577.023h-.629l.021-.086c.192-.7.374-1.374.546-2l.013-.049h.049l4.34.026,1.257.021h.33a.517.517,0,0,1,.109,0h-.46l-1.252.021-4.325.026.062-.047-.543,2.042-.065-.083h.54c2.649,0,5.018,0,6.577.023l-.042.055c-.156-.616-.283-1.112-.374-1.47-.039-.164-.07-.3-.1-.4A.972.972,0,0,1,493.1,376.328Z" transform="translate(-364.524 -376.26)" fill="#263238"/>
      </g>
      <g id="freepik--car-3--inject-155" transform="translate(146.691 87.681)">
        <rect id="Rectangle_1180" data-name="Rectangle 1180" width="6.795" height="10.099" transform="translate(0.343 26.284)" fill="#263238"/>
        <rect id="Rectangle_1181" data-name="Rectangle 1181" width="6.795" height="10.099" transform="translate(37.853 26.284)" fill="#263238"/>
        <path id="Path_4896" data-name="Path 4896" d="M520.915,252.6s-2.509,1.938-2.7,2.616a1.463,1.463,0,0,0-.309.917,9.4,9.4,0,0,1-.239,1.465,14.063,14.063,0,0,0-1.255,3.252c-.119,1.073,0,11.016,0,11.016h44.5V260l-1.234-3.008a9.162,9.162,0,0,0-.694-2.392,22.55,22.55,0,0,0-3.231-2.236l-1.847-4.883a5.366,5.366,0,0,0-4.7-3.312H528.048a5.8,5.8,0,0,0-4.395,2.707Z" transform="translate(-516.258 -244.17)" fill="#e0e0e0"/>
        <g id="Group_338" data-name="Group 338" transform="translate(0.099 20.427)" opacity="0.3">
          <path id="Path_4897" data-name="Path 4897" d="M516.36,322.81h44.547v7.268h-44.5Z" transform="translate(-516.36 -322.81)"/>
        </g>
        <path id="Path_4898" data-name="Path 4898" d="M542.61,255.366h30.928s-.387-7.086-5.026-7.086-20.91.135-20.91.135-2.029-.387-3.743,2.5a8.831,8.831,0,0,0-1.164,3.618Z" transform="translate(-535.693 -247.212)" fill="#455a64"/>
        <g id="Group_339" data-name="Group 339" transform="translate(14.013 1.187)" opacity="0.3">
          <path id="Path_4899" data-name="Path 4899" d="M569.93,248.74l5.634,6.966h3.546l-5.946-6.966Z" transform="translate(-569.93 -248.74)" fill="#f4ede6"/>
        </g>
        <g id="Group_340" data-name="Group 340" transform="translate(11.91 1.187)" opacity="0.3">
          <path id="Path_4900" data-name="Path 4900" d="M561.83,248.756l5.338,6.951h.886l-5.32-6.966Z" transform="translate(-561.83 -248.74)" fill="#f4ede6"/>
        </g>
        <path id="Path_4901" data-name="Path 4901" d="M568.736,275.56s.044.073.122.221l.348.655c.3.584.751,1.439,1.33,2.543v.016c0,1.236,0,2.766.016,4.538v2.836a2.1,2.1,0,0,1-2.055,2.094H539.251c-.421,0-.826,0-1.242-.016a2.245,2.245,0,0,1-.6-.156,2.078,2.078,0,0,1-.919-.761,2.171,2.171,0,0,1-.26-.519,3.466,3.466,0,0,1-.1-1.122v-2.1c0-1.335,0-2.543.013-3.605,0-.52,0-1.026-.013-1.481a1.364,1.364,0,0,1,.13-.644c.083-.192.169-.371.26-.535.358-.66.686-1.14.9-1.468l.26-.369.094-.122s-.026.047-.081.13-.14.213-.244.377c-.213.33-.519.816-.881,1.475-.086.166-.171.343-.26.532a1.3,1.3,0,0,0-.12.621c.016.457.018.951.023,1.481v5.707a3.281,3.281,0,0,0,.1,1.091,2.22,2.22,0,0,0,.244.5,2.173,2.173,0,0,0,.382.421,1.972,1.972,0,0,0,1.057.444c.395.021.816,0,1.231,0h29.243a1.99,1.99,0,0,0,1.951-1.977v-7.359l-1.3-2.559-.332-.662A1.013,1.013,0,0,0,568.736,275.56Z" transform="translate(-530.89 -267.406)" fill="#263238"/>
        <g id="Group_341" data-name="Group 341" transform="translate(10.863 13.13)" opacity="0.3">
          <path id="Path_4902" data-name="Path 4902" d="M557.8,299.658l4.733-4.938h13.889l4.834,4.938-5.016-3.491H562.683Z" transform="translate(-557.8 -294.72)"/>
        </g>
        <path id="Path_4903" data-name="Path 4903" d="M561.473,295.982v.909c0,.6,0,1.47.016,2.582v.034h-.034l-6.855.018h-2.592c0,.013-.1-.029-.1-.039l-.06-.047c-.145-.13-.281-.26-.421-.4l-.831-.834c-1.114-1.14-2.281-2.359-3.494-3.636l.049.021H533.28l.047-.021c-1.691,1.761-3.281,3.418-4.738,4.935l-.016.018h-.026l-10.226-.026h-.031v-.031c0-.966.013-1.709.016-2.218v0c0,.52,0,1.252.016,2.218l-.031-.031,10.226-.029-.042.018,4.727-4.935.018-.018h13.943l.021.021c1.208,1.273,2.372,2.494,3.483,3.637l.829.836c.138.135.275.26.413.395l.052.042.016.013h0v.005h2.6l6.855.021-.034.034c0-1.112.013-1.984.016-2.582v-.678A1.117,1.117,0,0,0,561.473,295.982Z" transform="translate(-517.69 -281.405)" fill="#263238"/>
        <rect id="Rectangle_1182" data-name="Rectangle 1182" width="12.585" height="3.013" transform="translate(16.13 14.577)" fill="#455a64"/>
        <path id="Path_4904" data-name="Path 4904" d="M515.985,338.445l1.577-1.912,42.17-.094.9,2.678v2.514l-3.707,2.226h-36.4s-4.348-1.688-4.548-3.582Z" transform="translate(-515.98 -312.473)" fill="#263238"/>
        <g id="Group_342" data-name="Group 342" transform="translate(4.548 27.333)" opacity="0.3">
          <path id="Path_4905" data-name="Path 4905" d="M567.515,349.4H535.859a2.366,2.366,0,0,0-2.369,2.366v1.577l1.626.117h34.458v-2a2.057,2.057,0,0,0-2.06-2.057Z" transform="translate(-533.49 -349.4)"/>
        </g>
        <path id="Path_4906" data-name="Path 4906" d="M539.578,355.332a1.244,1.244,0,1,1-1.244-1.242A1.244,1.244,0,0,1,539.578,355.332Z" transform="translate(-531.607 -325.538)" fill="#455a64"/>
        <path id="Path_4907" data-name="Path 4907" d="M549.808,355.332a1.244,1.244,0,1,1-1.242-1.242,1.244,1.244,0,0,1,1.242,1.242Z" transform="translate(-539.179 -325.538)" fill="#455a64"/>
        <path id="Path_4908" data-name="Path 4908" d="M560.642,353.972a25.666,25.666,0,0,1,0-3.722A25.683,25.683,0,0,1,560.642,353.972Z" transform="translate(-548.984 -322.696)" fill="#263238"/>
        <path id="Path_4909" data-name="Path 4909" d="M573.652,353.972a25.689,25.689,0,0,1,0-3.722,25.666,25.666,0,0,1,0,3.722Z" transform="translate(-558.615 -322.696)" fill="#263238"/>
        <path id="Path_4910" data-name="Path 4910" d="M586.662,353.972a25.712,25.712,0,0,1,0-3.722A25.666,25.666,0,0,1,586.662,353.972Z" transform="translate(-568.246 -322.696)" fill="#263238"/>
        <path id="Path_4911" data-name="Path 4911" d="M599.688,353.972a25.674,25.674,0,0,1,0-3.722,25.7,25.7,0,0,1,0,3.722Z" transform="translate(-577.895 -322.696)" fill="#263238"/>
        <path id="Path_4912" data-name="Path 4912" d="M612.7,353.972a25.674,25.674,0,0,1,0-3.722,25.666,25.666,0,0,1,0,3.722Z" transform="translate(-587.525 -322.696)" fill="#263238"/>
        <path id="Path_4913" data-name="Path 4913" d="M625.708,353.972a25.7,25.7,0,0,1,0-3.722,25.666,25.666,0,0,1,0,3.722Z" transform="translate(-597.156 -322.696)" fill="#263238"/>
        <path id="Path_4914" data-name="Path 4914" d="M638.718,353.972a25.7,25.7,0,0,1,0-3.722A25.666,25.666,0,0,1,638.718,353.972Z" transform="translate(-606.787 -322.696)" fill="#263238"/>
        <path id="Path_4915" data-name="Path 4915" d="M651.728,353.972a25.683,25.683,0,0,1,0-3.722A25.683,25.683,0,0,1,651.728,353.972Z" transform="translate(-616.417 -322.696)" fill="#263238"/>
        <path id="Path_4916" data-name="Path 4916" d="M664.657,353.972a25.683,25.683,0,0,1,0-3.722,25.689,25.689,0,0,1,0,3.722Z" transform="translate(-625.989 -322.696)" fill="#263238"/>
        <path id="Path_4917" data-name="Path 4917" d="M519.52,337.558l6.33.021v-.829l-5.673.013Z" transform="translate(-518.601 -312.702)" fill="#e58f6b"/>
        <path id="Path_4918" data-name="Path 4918" d="M668.437,337.287H662.45v-.847h5.7Z" transform="translate(-624.405 -312.473)" fill="#e58f6b"/>
        <path id="Path_4919" data-name="Path 4919" d="M573.818,275.5c0,.036-7.351.068-16.419.068s-16.419-.031-16.419-.068,7.351-.068,16.419-.068S573.818,275.461,573.818,275.5Z" transform="translate(-534.486 -267.31)" fill="#263238"/>
        <path id="Path_4920" data-name="Path 4920" d="M560.9,352.673a.519.519,0,0,1-.013.093l-.055.26a2.843,2.843,0,0,1-.47.961,5.732,5.732,0,0,1-3.47,1.917h0l-18.125.023-16.681-.021a7.172,7.172,0,0,1-2.823-.558,6.016,6.016,0,0,1-1.818-1.2,5.541,5.541,0,0,1-.87-1.065,3.09,3.09,0,0,1-.177-.312,1.179,1.179,0,0,1-.047-.112l.06.106c.039.07.1.174.187.3a5.836,5.836,0,0,0,.883,1.039,6.057,6.057,0,0,0,1.805,1.169,7.126,7.126,0,0,0,2.792.52l16.681-.018,18.125.026h0a5.8,5.8,0,0,0,3.447-1.862,2.894,2.894,0,0,0,.483-.94c.026-.112.049-.2.065-.26A.543.543,0,0,1,560.9,352.673Z" transform="translate(-516.254 -324.48)" fill="#455a64"/>
        <path id="Path_4921" data-name="Path 4921" d="M522.25,288.109s.688-.971,4.53-.971h32.809s2.79-.145,4.366,1.216l-.343,1.611H556.08l-2.753-1.774H533.232l-2.857,1.774h-7.792Z" transform="translate(-520.621 -275.973)" fill="#e58f6b"/>
        <path id="Path_4922" data-name="Path 4922" d="M566.93,288.808c0,.039-7.961.068-17.78.068s-17.78-.029-17.78-.068,7.959-.068,17.78-.068S566.93,288.782,566.93,288.808Z" transform="translate(-527.372 -277.163)" fill="#f4ede6"/>
        <g id="Group_343" data-name="Group 343" transform="translate(7.003 1.07)" opacity="0.3">
          <path id="Path_4923" data-name="Path 4923" d="M543.021,254.968a8.8,8.8,0,0,1,1.161-3.618c1.717-2.888,3.743-2.5,3.743-2.5s16.271-.138,20.91-.138c3.951,0,4.818,5.138,4.987,6.663h.044s-.387-7.086-5.026-7.086-20.91.135-20.91.135-2.026-.387-3.743,2.5a8.832,8.832,0,0,0-1.161,3.618l-.086.834h.042Z" transform="translate(-542.94 -248.29)"/>
        </g>
        <path id="Path_4924" data-name="Path 4924" d="M583.91,248.873h0a.418.418,0,0,0,.416.418H592.8a.418.418,0,0,0,.418-.418v-.057a.416.416,0,0,0-.421-.416l-8.473.06A.416.416,0,0,0,583.91,248.873Z" transform="translate(-566.265 -247.301)" fill="#e58f6b"/>
      </g>
      <g id="freepik--car-2--inject-155" transform="translate(88.193 72.264)">
        <rect id="Rectangle_1183" data-name="Rectangle 1183" width="7.065" height="12.912" transform="translate(3.34 38.888)" fill="#263238"/>
        <rect id="Rectangle_1184" data-name="Rectangle 1184" width="7.395" height="12.912" transform="translate(42.503 38.888)" fill="#263238"/>
        <rect id="Rectangle_1185" data-name="Rectangle 1185" width="1.914" height="1.587" transform="translate(3.66 18.752)" fill="#263238"/>
        <path id="Path_4925" data-name="Path 4925" d="M292.7,249.977h0a1.927,1.927,0,0,1-1.927-1.927v-2.382a1.927,1.927,0,0,1,1.927-1.927h0a1.927,1.927,0,0,1,1.927,1.927v2.382A1.927,1.927,0,0,1,292.7,249.977Z" transform="translate(-290.77 -228.435)" fill="#263238"/>
        <rect id="Rectangle_1186" data-name="Rectangle 1186" width="1.914" height="1.587" transform="translate(48.5 20.339) rotate(180)" fill="#263238"/>
        <path id="Path_4926" data-name="Path 4926" d="M478.675,249.977h0a1.927,1.927,0,0,0,1.927-1.927v-2.382a1.927,1.927,0,0,0-1.927-1.927h0a1.927,1.927,0,0,0-1.925,1.927v2.382a1.927,1.927,0,0,0,1.925,1.927Z" transform="translate(-428.442 -228.435)" fill="#263238"/>
        <path id="Path_4927" data-name="Path 4927" d="M311.339,184.99a2.979,2.979,0,0,0-2.416,1.3,5.282,5.282,0,0,0-.72,1.361c-.335,1.109-2.156,5.455-3.6,16.341-.52,3.346-.956,7.2-1.33,11.322l-.444,3.875,46.235.192s-1.327-13.146-1.634-15.393-3.883-17.367-3.883-17.367.1-1.182-2.338-1.613C339.081,184.636,317.16,184.909,311.339,184.99Z" transform="translate(-299.697 -184.817)" fill="#e58f6b"/>
        <g id="Group_344" data-name="Group 344" transform="translate(3.133 25.487)" opacity="0.3">
          <path id="Path_4928" data-name="Path 4928" d="M313.555,283.693h25.066l9.546-.753.9,8.839-10.909.236-35.331-.192.553-5.062.39-3.821Z" transform="translate(-302.83 -282.94)"/>
        </g>
        <path id="Path_4929" data-name="Path 4929" d="M317.33,211.851s-1.86.073-2.574,3.574-1.286,9.151-1.286,9.151h40.957l-2.078-10.151a3.681,3.681,0,0,0-2.636-2.574C347.352,211.015,318.346,210.885,317.33,211.851Z" transform="translate(-307.574 -204.328)" fill="#455a64"/>
        <path id="Path_4930" data-name="Path 4930" d="M376.76,211.19h7.811v.519a1.158,1.158,0,0,1-1.158,1.158h-5.494a1.158,1.158,0,0,1-1.158-1.158Z" transform="translate(-354.424 -204.34)" fill="#263238"/>
        <path id="Path_4931" data-name="Path 4931" d="M313.47,258.506l.164-1.5h40.394l.4,1.5Z" transform="translate(-307.574 -238.258)" fill="#263238"/>
        <path id="Path_4932" data-name="Path 4932" d="M436.365,247.308h-.26a3.808,3.808,0,1,0-7.616,0h-.26a4.068,4.068,0,1,1,8.135,0Z" transform="translate(-392.525 -228.065)" fill="#263238"/>
        <path id="Path_4933" data-name="Path 4933" d="M424.4,254.738a2.535,2.535,0,0,1,2.2-1.091c1.52-.042,5.379,0,5.379,0s1.883.083,2.429.86V255H424.4Z" transform="translate(-389.69 -235.755)" fill="#263238"/>
        <path id="Path_4934" data-name="Path 4934" d="M323.852,243.674a16.927,16.927,0,0,1,.452-4.486.746.746,0,0,1,.725-.558H331.7a.745.745,0,0,1,.738.631c.153.984.564,2.875.655,4.416Z" transform="translate(-315.22 -224.652)" fill="#263238"/>
        <rect id="Rectangle_1187" data-name="Rectangle 1187" width="5.881" height="3.135" rx="1.568" transform="translate(10.263 10.409)" fill="#263238"/>
        <path id="Path_4935" data-name="Path 4935" d="M369.652,243.674a17.045,17.045,0,0,1,.452-4.486.751.751,0,0,1,.725-.558H377.5a.748.748,0,0,1,.74.631c.153.984.561,2.875.655,4.416Z" transform="translate(-349.124 -224.652)" fill="#263238"/>
        <rect id="Rectangle_1188" data-name="Rectangle 1188" width="5.881" height="3.135" rx="1.568" transform="translate(22.159 10.409)" fill="#263238"/>
        <path id="Path_4936" data-name="Path 4936" d="M416.932,243.674a16.927,16.927,0,0,1,.452-4.486.748.748,0,0,1,.725-.558h6.673a.743.743,0,0,1,.738.631c.153.984.564,2.875.655,4.416Z" transform="translate(-384.123 -224.652)" fill="#263238"/>
        <rect id="Rectangle_1189" data-name="Rectangle 1189" width="5.881" height="3.135" rx="1.568" transform="translate(34.438 10.409)" fill="#263238"/>
        <path id="Path_4937" data-name="Path 4937" d="M354.309,262.77v.629c0,.418-.026,1.023-.047,1.8-.049,1.571-.117,3.836-.2,6.631v.047h-.049l-20.146.018-20.5-.018h-.049v-.049c0-2.688.018-4.865.023-6.374v-1.733c0,.4,0,.984.013,1.733,0,1.509.013,3.686.021,6.374l-.047-.047,20.5-.021,20.146.018-.049.049c.1-2.795.19-5.06.26-6.631.031-.779.057-1.384.075-1.8,0-.2.016-.358.021-.47A.394.394,0,0,1,354.309,262.77Z" transform="translate(-307.455 -242.522)" fill="#263238"/>
        <path id="Path_4938" data-name="Path 4938" d="M440.557,283.693c-.049.148,0,5,0,5s8.174.444,10-1.584l-.457-4.169Z" transform="translate(-401.634 -257.453)" fill="#e0e0e0"/>
        <path id="Path_4939" data-name="Path 4939" d="M440.45,283.516a1.358,1.358,0,0,1,.174-.023l.52-.049,1.966-.174,6.881-.569h.062v.06c.143,1.3.3,2.7.462,4.156v.031l-.021.021a2.707,2.707,0,0,1-.626.486,8.344,8.344,0,0,1-2.574.808,23.791,23.791,0,0,1-2.509.275,40.036,40.036,0,0,1-4.346.021h-.049v-3.7c0-.431,0-.779.018-1a1.487,1.487,0,0,1,.031-.345v1.343c.013.875.026,2.122.047,3.655l-.049-.049a43.186,43.186,0,0,0,4.333-.044,24.118,24.118,0,0,0,2.494-.283,8.231,8.231,0,0,0,2.53-.792,2.6,2.6,0,0,0,.595-.46l-.018.052c-.158-1.468-.312-2.875-.452-4.156l.068.055-6.855.519-1.979.138-.519.031h-.138Z" transform="translate(-401.526 -257.275)" fill="#263238"/>
        <path id="Path_4940" data-name="Path 4940" d="M315.008,283.7c.049.148,0,5,0,5s-8.174.444-10.008-1.582l.457-4.169Z" transform="translate(-301.304 -257.46)" fill="#e0e0e0"/>
        <path id="Path_4941" data-name="Path 4941" d="M314.786,283.567H314.6l-.52-.031L312.1,283.4l-6.855-.52.052-.049c-.14,1.3-.3,2.7-.455,4.156l-.018-.052a2.6,2.6,0,0,0,.6.46,8.2,8.2,0,0,0,2.527.792,24.177,24.177,0,0,0,2.5.283,43.116,43.116,0,0,0,4.33.044l-.047.049c.018-1.533.034-2.779.044-3.655v-1.343a1.486,1.486,0,0,1,.031.345c0,.229.016.566.021,1v3.7h-.049a40.051,40.051,0,0,1-4.346-.021,23.8,23.8,0,0,1-2.509-.275,8.313,8.313,0,0,1-2.572-.808,2.67,2.67,0,0,1-.629-.486L304.7,287v-.016c.164-1.468.319-2.878.462-4.156v-.06h.06l6.883.569,1.964.174.52.049A1.354,1.354,0,0,1,314.786,283.567Z" transform="translate(-301.082 -257.327)" fill="#263238"/>
        <path id="Path_4942" data-name="Path 4942" d="M302.551,317.022s-.452,6.042.587,9.715a2.759,2.759,0,0,0,2.657,1.995h40.7a2.133,2.133,0,0,0,1.995-1.361c.647-1.668,1.34-4.483.312-10.39l-12.039.044Z" transform="translate(-299.419 -282.651)" fill="#263238"/>
        <g id="Group_345" data-name="Group 345" transform="translate(4.27 36.35)" opacity="0.3">
          <path id="Path_4943" data-name="Path 4943" d="M307.21,324.76c.127.088.52,2.717,2.361,3.1a23.254,23.254,0,0,0,4.935.171V324.76Z" transform="translate(-307.21 -324.76)"/>
        </g>
        <path id="Path_4944" data-name="Path 4944" d="M320.817,326.794a1.491,1.491,0,1,1-.436-1.056A1.494,1.494,0,0,1,320.817,326.794Z" transform="translate(-310.801 -288.81)" fill="#f4ede6"/>
        <g id="Group_346" data-name="Group 346" transform="translate(39.459 36.386)" opacity="0.3">
          <path id="Path_4945" data-name="Path 4945" d="M449.979,324.9c-.13.086-.519,2.717-2.364,3.117a22.36,22.36,0,0,1-4.935.171V324.9Z" transform="translate(-442.68 -324.9)"/>
        </g>
        <path id="Path_4946" data-name="Path 4946" d="M448.65,326.931a1.494,1.494,0,1,0,1.494-1.491A1.494,1.494,0,0,0,448.65,326.931Z" transform="translate(-407.641 -288.913)" fill="#f4ede6"/>
        <path id="Path_4947" data-name="Path 4947" d="M348.85,324.76v2.566a2.509,2.509,0,0,0,2.509,2.509h17.4a2.509,2.509,0,0,0,2.509-2.509V324.9Z" transform="translate(-333.764 -288.41)" fill="#455a64"/>
        <g id="Group_347" data-name="Group 347" transform="translate(15.097 37.903)" opacity="0.3">
          <path id="Path_4948" data-name="Path 4948" d="M368.8,333.247H351.4a2.507,2.507,0,0,1-2.509-2.507V331.8a2.507,2.507,0,0,0,2.509,2.509h17.4a2.507,2.507,0,0,0,2.509-2.509V330.74a2.507,2.507,0,0,1-2.509,2.507Z" transform="translate(-348.89 -330.74)"/>
        </g>
        <path id="Path_4949" data-name="Path 4949" d="M350.177,297.65a2.637,2.637,0,0,0-1.371,2.273c-.236,2.195,2.273,2.79,2.273,2.79h19.066a4.855,4.855,0,0,0,1.088-2.79,2.536,2.536,0,0,0-1.468-2.273Z" transform="translate(-333.719 -268.342)" fill="#263238"/>
        <path id="Path_4950" data-name="Path 4950" d="M359.642,193.168c0,.036-7.811.068-17.44.068s-17.442-.031-17.442-.068,7.808-.068,17.442-.068S359.642,193.129,359.642,193.168Z" transform="translate(-315.931 -190.949)" fill="#263238"/>
        <path id="Path_4951" data-name="Path 4951" d="M348.711,317s.2.919.392,2.6a25.267,25.267,0,0,1,.164,3.091,14.068,14.068,0,0,1-.59,4.052c-.06.182-.119.366-.19.548a2.336,2.336,0,0,1-.26.538,2.195,2.195,0,0,1-.946.779,2.092,2.092,0,0,1-.618.166,6,6,0,0,1-.647.018h-40.17a2.982,2.982,0,0,1-1.257-.231,2.8,2.8,0,0,1-1.559-1.751,20.139,20.139,0,0,1-.616-4.052c-.073-1.205-.078-2.247-.068-3.1s.042-1.507.068-1.953c.016-.221.026-.39.036-.519s.018-.171.018-.171v.174c0,.114-.013.286-.021.506-.018.447-.042,1.107-.044,1.953s.013,1.888.093,3.091a20.121,20.121,0,0,0,.629,4.031,2.709,2.709,0,0,0,1.517,1.683,2.858,2.858,0,0,0,1.218.216h40.17a5.674,5.674,0,0,0,.634-.013,2.107,2.107,0,0,0,1.494-.9,2.233,2.233,0,0,0,.26-.52c.07-.179.132-.361.192-.54a14.083,14.083,0,0,0,.605-4.024,25.73,25.73,0,0,0-.14-3.086c-.039-.423-.088-.8-.13-1.12s-.081-.6-.114-.818-.057-.387-.075-.5S348.711,317,348.711,317Z" transform="translate(-299.338 -282.666)" fill="#455a64"/>
        <path id="Path_4952" data-name="Path 4952" d="M356.488,316.808c0,.036-9.767.068-21.819.068s-21.819-.031-21.819-.068,9.764-.068,21.819-.068S356.488,316.761,356.488,316.808Z" transform="translate(-307.115 -282.473)" fill="#455a64"/>
      </g>
      <g id="freepik--car-1--inject-155" transform="translate(36.43 86.624)">
        <path id="Path_4953" data-name="Path 4953" d="M97.041,277.738H93.319A1.039,1.039,0,0,1,92.28,276.7h0a1.579,1.579,0,0,1,1.579-1.579h2.3a.873.873,0,0,1,.873.875Z" transform="translate(-92.075 -266.024)" fill="#e58f6b"/>
        <path id="Path_4954" data-name="Path 4954" d="M241.68,277.738h3.72a1.039,1.039,0,0,0,1.039-1.039h0a1.579,1.579,0,0,0-1.579-1.579h-2.3a.875.875,0,0,0-.875.875Z" transform="translate(-202.668 -266.024)" fill="#e58f6b"/>
        <rect id="Rectangle_1190" data-name="Rectangle 1190" width="7.45" height="9.98" transform="translate(0.504 27.318)" fill="#263238"/>
        <rect id="Rectangle_1191" data-name="Rectangle 1191" width="7.45" height="9.98" transform="translate(36.49 27.318)" fill="#263238"/>
        <path id="Path_4955" data-name="Path 4955" d="M92.91,254.155l2.166-1.74,3.426-9.408a4.437,4.437,0,0,1,3.764-2.907l23.609.208a3.213,3.213,0,0,1,2.987,2.109l3.068,8.4.842,1.909,2,1.4a2.857,2.857,0,0,1,1.223,2.338v13.481a2.578,2.578,0,0,1-2.675,2.481H94.754a2.892,2.892,0,0,1-2.875-2.777c-.314-2.281-.13-10.18-.039-13.346A2.857,2.857,0,0,1,92.91,254.155Z" transform="translate(-91.647 -240.1)" fill="#e58f6b"/>
        <g id="Group_348" data-name="Group 348" transform="translate(0.008 23.692)" opacity="0.3">
          <path id="Path_4956" data-name="Path 4956" d="M91.52,331.31c.3.073,44.339,0,44.339,0v6.005a2.516,2.516,0,0,1-2.509,2.634H94.868a3.185,3.185,0,0,1-3.268-3.3Z" transform="translate(-91.52 -331.31)"/>
        </g>
        <path id="Path_4957" data-name="Path 4957" d="M93.178,297.975l8.546,1.039v5.011s-9.457-.26-10.024-1.522l.127-3.377a1.208,1.208,0,0,1,1.351-1.151Z" transform="translate(-91.645 -282.936)" fill="#e0e0e0"/>
        <path id="Path_4958" data-name="Path 4958" d="M93.023,297.95a1.96,1.96,0,0,0-.369.029,1.2,1.2,0,0,0-.813.613,1.462,1.462,0,0,0-.14.738c0,.281-.018.587-.029.914-.023.66-.047,1.405-.075,2.226v-.021a1.428,1.428,0,0,0,.779.47,9.028,9.028,0,0,0,.99.26c.691.138,1.431.247,2.208.335,1.559.177,3.239.291,5,.371l1.005.039-.07.068v-5.011l.055.062-6.161-.779-1.753-.229-.47-.057a1.162,1.162,0,0,1-.161-.029,1.093,1.093,0,0,1,.164,0l.465.044,1.756.195,6.169.722h.055v5.159h-.07l-1.005-.039c-1.766-.08-3.46-.2-5.013-.382-.779-.091-1.52-.2-2.216-.346a8.815,8.815,0,0,1-1-.26,3.31,3.31,0,0,1-.46-.2.878.878,0,0,1-.371-.338h0V302.5c.036-.821.068-1.558.094-2.226.016-.327.029-.634.042-.914a1.543,1.543,0,0,1,.161-.761,1.228,1.228,0,0,1,.875-.644A.938.938,0,0,1,93.023,297.95Z" transform="translate(-91.49 -282.911)" fill="#263238"/>
        <path id="Path_4959" data-name="Path 4959" d="M232.176,297.975l-8.546,1.039v5.011s9.273-.327,9.839-1.584l.057-3.3a1.205,1.205,0,0,0-1.351-1.161Z" transform="translate(-189.307 -282.935)" fill="#e0e0e0"/>
        <path id="Path_4960" data-name="Path 4960" d="M232.028,297.946a.927.927,0,0,1,.371,0,1.218,1.218,0,0,1,.855.6,1.3,1.3,0,0,1,.158.751v.907c0,.649-.018,1.39-.029,2.2h0a.891.891,0,0,1-.364.338,3.224,3.224,0,0,1-.455.2,8.336,8.336,0,0,1-.995.278c-.691.148-1.429.26-2.2.361-1.543.192-3.226.325-4.982.416l-.888.039h-.07V298.9h.055l6.156-.7,1.758-.195.468-.044a1.083,1.083,0,0,1,.161,0,1.163,1.163,0,0,1-.158.029l-.465.068-1.753.229-6.161.779.055-.062v5.011l-.07-.068.888-.039c1.753-.091,3.431-.218,4.972-.405.779-.094,1.5-.208,2.19-.351a8.863,8.863,0,0,0,.982-.26,1.439,1.439,0,0,0,.764-.475v.021c.018-.813.034-1.559.049-2.2,0-.325.016-.626.021-.906a1.239,1.239,0,0,0-.138-.722,1.205,1.205,0,0,0-.808-.6A2.4,2.4,0,0,0,232.028,297.946Z" transform="translate(-189.159 -282.907)" fill="#263238"/>
        <path id="Path_4961" data-name="Path 4961" d="M135.111,302a2.7,2.7,0,0,0-2.678,2.27,6.463,6.463,0,0,0-.055,1.3c.151,2.995.748,6.665,2.172,7.561h9.808V302Z" transform="translate(-121.749 -285.921)" fill="#263238"/>
        <path id="Path_4962" data-name="Path 4962" d="M183.467,302a2.694,2.694,0,0,1,2.678,2.27,6.464,6.464,0,0,1,.055,1.3c-.148,2.995-.748,6.665-2.172,7.561H174.22V302Z" transform="translate(-152.731 -285.921)" fill="#263238"/>
        <path id="Path_4963" data-name="Path 4963" d="M154.306,313.777H132.087a.6.6,0,0,1-.6-.6h0a.6.6,0,0,1,.6-.6h22.219a.6.6,0,0,1,.6.6h0A.6.6,0,0,1,154.306,313.777Z" transform="translate(-121.1 -293.753)" fill="#455a64"/>
        <path id="Path_4964" data-name="Path 4964" d="M155.4,304.67H135.14a.6.6,0,0,1-.6-.6h0a.6.6,0,0,1,.6-.6H155.4a.6.6,0,0,1,.6.6h0a.6.6,0,0,1-.6.6Z" transform="translate(-123.358 -287.01)" fill="#455a64"/>
        <rect id="Rectangle_1192" data-name="Rectangle 1192" width="23.185" height="1.197" rx="0.599" transform="translate(10.619 21.494)" fill="#455a64"/>
        <path id="Path_4965" data-name="Path 4965" d="M155.613,334.307H134.887a.6.6,0,0,1-.6-.6h0a.6.6,0,0,1,.6-.6h20.725a.6.6,0,0,1,.6.6h0A.6.6,0,0,1,155.613,334.307Z" transform="translate(-123.173 -308.951)" fill="#455a64"/>
        <path id="Path_4966" data-name="Path 4966" d="M111,255.38s2.475-8.27,3.657-9.32h27.107a51.847,51.847,0,0,1,3.179,9.32Z" transform="translate(-105.932 -244.512)" fill="#455a64"/>
        <path id="Path_4967" data-name="Path 4967" d="M137.63,350.47v.72a1.585,1.585,0,0,0,1.584,1.585h17.3a1.585,1.585,0,0,0,1.584-1.585v-.72Z" transform="translate(-125.645 -321.801)" fill="#263238"/>
        <path id="Path_4968" data-name="Path 4968" d="M229.8,342.77v3.151s6.333.894,7.26-3.151Z" transform="translate(-193.874 -316.101)" fill="#263238"/>
        <path id="Path_4969" data-name="Path 4969" d="M106.867,342.77v3.151s-6.333.894-7.257-3.151Z" transform="translate(-97.501 -316.101)" fill="#263238"/>
        <path id="Path_4970" data-name="Path 4970" d="M154.11,257.146a.477.477,0,0,1-.023-.049l-.065-.153c-.055-.14-.135-.34-.236-.595-.208-.52-.5-1.3-.881-2.257-.751-1.945-1.818-4.7-3.068-7.961l.057.039h-8.772l-14.559-.039-4.416-.029-1.2-.016h1.2l4.416-.016h14.559l8.772.018h.042l.016.039,3.021,7.98c.364.969.649,1.738.849,2.27.094.26.166.457.221.6l.052.156C154.108,257.128,154.113,257.146,154.11,257.146Z" transform="translate(-112.987 -244.519)" fill="#263238"/>
        <path id="Path_4971" data-name="Path 4971" d="M144.944,281.761c0,.036-7.6.073-16.972.078S111,281.82,111,281.776s7.6-.073,16.972-.078S144.944,281.724,144.944,281.761Z" transform="translate(-105.932 -270.893)" fill="#263238"/>
        <path id="Path_4972" data-name="Path 4972" d="M240.779,281.748c.023-.029,1.12.756,2.447,1.753s2.387,1.831,2.364,1.862-1.117-.756-2.444-1.753S240.758,281.779,240.779,281.748Z" transform="translate(-202.001 -270.929)" fill="#263238"/>
        <path id="Path_4973" data-name="Path 4973" d="M99.044,281.94c.023.029-.9.849-2.055,1.834s-2.117,1.761-2.14,1.733.9-.849,2.052-1.834A27.026,27.026,0,0,1,99.044,281.94Z" transform="translate(-93.976 -271.072)" fill="#263238"/>
        <path id="Path_4974" data-name="Path 4974" d="M106.638,266.87c.034,0-.374,1.223-.914,2.7s-1.005,2.67-1.039,2.657.374-1.223.912-2.7S106.6,266.857,106.638,266.87Z" transform="translate(-101.256 -259.916)" fill="#263238"/>
        <path id="Path_4975" data-name="Path 4975" d="M155.486,301.53a.26.26,0,0,1-.065,0l-.19.013-.732.042c-.639.034-1.559.073-2.7.1-2.281.07-5.431.107-8.909.1s-6.631-.055-8.909-.081l-2.7-.039-.732-.016h3.434l8.909.042c3.478,0,6.626,0,8.907-.055l2.7-.062.732-.016h.26Z" transform="translate(-120.212 -285.574)" fill="#263238"/>
        <path id="Path_4976" data-name="Path 4976" d="M161.62,246.06h7.273v.413a1.158,1.158,0,0,1-1.158,1.158h-4.956a1.159,1.159,0,0,1-1.158-1.158Z" transform="translate(-143.404 -244.512)" fill="#263238"/>
        <path id="Path_4977" data-name="Path 4977" d="M208.242,270.841h-.26a3.538,3.538,0,0,0-7.073,0h-.26a3.8,3.8,0,0,1,7.592,0Z" transform="translate(-172.296 -260.118)" fill="#263238"/>
        <path id="Path_4978" data-name="Path 4978" d="M196.23,277.876a2.327,2.327,0,0,1,2.052-1.016c1.416-.039,5.008,0,5.008,0s1.753.078,2.26.8v.457h-9.32Z" transform="translate(-169.024 -267.299)" fill="#263238"/>
        <path id="Path_4979" data-name="Path 4979" d="M126.481,270.462a11.63,11.63,0,0,1,.444-3.694.722.722,0,0,1,.712-.462H134.2a.707.707,0,0,1,.727.52,32.57,32.57,0,0,1,.644,3.637Z" transform="translate(-117.353 -259.498)" fill="#263238"/>
        <rect id="Rectangle_1193" data-name="Rectangle 1193" width="5.785" height="2.582" rx="1.291" transform="translate(10.754 3.87)" fill="#263238"/>
        <path id="Path_4980" data-name="Path 4980" d="M187.44,269.714a13.235,13.235,0,0,1,.5-3.829.727.727,0,0,1,.712-.46h6.561a.706.706,0,0,1,.727.52,35.5,35.5,0,0,1,.644,3.769Z" transform="translate(-162.484 -258.846)" fill="#263238"/>
        <rect id="Rectangle_1194" data-name="Rectangle 1194" width="5.785" height="2.582" rx="1.291" transform="translate(26.635 3.87)" fill="#263238"/>
      </g>
      <g id="freepik--Sign--inject-155" transform="translate(18.531 79.107)">
        <rect id="Rectangle_1195" data-name="Rectangle 1195" width="2.21" height="29.269" transform="translate(7.057 15.686)" fill="#e0e0e0"/>
        <path id="Path_4981" data-name="Path 4981" d="M51.768,300.562v-2.288c0-1.47,0-3.6-.021-6.234,0-5.268-.018-12.574-.029-20.751l.068.068H49.558l.068-.068c0,13.354-.018,24.762-.044,29.271l-.023-.026,1.642.016h.016l-1.657.013h-.026v-.023c-.023-4.509-.042-15.917-.042-29.271V271.2h2.338v.068c0,8.2-.021,15.52-.029,20.8,0,2.629-.016,4.748-.021,6.216v2.109A1.227,1.227,0,0,1,51.768,300.562Z" transform="translate(-42.5 -255.605)" fill="#263238"/>
        <rect id="Rectangle_1196" data-name="Rectangle 1196" width="17.04" height="17.04" rx="8.52" transform="translate(0)" fill="#455a64"/>
        <path id="Path_4982" data-name="Path 4982" d="M38.745,229.366H26.768a1.953,1.953,0,0,1-1.948-1.951V215.448a1.953,1.953,0,0,1,1.948-1.948H38.745a1.951,1.951,0,0,1,1.948,1.948v11.977A1.951,1.951,0,0,1,38.745,229.366ZM26.768,213.749a1.691,1.691,0,0,0-1.688,1.688v11.977a1.691,1.691,0,0,0,1.688,1.691H38.745a1.691,1.691,0,0,0,1.688-1.691V215.448a1.691,1.691,0,0,0-1.688-1.688Z" transform="translate(-24.238 -212.892)" fill="#f4ede6"/>
        <path id="Path_4983" data-name="Path 4983" d="M48.89,227.605a2.883,2.883,0,0,1,0,5.3,4.652,4.652,0,0,1-1.93.369H45.534v2.14H43.22v-8.182h3.74a4.652,4.652,0,0,1,1.93.369Zm-.995,3.54a1.1,1.1,0,0,0,.364-.883,1.117,1.117,0,0,0-.364-.888,1.6,1.6,0,0,0-1.075-.314H45.534v2.395H46.82A1.61,1.61,0,0,0,47.9,231.145Z" transform="translate(-37.859 -223.059)" fill="#f4ede6"/>
      </g>
      <g id="freepik--Character--inject-155" transform="translate(139.332 82.302)">
        <path id="Path_4984" data-name="Path 4984" d="M521.836,444.63l.187,3.725s-3.722,1.442-3.753,2.133l7.234-.1-.055-5.813Z" transform="translate(-510.316 -387.137)" fill="#455a64"/>
        <path id="Path_4985" data-name="Path 4985" d="M540.366,457.794a.294.294,0,0,1,.208.335.283.283,0,0,1-.327.21.312.312,0,0,1-.221-.356.3.3,0,0,1,.366-.182" transform="translate(-526.416 -396.922)" fill="#263238"/>
        <path id="Path_4986" data-name="Path 4986" d="M525.538,465.394v-.564l-6.948.3s-.322.145-.281.371Z" transform="translate(-510.342 -402.134)" fill="#263238"/>
        <path id="Path_4987" data-name="Path 4987" d="M532.3,458.905c0,.034.179.047.353.158s.26.26.3.244-.023-.218-.239-.348S532.292,458.874,532.3,458.905Z" transform="translate(-520.701 -397.724)" fill="#263238"/>
        <path id="Path_4988" data-name="Path 4988" d="M529.4,460.217c0,.034.145.091.26.239s.158.307.195.3.055-.2-.1-.384S529.4,460.183,529.4,460.217Z" transform="translate(-518.555 -398.708)" fill="#263238"/>
        <path id="Path_4989" data-name="Path 4989" d="M526.957,462.057c.031,0,.078-.171-.016-.364s-.26-.26-.275-.236.091.133.164.291S526.92,462.055,526.957,462.057Z" transform="translate(-516.529 -399.634)" fill="#263238"/>
        <path id="Path_4990" data-name="Path 4990" d="M532.5,455.371c.016.031.177-.018.377,0s.356.07.374.042-.132-.156-.369-.164S532.478,455.342,532.5,455.371Z" transform="translate(-520.845 -395.042)" fill="#263238"/>
        <path id="Path_4991" data-name="Path 4991" d="M546.54,444.69l.135,3.727s-3.743,1.387-3.785,2.078h7.234l.029-5.816Z" transform="translate(-528.541 -387.218)" fill="#455a64"/>
        <path id="Path_4992" data-name="Path 4992" d="M565.077,457.84a.3.3,0,0,1,.205.338.286.286,0,0,1-.333.205.314.314,0,0,1-.216-.358.3.3,0,0,1,.372-.177" transform="translate(-544.707 -396.955)" fill="#263238"/>
        <path id="Path_4993" data-name="Path 4993" d="M550.108,465.464V464.9l-6.951.2s-.322.14-.286.366Z" transform="translate(-528.525 -402.186)" fill="#263238"/>
        <path id="Path_4994" data-name="Path 4994" d="M557,458.847c0,.034.177.049.351.164s.26.26.3.26-.018-.218-.231-.353S557,458.813,557,458.847Z" transform="translate(-538.986 -397.684)" fill="#263238"/>
        <path id="Path_4995" data-name="Path 4995" d="M554.09,460.1c0,.034.143.094.26.242s.153.309.19.307.057-.2-.1-.384S554.09,460.059,554.09,460.1Z" transform="translate(-536.831 -398.618)" fill="#263238"/>
        <path id="Path_4996" data-name="Path 4996" d="M551.69,461.9c.031,0,.081-.169,0-.361s-.26-.26-.26-.242.086.132.158.293S551.653,461.9,551.69,461.9Z" transform="translate(-534.862 -399.521)" fill="#263238"/>
        <path id="Path_4997" data-name="Path 4997" d="M557.247,455.289c.016.034.177-.016.377,0s.356.078.374.047-.13-.156-.366-.169S557.232,455.263,557.247,455.289Z" transform="translate(-539.168 -394.98)" fill="#263238"/>
        <path id="Path_4998" data-name="Path 4998" d="M526.214,338.76c-.109.156-4.444,15.281-4.444,16.31s1.473,14.026,1.473,14.026l5.372.1-.933-13.343.532-3.088,3.185-8.086Z" transform="translate(-512.906 -308.811)" fill="#e58f6b"/>
        <g id="Group_349" data-name="Group 349" transform="translate(8.864 29.949)" opacity="0.7">
          <path id="Path_4999" data-name="Path 4999" d="M526.214,338.76c-.109.156-4.444,15.281-4.444,16.31s1.473,14.026,1.473,14.026l5.372.1-.933-13.343.532-3.088,3.185-8.086Z" transform="translate(-521.77 -338.76)"/>
        </g>
        <path id="Path_5000" data-name="Path 5000" d="M544.034,320.74c.091.109,2.785,4.179,2.6,6.6s-.3,3.275-1.5,4.694c0,0-.52,7.626-.52,8.608,0,.112.293,1.966.468,6.626.109,2.888.068,8.683.068,8.683l-5.5.1s-.473-9.959-.727-10.725a14.545,14.545,0,0,1-.6-2.995c-.086-1.086-1.185-8.686-1.185-8.541s-1.512-6.93-1.623-8.655a22.647,22.647,0,0,1,0-3.01Z" transform="translate(-523.046 -295.472)" fill="#e58f6b"/>
        <g id="Group_350" data-name="Group 350" transform="translate(12.421 25.268)" opacity="0.5">
          <path id="Path_5001" data-name="Path 5001" d="M544.034,320.74c.091.109,2.785,4.179,2.6,6.6s-.3,3.275-1.5,4.694c0,0-.52,7.626-.52,8.608,0,.112.293,1.966.468,6.626.109,2.888.068,8.683.068,8.683l-5.5.1s-.473-9.959-.727-10.725a14.545,14.545,0,0,1-.6-2.995c-.086-1.086-1.185-8.686-1.185-8.541s-1.512-6.93-1.623-8.655a22.647,22.647,0,0,1,0-3.01Z" transform="translate(-535.467 -320.74)"/>
        </g>
        <path id="Path_5002" data-name="Path 5002" d="M535.68,338.71v.171c0,.119.031.283.057.491.049.423.1,1.039.229,1.8.062.379.153.779.26,1.229s.192.909.3,1.4c.208.99.429,2.078.644,3.226.434,2.294.753,4.382.956,5.9.1.758.177,1.371.226,1.8.026.205.047.369.06.488l.018.127v-.13c0-.119-.023-.283-.042-.491-.042-.426-.107-1.039-.2-1.8-.184-1.52-.5-3.613-.93-5.907-.216-1.148-.439-2.236-.652-3.226-.106-.493-.208-.964-.3-1.4s-.195-.847-.26-1.223c-.132-.751-.195-1.369-.26-1.792-.031-.205-.055-.369-.073-.486l-.023-.127C535.685,338.726,535.683,338.71,535.68,338.71Z" transform="translate(-523.203 -308.774)"/>
        <path id="Path_5003" data-name="Path 5003" d="M533.177,225.252a1.709,1.709,0,0,1,2.049-.223.959.959,0,0,1,1.273.345l1.345.216a1.394,1.394,0,0,1,.655.221.481.481,0,0,1,.148.616.722.722,0,0,1,.369,1.138.52.52,0,0,1-.034.735,5.12,5.12,0,0,1,.943,1.434,1.039,1.039,0,0,1,.106.7.41.41,0,0,1-.561.273.59.59,0,0,1,.062.636c.226,0,.314.338.169.52a.829.829,0,0,1-.621.21,1.085,1.085,0,0,0-.649.151.205.205,0,0,0,.083.138.93.93,0,0,1,.278,1.249l-.07.107a2,2,0,0,1-.626.5,3.517,3.517,0,0,1-1.364.374c.174.358-.7,1.223-1.8.486a20.4,20.4,0,0,1-5.764,1.114c-.312.018-.688,0-.842-.273a.779.779,0,0,1-.725-.192,2.308,2.308,0,0,1-.457-.634,1.359,1.359,0,0,1-1.039-1.169,1.676,1.676,0,0,1-.7-1.156.987.987,0,0,1-.639-1.3,5.884,5.884,0,0,1,.543-1.873.653.653,0,0,1-.395-.875,1.891,1.891,0,0,1,.738-.779c-.26.088-.519-.234-.465-.507a1.039,1.039,0,0,1,.519-.629,5.1,5.1,0,0,1,1.078-.556,2.429,2.429,0,0,1,1.1-1.278c1.727-.94,2.959-1.223,5.315.3" transform="translate(-515.074 -224.002)" fill="#263238"/>
        <path id="Path_5004" data-name="Path 5004" d="M528.864,236.093a.808.808,0,0,1-.7-.26.841.841,0,0,1-.732-.21,2.3,2.3,0,0,1-.455-.631,1.39,1.39,0,0,1-1.057-1.179,1.722,1.722,0,0,1-.7-1.145.987.987,0,0,1-.6-.519.969.969,0,0,1-.039-.816,5.939,5.939,0,0,1,.52-1.834.535.535,0,0,1-.317-.26.8.8,0,0,1-.06-.662,1.712,1.712,0,0,1,.636-.725.373.373,0,0,1-.19-.094.519.519,0,0,1-.177-.473,1.109,1.109,0,0,1,.519-.655,5.141,5.141,0,0,1,1.068-.553,2.459,2.459,0,0,1,1.114-1.283c1.79-.977,3.047-1.182,5.325.286a1.626,1.626,0,0,1,1.169-.452,1.322,1.322,0,0,1,.894.231,1,1,0,0,1,1.3.358l1.33.213a1.431,1.431,0,0,1,.673.231.54.54,0,0,1,.184.621.779.779,0,0,1,.361,1.164.551.551,0,0,1-.029.738,5.051,5.051,0,0,1,.919,1.416,1.062,1.062,0,0,1,.109.725.519.519,0,0,1-.309.319.374.374,0,0,1-.19.021.636.636,0,0,1,.023.52.28.28,0,0,1,.179.153.408.408,0,0,1-.042.418.86.86,0,0,1-.652.226h-.016a1.075,1.075,0,0,0-.574.125.143.143,0,0,0,.06.088.966.966,0,0,1,.288,1.3l-.068.109a2.062,2.062,0,0,1-.642.519,2.338,2.338,0,0,1-.977.312c-.109.018-.223.034-.353.06a.559.559,0,0,1-.236.52,1.327,1.327,0,0,1-1.629,0,20.4,20.4,0,0,1-5.753,1.112Zm-.665-.369.016.029c.148.26.533.26.805.26a20.443,20.443,0,0,0,5.743-1.12h.036a1.264,1.264,0,0,0,1.559.026c.174-.151.26-.34.2-.46l-.023-.047h.052c.151-.031.286-.052.405-.07a2.239,2.239,0,0,0,.945-.3,2,2,0,0,0,.613-.483l.068-.107a.88.88,0,0,0-.26-1.195.26.26,0,0,1-.1-.166v-.023l.018-.016a1.091,1.091,0,0,1,.644-.156h.029a.779.779,0,0,0,.592-.2.317.317,0,0,0,.029-.33.177.177,0,0,0-.164-.112h-.07l.034-.06a.556.556,0,0,0-.06-.592l-.164-.2.216.138a.26.26,0,0,0,.242.018.442.442,0,0,0,.26-.26,1,1,0,0,0-.106-.67,5.024,5.024,0,0,0-.933-1.421l-.031-.034.036-.026a.465.465,0,0,0,.029-.673l-.029-.029.029-.029a.686.686,0,0,0-.348-1.073l-.062-.013.036-.049a.439.439,0,0,0-.14-.561,1.357,1.357,0,0,0-.634-.213l-1.369-.218v-.018a.917.917,0,0,0-1.216-.327l-.029.016-.023-.023a1.2,1.2,0,0,0-.855-.231,1.52,1.52,0,0,0-1.133.452l-.023.029-.031-.021c-2.275-1.475-3.465-1.3-5.27-.3a2.344,2.344,0,0,0-1.078,1.249v.023h-.021a5.025,5.025,0,0,0-1.07.551,1.039,1.039,0,0,0-.491.6.452.452,0,0,0,.148.4.26.26,0,0,0,.26.065l.26-.08-.216.153a1.851,1.851,0,0,0-.722.779.717.717,0,0,0,.052.592.444.444,0,0,0,.312.226h.055l-.026.049a5.918,5.918,0,0,0-.538,1.862h0a.943.943,0,0,0,.61,1.242h.029v.029a1.631,1.631,0,0,0,.683,1.127l.016.013v.018a1.319,1.319,0,0,0,1.013,1.13h.018v.016a2.226,2.226,0,0,0,.447.623.732.732,0,0,0,.686.184Z" transform="translate(-514.93 -223.875)" fill="#455a64"/>
        <path id="Path_5005" data-name="Path 5005" d="M538.85,234.888c.073-1.229.881-2.743,2.107-2.618l3.829.964a.722.722,0,0,1,.649.727l-.1,8.185a2.249,2.249,0,0,1-1.818,2.182h0a2.249,2.249,0,0,1-2.67-2.1c-.026-.561-.047-.982-.047-.979a2.557,2.557,0,0,1-1.907-2.3A22.574,22.574,0,0,1,538.85,234.888Z" transform="translate(-525.498 -229.976)" fill="#ffbf9d"/>
        <path id="Path_5006" data-name="Path 5006" d="M541.18,247.966a.26.26,0,1,0,.26-.236A.26.26,0,0,0,541.18,247.966Z" transform="translate(-527.275 -241.426)" fill="#263238"/>
        <path id="Path_5007" data-name="Path 5007" d="M540.449,244.911c.034.034.231-.114.52-.114s.491.14.519.1-.018-.075-.109-.14a.722.722,0,0,0-.826,0C540.461,244.833,540.433,244.9,540.449,244.911Z" transform="translate(-526.73 -239.131)" fill="#263238"/>
        <path id="Path_5008" data-name="Path 5008" d="M550.82,247.729a.26.26,0,1,0,.26-.239A.26.26,0,0,0,550.82,247.729Z" transform="translate(-534.411 -241.248)" fill="#263238"/>
        <path id="Path_5009" data-name="Path 5009" d="M551.159,245.07c.031.034.231-.114.519-.114s.491.14.52.1-.018-.078-.109-.143a.73.73,0,0,0-.416-.127.7.7,0,0,0-.41.135C551.172,244.993,551.143,245.055,551.159,245.07Z" transform="translate(-534.658 -239.25)" fill="#263238"/>
        <path id="Path_5010" data-name="Path 5010" d="M545.2,247.286a1.818,1.818,0,0,0-.46-.081c-.073,0-.14-.021-.153-.07a.394.394,0,0,1,.047-.216l.213-.551a9.493,9.493,0,0,0,.473-1.439,9.175,9.175,0,0,0-.587,1.4q-.109.294-.2.553a.405.405,0,0,0-.036.286.182.182,0,0,0,.12.1.436.436,0,0,0,.122.016A1.817,1.817,0,0,0,545.2,247.286Z" transform="translate(-529.722 -239.353)" fill="#263238"/>
        <path id="Path_5011" data-name="Path 5011" d="M546.56,264.74a5.2,5.2,0,0,0,2.74-.74,2.6,2.6,0,0,1-2.712,1.229Z" transform="translate(-531.257 -253.47)" fill="#ff9a6c"/>
        <path id="Path_5012" data-name="Path 5012" d="M550.665,240.78c.029.075.309.039.642.078s.6.127.644.057-.026-.1-.135-.179a1.14,1.14,0,0,0-.982-.1C550.715,240.678,550.652,240.743,550.665,240.78Z" transform="translate(-534.295 -236.122)" fill="#263238"/>
        <path id="Path_5013" data-name="Path 5013" d="M540.811,241.183c.049.065.244,0,.481,0s.431.042.478-.026,0-.1-.1-.156a.65.65,0,0,0-.39-.1.665.665,0,0,0-.382.13C540.816,241.076,540.79,241.141,540.811,241.183Z" transform="translate(-526.996 -236.367)" fill="#263238"/>
        <path id="Path_5014" data-name="Path 5014" d="M535.7,233.5a1.424,1.424,0,0,1,.3-.9,4.572,4.572,0,0,0,.361-.384,2.928,2.928,0,0,0,.242-1.1,1.558,1.558,0,0,1,.907-1.086,8.668,8.668,0,0,0,1.164-.366c.26-.156.449-.41.717-.548a1.9,1.9,0,0,1,1.673.247,1.34,1.34,0,0,1-.343,1.1,1.434,1.434,0,0,1-1.039.626c-.317.034-.693-.018-.906.221s-.114.668-.294.953c-.26.405-.9.288-1.3.551a1.89,1.89,0,0,0-.571.938c-.143.343-.408.7-.779.7A4.238,4.238,0,0,1,535.7,233.5Z" transform="translate(-523.217 -227.564)" fill="#263238"/>
        <path id="Path_5015" data-name="Path 5015" d="M553.4,233.309a7.231,7.231,0,0,1,2.753.361,1.325,1.325,0,0,1,.7.431,1.3,1.3,0,0,1,.177.7,7.227,7.227,0,0,1-.491,2.442l-.93.618c-.745-.138-.468-1.426-.465-2.065a1.5,1.5,0,0,1-.943-1.286A1.673,1.673,0,0,1,553.4,233.309Z" transform="translate(-536.321 -230.74)" fill="#263238"/>
        <path id="Path_5016" data-name="Path 5016" d="M561.938,248.565c0-.439.543-.551.93-.343a.827.827,0,0,1,.377.818.934.934,0,0,1-1.26.94C561.982,249.944,561.93,249.079,561.938,248.565Z" transform="translate(-542.64 -241.715)" fill="#ffbf9d"/>
        <path id="Path_5017" data-name="Path 5017" d="M563.6,250.663a.3.3,0,0,0,.057.031.208.208,0,0,0,.161,0,.535.535,0,0,0,.26-.478.744.744,0,0,0-.06-.312.26.26,0,0,0-.161-.169.109.109,0,0,0-.127.06c-.018.034,0,.06-.018.062s-.026-.023-.016-.073a.138.138,0,0,1,.049-.078.174.174,0,0,1,.122-.031.309.309,0,0,1,.223.195.723.723,0,0,1,.073.348.566.566,0,0,1-.322.535.234.234,0,0,1-.2-.036C563.6,250.692,563.591,250.666,563.6,250.663Z" transform="translate(-543.867 -242.866)" fill="#ff9a6c"/>
        <path id="Path_5018" data-name="Path 5018" d="M556.948,239.046a1.1,1.1,0,0,0,.2-.023.823.823,0,0,0,.216-.075h-.016a.616.616,0,0,0,1,.343h-.021a.26.26,0,0,0,.169.1.358.358,0,0,0,.2-.026.338.338,0,0,0,.156-.14.437.437,0,0,0,.052-.205.628.628,0,0,0-.156-.408,1.925,1.925,0,0,0-.343-.3v.029a.434.434,0,0,0,.182-.3.66.66,0,0,0-.052-.366.962.962,0,0,0-.234-.3,2.968,2.968,0,0,0-.3-.234v.029a.463.463,0,0,0,.1-.366.652.652,0,0,0-.158-.361,1.605,1.605,0,0,0-.623-.392v.021a.826.826,0,0,0-.945-.974l.021.021a.74.74,0,0,0-.735-.829l.018.016a.7.7,0,0,0-.309-.52.675.675,0,0,0-.519-.117h.013a.667.667,0,0,0-.114-.314.957.957,0,0,0-.2-.218.722.722,0,0,0-.434-.161h-.088l-.078.013a.753.753,0,0,0-.117.042l-.068.031-.021.013h.023l.068-.029c.031-.016.073-.021.117-.036h.166a.68.68,0,0,1,.421.164.871.871,0,0,1,.195.216.657.657,0,0,1,.109.3v.016h.016a.649.649,0,0,1,.5.117.673.673,0,0,1,.294.5v.016h.016a.709.709,0,0,1,.7.779v.026h.023a.779.779,0,0,1,.9.932v.013h.016a1.628,1.628,0,0,1,.61.382.63.63,0,0,1,.151.343.423.423,0,0,1-.106.322v.016l.016.013a1.46,1.46,0,0,1,.519.52.61.61,0,0,1,.052.343.408.408,0,0,1-.166.281l-.023.013.021.016a1.783,1.783,0,0,1,.338.3.613.613,0,0,1,.151.384.335.335,0,0,1-.19.32.273.273,0,0,1-.332-.062v-.013h-.013a.6.6,0,0,1-.621.088.608.608,0,0,1-.343-.416v-.013h0a.744.744,0,0,1-.208.075,1.118,1.118,0,0,1-.195.026.8.8,0,0,1-.307-.044.273.273,0,0,1-.148-.114.566.566,0,0,1-.029-.06v.016a.216.216,0,0,0,.021.047.28.28,0,0,0,.148.122" transform="translate(-536.572 -230.5)" fill="#455a64"/>
        <path id="Path_5019" data-name="Path 5019" d="M561.858,235.136a.46.46,0,0,0,.044-.078.693.693,0,0,0,.052-.26.618.618,0,0,0-.119-.382.663.663,0,0,0-.465-.26l.013.013a.863.863,0,0,0-.143-.605.837.837,0,0,0-.26-.247,1.931,1.931,0,0,0-.345-.143.7.7,0,0,1-.169-.088.418.418,0,0,1-.119-.148c-.062-.114-.086-.26-.161-.379a.753.753,0,0,0-.779-.338l.021.021a.992.992,0,0,0-1.156-1.073l.021.018a.873.873,0,0,0-1.4-.748h.021a1.159,1.159,0,0,0-.447-.242,1.784,1.784,0,0,0-.449-.08,2.054,2.054,0,0,0-.732.086,1.435,1.435,0,0,0-.429.2.6.6,0,0,0-.1.078.184.184,0,0,0-.031.029s.044-.036.132-.1a1.5,1.5,0,0,1,.429-.192,2.039,2.039,0,0,1,.725-.078,1.724,1.724,0,0,1,.444.081,1.2,1.2,0,0,1,.434.239h0a.839.839,0,0,1,1.34.719v.023h.023a.956.956,0,0,1,1.112,1.039v.026h.026a.72.72,0,0,1,.735.319c.073.117.1.26.161.377a.413.413,0,0,0,.132.158.705.705,0,0,0,.174.093,2.051,2.051,0,0,1,.343.138.867.867,0,0,1,.26.236.826.826,0,0,1,.14.587h0a.642.642,0,0,1,.452.26.624.624,0,0,1,.122.371.653.653,0,0,1-.047.247A.17.17,0,0,1,561.858,235.136Z" transform="translate(-537.305 -228.386)" fill="#455a64"/>
        <path id="Path_5020" data-name="Path 5020" d="M534.033,236.589a.132.132,0,0,0,0-.1.228.228,0,0,0-.075-.1.5.5,0,0,0-.158-.07.624.624,0,0,1-.2-.07.392.392,0,0,1-.151-.192.81.81,0,0,1-.044-.283v-.327a3.386,3.386,0,0,0-.195-.725,1.02,1.02,0,0,1-.036-.408.519.519,0,0,1,.208-.361,1.893,1.893,0,0,1,.426-.169.678.678,0,0,0,.218-.114.5.5,0,0,0,.148-.2,2.48,2.48,0,0,0,.107-.5.778.778,0,0,1,.073-.239.39.39,0,0,1,.174-.169,1.359,1.359,0,0,1,.343-.065.519.519,0,0,0,.171-.052.328.328,0,0,0,.13-.122,1.117,1.117,0,0,0,.114-.322.754.754,0,0,1,1.205-.41l.018.016v-.021a1.187,1.187,0,0,1,.706-.673,1.109,1.109,0,0,1,.413-.057,1.07,1.07,0,0,1,.346.078.894.894,0,0,1,.379.317,1.037,1.037,0,0,1,.065.112l.018.031h0l-.016-.031a.784.784,0,0,0-.062-.117.885.885,0,0,0-.379-.325.981.981,0,0,0-.353-.086,1.115,1.115,0,0,0-.423.055,1.208,1.208,0,0,0-.725.686h.023a.755.755,0,0,0-1.091.117.8.8,0,0,0-.148.3,1.142,1.142,0,0,1-.112.312.366.366,0,0,1-.278.158,1.4,1.4,0,0,0-.348.068.418.418,0,0,0-.195.184.884.884,0,0,0-.078.26,2.372,2.372,0,0,1-.1.486.44.44,0,0,1-.135.19.679.679,0,0,1-.205.109,1.937,1.937,0,0,0-.436.174.461.461,0,0,0-.153.171.636.636,0,0,0-.068.213,1.075,1.075,0,0,0,.039.421,3.258,3.258,0,0,1,.2.719v.325a.754.754,0,0,0,.049.291.413.413,0,0,0,.158.2.712.712,0,0,0,.205.07.414.414,0,0,1,.153.065.231.231,0,0,1,.078.093A.162.162,0,0,1,534.033,236.589Z" transform="translate(-521.328 -228.916)" fill="#455a64"/>
        <path id="Path_5021" data-name="Path 5021" d="M526.92,232.286a.107.107,0,0,0,0-.023l.031-.073c.029-.065.065-.156.114-.275s.106-.26.19-.431a1.1,1.1,0,0,1,.392-.465c.1-.06.213-.1.327-.158a.9.9,0,0,0,.164-.109.426.426,0,0,0,.12-.166c.052-.132.047-.278.086-.416a.348.348,0,0,1,.112-.174.632.632,0,0,1,.195-.1,1.557,1.557,0,0,0,.216-.1.413.413,0,0,0,.161-.184,1.712,1.712,0,0,0,.081-.486.633.633,0,0,1,.073-.231.314.314,0,0,1,.19-.14c.161-.042.34,0,.519-.031a.447.447,0,0,0,.234-.138,1.184,1.184,0,0,0,.143-.221,1.822,1.822,0,0,1,.127-.221.446.446,0,0,1,.174-.166.719.719,0,0,1,.468-.018,1.078,1.078,0,0,0,.473.016,1.254,1.254,0,0,0,.4-.205,2.075,2.075,0,0,1,.353-.221,1.273,1.273,0,0,1,.735-.06,1.379,1.379,0,0,1,.561.26,1.557,1.557,0,0,1,.317.343,1.77,1.77,0,0,1,.143.26l.031.07.013.023v-.023a.406.406,0,0,0-.029-.073,1.656,1.656,0,0,0-.138-.26,1.524,1.524,0,0,0-.317-.351,1.407,1.407,0,0,0-.569-.26,1.28,1.28,0,0,0-.751.057,2.19,2.19,0,0,0-.364.221,1.133,1.133,0,0,1-.39.2,1.052,1.052,0,0,1-.457-.018,1.9,1.9,0,0,0-.244-.031.558.558,0,0,0-.26.052.52.52,0,0,0-.187.179,2.37,2.37,0,0,0-.13.223.963.963,0,0,1-.138.213.411.411,0,0,1-.213.127c-.166.036-.345-.013-.519.031a.346.346,0,0,0-.21.156.669.669,0,0,0-.078.247,1.769,1.769,0,0,1-.078.478.35.35,0,0,1-.145.166,1.179,1.179,0,0,1-.21.094.7.7,0,0,0-.2.109.372.372,0,0,0-.122.192c-.042.143-.036.288-.086.41a.5.5,0,0,1-.26.26c-.109.057-.226.1-.325.161a1.143,1.143,0,0,0-.4.478c-.081.166-.132.317-.182.436l-.109.278-.026.073Z" transform="translate(-516.719 -226.413)" fill="#455a64"/>
        <path id="Path_5022" data-name="Path 5022" d="M530.638,240.819h-.021a.125.125,0,0,0-.065.018.26.26,0,0,0-.114.226.72.72,0,0,0,.036.184.778.778,0,0,1,.042.213.486.486,0,0,1-.075.234c-.044.075-.1.153-.148.244a.359.359,0,0,0-.016.314c.047.1.127.187.169.294a.462.462,0,0,1-.016.343c-.044.117-.106.229-.148.358a.52.52,0,0,0-.029.2.465.465,0,0,0,.057.2,2.475,2.475,0,0,0,.26.343.564.564,0,0,1,.151.384,1.839,1.839,0,0,1-.13.429.618.618,0,0,0-.034.229.519.519,0,0,0,.07.221,1.9,1.9,0,0,0,.283.338,1.023,1.023,0,0,1,.234.34,3.034,3.034,0,0,0,.148.379.421.421,0,0,0,.135.151.606.606,0,0,0,.179.078,1.228,1.228,0,0,1,.174.052.612.612,0,0,1,.148.091,1.259,1.259,0,0,1,.218.26,2.788,2.788,0,0,0,.182.26.849.849,0,0,0,.447.3.927.927,0,0,0,.408.018.818.818,0,0,0,.244-.083.836.836,0,0,0,.075-.049.951.951,0,0,1-.322.119.906.906,0,0,1-.4-.026.823.823,0,0,1-.431-.294c-.062-.078-.117-.164-.179-.26a1.3,1.3,0,0,0-.221-.26.691.691,0,0,0-.156-.1c-.057-.023-.12-.036-.179-.055a.566.566,0,0,1-.169-.07.455.455,0,0,1-.122-.14,3.058,3.058,0,0,1-.146-.377,1.014,1.014,0,0,0-.239-.353,1.884,1.884,0,0,1-.281-.33.476.476,0,0,1-.065-.205.624.624,0,0,1,.034-.216,1.927,1.927,0,0,0,.132-.436.52.52,0,0,0-.042-.223,1,1,0,0,0-.12-.187,2.43,2.43,0,0,1-.26-.335.5.5,0,0,1-.055-.19.519.519,0,0,1,.029-.19c.039-.125.1-.239.145-.358a.519.519,0,0,0,.016-.366c-.049-.112-.13-.195-.171-.294a.327.327,0,0,1,0-.291c.042-.088.1-.164.143-.244a.481.481,0,0,0,.075-.244.777.777,0,0,0-.044-.218.622.622,0,0,1-.039-.179.26.26,0,0,1,.1-.221A.153.153,0,0,1,530.638,240.819Z" transform="translate(-519.183 -236.31)" fill="#455a64"/>
        <path id="Path_5023" data-name="Path 5023" d="M563.464,231.766a.475.475,0,0,0,.1-.016.682.682,0,0,0,.5-.5.686.686,0,0,0-.13-.582,1.676,1.676,0,0,0-.26-.244.839.839,0,0,1-.26-.283.558.558,0,0,1,0-.395c.042-.135.109-.26.148-.418a1.25,1.25,0,0,0-.14-.935,1.234,1.234,0,0,0-.852-.569l.013.029a.62.62,0,0,0,.093-.278.8.8,0,0,0-.031-.294.871.871,0,0,0-.138-.26,1.041,1.041,0,0,0-.221-.208,1.945,1.945,0,0,0-.834-.291,2.907,2.907,0,0,0-.836,0l.021.016a.883.883,0,0,0-.974-.8,1.521,1.521,0,0,0-.4.127.718.718,0,0,1-.19.055.564.564,0,0,1-.187,0,1.557,1.557,0,0,1-.335-.145,1.342,1.342,0,0,0-.322-.127,1.1,1.1,0,0,0-.314-.029,1.065,1.065,0,0,0-.52.166,1.02,1.02,0,0,0-.288.278.983.983,0,0,0-.122.218.521.521,0,0,0-.026.083.17.17,0,0,1,.034-.081,1.056,1.056,0,0,1,.912-.642,1.064,1.064,0,0,1,.309.029,1.342,1.342,0,0,1,.314.13,1.5,1.5,0,0,0,.34.148.52.52,0,0,0,.2,0,.723.723,0,0,0,.195-.055,1.484,1.484,0,0,1,.395-.122.852.852,0,0,1,.423.062.839.839,0,0,1,.52.709v.021h.018a2.837,2.837,0,0,1,.826,0,1.909,1.909,0,0,1,.816.286,1.037,1.037,0,0,1,.213.2.794.794,0,0,1,.133.26.736.736,0,0,1,.031.281.608.608,0,0,1-.088.26l-.016.023h.029a1.182,1.182,0,0,1,.964,1.46c-.036.145-.1.278-.143.418a.587.587,0,0,0,0,.416.823.823,0,0,0,.26.291,1.9,1.9,0,0,1,.26.239.678.678,0,0,1,.13.561.637.637,0,0,1-.234.371.7.7,0,0,1-.26.13C563.508,231.761,563.464,231.764,563.464,231.766Z" transform="translate(-538.956 -225.055)" fill="#263238"/>
        <path id="Path_5024" data-name="Path 5024" d="M529.9,227.138a.079.079,0,0,0,0-.023v-.07a2.33,2.33,0,0,1,.013-.26c.013-.1.016-.26.039-.423a2.415,2.415,0,0,1,.138-.543,1.638,1.638,0,0,1,.369-.564,1.181,1.181,0,0,1,.309-.21,3.29,3.29,0,0,1,.382-.13,1.174,1.174,0,0,0,.382-.192,1.917,1.917,0,0,0,.3-.33,3.988,3.988,0,0,1,.278-.366,1.261,1.261,0,0,1,.358-.291,2.264,2.264,0,0,1,.888-.236,6.026,6.026,0,0,1,.865,0,4.417,4.417,0,0,1,1.421.322,3.238,3.238,0,0,1,.836.52l.117.1.078.083.049.049.018.016-.016-.018-.047-.052-.075-.086-.114-.107a3.065,3.065,0,0,0-.836-.519,4.415,4.415,0,0,0-1.429-.335,6.13,6.13,0,0,0-.873,0,2.273,2.273,0,0,0-.9.239,1.263,1.263,0,0,0-.369.3c-.1.119-.19.26-.278.366a1.866,1.866,0,0,1-.3.325,1.124,1.124,0,0,1-.369.187,2.912,2.912,0,0,0-.384.132,1.247,1.247,0,0,0-.317.218,1.63,1.63,0,0,0-.371.577,2.493,2.493,0,0,0-.135.551c-.021.164-.029.309-.034.426s0,.208,0,.26v.094Z" transform="translate(-518.918 -223.46)" fill="#263238"/>
        <path id="Path_5025" data-name="Path 5025" d="M549.747,255.025a.473.473,0,0,0-.3-.377.413.413,0,0,0-.452.13.366.366,0,0,0,0,.442.4.4,0,0,0,.187.145.5.5,0,0,0,.3,0,.338.338,0,0,0,.208-.133A.319.319,0,0,0,549.747,255.025Z" transform="translate(-533.008 -246.531)" fill="#ff9a6c"/>
        <path id="Path_5026" data-name="Path 5026" d="M549.072,253.879c-.047,0,0,.312-.234.571s-.564.273-.558.317.081.049.221.031a.78.78,0,0,0,.47-.247.681.681,0,0,0,.174-.475C549.137,253.944,549.093,253.874,549.072,253.879Z" transform="translate(-532.53 -245.978)" fill="#263238"/>
        <path id="Path_5027" data-name="Path 5027" d="M562.735,255.434a3.159,3.159,0,0,1,.431-.93l.081-.044a2.159,2.159,0,0,1,.423.756.725.725,0,0,1-.26.779.561.561,0,0,1-.387.078.4.4,0,0,1-.26-.143A.569.569,0,0,1,562.735,255.434Z" transform="translate(-543.199 -246.408)" fill="#e0e0e0"/>
        <path id="Path_5028" data-name="Path 5028" d="M519.38,315.359l4.044-.569.447,2.6-4.12.1Z" transform="translate(-511.137 -291.067)" fill="#ffbf9d"/>
        <path id="Path_5029" data-name="Path 5029" d="M508.337,314.968l-2.078-.735c-.119-.039-.631.379-.631.379l-1.559,1.239a.353.353,0,0,0,.52.32c.1-.034.494-.281.587-.32a4.706,4.706,0,0,0,.629-.338l-.47.369a1.093,1.093,0,0,0-.171.558c-.073.538.387.735.455.46s.192-.732.192-.732.021.613.374.551c0,0,.13.382.442.348a1.117,1.117,0,0,0,.52-.195s.891.465,1.249.366.992-.26.992-.26Z" transform="translate(-499.804 -290.653)" fill="#ffbf9d"/>
        <rect id="Rectangle_1197" data-name="Rectangle 1197" width="2.462" height="0.829" rx="0.38" transform="translate(4.177 23.586) rotate(23.52)" fill="#455a64"/>
        <path id="Path_5030" data-name="Path 5030" d="M505.872,314.124s.995-.169,1.1-.184a14.792,14.792,0,0,1,1.449.61,4.835,4.835,0,0,1-.07,1.442c-.151.143-.92-.332-1.382-1.192l-.717-.161s-.605.182-.805,0-.132-.281-.132-.281Z" transform="translate(-500.72 -290.438)" fill="#ffbf9d"/>
        <path id="Path_5031" data-name="Path 5031" d="M511.347,317.388c.016.013-.1.153-.361.216a1.159,1.159,0,0,1-.465,0,.9.9,0,0,1-.478-.325c-.179-.195-.319-.4-.46-.52l.031.013a2.106,2.106,0,0,1-.655-.19,2.077,2.077,0,0,1,.681.047h.031a3.967,3.967,0,0,1,.5.519.815.815,0,0,0,.387.286,1.212,1.212,0,0,0,.41.031A3.807,3.807,0,0,0,511.347,317.388Z" transform="translate(-503.424 -292.387)" fill="#ff9a6c"/>
        <path id="Path_5032" data-name="Path 5032" d="M512,322.28c0-.026.107-.044.26-.109a1.12,1.12,0,0,0,.26-.14,1.165,1.165,0,0,1,.338-.218.374.374,0,0,1,.41.182.333.333,0,0,1-.026.364c-.14.169-.3.125-.286.1s.114-.036.184-.169a.208.208,0,0,0,0-.218.229.229,0,0,0-.234-.1,1.387,1.387,0,0,0-.291.187,1.019,1.019,0,0,1-.3.125C512.12,322.327,512,322.3,512,322.28Z" transform="translate(-505.674 -296.259)" fill="#ff9a6c"/>
        <path id="Path_5033" data-name="Path 5033" d="M511.074,320.36c-.016-.018.052-.114.192-.236a2.192,2.192,0,0,1,.26-.195.626.626,0,0,1,.426-.117.38.38,0,0,1,.226.12.3.3,0,0,1,.073.236.5.5,0,0,1-.182.314c-.148.117-.231.177-.26.166s.047-.119.166-.26a.419.419,0,0,0,.112-.242.18.18,0,0,0-.171-.174.52.52,0,0,0-.319.083,2.53,2.53,0,0,0-.26.156C511.185,320.314,511.092,320.379,511.074,320.36Z" transform="translate(-504.987 -294.783)" fill="#ff9a6c"/>
        <rect id="Rectangle_1198" data-name="Rectangle 1198" width="9.704" height="6.444" rx="2.41" transform="translate(12.321 31.518)" fill="#e58f6b"/>
        <path id="Path_5034" data-name="Path 5034" d="M545.24,345.91a1.982,1.982,0,0,1-.231.382,6.351,6.351,0,0,1-.8.92,5.95,5.95,0,0,1-1.488,1.039,4.9,4.9,0,0,1-4.317.042,5.9,5.9,0,0,1-1.5-1.008,6.319,6.319,0,0,1-.813-.907,1.8,1.8,0,0,1-.236-.377,12.126,12.126,0,0,0,1.13,1.192,6,6,0,0,0,1.488.956,4.842,4.842,0,0,0,4.185-.042,5.994,5.994,0,0,0,1.473-.979A11.914,11.914,0,0,0,545.24,345.91Z" transform="translate(-523.329 -314.104)" fill="#263238"/>
        <path id="Path_5035" data-name="Path 5035" d="M543.788,330.182l2.816-7.538-3.2-.834-1.431,8.026Z" transform="translate(-527.86 -296.264)" fill="#ffbf9d"/>
        <path id="Path_5036" data-name="Path 5036" d="M538.506,358.289l-1.088-1.281-.138-1.681,1.265-2.618H540.3a4.178,4.178,0,0,1,.161,1.369c-.1.408-.26,1.314-.26,1.314l-.135.979.205.41.353.364s-.036.317-.332.226a2.1,2.1,0,0,1-.657-.47l-.26-.642v.642l.727.72s-.07.34-.343.26l-.26-.088s-.047.26-.364.179a3.375,3.375,0,0,1-.577-.226A.449.449,0,0,1,538.506,358.289Z" transform="translate(-524.388 -319.137)" fill="#ffbf9d"/>
        <path id="Path_5037" data-name="Path 5037" d="M541.78,362.53a2.148,2.148,0,0,0-.062.449c0,.14-.026.3-.039.488a1.863,1.863,0,0,1-.016.291,2.182,2.182,0,0,0,0,.322,1.254,1.254,0,0,0,.377.491,2.559,2.559,0,0,0,.4.291,3.114,3.114,0,0,0,.392.226,1.626,1.626,0,0,0-.358-.278,3.1,3.1,0,0,1-.379-.3,1.232,1.232,0,0,1-.345-.452v-.587c0-.177.013-.34.018-.488A2.338,2.338,0,0,0,541.78,362.53Z" transform="translate(-527.628 -326.407)" fill="#ff9a6c"/>
        <path id="Path_5038" data-name="Path 5038" d="M538.649,362.69a1.82,1.82,0,0,0-.1.416c-.023.127-.049.28-.078.452a1.427,1.427,0,0,1-.039.26,2.068,2.068,0,0,0-.026.3,1.166,1.166,0,0,0,.312.488,2.314,2.314,0,0,0,.353.3,2.947,2.947,0,0,0,.351.242,1.626,1.626,0,0,0-.312-.291,2.91,2.91,0,0,1-.33-.309,1.208,1.208,0,0,1-.286-.449,2.788,2.788,0,0,1,.026-.278,1.911,1.911,0,0,1,.034-.26l.057-.457A2.019,2.019,0,0,0,538.649,362.69Z" transform="translate(-525.224 -326.525)" fill="#ff9a6c"/>
        <path id="Path_5039" data-name="Path 5039" d="M539.454,266.468a8.3,8.3,0,0,1,2.005,4.842c.4,3.211.99,9.011.405,9.629-.5.52-1.725-.171-1.725-.171l-1.678.216-6.346.478s-.691.169-.691-1.208-1.26-4.935-.457-6.707a24.486,24.486,0,0,1,2.813-4.195l.745-1.205.057-.86,4.826-1.507Z" transform="translate(-519.517 -254.787)" fill="#455a64"/>
        <path id="Path_5040" data-name="Path 5040" d="M549.481,274.88a3.95,3.95,0,0,1,1.239,3.509c-.286,3.268-1.374,9.232-2.234,10.951l-3.956-.4,1.088-4.356s-.114-6.65-.171-7.224a4.16,4.16,0,0,1,.979-2.172" transform="translate(-529.755 -261.524)" fill="#455a64"/>
        <path id="Path_5041" data-name="Path 5041" d="M546.219,275.253a3.474,3.474,0,0,0-.416.569,5.039,5.039,0,0,0-.377.753,3.436,3.436,0,0,0-.169.519,1.3,1.3,0,0,0-.042.294v.309c.055,1.7.094,4.107.14,6.961h0c-.335,1.338-.706,2.81-1.094,4.356l-.013.049h.052l2.444.26,1.512.153h.031v-.029a9.968,9.968,0,0,0,.533-1.478c.14-.494.26-.984.379-1.468.229-.964.416-1.9.579-2.79.322-1.782.551-3.377.688-4.738a6.293,6.293,0,0,0,0-1.818,3.924,3.924,0,0,0-.468-1.3,3.532,3.532,0,0,0-.52-.686,2.021,2.021,0,0,0-.223-.2s.018.021.055.055.091.088.156.161a3.634,3.634,0,0,1,.52.691,3.833,3.833,0,0,1,.447,1.281,6.061,6.061,0,0,1,0,1.818c-.143,1.345-.379,2.948-.707,4.727-.166.888-.353,1.818-.582,2.787q-.169.722-.382,1.462a9.566,9.566,0,0,1-.52,1.462l.044-.023-1.509-.153-2.444-.26.036.055c.387-1.558.753-3.018,1.086-4.356h0c-.057-2.857-.1-5.265-.174-6.964a2.078,2.078,0,0,1,.182-1.1,5.394,5.394,0,0,1,.366-.753c.114-.2.218-.34.286-.436l.081-.106C546.211,275.266,546.221,275.253,546.219,275.253Z" transform="translate(-529.547 -261.59)" fill="#263238"/>
        <path id="Path_5042" data-name="Path 5042" d="M546.13,269.536a1.9,1.9,0,0,0,.1.192c.068.125.161.306.26.533v.023h.026a17.137,17.137,0,0,0,1.836-.52c.714-.244,1.346-.5,1.8-.7.226-.1.405-.184.519-.247a1.113,1.113,0,0,0,.187-.1.9.9,0,0,0-.2.073l-.54.221c-.455.184-1.088.431-1.8.675s-1.348.429-1.818.548l.036.016c-.117-.223-.221-.4-.3-.52a.672.672,0,0,0-.107-.187Z" transform="translate(-530.939 -256.956)" fill="#263238"/>
        <g id="Group_351" data-name="Group 351" transform="translate(15.248 12.163)" opacity="0.3">
          <path id="Path_5043" data-name="Path 5043" d="M549.189,270.813c-.914.434-1.818.868-2.735,1.312-.034-.444-.068-.888-.1-1.332a1.9,1.9,0,0,1,.361.7.551.551,0,0,1,.366-.21,13.675,13.675,0,0,0,1.953-.519c.218-.094.429-.208.644-.307a2.8,2.8,0,0,1,.32-.125c.06-.018.177-.068.234-.018a.712.712,0,0,1-.226.114l-.278.132Z" transform="translate(-546.35 -270.288)"/>
        </g>
        <g id="Group_352" data-name="Group 352" transform="translate(19.368 16.188)" opacity="0.3">
          <path id="Path_5044" data-name="Path 5044" d="M563.763,286.941l.068-1.161a15.262,15.262,0,0,1-1.621,9.8C562.763,292.723,563.374,290.11,563.763,286.941Z" transform="translate(-562.21 -285.78)"/>
        </g>
        <path id="Path_5045" data-name="Path 5045" d="M497.606,313.284c-.021,0-.073-.07-.091-.221a.826.826,0,0,1,.143-.564.852.852,0,0,1,.475-.332.468.468,0,0,1,.242,0,1.151,1.151,0,0,0-.577.423C497.573,312.918,497.653,313.279,497.606,313.284Z" transform="translate(-494.948 -289.114)" fill="#263238"/>
        <path id="Path_5046" data-name="Path 5046" d="M492.864,310.136a.779.779,0,0,1-.2-.462,1.559,1.559,0,0,1,.26-1.182,1.4,1.4,0,0,1,.5-.462,1.6,1.6,0,0,1,.535-.151.25.25,0,1,1,.018.117,1.711,1.711,0,0,0-.478.169,1.3,1.3,0,0,0-.439.421,1.605,1.605,0,0,0-.283,1.07C492.809,309.951,492.89,310.123,492.864,310.136Z" transform="translate(-491.343 -285.935)" fill="#263238"/>
        <path id="Path_5047" data-name="Path 5047" d="M487.824,306.707a1.153,1.153,0,0,1-.174-.642,2.078,2.078,0,0,1,1.966-2.195,1.179,1.179,0,0,1,.657.1c0,.029-.26-.031-.647.018a2.078,2.078,0,0,0-1.857,2.078C487.764,306.46,487.853,306.7,487.824,306.707Z" transform="translate(-487.647 -282.976)" fill="#263238"/>
      </g>
    </g>
  </g>
</svg>
