<svg xmlns="http://www.w3.org/2000/svg" xmlns:xlink="http://www.w3.org/1999/xlink" width="146" height="146" viewBox="0 0 146 146">
  <defs>
    <clipPath id="clip-path">
      <rect id="Rectangle_1" data-name="Rectangle 1" width="86.922" height="92.246" fill="#e58f6b"/>
    </clipPath>
  </defs>
  <g id="Group_407" data-name="Group 407" transform="translate(-142 -127)">
    <g id="Group_406" data-name="Group 406">
      <rect id="Rectangle_18" data-name="Rectangle 18" width="146" height="146" rx="23" transform="translate(142 127)" fill="#f4ede6"/>
    </g>
    <g id="Group_158" data-name="Group 158" transform="translate(172 154)">
      <g id="Group_1" data-name="Group 1" clip-path="url(#clip-path)">
        <path id="Path_1" data-name="Path 1" d="M.326,55.72c-1.7-16.188,3.228-29.981,15.613-40.7,11.67-10.1,25.255-12.3,40.318-8.566-1.434,1.914-2.66,3.581-3.939,5.207-.13.165-.6.154-.88.094-9.317-1.952-18.184-.733-26.3,4.257a38.443,38.443,0,0,0-18.461,27.4c-.366,2.148-.406,4.351-.6,6.526l12.079-.853c.2-2.972.4-5.96.6-8.981a13.213,13.213,0,0,1-2.616-.39A3.729,3.729,0,0,1,14.3,38.393a2.224,2.224,0,0,1,1.741-3.54,44.907,44.907,0,0,1,4.675-.033c.825-2.116,1.668-4.3,2.528-6.477.288-.728.592-1.451.933-2.155a7.329,7.329,0,0,1,6.9-4.348c5.378-.1,10.758-.063,16.137-.055A1.618,1.618,0,0,0,48.738,21c4.647-6.451,9.353-12.858,14.037-19.282A3.548,3.548,0,0,1,66.651.105a2.868,2.868,0,0,1,2.377,2.769,4.312,4.312,0,0,1-.8,2.557c-3.373,4.513-6.845,8.951-10.274,13.421-.678.884-1.313,1.8-2.063,2.834.69.088,1.265.115,1.819.238a7.386,7.386,0,0,1,5.436,4.553c1.03,2.437,1.979,4.91,2.893,7.393.3.82.7,1,1.555.915a16.644,16.644,0,0,1,3.666.08,2.1,2.1,0,0,1,1.957,1.864,2.254,2.254,0,0,1-1.343,2.583,28.569,28.569,0,0,1-3.667.96c1.566,4.136.5,8.664.911,13.146H80.655c1.147-9.772-1.6-25.395-16.909-36.533.59-.832,1.175-1.674,1.78-2.5.592-.812,1.2-1.61,1.926-2.571,1.217.949,2.455,1.822,3.589,2.813A45.694,45.694,0,0,1,86.576,42.356c.523,3.208.285,6.543.335,9.82a1.615,1.615,0,0,1-.606,1.081,34,34,0,0,1-17.238,6.874C60.48,61.261,52.191,59.754,44,57.348a84.94,84.94,0,0,0-31.117-3.214C8.764,54.472,4.676,55.16.326,55.72M61.583,34.6c-.863-2.2-1.645-4.331-2.541-6.417a3.83,3.83,0,0,0-3.618-2.571q-11.879-.038-23.759.009a3.323,3.323,0,0,0-3.156,1.8c-1.108,2.337-2.032,4.762-3.063,7.223A157.3,157.3,0,0,1,61.583,34.6M50.643,50.171c2.931-.221,5.727-.28,8.471-.689a5.59,5.59,0,0,0,4.472-3.34c.964-2.2-.174-4.273-2.493-4.349a11.3,11.3,0,0,0-7.867,2.651,7.616,7.616,0,0,0-2.584,5.727M36.517,50.05c-.038-.466-.034-.8-.1-1.122-.877-4.467-6.339-8.037-10.8-7.07a2.474,2.474,0,0,0-2.173,2.672,4.851,4.851,0,0,0,3.6,4.593c3.054,1.015,6.235.812,9.469.926" transform="translate(0 0)" fill="#e58f6b"/>
        <path id="Path_2" data-name="Path 2" d="M33.584,225.894a79.523,79.523,0,0,0,24.854-5.96c-2.217.362-4.423.857-6.654,1.057a33.041,33.041,0,0,1-12.432-.907,18,18,0,0,1-10.5-8.382c-.551-.907-.53-.92-1.758-.667.891,4.307,3.409,7.663,6.442,10.974-1.979,0-3.719.022-5.456-.024a1.244,1.244,0,0,1-.771-.515,22.5,22.5,0,0,1-4.355-9.707c-.15-.823-.408-1.15-1.278-.744a31.18,31.18,0,0,0,2.936,10.985c-1.588,0-3.021.035-4.449-.034-.243-.012-.55-.429-.684-.724a25.342,25.342,0,0,1-1.938-8.347c-.056-.629-.1-1.259-.161-1.987L16.2,210.84a32.406,32.406,0,0,0,1.2,11.138c-1.577,0-3.05.051-4.514-.048-.26-.018-.668-.65-.686-1.015-.153-3.05-.231-6.1-.33-9.157-.007-.221,0-.443,0-.66-1.324-.35-1.464-.3-1.48,1.025-.039,3.241-.013,6.482-.013,9.789H5c0-1.511-.125-3.071.028-4.6.269-2.705.735-5.391,1.056-8.092.085-.715.43-.93,1.052-1.036,11.151-1.9,22.2-1.854,33.132,1.472a55.627,55.627,0,0,0,19.693,2.289,35.138,35.138,0,0,0,23.9-11.277c2.229-2.324,4.106-4.987,5.782-7.05a43.627,43.627,0,0,1-20.65,28.392c-11.255,6.45-23.1,7.455-35.411,3.886" transform="translate(-3.471 -135.688)" fill="#e58f6b"/>
        <path id="Path_3" data-name="Path 3" d="M2.89,193.365v-7.087c3.987-.566,7.946-1.275,11.936-1.66a67.225,67.225,0,0,1,18.64.647c4.76.875,9.462,2.077,14.17,3.213a56.073,56.073,0,0,0,18.418,1.673c7.183-.663,13.81-2.792,19.328-7.634,1.187-1.041,2.141-2.349,3.375-3.372a14.069,14.069,0,0,1-3.74,5.888c-7.8,7.758-17.284,11.418-28.217,11.655-6.121.132-12.01-1.137-17.884-2.607-6.615-1.656-13.318-2.841-20.15-2.467-4.83.264-9.634,1.022-14.449,1.562-.443.049-.883.116-1.426.188" transform="translate(-2.025 -125.546)" fill="#e58f6b"/>
      </g>
    </g>
  </g>
</svg>
