<svg xmlns="http://www.w3.org/2000/svg" width="308.334" height="296.629" viewBox="0 0 308.334 296.629">
  <g id="Group_408" data-name="Group 408" transform="translate(-60.833 -223.857)">
    <g id="Group_380" data-name="Group 380" transform="translate(-16.703 3.513)">
      <g id="freepik--background-simple--inject-2" transform="translate(81.012 220.344)">
        <path id="Path_5166" data-name="Path 5166" d="M222.331,42.106a27.672,27.672,0,0,0-27.658-2.658c-43.791,20.138-188.331,91.2-157.881,138.71,35.774,55.835,162.735,143.922,209.29,139.721s99.338-82.307,87.484-133.716C323.605,140.967,256.645,66.782,222.331,42.106Z" transform="translate(-32.615 -36.926)" fill="#e58f6b"/>
        <path id="Path_5167" data-name="Path 5167" d="M222.331,42.106a27.672,27.672,0,0,0-27.658-2.658c-43.791,20.138-188.331,91.2-157.881,138.71,35.774,55.835,162.735,143.922,209.29,139.721s99.338-82.307,87.484-133.716C323.605,140.967,256.645,66.782,222.331,42.106Z" transform="translate(-32.615 -36.926)" fill="#fff" opacity="0.7"/>
      </g>
      <g id="freepik--Plants--inject-2" transform="translate(77.536 358.858)">
        <path id="Path_5168" data-name="Path 5168" d="M360.539,247.857c1.073,2.567,5.675,6.769,5.682,6.769s1.845-3.872,1.929-4.132c.989-3.009,1.129-9.413-1.747-11.5a4.209,4.209,0,0,0-6.075,1.473C359.073,242.639,359.627,245.676,360.539,247.857Z" transform="translate(-126.76 -235.551)" fill="#263238"/>
        <path id="Path_5169" data-name="Path 5169" d="M420.79,287.75c-2.287-2.715-8.656-2.1-11.588-.912-.253.105-4.033,2.181-3.984,2.231l.056.049c-1.01.084-2.1.189-3.262.33-2.174.274-4.623.6-7.26,1.136a75.536,75.536,0,0,0-8.417,2.1,55.114,55.114,0,0,0-8.993,3.732l-.105.063c.737-.744,2.708-2.876,2.841-3.058,1.88-2.553,4.005-8.593,1.929-11.469a4.209,4.209,0,0,0-6.236-.491c-1.873,1.662-2.287,4.721-2.1,7.085.21,2.658,3.016,7.716,3.241,8.123a75.909,75.909,0,0,0-8.347,5.359c-1.557,1.143-3.086,2.336-4.609,3.556.61-.659,1.157-1.256,1.221-1.347,1.88-2.553,4-8.593,1.922-11.469a4.209,4.209,0,0,0-6.229-.491c-1.873,1.662-2.294,4.721-2.1,7.085s2.5,6.755,3.121,7.905l-1.74,1.4c-2.771,2.287-5.52,4.573-8.291,6.734-.975.765-1.964,1.48-2.946,2.2.54-.582.989-1.08,1.052-1.164,1.88-2.553,4.005-8.593,1.929-11.469a4.209,4.209,0,0,0-6.236-.491c-1.873,1.662-2.287,4.721-2.1,7.078s2.273,6.313,3.009,7.716c-1.031.7-2.062,1.4-3.093,2.055-.7.414-1.4.87-2.1,1.249l-2.153,1.171c-1.4.7-2.806,1.4-4.209,2.048-.961.456-1.88.87-2.806,1.291.982-.751,2.869-2.252,3.009-2.4a16.2,16.2,0,0,0,3.9-7.246,4.908,4.908,0,0,0,.6-.7,4.209,4.209,0,0,0-1.256-6.124c-3.107-1.7-8.838,1.143-11.146,3.318-.133.133-1.452,1.69-2.273,2.687.393-.659.779-1.3,1.171-1.978.793-1.347,1.536-2.715,2.35-4.209.365-.7.7-1.445,1.1-2.181s.7-1.536,1.059-2.308c.793-1.81,1.508-3.683,2.181-5.612,1.178.7,5.408,3.065,7.772,3.318s5.422-.07,7.141-1.894a4.209,4.209,0,0,0-.316-6.243c-2.806-2.16-8.908-.21-11.518,1.592-.161.112-1.887,1.613-2.806,2.455.4-1.143.8-2.287,1.164-3.458,1.059-3.388,2.02-6.846,2.988-10.3.3-1.052.61-2.1.919-3.157.414.253,5.373,3.192,8.025,3.507,2.35.253,5.422-.077,7.141-1.9a4.209,4.209,0,0,0-.309-6.243c-2.806-2.16-8.915-.21-11.525,1.592-.2.133-2.673,2.3-3.276,2.883.7-2.315,1.368-4.615,2.1-6.853a74.813,74.813,0,0,1,3.676-8.866c.2.119,5.359,3.206,8.067,3.507,2.357.259,5.422-.07,7.141-1.894a4.209,4.209,0,0,0-.309-6.243c-2.806-2.16-8.908-.21-11.518,1.592-.2.14-2.869,2.469-3.325,2.925.084-.161.147-.344.238-.512a54.428,54.428,0,0,1,5.226-8.067c1.073-1.4,2.182-2.7,3.283-3.928.9.7,5.064,3.7,7.47,4.244s5.4.519,7.309-1.1a4.209,4.209,0,0,0,.379-6.243c-2.56-2.455-8.838-1.185-11.623.316-.154.084-1.606,1.087-2.651,1.831.505-.547,1.017-1.122,1.515-1.634,1.859-1.943,3.683-3.6,5.3-5.057.933-.821,1.789-1.543,2.6-2.21,1.235.2,6.2.94,8.544.309s5.036-2.02,5.976-4.342a4.209,4.209,0,0,0-2.539-5.71c-3.4-1-8.417,3.016-10.171,5.612-.154.231-2.153,4.047-2.1,4.061h.07c-.786.624-1.627,1.3-2.532,2.069-1.662,1.4-3.507,3.051-5.429,4.952a75.679,75.679,0,0,0-5.864,6.439,54.6,54.6,0,0,0-5.471,8.06.141.141,0,0,1-.049.105c.2-1.024.7-3.893.7-4.117.154-3.163-1.4-9.378-4.728-10.627a4.209,4.209,0,0,0-5.464,3.03c-.645,2.42.7,5.2,2.153,7.064,1.641,2.1,6.776,4.777,7.183,4.987a75.286,75.286,0,0,0-4.005,9.077c-.7,1.81-1.291,3.655-1.887,5.506.147-.884.274-1.683.281-1.8.154-3.164-1.4-9.371-4.728-10.627a4.209,4.209,0,0,0-5.464,3.03c-.645,2.42.7,5.2,2.153,7.064s5.808,4.265,6.965,4.875c-.224.7-.456,1.4-.7,2.139-1.052,3.43-2.1,6.86-3.2,10.192-.393,1.171-.828,2.315-1.249,3.458.126-.793.231-1.452.231-1.557.161-3.164-1.4-9.378-4.721-10.627a4.209,4.209,0,0,0-5.464,3.023c-.645,2.427.7,5.2,2.153,7.071s5.387,4.026,6.755,4.763c-.47,1.157-.94,2.315-1.452,3.416-.365.744-.666,1.487-1.073,2.217s-.772,1.445-1.157,2.16c-.779,1.347-1.585,2.743-2.378,4.04-.554.9-1.094,1.754-1.634,2.616.407-1.164,1.15-3.458,1.192-3.655.631-3.107,0-9.484-3.058-11.223a4.209,4.209,0,0,0-5.864,2.167c-1,2.294-.1,5.247,1.059,7.309,1.277,2.273,5.745,5.612,6.313,5.99-.9,1.4-1.789,2.806-2.651,4.075-.435.652-.856,1.284-1.27,1.887l1.522,1.606c.491-.751,1-1.529,1.515-2.343.919-1.4,1.873-3,2.806-4.6a45.355,45.355,0,0,0,5.085,1.7c-.042,2.672,1.733,7.555,1.964,8.186-1.536.7-3.03,1.34-4.454,1.936a14.02,14.02,0,0,1-1.8.519l1.627,1.7a5.941,5.941,0,0,0,1.01-.295c1.557-.7,3.213-1.459,4.91-2.273.386.568,3.57,5.142,5.808,6.481,2.027,1.22,4.952,2.21,7.281,1.27a4.209,4.209,0,0,0,2.329-5.794c-1.648-3.142-8-3.928-11.125-3.388-.182.035-2.139.6-3.374.989.7-.337,1.361-.652,2.069-1,1.4-.7,2.806-1.4,4.258-2.2l2.1-1.206c.7-.393,1.4-.9,2.153-1.347,1.662-1.073,3.29-2.238,4.91-3.451.6,1.221,2.806,5.541,4.643,7.057s4.559,2.932,7.014,2.357a4.209,4.209,0,0,0,3.185-5.38c-1.157-3.353-7.316-5.092-10.487-5.029-.2,0-2.462.309-3.7.5.961-.737,1.929-1.466,2.876-2.245,2.75-2.245,5.464-4.594,8.179-6.937q1.242-1.052,2.5-2.1c.21.435,2.729,5.612,4.777,7.323,1.824,1.508,4.566,2.932,7.014,2.357a4.209,4.209,0,0,0,3.185-5.38c-1.157-3.353-7.316-5.092-10.522-5.029-.238,0-3.507.449-4.328.6,1.838-1.557,3.69-3.093,5.569-4.531a74.286,74.286,0,0,1,7.954-5.366c.1.2,2.7,5.612,4.8,7.372,1.824,1.508,4.566,2.932,7.014,2.357a4.209,4.209,0,0,0,3.192-5.38c-1.157-3.353-7.323-5.092-10.487-5.029-.253,0-3.76.484-4.391.61.161-.091.316-.2.477-.295a53.75,53.75,0,0,1,8.81-3.83c1.676-.589,3.311-1.052,4.91-1.466.379,1.059,2.174,5.885,3.893,7.66s4.209,3.416,6.7,3.107a4.209,4.209,0,0,0,3.76-4.994c-.779-3.458-6.713-5.864-9.869-6.145-.175,0-1.936,0-3.22.063.7-.175,1.473-.372,2.167-.533,2.616-.589,5.05-.968,7.211-1.284,1.228-.175,2.343-.309,3.388-.414.912.842,4.651,4.209,6.951,4.973s5.31,1.087,7.379-.323a4.209,4.209,0,0,0,1.059-6.166Z" transform="translate(-113.36 -234.396)" fill="#263238"/>
        <path id="Path_5170" data-name="Path 5170" d="M424.077,308.812c0,.063,3.683-2.21,3.9-2.378,2.483-1.971,6.124-7.232,4.91-10.522a4.209,4.209,0,0,0-5.878-2.1c-2.252,1.115-3.458,3.949-3.9,6.278C422.562,302.765,424.077,308.812,424.077,308.812Z" transform="translate(-145.687 -251.984)" fill="#263238"/>
        <path id="Path_5171" data-name="Path 5171" d="M130.4,247.857c-1.073,2.567-5.675,6.769-5.675,6.769s-1.852-3.872-1.936-4.132c-.989-3.009-1.122-9.413,1.747-11.5a4.209,4.209,0,0,1,6.075,1.473C131.865,242.639,131.31,245.676,130.4,247.857Z" transform="translate(-55.869 -235.551)" fill="#263238"/>
        <path id="Path_5172" data-name="Path 5172" d="M28.536,287.75c2.287-2.715,8.663-2.1,11.595-.912.253.105,4.026,2.181,3.984,2.231l-.056.049c1,.084,2.1.189,3.262.33,2.167.274,4.615.6,7.26,1.136a75.932,75.932,0,0,1,8.417,2.1,55.118,55.118,0,0,1,9.007,3.7l.1.063c-.7-.744-2.708-2.876-2.806-3.058-1.873-2.553-4-8.593-1.922-11.469a4.209,4.209,0,0,1,6.229-.491c1.873,1.662,2.294,4.721,2.1,7.085-.21,2.658-3.016,7.716-3.241,8.123A75.251,75.251,0,0,1,80.815,302c1.557,1.143,3.093,2.336,4.616,3.556-.617-.659-1.157-1.256-1.221-1.347-1.88-2.553-4.005-8.593-1.929-11.469a4.209,4.209,0,0,1,6.236-.491c1.873,1.662,2.287,4.721,2.1,7.085s-2.5,6.755-3.121,7.905l1.733,1.4c2.806,2.287,5.527,4.573,8.291,6.734.975.765,1.964,1.48,2.953,2.2-.54-.582-1-1.08-1.059-1.164-1.873-2.553-4-8.593-1.922-11.469a4.209,4.209,0,0,1,6.229-.491c1.873,1.662,2.294,4.721,2.1,7.078s-2.273,6.313-3.009,7.716c1.031.7,2.1,1.4,3.1,2.055.7.414,1.4.87,2.1,1.249l2.16,1.171c1.4.7,2.806,1.4,4.209,2.048.954.456,1.873.87,2.806,1.291-.975-.751-2.862-2.252-3.009-2.4a16.33,16.33,0,0,1-3.9-7.246,4.907,4.907,0,0,1-.6-.7,4.209,4.209,0,0,1,1.249-6.124c3.114-1.7,8.845,1.143,11.146,3.318.14.133,1.459,1.69,2.273,2.687-.393-.659-.779-1.3-1.171-1.978-.786-1.347-1.536-2.715-2.343-4.209l-1.108-2.181c-.386-.7-.7-1.536-1.059-2.308-.786-1.81-1.5-3.683-2.181-5.612-1.178.7-5.4,3.065-7.765,3.318s-5.422-.07-7.141-1.894a4.209,4.209,0,0,1,.309-6.243c2.806-2.16,8.915-.21,11.518,1.592.168.112,1.894,1.613,2.806,2.455-.393-1.143-.8-2.287-1.164-3.458-1.052-3.388-2.013-6.846-2.988-10.3-.295-1.052-.61-2.1-.912-3.156-.421.253-5.38,3.192-8.025,3.507-2.357.253-5.422-.077-7.141-1.9a4.209,4.209,0,0,1,.309-6.243c2.806-2.16,8.915-.21,11.518,1.592.2.133,2.68,2.3,3.283,2.883-.7-2.315-1.368-4.616-2.146-6.853a73.649,73.649,0,0,0-3.676-8.866c-.189.119-5.352,3.206-8.067,3.507-2.35.26-5.422-.07-7.141-1.894a4.209,4.209,0,0,1,.309-6.243c2.806-2.16,8.915-.21,11.525,1.592.2.14,2.869,2.469,3.318,2.925-.077-.161-.147-.344-.231-.512a54.431,54.431,0,0,0-5.226-8.067c-1.073-1.4-2.181-2.7-3.29-3.928-.9.7-5.057,3.7-7.47,4.244-2.308.512-5.394.519-7.3-1.1a4.209,4.209,0,0,1-.379-6.243c2.56-2.455,8.831-1.185,11.623.316.154.084,1.6,1.087,2.644,1.831-.505-.547-1.017-1.122-1.515-1.634-1.852-1.943-3.676-3.6-5.3-5.057-.926-.821-1.782-1.543-2.6-2.21-1.228.2-6.2.94-8.544.309s-5.029-2.02-5.976-4.342a4.209,4.209,0,0,1,2.532-5.682c3.409-1,8.417,3.016,10.171,5.612.154.231,2.16,4.047,2.1,4.061h-.077c.793.624,1.634,1.3,2.539,2.069,1.655,1.4,3.507,3.051,5.429,4.952a75.655,75.655,0,0,1,5.857,6.439,54.6,54.6,0,0,1,5.471,8.06.484.484,0,0,1,.049.105c-.2-1.024-.7-3.893-.7-4.117-.154-3.163,1.4-9.378,4.721-10.627a4.209,4.209,0,0,1,5.471,3.03c.638,2.42-.7,5.2-2.153,7.064-1.648,2.1-6.776,4.777-7.19,4.987a75.314,75.314,0,0,1,4.012,9.077c.666,1.81,1.284,3.654,1.88,5.506-.14-.884-.267-1.683-.274-1.8-.154-3.164,1.4-9.371,4.721-10.627a4.209,4.209,0,0,1,5.471,3.03c.645,2.42-.7,5.2-2.153,7.064s-5.808,4.265-6.965,4.875c.224.7.449,1.4.7,2.139,1.052,3.43,2.1,6.86,3.206,10.192.393,1.171.821,2.315,1.249,3.458-.133-.793-.231-1.452-.238-1.557-.154-3.164,1.4-9.378,4.721-10.627a4.209,4.209,0,0,1,5.471,3.023c.645,2.427-.7,5.2-2.153,7.071s-5.387,4.026-6.755,4.763c.47,1.157.94,2.315,1.452,3.416.365.744.659,1.487,1.066,2.217s.779,1.445,1.157,2.16c.786,1.347,1.585,2.743,2.385,4.04.547.9,1.087,1.754,1.627,2.616-.407-1.164-1.15-3.458-1.185-3.655-.638-3.107,0-9.484,3.058-11.223a4.209,4.209,0,0,1,5.857,2.167c1,2.294.105,5.247-1.052,7.309-1.277,2.273-5.745,5.612-6.313,5.99.9,1.4,1.789,2.806,2.644,4.075.435.652.863,1.284,1.277,1.887l-1.522,1.606c-.5-.751-1-1.529-1.515-2.343-.919-1.4-1.873-3-2.841-4.6a44.821,44.821,0,0,1-5.085,1.7c.049,2.672-1.726,7.554-1.964,8.186,1.536.7,3.037,1.34,4.461,1.936a13.846,13.846,0,0,0,1.8.519l-1.62,1.7a5.739,5.739,0,0,1-1.01-.295c-1.564-.7-3.22-1.459-4.91-2.273-.386.568-3.563,5.142-5.8,6.481-2.034,1.22-4.959,2.21-7.281,1.27a4.209,4.209,0,0,1-2.336-5.794c1.655-3.142,8-3.928,11.125-3.388.189.035,2.146.6,3.374.989-.7-.337-1.361-.652-2.062-1-1.4-.7-2.806-1.4-4.258-2.2l-2.1-1.206c-.7-.393-1.4-.9-2.16-1.347-1.655-1.073-3.283-2.238-4.91-3.451-.6,1.221-2.806,5.541-4.644,7.057s-4.566,2.932-7.014,2.357a4.209,4.209,0,0,1-3.185-5.38c1.157-3.353,7.316-5.092,10.522-5.029.2,0,2.469.309,3.711.5-.968-.737-1.929-1.466-2.883-2.245-2.75-2.245-5.457-4.594-8.172-6.937-.828-.7-1.669-1.4-2.5-2.1-.21.435-2.729,5.612-4.777,7.323-1.824,1.508-4.559,2.932-7.014,2.357a4.209,4.209,0,0,1-3.185-5.38c1.157-3.353,7.316-5.092,10.522-5.029.238,0,3.507.449,4.321.6-1.838-1.557-3.683-3.093-5.569-4.531a72.892,72.892,0,0,0-7.954-5.366c-.091.2-2.694,5.612-4.8,7.372-1.817,1.508-4.559,2.932-7.014,2.357a4.209,4.209,0,0,1-3.185-5.38c1.157-3.353,7.316-5.092,10.522-5.029.246,0,3.76.484,4.391.61l-.484-.295a53.492,53.492,0,0,0-8.81-3.844c-1.676-.589-3.311-1.052-4.91-1.466-.379,1.059-2.174,5.885-3.886,7.66s-4.209,3.416-6.706,3.107a4.209,4.209,0,0,1-3.753-4.994c.779-3.458,6.713-5.864,9.869-6.145.168,0,1.929,0,3.213.063-.7-.175-1.466-.372-2.167-.533-2.616-.589-5.05-.968-7.2-1.284-1.235-.175-2.343-.309-3.388-.414-.919.842-4.658,4.209-6.958,4.973s-5.31,1.087-7.379-.323a4.209,4.209,0,0,1-1.115-6.152Z" transform="translate(-27.658 -234.396)" fill="#263238"/>
        <path id="Path_5173" data-name="Path 5173" d="M66.46,308.812c0,.063-3.683-2.21-3.893-2.378-2.483-1.971-6.131-7.232-4.91-10.522a4.209,4.209,0,0,1,5.878-2.1c2.245,1.115,3.458,3.949,3.9,6.278C67.982,302.765,66.46,308.812,66.46,308.812Z" transform="translate(-36.542 -251.984)" fill="#263238"/>
      </g>
      <g id="freepik--Shadow--inject-2" transform="translate(178.924 503.856)">
        <ellipse id="Ellipse_26" data-name="Ellipse 26" cx="54.264" cy="6.558" rx="54.264" ry="6.558" transform="translate(0 0)" fill="#263238"/>
      </g>
      <g id="freepik--Device--inject-2" transform="translate(172.33 243.368)">
        <path id="Path_5181" data-name="Path 5181" d="M283.449,85.8v212.86a10.578,10.578,0,0,1-10.578,10.578H180.9a10.578,10.578,0,0,1-10.578-10.578V85.8A10.578,10.578,0,0,1,180.891,75.22h39.477l.035.126c.982,3.507,3.248,5.843,5.759,5.843h1.4c2.518,0,4.784-2.308,5.766-5.843l.035-.126h39.47A10.578,10.578,0,0,1,283.449,85.8Z" transform="translate(-165.045 -71.383)" fill="#fff" stroke="#263238" stroke-linecap="round" stroke-linejoin="round" stroke-width="1"/>
        <path id="Path_5182" data-name="Path 5182" d="M288.393,135.005V113.745h-1.922V86.529A16.779,16.779,0,0,0,269.693,69.75H179.579A16.779,16.779,0,0,0,162.8,86.529V302.8a16.779,16.779,0,0,0,16.779,16.779h90.114A16.779,16.779,0,0,0,286.472,302.8V153.124h1.922V140.561h-1.922v-5.555ZM281.2,290.824A16.785,16.785,0,0,1,264.425,307.6H184.853a16.778,16.778,0,0,1-16.779-16.779V90.365a16.779,16.779,0,0,1,16.779-16.779h33.269l.035.126c.982,3.507,3.248,5.843,5.759,5.843h1.4c2.518,0,4.784-2.308,5.766-5.843l.035-.126H264.39A16.785,16.785,0,0,1,281.2,90.365Z" transform="translate(-162.8 -69.75)" fill="#e58f6b" stroke="#263238" stroke-linecap="round" stroke-linejoin="round" stroke-width="1"/>
        <path id="Path_5183" data-name="Path 5183" d="M269.18,73.05H181.752A16.182,16.182,0,0,0,165.57,89.232V302.078a16.182,16.182,0,0,0,16.182,16.182H269.18a16.175,16.175,0,0,0,16.175-16.182V89.232A16.175,16.175,0,0,0,269.18,73.05Zm12.85,219.355a16.182,16.182,0,0,1-16.182,16.182H185.084A16.182,16.182,0,0,1,168.9,292.405V90.747a16.175,16.175,0,0,1,16.175-16.175H218.95l.035.126c.982,3.507,3.248,5.843,5.759,5.843h1.4c2.518,0,4.784-2.308,5.766-5.843l.035-.126h33.866a16.182,16.182,0,0,1,16.217,16.182Z" transform="translate(-163.627 -70.735)" fill="#263238" stroke="#263238" stroke-linecap="round" stroke-linejoin="round" stroke-width="1"/>
        <path id="Path_5184" data-name="Path 5184" d="M251.366,75.7a1.578,1.578,0,1,0-1.571,1.571A1.578,1.578,0,0,0,251.366,75.7Z" transform="translate(-188.3 -71.052)" fill="#fff"/>
        <path id="Path_5185" data-name="Path 5185" d="M183.638,84.43c0,1.592-1.789,2.167-1.8,3.381v.084h1.74v.54H181.26v-.5c0-1.7,1.789-2.041,1.789-3.507,0-.54-.175-.828-.617-.828s-.617.309-.617.779v.47h-.554V84.43c0-.807.372-1.34,1.185-1.34S183.638,83.6,183.638,84.43Z" transform="translate(-168.311 -73.733)" fill="#263238"/>
        <path id="Path_5186" data-name="Path 5186" d="M187.759,84.436v.133a1.038,1.038,0,0,1-.645,1.087,1.052,1.052,0,0,1,.645,1.1v.407c0,.807-.379,1.333-1.192,1.333s-1.185-.526-1.185-1.333V86.8h.547v.4c0,.477.2.765.624.765s.617-.281.617-.814v-.414c0-.519-.217-.765-.666-.786h-.316v-.526h.323a.638.638,0,0,0,.638-.7v-.288c0-.54-.189-.821-.617-.821s-.624.295-.624.772v.274h-.547v-.224c0-.807.379-1.326,1.185-1.326S187.759,83.6,187.759,84.436Z" transform="translate(-169.535 -73.739)" fill="#263238"/>
        <path id="Path_5187" data-name="Path 5187" d="M190.161,85.53v.7H189.6v-.7Zm0,2.876v.737H189.6v-.737Z" transform="translate(-170.801 -74.461)" fill="#263238"/>
        <path id="Path_5188" data-name="Path 5188" d="M191.847,85.293a.842.842,0,0,1,.786-.435c.7,0,.975.5.975,1.249v1.038c0,.807-.379,1.333-1.192,1.333s-1.185-.526-1.185-1.333v-.358h.54v.393c0,.477.2.765.617.765s.624-.288.624-.765V86.156c0-.477-.2-.765-.624-.765a.575.575,0,0,0-.6.568v.119h-.547l.14-2.939h2.1v.526h-1.557Z" transform="translate(-171.288 -73.748)" fill="#263238"/>
        <path id="Path_5189" data-name="Path 5189" d="M197.777,84.424v.1h-.568v-.168c0-.477-.2-.758-.624-.758s-.645.288-.645.856v1.185a.849.849,0,0,1,.856-.568c.7,0,.982.491.982,1.256v.8c0,.807-.407,1.333-1.214,1.333s-1.214-.526-1.214-1.333v-2.7c0-.835.379-1.354,1.214-1.354S197.777,83.582,197.777,84.424ZM195.96,86.4v.758c0,.477.2.765.624.765s.631-.288.631-.765v-.793c0-.477-.2-.765-.631-.765s-.624.288-.624.765Z" transform="translate(-172.518 -73.727)" fill="#263238"/>
        <rect id="Rectangle_1276" data-name="Rectangle 1276" width="1.494" height="3.732" transform="translate(81.48 10.893)" fill="#263238"/>
        <rect id="Rectangle_1277" data-name="Rectangle 1277" width="1.494" height="4.482" transform="translate(83.472 10.15)" fill="#263238"/>
        <rect id="Rectangle_1278" data-name="Rectangle 1278" width="1.494" height="5.008" transform="translate(85.457 9.617)" fill="#263238"/>
        <rect id="Rectangle_1279" data-name="Rectangle 1279" width="1.494" height="5.934" transform="translate(87.449 8.691)" fill="#263238"/>
        <path id="Path_5190" data-name="Path 5190" d="M312.117,88.121H303.16V82.65h8.957Zm-8.459-.491h7.961V83.148h-7.961Z" transform="translate(-204.705 -73.601)" fill="#263238"/>
        <rect id="Rectangle_1280" data-name="Rectangle 1280" width="4.728" height="3.395" transform="translate(99.703 10.087)" fill="#263238"/>
        <rect id="Rectangle_1281" data-name="Rectangle 1281" width="1.129" height="1.291" transform="translate(107.103 11.139)" fill="#263238"/>
        <path id="Path_5191" data-name="Path 5191" d="M296.857,88.268a.308.308,0,0,1-.168-.049,2.527,2.527,0,0,0-3.079,0,.33.33,0,0,1-.47,0,.337.337,0,0,1,0-.47,3.179,3.179,0,0,1,3.865,0,.33.33,0,0,1,.112.456.344.344,0,0,1-.259.063Z" transform="translate(-201.685 -74.934)" fill="#263238"/>
        <path id="Path_5192" data-name="Path 5192" d="M297.256,86.567a.372.372,0,0,1-.168-.042c-2.637-1.571-4.405-.049-4.426,0a.337.337,0,0,1-.442-.505,4.444,4.444,0,0,1,5.212,0,.288.288,0,0,1-.175.547Z" transform="translate(-201.411 -74.362)" fill="#263238"/>
        <path id="Path_5193" data-name="Path 5193" d="M297.6,84.634a.316.316,0,0,1-.175-.049c-3.339-1.985-5.555-.112-5.647,0a.345.345,0,0,1-.47-.505s2.665-2.273,6.432,0a.344.344,0,0,1,.119.463.337.337,0,0,1-.26.091Z" transform="translate(-201.138 -73.727)" fill="#263238"/>
        <path id="Path_5194" data-name="Path 5194" d="M296.333,89.2a.835.835,0,1,1-.244-.6A.842.842,0,0,1,296.333,89.2Z" transform="translate(-202.165 -75.306)" fill="#263238"/>
      </g>
      <g id="freepik--Character--inject-2" transform="translate(123.005 255.826)">
        <line id="Line_3" data-name="Line 3" x2="8.179" transform="translate(0 30.162)" fill="none" stroke="#263238" stroke-linecap="round" stroke-linejoin="round" stroke-width="1"/>
        <line id="Line_4" data-name="Line 4" x2="8.179" transform="translate(63.403 30.162)" fill="none" stroke="#263238" stroke-linecap="round" stroke-linejoin="round" stroke-width="1"/>
        <line id="Line_5" data-name="Line 5" x2="4.601" y2="3.577" transform="translate(8.179 8.691)" fill="none" stroke="#263238" stroke-linecap="round" stroke-linejoin="round" stroke-width="1"/>
        <line id="Line_6" data-name="Line 6" x1="4.601" y2="3.577" transform="translate(57.778 8.691)" fill="none" stroke="#263238" stroke-linecap="round" stroke-linejoin="round" stroke-width="1"/>
        <line id="Line_7" data-name="Line 7" x2="0.512" y2="7.667" transform="translate(26.585 0)" fill="none" stroke="#263238" stroke-linecap="round" stroke-linejoin="round" stroke-width="1"/>
        <line id="Line_8" data-name="Line 8" x1="1.024" y2="6.65" transform="translate(43.461 1.017)" fill="none" stroke="#263238" stroke-linecap="round" stroke-linejoin="round" stroke-width="1"/>
        <rect id="Rectangle_1282" data-name="Rectangle 1282" width="44.149" height="38.095" transform="translate(11.939 20.587)" fill="#fff" stroke="#263238" stroke-linecap="round" stroke-linejoin="round" stroke-width="1"/>
        <rect id="Rectangle_1283" data-name="Rectangle 1283" width="8.326" height="38.095" transform="translate(20.005 20.587)" fill="#e58f6b" stroke="#263238" stroke-linecap="round" stroke-linejoin="round" stroke-width="1"/>
        <rect id="Rectangle_1284" data-name="Rectangle 1284" width="19.353" height="38.095" transform="translate(36.735 20.587)" fill="#fff" stroke="#263238" stroke-linecap="round" stroke-linejoin="round" stroke-width="1"/>
        <path id="Path_5195" data-name="Path 5195" d="M130.753,111.212l-6.474-2.806a2.807,2.807,0,0,0-.477,0l-.105-.056H117.18l5.078,2.385a6.776,6.776,0,0,0,.161,1.059,3.36,3.36,0,0,0,2.308,2.217l.042.2h.7l11.272.154S133.825,112.762,130.753,111.212Z" transform="translate(-99.854 -93.732)" fill="#e58f6b" stroke="#263238" stroke-linecap="round" stroke-linejoin="round" stroke-width="1"/>
        <path id="Path_5196" data-name="Path 5196" d="M129.622,114.316s-7.014-3.781-10.816-5.443-3.935.9-3.507,2.869,3.023,2.42,3.023,2.42Z" transform="translate(-99.242 -93.728)" fill="#e58f6b" stroke="#263238" stroke-linecap="round" stroke-linejoin="round" stroke-width="1"/>
        <path id="Path_5197" data-name="Path 5197" d="M135.973,112.93H133.5a2.68,2.68,0,0,0-2.687,2.687h7.849A2.687,2.687,0,0,0,135.973,112.93Z" transform="translate(-103.924 -95.099)" fill="#e58f6b" stroke="#263238" stroke-linecap="round" stroke-linejoin="round" stroke-width="1"/>
        <path id="Path_5198" data-name="Path 5198" d="M154.94,108.379h-5.724l-.744,2.806c-3.072,1.55-5.962,3.107-5.962,3.107l11.272-.154h.7l.035-.2a3.36,3.36,0,0,0,2.315-2.217C157.177,110.119,157.135,108.106,154.94,108.379Z" transform="translate(-107.417 -93.733)" fill="#e58f6b" stroke="#263238" stroke-linecap="round" stroke-linejoin="round" stroke-width="1"/>
        <path id="Path_5199" data-name="Path 5199" d="M132.87,114.316s7.014-3.781,10.823-5.443,3.928.9,3.472,2.869-3.023,2.42-3.023,2.42Z" transform="translate(-104.539 -93.728)" fill="#e58f6b" stroke="#263238" stroke-linecap="round" stroke-linejoin="round" stroke-width="1"/>
        <path id="Path_5200" data-name="Path 5200" d="M110.274,173.54s-3.69-2.455-2.883-3.234,4.77.933,5.675,2.1.449,1.957-.3,2.027A7.079,7.079,0,0,1,110.274,173.54Z" transform="translate(-96.897 -112.171)" fill="#fff" stroke="#263238" stroke-linecap="round" stroke-linejoin="round" stroke-width="1"/>
        <path id="Path_5201" data-name="Path 5201" d="M114.061,170.329s-5.717-2.967-4.342-.224,4.8,5.261,6.173,5.948,8.922.456,8.922.456-1.4-2.518-2.75-3.206S114.061,170.329,114.061,170.329Z" transform="translate(-97.563 -111.822)" fill="#fff" stroke="#263238" stroke-linecap="round" stroke-linejoin="round" stroke-width="1"/>
        <path id="Path_5202" data-name="Path 5202" d="M120.506,169.694s-7.548-4.11-7.779-2.511,5.948,6.86,8,7.772a14.8,14.8,0,0,0,5.036.919Z" transform="translate(-98.523 -111.187)" fill="#fff" stroke="#263238" stroke-linecap="round" stroke-linejoin="round" stroke-width="1"/>
        <path id="Path_5203" data-name="Path 5203" d="M151.874,176.28s-2.743-6.4-4.8-7.316-20.58.912-20.58.912-8.922-7.316-8.235-3.662,6.4,8.01,8,9.119,13.5.7,13.5.7l3.662,3.43Z" transform="translate(-100.164 -110.703)" fill="#fff" stroke="#263238" stroke-linecap="round" stroke-linejoin="round" stroke-width="1"/>
        <path id="Path_5204" data-name="Path 5204" d="M326.536,194.594a3.879,3.879,0,0,0-.323,2.694,6.622,6.622,0,0,0,1.613,2.364l.54,3.339,7.323.323-3.016-11.223Z" transform="translate(-162.23 -118.733)" fill="#fff" stroke="#263238" stroke-linecap="round" stroke-linejoin="round" stroke-width="1"/>
        <path id="Path_5205" data-name="Path 5205" d="M319.63,165.749s3.051,19.851,3.507,21.043,3.97,2.6,5.2,1.985-.919-3.507-.919-3.507l.61-19.086S322.836,164.206,319.63,165.749Z" transform="translate(-160.297 -110.693)" fill="#263238" stroke="#263238" stroke-linecap="round" stroke-linejoin="round" stroke-width="1"/>
        <path id="Path_5206" data-name="Path 5206" d="M329.9,174.875s-4.279-.3-4.433.463-.147,3.353.617,3.662,5.955.765,6.867.456a2.546,2.546,0,0,0,1.073-3.507C333.1,174.573,329.9,174.875,329.9,174.875Z" transform="translate(-162.016 -113.576)" fill="#fff" stroke="#263238" stroke-linecap="round" stroke-linejoin="round" stroke-width="1"/>
        <path id="Path_5207" data-name="Path 5207" d="M330.128,181.852s-4.125,0-3.97.912-.309,2.9,1.4,3.213a20.574,20.574,0,0,0,6.1-.154,1.8,1.8,0,0,0,.765-3.206C333.18,181.544,330.128,181.852,330.128,181.852Z" transform="translate(-162.245 -115.664)" fill="#fff" stroke="#263238" stroke-linecap="round" stroke-linejoin="round" stroke-width="1"/>
        <path id="Path_5208" data-name="Path 5208" d="M320.364,181.948s-.526-3.844-1.768-3.739c-.926.077-3.135.779-2.932,2.469a20.278,20.278,0,0,0,1.936,5.794,1.8,1.8,0,0,0,3.29-.21C321.557,184.782,320.364,181.948,320.364,181.948Z" transform="translate(-159.109 -114.588)" fill="#fff" stroke="#263238" stroke-linecap="round" stroke-linejoin="round" stroke-width="1"/>
        <path id="Path_5209" data-name="Path 5209" d="M330.62,187.724s-3.732,0-3.591.884-.281,2.806,1.242,3.086a17.711,17.711,0,0,0,5.527-.147,1.768,1.768,0,0,0,.7-3.086C333.383,187.437,330.62,187.724,330.62,187.724Z" transform="translate(-162.505 -117.419)" fill="#fff" stroke="#263238" stroke-linecap="round" stroke-linejoin="round" stroke-width="1"/>
        <path id="Path_5210" data-name="Path 5210" d="M331.121,192.506s-3.121,0-3,.7-.231,2.336,1.038,2.581a14.527,14.527,0,0,0,4.622-.119,1.48,1.48,0,0,0,.575-2.581C333.436,192.26,331.121,192.506,331.121,192.506Z" transform="translate(-162.83 -118.847)" fill="#fff" stroke="#263238" stroke-linecap="round" stroke-linejoin="round" stroke-width="1"/>
        <path id="Path_5211" data-name="Path 5211" d="M313.991,132.1a10.445,10.445,0,0,0-8.01,17.1,10.186,10.186,0,0,0,8.039,3.774c9.161-.561,33.178,12.3,33.178,12.3V119.8S323.516,132.293,313.991,132.1Z" transform="translate(-155.506 -97.15)" fill="#fff" stroke="#263238" stroke-linecap="round" stroke-linejoin="round" stroke-width="1"/>
        <path id="Path_5212" data-name="Path 5212" d="M312.125,147.868a13.054,13.054,0,0,1,6.818-11.469,21.044,21.044,0,0,1-4.953.66,10.444,10.444,0,0,0-8.01,17.1,10.185,10.185,0,0,0,8.039,3.774,14.8,14.8,0,0,1,3.171.217,13.019,13.019,0,0,1-5.064-10.283Z" transform="translate(-155.506 -102.106)" fill="#e58f6b" stroke="#263238" stroke-linecap="round" stroke-linejoin="round" stroke-width="1"/>
        <ellipse id="Ellipse_32" data-name="Ellipse 32" cx="22.741" cy="22.741" rx="22.741" ry="22.741" transform="translate(164.178 62.098) rotate(-76.32)" fill="#fff" stroke="#263238" stroke-linecap="round" stroke-linejoin="round" stroke-width="1"/>
        <path id="Path_5213" data-name="Path 5213" d="M376.846,143.971A19.388,19.388,0,1,1,357.46,124.59,19.388,19.388,0,0,1,376.846,143.971Z" transform="translate(-165.803 -98.58)" fill="#a6a6a6" stroke="#263238" stroke-linecap="round" stroke-linejoin="round" stroke-width="1"/>
        <path id="Path_5214" data-name="Path 5214" d="M357.464,144.255v9.491l-14.913,7.639A19.416,19.416,0,0,1,339.64,141.4Z" transform="translate(-165.808 -103.599)" fill="#fff" stroke="#263238" stroke-linecap="round" stroke-linejoin="round" stroke-width="1"/>
        <path id="Path_5215" data-name="Path 5215" d="M368.429,150.2a4.735,4.735,0,1,1-4.728-4.735A4.735,4.735,0,0,1,368.429,150.2Z" transform="translate(-172.039 -104.814)" fill="#fff" stroke="#263238" stroke-linecap="round" stroke-linejoin="round" stroke-width="1"/>
        <path id="Path_5216" data-name="Path 5216" d="M326.818,206.191l-.758-3.178,9.834-1.213-.217,4.412Z" transform="translate(-162.217 -121.632)" fill="#fff" stroke="#263238" stroke-linecap="round" stroke-linejoin="round" stroke-width="1"/>
        <path id="Path_5217" data-name="Path 5217" d="M152.336,183.549l-2.266-3.633,10.437-5.3.877,4.454Z" transform="translate(-109.674 -113.517)" fill="#fff" stroke="#263238" stroke-linecap="round" stroke-linejoin="round" stroke-width="1"/>
        <path id="Path_5218" data-name="Path 5218" d="M216.059,178.857s-16.779-1.866-18.238-1.122-22.741,25.911-22.741,25.911l-13.075-26.094L151,182.392s13.79,47,16.028,47.53,23.484-13.6,23.484-13.6l-1.3,18.637A26.711,26.711,0,0,0,210.461,253.6c17.34,2.981,27.581-10.437,29.818-14.913a90.574,90.574,0,0,0,4.286-10.992l8.018-23.674s22.572,18.427,27.595,20.686,9.687,4.293,10.248,3.171-5.029-30.941-5.029-30.941l-11.925.561.561,4.658s-15.474-20.342-16.779-22.369-5.219-1.676-9.876-2.981S216.059,178.857,216.059,178.857Z" transform="translate(-109.952 -114.079)" fill="#e58f6b" stroke="#263238" stroke-linecap="round" stroke-linejoin="round" stroke-width="1"/>
        <line id="Line_9" data-name="Line 9" y1="9.322" x2="12.493" transform="translate(80.568 92.92)" fill="none" stroke="#263238" stroke-linecap="round" stroke-linejoin="round" stroke-width="1"/>
        <line id="Line_10" data-name="Line 10" y1="1.122" x2="6.334" transform="translate(88.585 95.34)" fill="none" stroke="#263238" stroke-linecap="round" stroke-linejoin="round" stroke-width="1"/>
        <line id="Line_11" data-name="Line 11" y1="15.102" x2="4.286" transform="translate(142.639 74.837)" fill="none" stroke="#263238" stroke-linecap="round" stroke-linejoin="round" stroke-width="1"/>
        <line id="Line_12" data-name="Line 12" y1="6.523" x2="4.658" transform="translate(144.315 78.569)" fill="none" stroke="#263238" stroke-linecap="round" stroke-linejoin="round" stroke-width="1"/>
        <line id="Line_13" data-name="Line 13" x2="0.189" y2="3.69" transform="translate(164.629 98.925)" fill="none" stroke="#263238" stroke-linecap="round" stroke-linejoin="round" stroke-width="1"/>
        <line id="Line_14" data-name="Line 14" x2="0.337" y2="6.643" transform="translate(164.075 88.073)" fill="none" stroke="#263238" stroke-linecap="round" stroke-linejoin="round" stroke-width="1"/>
        <line id="Line_15" data-name="Line 15" x2="3.914" y2="8.2" transform="translate(65.101 89.567)" fill="none" stroke="#263238" stroke-linecap="round" stroke-linejoin="round" stroke-width="1"/>
        <path id="Path_5219" data-name="Path 5219" d="M246.355,176.117l-8.2,1.494s-2.981,2.42-4.658,8.01a68,68,0,0,0-2.238,10.437l7.085.379-5.612,5.612s1.683,2.42,5.219,7.639a111.457,111.457,0,0,0,9.119,11.223l-10.381,13.362s12.675-2.806,20.5-11.37,12.465-21.436,12.465-21.436l-6.152-4.847,6.523-1.3s1.3-10.62-5.612-17.536S246.355,176.117,246.355,176.117Z" transform="translate(-133.914 -113.394)" fill="#e58f6b" stroke="#263238" stroke-linecap="round" stroke-linejoin="round" stroke-width="1"/>
        <path id="Path_5220" data-name="Path 5220" d="M269.451,181.244s-2.174,4.307-2.609,12.3c-.337,6.243-3.612,14.2-6.5,19.823-2.294,4.475-4.349,7.477-4.5,7.014a42.254,42.254,0,0,1-3.135-7.576c-.47-1.347-.975-2.918-1.522-4.735-2.806-9.322-5.219-24.417-4.1-27.4a34.149,34.149,0,0,1,1.866-4.286C257.9,188.511,269.451,181.244,269.451,181.244Z" transform="translate(-138.554 -114.046)" fill="#fff" stroke="#263238" stroke-linecap="round" stroke-linejoin="round" stroke-width="1"/>
        <path id="Path_5221" data-name="Path 5221" d="M260.593,215.827l2.259,6.587c-2.294,4.475-4.349,7.477-4.5,7.014a42.252,42.252,0,0,1-3.135-7.576l3.135-5.661-3.114-5.829,3.676-3.683,5.029,5.036Z" transform="translate(-141.067 -123.089)" fill="#263238" stroke="#263238" stroke-linecap="round" stroke-linejoin="round" stroke-width="1"/>
        <path id="Path_5222" data-name="Path 5222" d="M251.72,213.031l6.152-6.341,7.491,7.071" transform="translate(-140.022 -123.092)" fill="none" stroke="#263238" stroke-linecap="round" stroke-linejoin="round" stroke-width="1"/>
        <path id="Path_5223" data-name="Path 5223" d="M249.86,176.4a38.859,38.859,0,0,0,2.238,11,60.722,60.722,0,0,0,5.219,10.248l8.775-12.486S256.573,186.094,249.86,176.4Z" transform="translate(-139.467 -114.049)" fill="none" stroke="#263238" stroke-linecap="round" stroke-linejoin="round" stroke-width="1"/>
        <path id="Path_5224" data-name="Path 5224" d="M287.87,148.234s2.665-.414,2.665,3.227a30.163,30.163,0,0,1-1.543,8.123Z" transform="translate(-150.815 -105.635)" fill="#fff" stroke="#263238" stroke-linecap="round" stroke-linejoin="round" stroke-width="1"/>
        <path id="Path_5225" data-name="Path 5225" d="M271.076,127.576s1.866,16.961,2.048,22-.372,9.5-2.048,11.742-8.417,11.181-11.925,11.553a13.461,13.461,0,0,1-8.943-2.806c-1.487-1.319-8.579-12.493-8.579-12.493s-5.4-.372-6.706-7.456,5.962-5.4,5.962-5.4-3.914-6.152-4.286-12.114-1.494-8.207,14.541-8.579S271.076,127.576,271.076,127.576Z" transform="translate(-134.961 -98.403)" fill="#fff" stroke="#263238" stroke-linecap="round" stroke-linejoin="round" stroke-width="1"/>
        <path id="Path_5226" data-name="Path 5226" d="M273.54,146.11l4.475,15.467-6.9-2.048" transform="translate(-145.814 -105.005)" fill="none" stroke="#263238" stroke-linecap="round" stroke-linejoin="round" stroke-width="1"/>
        <line id="Line_16" data-name="Line 16" x1="5.408" y2="1.122" transform="translate(113.003 52.657)" fill="none" stroke="#263238" stroke-linecap="round" stroke-linejoin="round" stroke-width="1"/>
        <path id="Path_5227" data-name="Path 5227" d="M257.57,163.91a8.761,8.761,0,0,0,7.267,5.969c5.962.926,8.943-.189,8.943-.189" transform="translate(-141.769 -110.32)" fill="none" stroke="#263238" stroke-linecap="round" stroke-linejoin="round" stroke-width="1"/>
        <path id="Path_5228" data-name="Path 5228" d="M259.689,168.16s-.182,9.322,3.171,9.694,2.609-6.706,2.609-6.706A15.432,15.432,0,0,1,259.689,168.16Z" transform="translate(-142.401 -111.589)" fill="#263238" stroke="#263238" stroke-linecap="round" stroke-linejoin="round" stroke-width="1"/>
        <path id="Path_5229" data-name="Path 5229" d="M260.67,177.35c.456,1.7,1.221,3.107,2.483,3.248a1.789,1.789,0,0,0,1.683-.7C264.184,178.753,261.933,177.806,260.67,177.35Z" transform="translate(-142.694 -114.332)" fill="#fff" stroke="#263238" stroke-linecap="round" stroke-linejoin="round" stroke-width="1"/>
        <path id="Path_5230" data-name="Path 5230" d="M262.128,151.426c0,1.031-.456,1.866-1.024,1.866s-1.024-.835-1.024-1.866.456-1.866,1.024-1.866S262.128,150.395,262.128,151.426Z" transform="translate(-142.518 -106.035)" fill="#263238"/>
        <path id="Path_5231" data-name="Path 5231" d="M279.945,149.036c0,1.031-.463,1.866-1.031,1.866s-1.024-.835-1.024-1.866.463-1.866,1.024-1.866S279.945,148,279.945,149.036Z" transform="translate(-147.835 -105.322)" fill="#263238"/>
        <path id="Path_5232" data-name="Path 5232" d="M256.77,146.555a7.926,7.926,0,0,1,7.085-2.609" transform="translate(-141.53 -104.335)" fill="none" stroke="#263238" stroke-linecap="round" stroke-linejoin="round" stroke-width="1"/>
        <path id="Path_5233" data-name="Path 5233" d="M275.37,141.7s2.42-4.475,6.313-2.238" transform="translate(-147.083 -102.834)" fill="none" stroke="#263238" stroke-linecap="round" stroke-linejoin="round" stroke-width="1"/>
        <path id="Path_5234" data-name="Path 5234" d="M249.807,121.537s-5.773-.933-4.468.751,4.286,3.725,2.806,5.029-5.219,3.507-5.029,4.658.554,5.78,0,6.9-1.866,1.3-3.171,1.115-3.171-3.542-3.914-4.475-7.456-7.639-6.152-13.047,15.284-9.694,15.284-9.694,8.929-10.059,14.913-10.248,3.725,5.408,3.507,5.962,8.572-.554,10.248,4.847,1.122,6.9-6.523,8.95S249.807,121.537,249.807,121.537Z" transform="translate(-133.451 -91.992)" fill="#263238" stroke="#263238" stroke-linecap="round" stroke-linejoin="round" stroke-width="1"/>
        <path id="Path_5235" data-name="Path 5235" d="M417.173,119.02l-15.193,3.928,3.142,1.571-8.642,2.623,17.543-2.357-4.447-2.1Z" transform="translate(-183.241 -96.918)" fill="#263238"/>
        <path id="Path_5236" data-name="Path 5236" d="M420.992,170.4l-15.369-3.178,2.132,2.792-8.915-1.459,16.786,5.626-3.072-3.844Z" transform="translate(-183.946 -111.308)" fill="#263238"/>
        <path id="Path_5237" data-name="Path 5237" d="M398.471,203.486l-12.942-8.88.884,3.4-7.653-4.8,13.3,11.693-1.34-4.735Z" transform="translate(-177.951 -119.067)" fill="#263238"/>
      </g>
      <g id="freepik--Text--inject-2" transform="translate(187.159 409.915)">
        <path id="Path_5238" data-name="Path 5238" d="M207.24,328.66V307.188h5.142a11.385,11.385,0,0,1,3.676.512,4.209,4.209,0,0,1,2.28,1.768,6.313,6.313,0,0,1,.786,3.388,10.682,10.682,0,0,1-.238,2.336,4.559,4.559,0,0,1-.814,1.768,3.654,3.654,0,0,1-1.578,1.122l3,10.578h-3.921l-2.6-9.82h-1.8v9.82Zm3.928-12.3h1.214a4.1,4.1,0,0,0,1.817-.33,1.894,1.894,0,0,0,.968-1.059,5.022,5.022,0,0,0,.295-1.866,4.047,4.047,0,0,0-.6-2.427,2.671,2.671,0,0,0-2.266-.814h-1.4Z" transform="translate(-190.896 -307.185)" fill="#edc909"/>
        <path id="Path_5239" data-name="Path 5239" d="M228.37,328.661V307.19h9.014v2.757h-5.064v6.173h4v2.736h-4V326h5.142v2.7Z" transform="translate(-197.205 -307.186)" fill="#edc909"/>
        <path id="Path_5240" data-name="Path 5240" d="M244.55,328.661V307.19h8.831v2.673h-4.91v6.313h4.005v2.736h-4.005v9.75Z" transform="translate(-202.036 -307.186)" fill="#edc909"/>
        <path id="Path_5241" data-name="Path 5241" d="M260.05,328.661V307.19h9.014v2.757h-5.092v6.173h4.005v2.736h-4.005V326h5.163v2.7Z" transform="translate(-206.663 -307.186)" fill="#edc909"/>
        <path id="Path_5242" data-name="Path 5242" d="M276.23,328.66V307.188h5.142a11.336,11.336,0,0,1,3.669.512,4.209,4.209,0,0,1,2.287,1.768,6.313,6.313,0,0,1,.779,3.388,10.27,10.27,0,0,1-.238,2.336,4.552,4.552,0,0,1-.807,1.768,3.654,3.654,0,0,1-1.578,1.122l3,10.578h-3.928l-2.6-9.82h-1.8v9.82Zm3.921-12.3h1.221a4.124,4.124,0,0,0,1.817-.33,1.943,1.943,0,0,0,.968-1.059,5.183,5.183,0,0,0,.288-1.866,4.047,4.047,0,0,0-.6-2.427,2.653,2.653,0,0,0-2.266-.814h-1.4Z" transform="translate(-211.494 -307.185)" fill="#edc909"/>
        <path id="Path_5243" data-name="Path 5243" d="M183.94,368.021l4.293-21.471h4.209l4.3,21.471H193.1l-.849-4.952h-3.739l-.877,4.952Zm4.952-7.449H191.8l-1.459-9.014Z" transform="translate(-183.94 -318.938)" fill="#edc909"/>
        <path id="Path_5244" data-name="Path 5244" d="M214.25,368.021V346.55h8.831v2.7h-4.91v6.257h4v2.736h-4v9.778Z" transform="translate(-192.989 -318.938)" fill="#edc909"/>
        <path id="Path_5245" data-name="Path 5245" d="M229.75,368.02V346.548h5.142a11.411,11.411,0,0,1,3.676.512,4.209,4.209,0,0,1,2.28,1.768,6.313,6.313,0,0,1,.779,3.388,10.71,10.71,0,0,1-.232,2.336,4.559,4.559,0,0,1-.814,1.768A3.655,3.655,0,0,1,239,357.442l3,10.578h-3.921l-2.6-9.82h-1.8v9.82Zm3.928-12.3h1.214a4.1,4.1,0,0,0,1.817-.337,1.915,1.915,0,0,0,.968-1.059,5.023,5.023,0,0,0,.295-1.866,4.111,4.111,0,0,0-.6-2.427,2.671,2.671,0,0,0-2.266-.814h-1.4Z" transform="translate(-197.617 -318.936)" fill="#edc909"/>
        <path id="Path_5246" data-name="Path 5246" d="M251,368.021V346.55h3.872v21.471Z" transform="translate(-203.961 -318.938)" fill="#edc909"/>
        <path id="Path_5247" data-name="Path 5247" d="M261.28,368.021V346.55h9.014v2.757H265.2v6.173h4.005v2.736H265.2v7.106h5.142v2.7Z" transform="translate(-207.03 -318.938)" fill="#edc909"/>
        <path id="Path_5248" data-name="Path 5248" d="M277.45,368.021V346.55h2.736l5.219,12.24V346.55h3.241v21.471h-2.6L280.8,355.192v12.829Z" transform="translate(-211.858 -318.938)" fill="#edc909"/>
        <path id="Path_5249" data-name="Path 5249" d="M298.05,368.016V346.545h5.064a9.575,9.575,0,0,1,4.1.7,4.209,4.209,0,0,1,2.1,2.2,9.82,9.82,0,0,1,.624,3.767v7.849a10.522,10.522,0,0,1-.624,3.886,4.335,4.335,0,0,1-2.1,2.308,8.7,8.7,0,0,1-3.963.751Zm3.928-2.729h1.192a3.093,3.093,0,0,0,1.936-.477,2.1,2.1,0,0,0,.7-1.4,15.611,15.611,0,0,0,.133-2.245v-8.207a9.3,9.3,0,0,0-.189-2.1,1.8,1.8,0,0,0-.723-1.185,3.669,3.669,0,0,0-1.887-.372h-1.136Z" transform="translate(-218.008 -318.932)" fill="#edc909"/>
      </g>
    </g>
  </g>
</svg>
