<svg xmlns="http://www.w3.org/2000/svg" width="390" height="117" viewBox="0 0 390 117">
  <g id="Group_410" data-name="Group 410" transform="translate(-20 -107)">
    <rect id="Rectangle_1329" data-name="Rectangle 1329" width="390" height="117" rx="13" transform="translate(20 107)" fill="#fff"/>
    <g id="Group_405" data-name="Group 405" transform="translate(37.038 -77.502)">
      <g id="freepik--Floor--inject-2" transform="translate(250.773 290.007)">
        <path id="Path_5412" data-name="Path 5412" d="M135.429,461.8c0,.035-25.116.064-56.092.064s-56.1-.042-56.1-.064,25.111-.064,56.1-.064S135.429,461.755,135.429,461.8Z" transform="translate(-23.24 -461.74)" fill="#263238"/>
      </g>
      <g id="freepik--Wallet--inject-2" transform="translate(252.949 255.956)">
        <rect id="Rectangle_1309" data-name="Rectangle 1309" width="38.899" height="34.095" rx="8.76" transform="translate(1.102)" fill="#455a64"/>
        <g id="Group_386" data-name="Group 386" transform="translate(1.102 21.368)" opacity="0.3">
          <path id="Path_5413" data-name="Path 5413" d="M36.49,411.46H50.66a.99.99,0,0,0,.989-.99H36.53Z" transform="translate(-36.49 -410.47)"/>
        </g>
        <rect id="Rectangle_1310" data-name="Rectangle 1310" width="16.782" height="8.849" rx="4.424" transform="translate(0.061 12.646)" fill="#455a64"/>
        <path id="Path_5414" data-name="Path 5414" d="M47.642,383.9a1.483,1.483,0,0,0,.48-.111,1.3,1.3,0,0,0,.477-.369,1.237,1.237,0,0,0,.247-.757c0-1.237-.012-3.045-.02-5.264v-.853a3.564,3.564,0,0,0-.015-.433,1.152,1.152,0,0,0-.136-.408,1.182,1.182,0,0,0-.67-.552,1.384,1.384,0,0,0-.455-.057H33.321a1.17,1.17,0,0,0-.989.562,1.111,1.111,0,0,0-.168.562v6.55a1.175,1.175,0,0,0,.539.883,1.2,1.2,0,0,0,.495.171c.168.017.356,0,.534,0h6.714l5.264.022h1.432l-1.432.012-5.274.082H33.178a1.261,1.261,0,0,1-.537-.191,1.291,1.291,0,0,1-.6-.957c-.015-.388,0-.759,0-1.148v-5.42a1.272,1.272,0,0,1,.186-.623,1.3,1.3,0,0,1,1.1-.606H47.558a1.484,1.484,0,0,1,.495.062,1.286,1.286,0,0,1,.727.6,1.262,1.262,0,0,1,.143.44,3.441,3.441,0,0,1,.015.448q0,.438,0,.853c0,2.226-.017,4.017-.022,5.267a1.237,1.237,0,0,1-1.131,1.237Z" transform="translate(-32.033 -362.402)" fill="#263238"/>
        <g id="Group_387" data-name="Group 387" transform="translate(10.221 15.545)" opacity="0.3">
          <circle id="Ellipse_42" data-name="Ellipse 42" cx="2.484" cy="2.484" r="2.484"/>
        </g>
        <circle id="Ellipse_43" data-name="Ellipse 43" cx="2.484" cy="2.484" r="2.484" transform="translate(9.192 17.163) rotate(-45)" fill="#ebebeb"/>
        <path id="Path_5415" data-name="Path 5415" d="M78.147,385.751a4.68,4.68,0,0,0-.1-.6,2.474,2.474,0,0,0-.905-1.336,2.427,2.427,0,0,0-2.3-.339,2.289,2.289,0,0,0-.611.329,2.26,2.26,0,0,0-.512.517,2.414,2.414,0,0,0,0,2.862,2.45,2.45,0,0,0,4.339-.831,6.008,6.008,0,0,0,.1-.6,1.979,1.979,0,0,1-.054.613,2.459,2.459,0,0,1-.9,1.4,2.5,2.5,0,0,1-1.061.482,2.546,2.546,0,0,1-1.336-.1,2.4,2.4,0,0,1-.646-.344,2.423,2.423,0,0,1-.539-.539,2.528,2.528,0,0,1,0-3.011,2.372,2.372,0,0,1,.539-.539,2.4,2.4,0,0,1,.646-.346,2.545,2.545,0,0,1,1.336-.1,2.5,2.5,0,0,1,1.962,1.88A1.979,1.979,0,0,1,78.147,385.751Z" transform="translate(-62.957 -368.588)" fill="#263238"/>
      </g>
      <g id="freepik--Device--inject-2" transform="translate(288.285 191.223)">
        <path id="Path_5521" data-name="Path 5521" d="M215.652,161.171l-33.507-.161a7.3,7.3,0,0,1-7.265-7.332l.354-84a7.3,7.3,0,0,1,7.344-7.27l33.5.146a7.3,7.3,0,0,1,7.265,7.33l-.354,84.008a7.3,7.3,0,0,1-7.335,7.278Z" transform="translate(-174.88 -62.41)" fill="#263238"/>
        <path id="Path_5522" data-name="Path 5522" d="M222.817,74.323l-6.486-.03L197.355,74.2h-2.283l-5.69-.025a5.111,5.111,0,0,0-5.135,5.088l-.346,82a5.111,5.111,0,0,0,5.088,5.133l33.442.153a5.111,5.111,0,0,0,5.128-5.1l.346-82A5.111,5.111,0,0,0,222.817,74.323Z" transform="translate(-181.669 -71.268)" fill="#fafafa"/>
        <path id="Path_5523" data-name="Path 5523" d="M339.676,103.608a.418.418,0,1,1-.416-.418A.418.418,0,0,1,339.676,103.608Z" transform="translate(-298.281 -93.102)" fill="#263238"/>
        <path id="Path_5524" data-name="Path 5524" d="M339.656,109.721a.418.418,0,1,1-.418-.421A.418.418,0,0,1,339.656,109.721Z" transform="translate(-298.266 -97.701)" fill="#263238"/>
        <path id="Path_5525" data-name="Path 5525" d="M339.621,115.778a.421.421,0,1,1-.418-.418A.421.421,0,0,1,339.621,115.778Z" transform="translate(-298.236 -102.261)" fill="#263238"/>
        <rect id="Rectangle_1317" data-name="Rectangle 1317" width="35.646" height="22.615" rx="4.3" transform="translate(8.285 24.797)" fill="#ebebeb"/>
        <rect id="Rectangle_1318" data-name="Rectangle 1318" width="35.646" height="22.615" rx="4.3" transform="translate(7.305 23.327)" fill="#e0e0e0"/>
        <rect id="Rectangle_1319" data-name="Rectangle 1319" width="35.646" height="22.615" rx="4.3" transform="translate(6.174 22.108)" fill="#e58f6b"/>
        <path id="Path_5526" data-name="Path 5526" d="M218.9,168.957c0,.289-.23.458-.67.458h-.863V167.74h.816c.418,0,.633.176.633.435a.4.4,0,0,1-.223.369A.411.411,0,0,1,218.9,168.957Zm-1.15-.925v.4h.386c.188,0,.292-.067.292-.2s-.1-.2-.292-.2Zm.762.886c0-.141-.109-.208-.309-.208h-.453v.413h.453C218.406,169.123,218.515,169.061,218.515,168.918Z" transform="translate(-206.859 -141.684)" fill="#fff"/>
        <path id="Path_5527" data-name="Path 5527" d="M225.183,169.056h-.777l-.148.359h-.4l.742-1.675h.383l.742,1.675h-.406Zm-.121-.294-.267-.641-.265.641Z" transform="translate(-211.744 -141.684)" fill="#fff"/>
        <path id="Path_5528" data-name="Path 5528" d="M233.686,167.74v1.675h-.319l-.834-1.017v1.017h-.383V167.74h.322l.831,1.017V167.74Z" transform="translate(-217.983 -141.684)" fill="#fff"/>
        <path id="Path_5529" data-name="Path 5529" d="M240.6,168.794l-.225.247v.423H240V167.79h.386v.782l.742-.782h.43l-.693.742.742.928h-.453Z" transform="translate(-223.891 -141.722)" fill="#fff"/>
        <path id="Path_5530" data-name="Path 5530" d="M218.251,197.343h-.307v.4h-.158v-.4h-.866v-.114l.814-1.019h.176l-.784.989h.665v-.354h.153v.354h.307Z" transform="translate(-206.52 -163.111)" fill="#fff"/>
        <path id="Path_5531" data-name="Path 5531" d="M223.481,197.306c0,.247-.186.455-.557.455a.8.8,0,0,1-.554-.2l.079-.126a.665.665,0,0,0,.475.178c.247,0,.4-.119.4-.309s-.131-.3-.416-.3H222.8v-.116l.425-.534h-.787v-.141h.99v.114l-.433.547C223.317,196.9,223.481,197.061,223.481,197.306Z" transform="translate(-210.622 -163.111)" fill="#fff"/>
        <path id="Path_5532" data-name="Path 5532" d="M228.508,197.3c0,.26-.181.465-.557.465a.8.8,0,0,1-.552-.2l.079-.126a.653.653,0,0,0,.47.178c.262,0,.4-.126.4-.314s-.124-.319-.515-.319h-.327l.079-.772h.841v.141h-.7l-.054.495h.2C228.333,196.841,228.508,197.024,228.508,197.3Z" transform="translate(-214.408 -163.111)" fill="#fff"/>
        <path id="Path_5533" data-name="Path 5533" d="M233.845,197.249a.48.48,0,0,1-.524.472c-.408,0-.631-.284-.631-.769,0-.522.284-.794.7-.794a.7.7,0,0,1,.364.084l-.064.126a.534.534,0,0,0-.3-.072c-.331,0-.544.213-.544.631v.124a.5.5,0,0,1,.47-.262.465.465,0,0,1,.524.46Zm-.156,0c0-.2-.151-.331-.386-.331a.356.356,0,0,0-.4.334c0,.171.141.331.406.331a.336.336,0,0,0,.376-.329Z" transform="translate(-218.389 -163.072)" fill="#fff"/>
        <path id="Path_5534" data-name="Path 5534" d="M248,198.913l-.366-.482-.369.482h-.176l.458-.591-.435-.562h.176l.346.45.346-.45h.173l-.435.554.46.591Z" transform="translate(-229.227 -164.278)" fill="#fff"/>
        <path id="Path_5535" data-name="Path 5535" d="M252.718,198.913l-.374-.482-.369.482H251.8l.458-.591-.435-.562H252l.346.45.346-.45h.171l-.425.554.46.591Z" transform="translate(-232.772 -164.278)" fill="#fff"/>
        <path id="Path_5536" data-name="Path 5536" d="M257.48,198.913l-.366-.482-.369.482h-.176l.455-.591-.435-.562h.176l.349.45.346-.45h.171l-.435.554.463.591Z" transform="translate(-236.362 -164.278)" fill="#fff"/>
        <path id="Path_5537" data-name="Path 5537" d="M262.208,198.913l-.366-.482-.376.482h-.176l.458-.591-.435-.562h.176l.346.45.346-.45h.173l-.433.554.46.591Z" transform="translate(-239.915 -164.278)" fill="#fff"/>
        <path id="Path_5538" data-name="Path 5538" d="M278.57,198.89l-.366-.482-.369.482h-.176l.455-.6-.433-.562h.176l.346.45.346-.45h.183l-.448.562.463.591Z" transform="translate(-252.235 -164.255)" fill="#fff"/>
        <path id="Path_5539" data-name="Path 5539" d="M283.3,198.913l-.366-.482-.369.482h-.176l.458-.591-.435-.562h.176l.346.45.346-.45h.173l-.435.554.46.591Z" transform="translate(-255.795 -164.278)" fill="#fff"/>
        <path id="Path_5540" data-name="Path 5540" d="M288.04,198.89l-.366-.482-.369.482h-.176l.463-.6-.435-.562h.176l.346.45.346-.45h.171l-.438.562.46.591Z" transform="translate(-259.362 -164.255)" fill="#fff"/>
        <path id="Path_5541" data-name="Path 5541" d="M292.78,198.913l-.366-.482-.369.482h-.176l.455-.591-.423-.562h.176l.349.45.346-.45h.171l-.448.554.463.591Z" transform="translate(-262.93 -164.278)" fill="#fff"/>
        <path id="Path_5542" data-name="Path 5542" d="M308.652,196.21v1.536h-.158v-1.4h-.364v-.141Z" transform="translate(-275.168 -163.111)" fill="#fff"/>
        <path id="Path_5543" data-name="Path 5543" d="M312.441,197.306c0,.247-.186.455-.557.455a.8.8,0,0,1-.554-.2l.079-.126a.66.66,0,0,0,.475.178c.247,0,.4-.119.4-.309s-.131-.3-.416-.3h-.109v-.116l.425-.534h-.787v-.141h.989v.114l-.433.547C312.277,196.9,312.441,197.061,312.441,197.306Z" transform="translate(-277.576 -163.111)" fill="#fff"/>
        <path id="Path_5544" data-name="Path 5544" d="M317.943,197.343h-.309v.4h-.156v-.4h-.868v-.114l.814-1.019h.176l-.784.989h.665v-.354h.153v.354h.309Z" transform="translate(-281.55 -163.111)" fill="#fff"/>
        <path id="Path_5545" data-name="Path 5545" d="M323.366,197.59v.139h-1.079v-.1l.638-.626c.173-.171.208-.275.208-.378,0-.178-.126-.287-.361-.287a.515.515,0,0,0-.418.171l-.114-.1a.693.693,0,0,1,.544-.22c.312,0,.51.158.51.416a.628.628,0,0,1-.247.48l-.522.515Z" transform="translate(-285.787 -163.093)" fill="#fff"/>
        <path id="Path_5546" data-name="Path 5546" d="M213.73,214.156a.376.376,0,0,1,.4-.378.381.381,0,0,1,.3.129l-.109.1a.233.233,0,0,0-.183-.087.235.235,0,0,0,0,.47.233.233,0,0,0,.183-.087l.109.1a.369.369,0,0,1-.3.131.376.376,0,0,1-.4-.378Z" transform="translate(-204.119 -176.333)" fill="#fff"/>
        <path id="Path_5547" data-name="Path 5547" d="M217.149,214.376h-.339l-.067.156h-.173l.327-.742h.168l.327.742h-.176Zm-.052-.129-.116-.282-.116.282Z" transform="translate(-206.257 -176.343)" fill="#fff"/>
        <path id="Path_5548" data-name="Path 5548" d="M220.678,214.532l-.143-.2h-.156v.2h-.168v-.742h.317c.2,0,.319.1.319.265a.247.247,0,0,1-.151.233l.163.235Zm-.161-.594h-.139v.247h.139c.1,0,.156-.047.156-.129S220.621,213.938,220.517,213.938Z" transform="translate(-208.997 -176.343)" fill="#fff"/>
        <path id="Path_5549" data-name="Path 5549" d="M223.09,214.453l.057-.129a.421.421,0,0,0,.247.077c.1,0,.141-.032.141-.077,0-.139-.425-.045-.425-.317,0-.124.1-.228.309-.228a.494.494,0,0,1,.247.064l-.052.129a.436.436,0,0,0-.2-.057c-.1,0-.141.037-.141.084,0,.134.428.042.428.309,0,.124-.1.228-.312.228A.529.529,0,0,1,223.09,214.453Z" transform="translate(-211.164 -176.335)" fill="#fff"/>
        <path id="Path_5550" data-name="Path 5550" d="M227.953,213.83v.742h-.171v-.3h-.334v.3h-.168v-.742h.168v.289h.334v-.289Z" transform="translate(-214.318 -176.373)" fill="#fff"/>
        <path id="Path_5551" data-name="Path 5551" d="M230.468,214.023a.4.4,0,1,1,.4.379.378.378,0,0,1-.4-.379Zm.631,0a.23.23,0,1,0-.23.235.225.225,0,0,0,.225-.235Z" transform="translate(-216.717 -176.2)" fill="#fff"/>
        <path id="Path_5552" data-name="Path 5552" d="M234.23,213.83h.171v.594h.366v.139h-.537Z" transform="translate(-219.548 -176.373)" fill="#fff"/>
        <path id="Path_5553" data-name="Path 5553" d="M236.79,213.83h.334a.371.371,0,0,1,0,.742h-.334Zm.327.594a.228.228,0,0,0,0-.455h-.156v.455Z" transform="translate(-221.475 -176.373)" fill="#fff"/>
        <path id="Path_5554" data-name="Path 5554" d="M240.867,214.4v.136H240.3v-.742h.552v.136h-.378v.163h.339v.134h-.339v.168Z" transform="translate(-224.117 -176.343)" fill="#fff"/>
        <path id="Path_5555" data-name="Path 5555" d="M243.578,214.532l-.143-.2h-.156v.2h-.168v-.742h.317c.2,0,.319.1.319.265a.247.247,0,0,1-.151.233l.163.235Zm-.161-.594h-.139v.247h.139c.1,0,.156-.047.156-.129s-.045-.119-.148-.119Z" transform="translate(-226.232 -176.343)" fill="#fff"/>
        <rect id="Rectangle_1320" data-name="Rectangle 1320" width="10.872" height="0.94" rx="0.47" transform="translate(9.442 40.013)" fill="#fff"/>
        <rect id="Rectangle_1321" data-name="Rectangle 1321" width="6.041" height="0.94" rx="0.47" transform="translate(32.245 40.013)" fill="#fff"/>
        <g id="Group_402" data-name="Group 402" transform="translate(6.174 22.108)" opacity="0.2">
          <path id="Path_5556" data-name="Path 5556" d="M234.306,151.78H201.022a1.182,1.182,0,0,0-1.182,1.18v5.972a9.868,9.868,0,0,0,7.555,1.19c3.02-.631,5.756-2.177,8.569-3.443s5.907-2.281,8.947-1.759c2.872.495,5.319,2.278,7.916,3.6a15.353,15.353,0,0,0,2.662,1.074V152.96A1.182,1.182,0,0,0,234.306,151.78Z" transform="translate(-199.84 -151.78)" fill="#fff"/>
        </g>
        <rect id="Rectangle_1323" data-name="Rectangle 1323" width="18.773" height="2.234" rx="1.117" transform="translate(19.243 55.159)" fill="#e0e0e0"/>
        <rect id="Rectangle_1324" data-name="Rectangle 1324" width="9.489" height="2.234" rx="1.117" transform="translate(19.243 59.55)" fill="#e0e0e0"/>
        <path id="Path_5561" data-name="Path 5561" d="M227.327,264.534c0,.035-9.769.064-21.816.064s-21.821-.03-21.821-.064,9.769-.064,21.821-.064S227.327,264.5,227.327,264.534Z" transform="translate(-181.511 -214.486)" fill="#e0e0e0"/>
        <rect id="Rectangle_1325" data-name="Rectangle 1325" width="28.458" height="9.596" rx="4.798" transform="translate(10.001 66.496)" fill="#e58f6b"/>
        <path id="Path_5562" data-name="Path 5562" d="M264.75,346.394c0,.495-.361.782-.94.782h-.371v.554h-.6v-2.12h.97C264.389,345.61,264.75,345.912,264.75,346.394Zm-.6,0c0-.2-.126-.312-.374-.312h-.334v.613h.334C264.02,346.7,264.146,346.59,264.146,346.394Z" transform="translate(-241.081 -275.554)" fill="#fff"/>
        <path id="Path_5563" data-name="Path 5563" d="M271.955,347.319h-.9l-.168.411h-.611l.935-2.12h.591l.938,2.12h-.623Zm-.176-.443-.272-.678-.272.678Z" transform="translate(-246.681 -275.554)" fill="#fff"/>
        <path id="Path_5564" data-name="Path 5564" d="M280.718,346.971v.759h-.6v-.769l-.809-1.351h.633l.495.844.495-.844h.581Z" transform="translate(-253.477 -275.554)" fill="#fff"/>
        <circle id="Ellipse_49" data-name="Ellipse 49" cx="1.848" cy="1.848" r="1.848" transform="matrix(0.231, -0.973, 0.973, 0.231, 5.265, 14.06)" fill="#e58f6b"/>
        <rect id="Rectangle_1326" data-name="Rectangle 1326" width="13.838" height="1.62" rx="0.81" transform="translate(17.079 11.735)" fill="#e0e0e0"/>
        <rect id="Rectangle_1328" data-name="Rectangle 1328" width="3.3" height="3.3" rx="1.65" transform="translate(33.215 25.242)" fill="#fff"/>
      </g>
      <g id="freepik--speech-bubble--inject-2" transform="translate(251.605 201.102)">
        <path id="Path_5575" data-name="Path 5575" d="M38.126,114.182l-1.635-.2a6.286,6.286,0,1,1,1.618-1.566h0Z" transform="translate(-26.686 -102.441)" fill="#fff"/>
        <path id="Path_5576" data-name="Path 5576" d="M38.042,114.088v-.463c0-.3-.015-.742-.025-1.3l.037.017h0a.022.022,0,0,1-.032,0,.027.027,0,0,1,0-.03,6.224,6.224,0,0,0,1.1-2.8,6.333,6.333,0,0,0-.052-1.979,6.269,6.269,0,0,0-.809-2.1,6.385,6.385,0,0,0-1.695-1.813,6.083,6.083,0,0,0-2.459-1.061,6.347,6.347,0,0,0-2.845.121,6.1,6.1,0,0,0-2.592,1.484,6.273,6.273,0,0,0-.989,1.18c-.126.22-.247.438-.366.663l-.148.346-.072.171-.057.178a6.387,6.387,0,0,0-.247,2.865,6.08,6.08,0,0,0,.97,2.526,6.254,6.254,0,0,0,3.839,2.667l.519.089c.171.027.341.03.495.047a5.6,5.6,0,0,0,.96-.02,6.254,6.254,0,0,0,2.825-.989h.015l1.2.158.317.045.111.017h-.1l-.312-.032-1.222-.134h.015a6.241,6.241,0,0,1-2.842,1.036,5.485,5.485,0,0,1-.972.025c-.168-.015-.339-.017-.512-.042l-.527-.089a6.328,6.328,0,0,1-2.113-.9,6.5,6.5,0,0,1-1.8-1.826,6.162,6.162,0,0,1-.989-2.565,6.469,6.469,0,0,1,.247-2.917l.057-.181.074-.176c.052-.116.1-.247.151-.351.111-.233.247-.453.371-.678a6.5,6.5,0,0,1,.989-1.2,6.184,6.184,0,0,1,2.637-1.5,6.431,6.431,0,0,1,2.926-.131,6.142,6.142,0,0,1,2.5,1.086,6.432,6.432,0,0,1,1.707,1.845,6.313,6.313,0,0,1,.814,2.13,6.476,6.476,0,0,1,.042,2.006,6.254,6.254,0,0,1-1.135,2.813l-.035-.03h0a.022.022,0,0,1,.032,0,.017.017,0,0,1,0,.015v1.655C38.044,114.065,38.042,114.088,38.042,114.088Z" transform="translate(-26.601 -102.346)" fill="#263238"/>
        <path id="Path_5577" data-name="Path 5577" d="M40.97,121.638l.784-.841,1.618,1.343,2.981-3.07.782.787-3.824,3.857Z" transform="translate(-37.415 -114.933)" fill="#e58f6b"/>
      </g>
      <g id="freepik--Character--inject-2" transform="translate(260.7 198.674)">
        <path id="Path_5578" data-name="Path 5578" d="M94.5,105.211a4.747,4.747,0,0,1,5.037-4.01l.247.017c2.632.346,3.807,2.778,3.389,5.4l-.918,9.306-.045,1.922-6.271.569.136-4.062a3.057,3.057,0,0,1-2.36-3.122C93.784,110,94.152,107.485,94.5,105.211Z" transform="translate(-86.206 -99.047)" fill="#ffbf9d"/>
        <path id="Path_5579" data-name="Path 5579" d="M103.19,152.132a6.16,6.16,0,0,0,3.4-.742,3.064,3.064,0,0,1-3.4,1.422Z" transform="translate(-93.338 -136.83)" fill="#ff9a6c"/>
        <path id="Path_5580" data-name="Path 5580" d="M100.886,126.771a.364.364,0,0,0,.324.391.351.351,0,0,0,.4-.3.364.364,0,0,0-.324-.393.351.351,0,0,0-.4.3Z" transform="translate(-91.604 -118.071)" fill="#263238"/>
        <path id="Path_5581" data-name="Path 5581" d="M98.737,121.625c.042.049.331-.134.722-.1s.663.247.707.2-.017-.109-.134-.208a1.007,1.007,0,0,0-.564-.22.989.989,0,0,0-.579.141C98.764,121.518,98.717,121.6,98.737,121.625Z" transform="translate(-89.984 -114.176)" fill="#263238"/>
        <path id="Path_5582" data-name="Path 5582" d="M115.686,128.179a.361.361,0,0,0,.322.391.346.346,0,0,0,.4-.3.366.366,0,0,0-.322-.393.346.346,0,0,0-.4.3Z" transform="translate(-102.742 -119.13)" fill="#263238"/>
        <path id="Path_5583" data-name="Path 5583" d="M114.237,123.05c.042.052.331-.131.722-.1s.663.247.708.2-.017-.109-.136-.21a.99.99,0,0,0-.562-.218.948.948,0,0,0-.579.141C114.264,122.946,114.217,123.035,114.237,123.05Z" transform="translate(-101.649 -115.25)" fill="#263238"/>
        <path id="Path_5584" data-name="Path 5584" d="M104.717,125.475a2.627,2.627,0,0,0-.626-.161c-.1-.017-.193-.045-.205-.114a.517.517,0,0,1,.089-.289l.351-.742a12.264,12.264,0,0,0,.806-1.939,13.331,13.331,0,0,0-.962,1.87c-.116.247-.23.495-.336.742a.579.579,0,0,0-.082.388.247.247,0,0,0,.153.156.692.692,0,0,0,.168.037A2.551,2.551,0,0,0,104.717,125.475Z" transform="translate(-93.757 -114.882)" fill="#263238"/>
        <path id="Path_5585" data-name="Path 5585" d="M108.217,136.78c-.062,0-.094.416-.477.69a2.1,2.1,0,0,1-.841.247c-.007.052.094.089.284.109a1.059,1.059,0,0,0,.7-.188.918.918,0,0,0,.374-.581C108.287,136.889,108.247,136.78,108.217,136.78Z" transform="translate(-96.13 -125.834)" fill="#263238"/>
        <path id="Path_5586" data-name="Path 5586" d="M114.287,117.115c.032.109.425.087.878.176s.816.247.886.148c.03-.045-.027-.148-.171-.262a1.566,1.566,0,0,0-1.341-.247C114.366,116.984,114.274,117.064,114.287,117.115Z" transform="translate(-101.689 -110.852)" fill="#263238"/>
        <path id="Path_5587" data-name="Path 5587" d="M99.646,117.024c.062.094.336.022.66.04s.594.1.663.015c.032-.042,0-.134-.119-.228a.97.97,0,0,0-1.069-.045C99.664,116.89,99.619,116.98,99.646,117.024Z" transform="translate(-90.666 -110.696)" fill="#263238"/>
        <path id="Path_5588" data-name="Path 5588" d="M128.935,131.123a.688.688,0,0,1,.792-.609c.472.079.99.386.876,1.363a1.311,1.311,0,0,1-1.883,1.143C128.722,132.971,128.851,131.85,128.935,131.123Z" transform="translate(-112.553 -121.112)" fill="#ffbf9d"/>
        <path id="Path_5589" data-name="Path 5589" d="M130.522,134.161a.526.526,0,0,0,.077.054.3.3,0,0,0,.225.027.742.742,0,0,0,.416-.633,1.029,1.029,0,0,0-.04-.44.351.351,0,0,0-.2-.247.158.158,0,0,0-.188.064c-.027.047-.02.082-.03.084s-.035-.032,0-.1a.178.178,0,0,1,.079-.1.225.225,0,0,1,.173-.027.425.425,0,0,1,.275.282,1.017,1.017,0,0,1,.052.495.766.766,0,0,1-.517.7.319.319,0,0,1-.272-.074C130.519,134.205,130.514,134.166,130.522,134.161Z" transform="translate(-113.907 -122.863)" fill="#ff9a6c"/>
        <path id="Path_5590" data-name="Path 5590" d="M101.95,100.777c-.143.495-.092,1.323-.534,1.21-.883-.223-.67,1.586-1.093,1.408s-.787-.688-.814-1.8c-.032-1.41.534-2.429-.02-4.047A2.14,2.14,0,0,0,97.7,96.441a2.177,2.177,0,0,0-1.873.989,2.222,2.222,0,0,0-.757-1.484,1.276,1.276,0,0,0-1.4.116,1.036,1.036,0,0,0-.183,1.348.5.5,0,0,1-.554-.2.831.831,0,0,0,.22.633.769.769,0,0,1-.448-.312c.045.205.087.408.131.611a1.969,1.969,0,0,1-1.677-1.338,3.312,3.312,0,0,1,.472-2.815,3.05,3.05,0,0,1,2.533-1.462,2.337,2.337,0,0,1,2.266,1.432,3.289,3.289,0,0,1,2.741-.294,2.382,2.382,0,0,1,1.358,1.887,1.42,1.42,0,0,1,1.405.272l.094.082a2.122,2.122,0,0,1,.616,1.954c-.054.284-.153.576-.21.8C102.264,99.353,101.95,100.777,101.95,100.777Z" transform="translate(-84.18 -92.53)" fill="#263238"/>
        <path id="Path_5591" data-name="Path 5591" d="M96.735,103.515s-.022,0-.059-.047a1.084,1.084,0,0,1-.146-.158,1.484,1.484,0,0,1-.292-.742,1.41,1.41,0,0,1,.346-1.111,1.519,1.519,0,0,1,1.326-.495,1.7,1.7,0,0,1,.7.277,2.278,2.278,0,0,1,.527.465,2.763,2.763,0,0,1,.618,1.843.577.577,0,0,1-.022.215.3.3,0,0,1-.015.074,3.317,3.317,0,0,0-.1-1.066,2.793,2.793,0,0,0-.534-1.022,1.939,1.939,0,0,0-1.177-.717,1.462,1.462,0,0,0-1.264.472,1.368,1.368,0,0,0-.344,1.059,1.5,1.5,0,0,0,.262.725C96.666,103.436,96.74,103.51,96.735,103.515Z" transform="translate(-88.098 -98.867)" fill="#455a64"/>
        <path id="Path_5592" data-name="Path 5592" d="M94.737,102.686a.413.413,0,0,1-.052-.084c-.032-.057-.079-.141-.136-.247a5.606,5.606,0,0,1-.408-.97,2.761,2.761,0,0,1-.114-.72,1.979,1.979,0,0,1,.151-.824,1.613,1.613,0,0,1,.6-.71,1.949,1.949,0,0,1,.942-.312,2.4,2.4,0,0,1,.99.156,3.112,3.112,0,0,1,.8.46,2.385,2.385,0,0,1,.878,1.271,1.732,1.732,0,0,1-.052,1.044,1.252,1.252,0,0,1-.129.247.331.331,0,0,1-.062.079,2.034,2.034,0,0,0,.163-.344,1.754,1.754,0,0,0,.027-1.019,2.37,2.37,0,0,0-.871-1.237,2.647,2.647,0,0,0-1.732-.594,1.877,1.877,0,0,0-.908.3,1.556,1.556,0,0,0-.571.673,1.954,1.954,0,0,0-.151.8,2.692,2.692,0,0,0,.1.705,5.859,5.859,0,0,0,.383.97l.124.247A.468.468,0,0,1,94.737,102.686Z" transform="translate(-86.441 -97.261)" fill="#455a64"/>
        <path id="Path_5593" data-name="Path 5593" d="M132.72,111.388a3.256,3.256,0,0,0,.374-.381,2.622,2.622,0,0,0,.554-1.133,2.583,2.583,0,0,0-.059-1.259c-.094-.314-.2-.495-.188-.495a.5.5,0,0,1,.082.119,2.346,2.346,0,0,1,.158.361,2.447,2.447,0,0,1-.507,2.444,2.342,2.342,0,0,1-.289.27A.475.475,0,0,1,132.72,111.388Z" transform="translate(-115.564 -104.263)" fill="#455a64"/>
        <path id="Path_5594" data-name="Path 5594" d="M126.33,112.452a1.737,1.737,0,0,0,.225-.134,1.264,1.264,0,0,0,.438-.527l.072-.166-.015.181c-.022.247-.047.527-.074.831l-.057-.035a2.276,2.276,0,0,0,.955-1.469,2.36,2.36,0,0,0,0-.816,3.268,3.268,0,0,0-.247-.717.3.3,0,0,1,.032.042,1.238,1.238,0,0,1,.077.134,2.161,2.161,0,0,1,.19.532,2.281,2.281,0,0,1-.965,2.357l-.064.042v-.077c.032-.3.062-.586.089-.829l.057.015a1.262,1.262,0,0,1-.475.532,1.385,1.385,0,0,1-.176.087A.185.185,0,0,1,126.33,112.452Z" transform="translate(-110.754 -105.377)" fill="#455a64"/>
        <path id="Path_5595" data-name="Path 5595" d="M114.86,103.666a1.645,1.645,0,0,0-.4-.495,1.457,1.457,0,0,0-.626-.289,1.531,1.531,0,0,0-.834.074,1.793,1.793,0,0,0-.7.475,2.15,2.15,0,0,0-.378.586,4.052,4.052,0,0,0-.188.621.556.556,0,0,1,.012-.176,2.2,2.2,0,0,1,.126-.468,2.128,2.128,0,0,1,.374-.613,1.831,1.831,0,0,1,.727-.495,1.586,1.586,0,0,1,.876-.072,1.465,1.465,0,0,1,.646.317,1.311,1.311,0,0,1,.3.378,1.166,1.166,0,0,1,.052.121C114.86,103.648,114.863,103.663,114.86,103.666Z" transform="translate(-99.767 -100.247)" fill="#455a64"/>
        <path id="Path_5596" data-name="Path 5596" d="M114.446,100.117a2.425,2.425,0,0,0-.477-.186,1.751,1.751,0,0,0-1.192.168,2.165,2.165,0,0,0-.844.878c-.151.282-.2.477-.213.472a.433.433,0,0,1,.025-.139,2.156,2.156,0,0,1,.139-.359,2.105,2.105,0,0,1,.856-.92,1.712,1.712,0,0,1,1.237-.153,1.329,1.329,0,0,1,.354.151A.443.443,0,0,1,114.446,100.117Z" transform="translate(-99.758 -98.021)" fill="#455a64"/>
        <path id="Path_5597" data-name="Path 5597" d="M86.006,432.115l.176,4.757s-4.777,1.776-4.831,2.659h9.237l.032-7.421Z" transform="translate(-76.901 -348.107)" fill="#263238"/>
        <path id="Path_5598" data-name="Path 5598" d="M111.072,449.71a.376.376,0,0,1,.262.43.364.364,0,0,1-.425.262.4.4,0,0,1-.272-.458.373.373,0,0,1,.47-.225" transform="translate(-98.937 -361.346)" fill="#e0e0e0"/>
        <path id="Path_5599" data-name="Path 5599" d="M90.576,459.822l-.025-.742-8.846.287s-.413.181-.366.47Z" transform="translate(-76.89 -368.406)" fill="#263238"/>
        <path id="Path_5600" data-name="Path 5600" d="M100.269,451.05c0,.044.228.064.45.208s.339.336.381.317-.025-.277-.3-.448S100.259,451.006,100.269,451.05Z" transform="translate(-91.14 -362.33)" fill="#fff"/>
        <path id="Path_5601" data-name="Path 5601" d="M96.36,452.733c0,.045.186.119.339.312s.2.391.247.388.072-.247-.121-.495S96.36,452.688,96.36,452.733Z" transform="translate(-88.198 -363.612)" fill="#fff"/>
        <path id="Path_5602" data-name="Path 5602" d="M93.08,455.119c.04,0,.1-.218,0-.463s-.327-.346-.346-.309.111.171.2.373S93.046,455.114,93.08,455.119Z" transform="translate(-85.467 -364.838)" fill="#fff"/>
        <path id="Path_5603" data-name="Path 5603" d="M100.6,446.284c.02.042.225-.02.48,0s.455.1.477.057-.168-.2-.468-.215S100.573,446.249,100.6,446.284Z" transform="translate(-91.384 -358.655)" fill="#fff"/>
        <path id="Path_5604" data-name="Path 5604" d="M140.973,433.89l.366,5.749-1.019,4.631a.591.591,0,0,0,.495.71h0a.584.584,0,0,0,.51-.173c.844-.878,3.933-4.126,3.881-4.544-.057-.495.015-6.088.015-6.088Z" transform="translate(-121.273 -349.447)" fill="#263238"/>
        <path id="Path_5605" data-name="Path 5605" d="M142.33,463.186l4.376-5.106v.247a.888.888,0,0,1-.188.584c-.346.443-1.333,1.65-3.671,4.1a.589.589,0,0,1-.527.173Z" transform="translate(-122.789 -367.653)" fill="#263238"/>
        <g id="Group_403" data-name="Group 403" transform="translate(22.532 88.558)" opacity="0.6">
          <path id="Path_5606" data-name="Path 5606" d="M154.588,450.584a.354.354,0,0,0-.079.47.344.344,0,0,0,.465.082.376.376,0,0,0,.079-.495.354.354,0,0,0-.495-.032" transform="translate(-154.452 -450.523)" fill="#fff"/>
        </g>
        <path id="Path_5607" data-name="Path 5607" d="M143.632,466.44a1.826,1.826,0,0,0-.524-.428,1.778,1.778,0,0,0-.668-.1c0-.015.067-.062.2-.087a.933.933,0,0,1,.92.408C143.632,466.356,143.645,466.433,143.632,466.44Z" transform="translate(-122.879 -373.475)" fill="#fff"/>
        <path id="Path_5608" data-name="Path 5608" d="M142.426,470.336a4.942,4.942,0,0,0-.519-.228,5.553,5.553,0,0,0-.566-.049.663.663,0,0,1,.6-.072C142.28,470.072,142.456,470.319,142.426,470.336Z" transform="translate(-122.051 -376.584)" fill="#fff"/>
        <path id="Path_5609" data-name="Path 5609" d="M145.19,462.354a5.962,5.962,0,0,0-.779-.406,6.193,6.193,0,0,0-.861-.163A1.61,1.61,0,0,1,145.19,462.354Z" transform="translate(-123.715 -370.408)" fill="#fff"/>
        <path id="Path_5610" data-name="Path 5610" d="M145.8,456.473c-.015.035-.339-.087-.742-.084s-.742.116-.742.079a1.464,1.464,0,0,1,1.5,0Z" transform="translate(-124.294 -366.283)" fill="#fff"/>
        <path id="Path_5611" data-name="Path 5611" d="M145.384,449.561a1.875,1.875,0,0,0-1.534.116.553.553,0,0,1,.178-.168,1.3,1.3,0,0,1,.566-.181,1.262,1.262,0,0,1,.586.094C145.322,449.491,145.391,449.548,145.384,449.561Z" transform="translate(-123.94 -361.063)" fill="#fff"/>
        <path id="Path_5612" data-name="Path 5612" d="M144.038,445.057a.48.48,0,0,1-.017-.218,1.549,1.549,0,0,1,.148-.576.688.688,0,0,1,.275-.331.247.247,0,0,1,.27.042.368.368,0,0,1,.1.247.834.834,0,0,1-.7.8.972.972,0,0,1-.972-.468.344.344,0,0,1-.027-.277.247.247,0,0,1,.247-.134.813.813,0,0,1,.386.181,1.686,1.686,0,0,1,.411.433c.079.116.1.19.1.193a2.654,2.654,0,0,0-.559-.552.758.758,0,0,0-.341-.151.124.124,0,0,0-.129.072.247.247,0,0,0,.027.183.863.863,0,0,0,.846.393.722.722,0,0,0,.6-.67.274.274,0,0,0-.064-.181.124.124,0,0,0-.146-.027.606.606,0,0,0-.247.277,2.226,2.226,0,0,0-.21.762Z" transform="translate(-123.376 -356.987)" fill="#fff"/>
        <path id="Path_5613" data-name="Path 5613" d="M81.953,266.835a20.448,20.448,0,0,0-.584,6c.067,1.281,4.181,38.269,4.181,38.269l5.229-.47-.9-34.583.218.2S93.211,290.8,93.419,293.1c.186,2.066,2.672,18.674,2.672,18.674l5.076-.247-1.15-21-1.539-19.048-.616-5.551Z" transform="translate(-76.895 -223.036)" fill="#263238"/>
        <path id="Path_5614" data-name="Path 5614" d="M111.011,280.4a1.238,1.238,0,0,1-.247.131,2.806,2.806,0,0,1-.727.235,1.573,1.573,0,0,1-.537,0,1.131,1.131,0,0,1-.554-.282,1.368,1.368,0,0,1-.327-.6c-.062-.228-.1-.465-.139-.705-.163-.962-.27-1.84-.329-2.474-.03-.317-.047-.576-.057-.754a1.174,1.174,0,0,1,0-.28,1.379,1.379,0,0,1,.049.275c.025.2.057.455.094.742.082.636.2,1.509.364,2.474a2.232,2.232,0,0,0,.425,1.237,1.2,1.2,0,0,0,.989.284,3.416,3.416,0,0,0,.722-.193A1.111,1.111,0,0,1,111.011,280.4Z" transform="translate(-97.024 -230.366)" fill="#455a64"/>
        <path id="Path_5615" data-name="Path 5615" d="M111.943,276.315a.237.237,0,0,1,.121-.035.539.539,0,0,1,.324.114.556.556,0,1,1-.853.307.5.5,0,0,1,.183-.289c.067-.049.111-.054.114-.049a.648.648,0,0,0-.213.356.5.5,0,0,0,.1.411.433.433,0,0,0,.48.1.44.44,0,0,0,.312-.376.515.515,0,0,0-.178-.386.661.661,0,0,0-.391-.153Z" transform="translate(-99.605 -230.825)" fill="#455a64"/>
        <path id="Path_5616" data-name="Path 5616" d="M136.74,280.919a.674.674,0,0,1-.2.025,3.706,3.706,0,0,1-.547,0,5.3,5.3,0,0,1-3.236-1.452,3.78,3.78,0,0,1-.369-.406c-.079-.1-.119-.161-.111-.166s.2.205.539.507a5.87,5.87,0,0,0,3.186,1.43A5.263,5.263,0,0,1,136.74,280.919Z" transform="translate(-115.23 -232.812)" fill="#455a64"/>
        <path id="Path_5617" data-name="Path 5617" d="M83.348,276.39a2.56,2.56,0,0,1-.327.586,6.652,6.652,0,0,1-1.039,1.237,6.564,6.564,0,0,1-1.3.945,2.517,2.517,0,0,1-.609.272,6.214,6.214,0,0,1,.564-.346,8.527,8.527,0,0,0,1.264-.96,8.412,8.412,0,0,0,1.051-1.19A5.708,5.708,0,0,1,83.348,276.39Z" transform="translate(-75.938 -230.908)" fill="#455a64"/>
        <path id="Path_5618" data-name="Path 5618" d="M65.583,191.93c-.777,2.268-.69,2.073-2.145,8.851-.267,1.252.205,3.216,1.333,3.81a3.344,3.344,0,0,0,3.8-1.148l1.079-10.229Z" transform="translate(-63.365 -167.341)" fill="#ffbf9d"/>
        <path id="Path_5619" data-name="Path 5619" d="M86.317,179.716l-.032-5.39.022-.529,5.469-1.276s-1.074-3.537-2.058-7.34a5.882,5.882,0,0,0-2.919-3.537h0l-.1-.047h0l-5.264-2.226c-1.064,1.133-2.612,2.043-4.1,1.608a4.673,4.673,0,0,1-2.167-1.484l-3.545,1.22h0a4.621,4.621,0,0,0-2.454,1.979c-.742,1.323-3.114,7.347-3.164,7.471l4.393.393s-.779,14.254-.495,16.8a7.7,7.7,0,0,0,3.76.866c5.462.247,13.588-.131,13.588-.131-.129-.821-.262-2.194-.336-2.889Z" transform="translate(-65.348 -142.836)" fill="#e58f6b"/>
        <path id="Path_5620" data-name="Path 5620" d="M82.59,183.18c.022,0-.094,3.4-.26,7.589s-.319,7.589-.334,7.589.094-3.4.247-7.592S82.567,183.178,82.59,183.18Z" transform="translate(-77.386 -160.756)" fill="#263238"/>
        <path id="Path_5621" data-name="Path 5621" d="M145.678,187c-.037,0,.072,3.018.247,6.736s.349,6.731.388,6.729-.072-3.015-.247-6.736S145.718,187,145.678,187Z" transform="translate(-125.311 -163.631)" fill="#263238"/>
        <path id="Path_5622" data-name="Path 5622" d="M139.482,210.015c-.178-1.338-.327-2.521-.327-2.521l-4.374,1.017.188.705-3.382-3.436-.537.047-1.7,1.769a42.791,42.791,0,0,0,2.348,4.354c1.123,1.588,2.887,4.007,5.3,3.8C139.235,215.566,139.8,212.415,139.482,210.015Z" transform="translate(-113.027 -177.765)" fill="#ffbf9d"/>
        <path id="Path_5623" data-name="Path 5623" d="M154.331,221.526a3.71,3.71,0,0,0-.96-.883,3.885,3.885,0,0,0-1.143-.633c-.02.037.495.329,1.059.742S154.3,221.556,154.331,221.526Z" transform="translate(-130.246 -188.475)" fill="#ff9a6c"/>
        <path id="Path_5624" data-name="Path 5624" d="M114.53,185.327l1.5-.767,1.949.618.965.891,1.484,3.74,1.19,1.507-2.1,2.721-1.328-2.424a4.208,4.208,0,0,1-1.578-1.2c-.453-.707-.653-1.1-.653-1.1s-.651-.312-.772-.613a1.44,1.44,0,0,1-.114-.532l.329-.482a1.212,1.212,0,0,1,.1-.613.6.6,0,0,1,.247-.205s-.1-.406.054-.552a4.781,4.781,0,0,1,.9-.411h0l-.656-.374S114.612,185.992,114.53,185.327Z" transform="translate(-101.873 -161.794)" fill="#ffbf9d"/>
        <path id="Path_5625" data-name="Path 5625" d="M120.539,193.1c0,.02-.23.025-.495.084s-.495.143-.495.126a1.182,1.182,0,0,1,.495-.188A1.12,1.12,0,0,1,120.539,193.1Z" transform="translate(-105.651 -168.206)" fill="#ff9a6c"/>
        <path id="Path_5626" data-name="Path 5626" d="M119.1,196.451a3.95,3.95,0,0,1-.435.057,3.651,3.651,0,0,1-.43.074.948.948,0,0,1,.421-.139A.989.989,0,0,1,119.1,196.451Z" transform="translate(-104.658 -170.722)" fill="#ff9a6c"/>
        <path id="Path_5627" data-name="Path 5627" d="M119.076,200.693c-.017,0-.03-.087-.027-.193s.017-.19.035-.19.03.087.03.193S119.094,200.693,119.076,200.693Z" transform="translate(-105.274 -173.648)" fill="#ff9a6c"/>
        <path id="Path_5628" data-name="Path 5628" d="M118.98,201.76a.841.841,0,0,0-.139-.346.938.938,0,0,0-.3-.22.306.306,0,0,1,.119,0,.5.5,0,0,1,.247.168.514.514,0,0,1,.106.267C119.005,201.715,118.988,201.76,118.98,201.76Z" transform="translate(-104.891 -174.309)" fill="#ff9a6c"/>
        <path id="Path_5629" data-name="Path 5629" d="M123.188,197.527a.915.915,0,0,0-.262-.247.99.99,0,0,0-.356-.089.242.242,0,0,1,.114-.032.514.514,0,0,1,.475.265C123.193,197.48,123.2,197.524,123.188,197.527Z" transform="translate(-107.924 -171.276)" fill="#ff9a6c"/>
        <path id="Path_5630" data-name="Path 5630" d="M126.086,194.123a.914.914,0,0,0-.247-.247,1.154,1.154,0,0,0-.329-.114.238.238,0,0,1,.109-.022.524.524,0,0,1,.247.082.5.5,0,0,1,.181.2C126.091,194.079,126.094,194.121,126.086,194.123Z" transform="translate(-110.137 -168.703)" fill="#ff9a6c"/>
        <path id="Path_5631" data-name="Path 5631" d="M128.247,191.662a.646.646,0,0,0-.017-.129.589.589,0,0,0-.109-.275.6.6,0,0,0-.233-.186c-.072-.032-.121-.042-.119-.052s.054-.015.134,0a.52.52,0,0,1,.27.188.532.532,0,0,1,.1.312C128.274,191.615,128.255,191.665,128.247,191.662Z" transform="translate(-111.838 -166.65)" fill="#ff9a6c"/>
        <path id="Path_5632" data-name="Path 5632" d="M122.958,189.612c0,.022-.314.027-.693.084a6.49,6.49,0,0,0-.675.176,1.561,1.561,0,0,1,.665-.247,3.013,3.013,0,0,1,.495-.037A.6.6,0,0,1,122.958,189.612Z" transform="translate(-107.187 -165.577)" fill="#ff9a6c"/>
        <g id="Group_404" data-name="Group 404" transform="translate(4.667 30.454)" opacity="0.3">
          <path id="Path_5633" data-name="Path 5633" d="M89.055,217.666a2.666,2.666,0,0,0-.371-1.237,2.347,2.347,0,0,0-2.061-.715,5.972,5.972,0,0,1-2.261-.074l-2.132,6.328a3.164,3.164,0,0,0,1.922-1.408,3.446,3.446,0,0,1,.705-1.017,2.7,2.7,0,0,1,1.657-.3,6.678,6.678,0,0,0,1.769-.26,1.18,1.18,0,0,0,.651-.371A1.27,1.27,0,0,0,89.055,217.666Z" transform="translate(-82.23 -215.64)"/>
        </g>
        <path id="Path_5634" data-name="Path 5634" d="M87.607,190.9l.663,7.043a.989.989,0,0,0,.435.809l4.272-.089a1.7,1.7,0,0,0,.327-1.2l-.475-6.741c-.027-.406-.178-.7-.361-.7l-4.5-.1C87.738,189.915,87.56,190.4,87.607,190.9Z" transform="translate(-81.605 -165.828)" fill="#263238"/>
        <path id="Path_5635" data-name="Path 5635" d="M84.741,196.3a.616.616,0,0,1,.015-.762.945.945,0,0,1,.742-.327,2.073,2.073,0,0,1,.8.186,5.228,5.228,0,0,1,.886.477.863.863,0,0,1,.443.542c.035.247-.23.495-.435.378a1.012,1.012,0,0,1,.574.717c.037.3-.129.458-.421.537a.455.455,0,0,1,.247.586.519.519,0,0,1-.656.183,1.507,1.507,0,0,1-.557-.495,1.709,1.709,0,0,1,.077,1.074c-.638-.247-1.267-.942-1.076-1.615a.913.913,0,0,1-.247-1.091.893.893,0,0,1-.515-.759" transform="translate(-79.359 -169.809)" fill="#ffbf9d"/>
        <path id="Path_5636" data-name="Path 5636" d="M71.413,197.13l-.052,3.011-.782,1.175L67,204.519s.529,4.351,2.147,3.876,2.006-.784,2.968-2.538a22.822,22.822,0,0,0,1.121-3.347,9.1,9.1,0,0,0,.022-2.172Z" transform="translate(-66.101 -171.255)" fill="#ffbf9d"/>
        <path id="Path_5637" data-name="Path 5637" d="M89.6,204.561a2.283,2.283,0,0,1-.275-.22,1.87,1.87,0,0,0-.722-.391,1.009,1.009,0,0,0-.445,0,.817.817,0,0,0-.329.156,1.074,1.074,0,0,0-.218.26.237.237,0,0,1,.027-.091.638.638,0,0,1,.158-.208.833.833,0,0,1,.346-.181,1.029,1.029,0,0,1,.475,0,1.731,1.731,0,0,1,.742.423A1.379,1.379,0,0,1,89.6,204.561Z" transform="translate(-81.613 -176.318)" fill="#ff9a6c"/>
        <path id="Path_5638" data-name="Path 5638" d="M88.734,200.078a1.485,1.485,0,0,1-.334-.148c-.1-.049-.218-.111-.354-.166a3.085,3.085,0,0,0-.46-.129,1.385,1.385,0,0,0-.47-.017.868.868,0,0,0-.349.143.9.9,0,0,0-.247.265.247.247,0,0,1,.03-.094.641.641,0,0,1,.173-.21.843.843,0,0,1,.371-.166,1.276,1.276,0,0,1,.495,0,2.628,2.628,0,0,1,.47.139,3.15,3.15,0,0,1,.356.181A2.8,2.8,0,0,1,88.734,200.078Z" transform="translate(-80.792 -173.063)" fill="#ff9a6c"/>
        <path id="Path_5639" data-name="Path 5639" d="M68.063,215.117A2.877,2.877,0,0,1,68.019,214a3.394,3.394,0,0,1,.423-1.14,5.554,5.554,0,0,1,.945-1.158c.386-.374.782-.7,1.135-.989a12.2,12.2,0,0,0,.905-.853,5.4,5.4,0,0,0,.522-.675,1.377,1.377,0,0,0,.148-.27,2.133,2.133,0,0,0-.186.247,6.446,6.446,0,0,1-.547.626c-.247.247-.557.529-.915.829s-.742.623-1.145.989a5.4,5.4,0,0,0-.957,1.19,3.357,3.357,0,0,0-.423,1.187,2.342,2.342,0,0,0,.03.841,1.588,1.588,0,0,0,.064.22A.592.592,0,0,0,68.063,215.117Z" transform="translate(-66.778 -180.121)" fill="#ff9a6c"/>
      </g>
    </g>
    <text id="Subscribe_to_Our_Monthly_Plan" data-name="Subscribe to Our 
Monthly Plan" transform="translate(40 156)" fill="#2c2c2c" font-size="21" font-family="Helvetica"><tspan x="0" y="0">Subscribe to Our </tspan><tspan x="0" y="30">Monthly Plan</tspan></text>
  </g>
</svg>
