<svg xmlns="http://www.w3.org/2000/svg" xmlns:xlink="http://www.w3.org/1999/xlink" width="202.374" height="92.353" viewBox="0 0 202.374 92.353">
  <defs>
    <clipPath id="clip-path">
      <rect id="Rectangle_1202" data-name="Rectangle 1202" width="11.119" height="11.117" fill="none"/>
    </clipPath>
    <clipPath id="clip-path-2">
      <rect id="Rectangle_1207" data-name="Rectangle 1207" width="7.265" height="9.182" fill="none"/>
    </clipPath>
    <clipPath id="clip-path-3">
      <rect id="Rectangle_1208" data-name="Rectangle 1208" width="7.941" height="8.921" fill="none"/>
    </clipPath>
    <clipPath id="clip-path-4">
      <rect id="Rectangle_1211" data-name="Rectangle 1211" width="5.875" height="5.875" fill="none"/>
    </clipPath>
    <clipPath id="clip-path-5">
      <rect id="Rectangle_1212" data-name="Rectangle 1212" width="10.211" height="10.211" fill="none"/>
    </clipPath>
  </defs>
  <g id="Group_411" data-name="Group 411" transform="translate(-194.258 -337.824)">
    <g id="Group_368" data-name="Group 368" transform="translate(0 -15)">
      <path id="Path_5048" data-name="Path 5048" d="M202.362,66.415q-.033,1.569-.166,3.1c-.009.1-.019.207-.029.313-.083.867-.188,1.726-.32,2.569-.133.862-.294,1.711-.478,2.542-.062.279-.127.553-.2.828-.252,1.03-.545,2.03-.877,2.992-.006.016-.009.028-.014.04q-.224.653-.474,1.282c-.025.061-.049.12-.074.182l-.059.146-.056.136v0q-.425,1.018-.914,1.969a23.153,23.153,0,0,1-1.632,2.712,14.971,14.971,0,0,1-9.894,6.6,14.633,14.633,0,0,1-2.348.187c-10.507,0-19.42.023-26.792.058q-5.2.024-9.386.052l-1.9.013q-4.893.037-8.263.071c-2.5.026-4.382.048-5.664.065l-2.018.029h-2.4c-.268,0-.512,0-.736,0-5-.014.472-.071-7.99-.035l-3.022.014a10.655,10.655,0,0,1-2.109-.2,13.741,13.741,0,0,1-1.565.171c-.266.014-.538.022-.811.02l-2.037-.01-5.353-.022c-4.2-.012-3.187.013-4.12.036-.234.006-.592.01-1.188.016s-1.46.007-2.679.01H93.655c-.347-.006-2.069-.033-5.211-.071q-1.76-.019-4.119-.045-.985-.011-2.076-.02l-3.281-.03-.817-.007q-3.507-.03-7.822-.061l-6.106-.038q-3.865-.022-8.253-.04l-1.108,0-5.353-.02H48.7q-1.623-.007-3.309-.01l-7.511-.017-2.448,0-2.261,0H31.741c-.083,0-.166,0-.249,0H29.049l-5.356,0h-.736a19.129,19.129,0,0,1-2.52-.163c-.132-.016-.262-.035-.392-.055a17.8,17.8,0,0,1-5.438-1.752c-.313-.162-.622-.331-.927-.511a19.228,19.228,0,0,1-2.647-1.876c-.336-.281-.664-.576-.985-.881a22.783,22.783,0,0,1-1.665-1.769c-.175-.206-.346-.414-.515-.626q-.282-.356-.554-.725-.191-.26-.377-.525c-.179-.254-.354-.512-.525-.775-.088-.133-.174-.268-.258-.4q-.681-1.078-1.285-2.248c-.023-.042-.045-.084-.067-.126-.123-.239-.244-.479-.363-.723q-.428-.879-.813-1.8L3.6,76.913v0c-.024-.059-.048-.119-.074-.178l-.078-.191c-.032-.081-.065-.159-.1-.24-.074-.182-.145-.366-.214-.55-.142-.37-.276-.745-.408-1.127-.007-.016-.012-.032-.019-.052-.369-1.069-.7-2.174-.994-3.309-.052-.2-.1-.4-.153-.607-.09-.359-.175-.718-.254-1.082q-.362-1.63-.625-3.327c-.174-1.1-.312-2.227-.42-3.363-.013-.136-.026-.272-.038-.408q-.176-2-.218-4.052C0,57.739,0,57.049,0,56.358v0q.026-2.315.222-4.673.089-1.1.217-2.218h0c.085-.735.184-1.476.3-2.212q.171-1.17.388-2.336.169-.911.365-1.821.263-1.235.573-2.465.191-.757.4-1.509c.233-.842.486-1.683.754-2.517.09-.276.181-.55.272-.826.275-.817.566-1.628.874-2.436.234-.608.476-1.215.726-1.817q.495-1.176,1.036-2.332c.155-.336.315-.667.478-1q.492-1,1.023-1.988c.253-.472.515-.939.781-1.4q.7-1.211,1.455-2.39c.151-.234.305-.47.462-.7.512-.77,1.042-1.525,1.6-2.268C20.066,8.485,32.562.6,49.926.112c38.48-1.094,61.227,6,73.692,15.828q1.352,1.063,2.543,2.171a.651.651,0,0,1,.056.051l.381.359q.334.319.655.642l.014.013c.243.246.48.49.715.738.061.065.123.13.182.2l.236.253c.122.135.24.266.357.4.056.064.111.129.168.191.12.137.236.272.351.408.145.171.289.344.43.518s.281.344.415.518c.1.125.194.247.289.375q.072.091.139.182s0,0,0,0c.036.046.069.094.1.139l.119.162a0,0,0,0,0,0,0c.148.2.288.4.425.595.049.067.1.136.143.205l.069.1c8.749-1.784,19.559-2.678,32.81-2.3,13.269.376,22.817,6.4,29.043,14.77.423.569.828,1.144,1.218,1.733.12.178.237.357.353.537q.579.9,1.112,1.827.306.532.6,1.072.406.751.783,1.519c.123.255.246.508.365.764q.414.881.791,1.782.287.69.554,1.387c.236.618.459,1.237.668,1.862.071.211.14.42.207.632.205.636.4,1.279.577,1.923.107.383.208.767.305,1.153q.239.94.438,1.883.15.695.278,1.392.165.892.3,1.785c.084.563.159,1.128.224,1.69h0q.1.851.166,1.694.15,1.8.169,3.57h0q.009.794-.009,1.578" transform="translate(194.258 352.823)" fill="#ebebeb"/>
      <path id="Path_5049" data-name="Path 5049" d="M493.619,159.159h-4.906l.558-7.12h3.79Z" transform="translate(-200.234 230.097)" fill="#ea7c18"/>
      <rect id="Rectangle_1199" data-name="Rectangle 1199" width="0.895" height="7.12" transform="translate(290.934 382.136)" fill="#ff8f29"/>
      <path id="Path_5050" data-name="Path 5050" d="M426.42,376.882l4.459,2.911,21.223.066,2.854-2.977v-3.051l-5.945-4.9-3.663-2.126H430.106Z" transform="translate(-149.952 56.733)" fill="#263238"/>
      <path id="Path_5051" data-name="Path 5051" d="M139.814,387.923h27.551l-4.188-12.76h-17.6Z" transform="translate(81.399 49.989)" fill="#263238"/>
      <path id="Path_5052" data-name="Path 5052" d="M131.994,159.159h-4.906l.558-7.12h3.79Z" transform="translate(91.671 230.097)" fill="#ea7c18"/>
      <rect id="Rectangle_1200" data-name="Rectangle 1200" width="0.897" height="7.12" transform="translate(220.317 382.136)" fill="#ff8f29"/>
      <path id="Path_5053" data-name="Path 5053" d="M174.733,201.7h8.477l.4,33.443h-4.438l-2.244-4.181H116.394l-2.742-2.742h55.7Z" transform="translate(102.517 190.013)" fill="#455a64"/>
      <path id="Path_5054" data-name="Path 5054" d="M628.068,394.875l13.279.216,5.078,2.92a1.167,1.167,0,0,1,.585,1.011v.515l1.441,1.033a.835.835,0,0,1,.349.679v1.833H630.347L627.8,401.3Z" transform="translate(-312.511 34.078)" fill="#455a64"/>
      <path id="Path_5055" data-name="Path 5055" d="M500.532,206.012v20.445a2.647,2.647,0,0,1-.553,1.62,2.677,2.677,0,0,1-.417.428,2.632,2.632,0,0,1-1.682.6h-8.592a1.24,1.24,0,0,1-1.241-1.241v-3.044a2.76,2.76,0,0,0-1.178-2.26l-7.031-4.919a2.47,2.47,0,0,0-1.412-.445h-9.9V180.938a1.588,1.588,0,0,1,1.661-1.587l25.152,1.146a3.285,3.285,0,0,1,1.181.277l.329.147a1.867,1.867,0,0,1,1.072,1.352c.006.021.009.043.013.065s.007.054.011.082Z" transform="translate(-183.938 208.051)" fill="#a84a52"/>
      <rect id="Rectangle_1201" data-name="Rectangle 1201" width="1.056" height="7.001" transform="translate(330.121 420.041)" fill="#336880"/>
      <path id="Path_5056" data-name="Path 5056" d="M267.722,474.721H102.867a.417.417,0,0,1-.417-.417v-.194a.417.417,0,0,1,.417-.417H267.722a.417.417,0,0,1,.417.417v.194a.417.417,0,0,1-.417.417" transform="translate(111.559 -29.545)" fill="#a84a52"/>
      <path id="Path_5057" data-name="Path 5057" d="M171.949,180.343v30.5H109.427a1.437,1.437,0,0,1-1.436-1.436V180.215a1.244,1.244,0,0,1,1.245-1.243h61.343a1.371,1.371,0,0,1,1.371,1.371" transform="translate(107.087 208.356)" fill="#e58f6b"/>
      <path id="Path_5058" data-name="Path 5058" d="M690.831,375.163l-1.931,1.89,9.828,1.469v-1.469l-1.33-1.614Z" transform="translate(-361.827 49.989)" fill="#e58f6b"/>
      <path id="Path_5059" data-name="Path 5059" d="M543.04,223.522l-.455,2.522-.141.779-.249,1.384h0l-.439,2.431-.711,3.939c0,.033-.013.069-.02.1v0a2.347,2.347,0,0,1-2.288,1.827h-5.773a2.134,2.134,0,0,1-1.972-1.326l-1.854-4.548-.552-1.354-.437-1.073-.779-1.91-2.573-6.312a2.759,2.759,0,0,1-.132-1.665c.009-.044.019-.089.032-.132l1.012-3.6.631-2.239.362-1.275,1.579-5.611.688-2.443a1.82,1.82,0,0,1,1.751-1.324h8.208a1.866,1.866,0,0,1,1.854,1.65l.126,1.078.631,5.4.132,1.136.08.682.136,1.167.687,5.886.141,1.2.347,2.965a2.241,2.241,0,0,1-.022.655" transform="translate(-229.199 190.009)" fill="#e58f6b"/>
      <path id="Path_5060" data-name="Path 5060" d="M568.688,223.517l-.393,2.18-.2,1.12-.25,1.385h0l-.439,2.429-.711,3.939c-.006.034-.013.069-.02.1v0a2.348,2.348,0,0,1-2.288,1.827h-5.773a2.131,2.131,0,0,1-1.972-1.326l-.28-.682H560.3a2.347,2.347,0,0,0,2.288-1.827v0c.007-.033.016-.069.022-.1l.71-3.939.439-2.429v0l.249-1.384.288-1.6.28-1.547.027-.152a2.225,2.225,0,0,0,.021-.654l-.347-2.967-.964-8.251-.926-7.941h2.191a1.868,1.868,0,0,1,1.856,1.65l.969,8.3.641,5.487.024.208.26,2.22.039.337.345,2.965a2.279,2.279,0,0,1-.02.655" transform="translate(-254.841 190.015)" fill="#a84a52"/>
      <path id="Path_5061" data-name="Path 5061" d="M598.919,287.458l-.393,2.18-2.468-2.208.929-1.464-1.2-.776-1.265,1.957-.154.238a.3.3,0,0,1-.509-.328l.942-1.457,2.945-4.556a.3.3,0,0,1,.417-.089.289.289,0,0,1,.106.118.306.306,0,0,1,.024.208.329.329,0,0,1-.04.092l-1.42,2.2,1.187.768.532-.836.039.337.346,2.965a2.276,2.276,0,0,1-.02.655" transform="translate(-285.071 126.074)" fill="#455a64"/>
      <path id="Path_5062" data-name="Path 5062" d="M539.97,242.634l-.334,1.985c-.147.5-.446,1.736,1.481,2.082,1.555.279,1.308-1.8,1.308-1.8l-.012-1.223Z" transform="translate(-241.251 156.968)" fill="#ffa98f"/>
      <path id="Path_5063" data-name="Path 5063" d="M544.231,248.394a4.189,4.189,0,0,1-2.459-.57,2.762,2.762,0,0,0,2.465,1.161Z" transform="translate(-243.064 152.778)" fill="#cf7e65"/>
      <path id="Path_5064" data-name="Path 5064" d="M542.445,222.4c-.027.176-.057.379-.1.591s-.088.417-.149.632a3.3,3.3,0,0,1-.677,1.46,1.4,1.4,0,0,1-.426.347,1.9,1.9,0,0,1-1.136.152,2.288,2.288,0,0,1-1.316-.786c-.05-.053-.1-.108-.139-.161a2.479,2.479,0,0,1-.368-.585q-.041-.1-.073-.194v0a3.292,3.292,0,0,1-.175-.741c-.023-.181.229-1.516.229-1.516l.36-1.278.208-.737a.348.348,0,0,1,.068-.056,1.692,1.692,0,0,1,.578-.175,5.821,5.821,0,0,1,2.6.181.863.863,0,0,1,.291.241,1.485,1.485,0,0,1,.274.662,6.29,6.29,0,0,1-.05,1.963" transform="translate(-239.927 175.808)" fill="#ffa98f"/>
      <path id="Path_5065" data-name="Path 5065" d="M587.6,329.666a38.012,38.012,0,0,0-.892,6.065,1.04,1.04,0,0,0,.021.235.787.787,0,0,0,.032.085,2.332,2.332,0,0,0,.427.559h-2.36c.047-.251.108-.464.108-.543v-.016c0-.1,0-.208.006-.32.063-2.388.674-7.043.674-7.043l-.023-3.322a8.52,8.52,0,0,1,2.048,1.027c.585.39.4,1.579-.04,3.274" transform="translate(-277.823 90.186)" fill="#263238"/>
      <path id="Path_5066" data-name="Path 5066" d="M530.322,259.74c0,.043-.007.088-.01.132a46.743,46.743,0,0,1-1.028,5.812l-3.73.069-.6.011-.022-.051-1.571-3.856a2.773,2.773,0,0,1-.118-.351c-.025-.568-.039-1.081-.037-1.457.013-.057.027-.113.043-.169l1.24-4.4q.071-.127.142-.245a5.383,5.383,0,0,1,.8-1.035,3.9,3.9,0,0,1,.984-.752l.016.009c.176.1,1.771.969,2.207,1.111.085.029.255.066.426.1a.741.741,0,0,1,.1.027.826.826,0,0,1,.525.535c.08.258.182.611.28,1.028.027.112.055.228.08.35a12.822,12.822,0,0,1,.294,2.345c.006.238,0,.5-.022.79" transform="translate(-228.081 148.242)" fill="#edc909"/>
      <path id="Path_5067" data-name="Path 5067" d="M545.457,322.049c-.153,1.19-1.025,6.61-1.025,6.61h-2.154c-.159-3.451,0-7.732,0-7.732a72.555,72.555,0,0,1-7.749.1c-.247-.007-.453-.012-.608-.017l-1.735-4.259-.022-.052c.191-.007.389-.016.591-.026a28.311,28.311,0,0,1,3.757,0c3.35.317,6.483.67,7.689.955,1.54.363,1.617,1.63,1.256,4.427" transform="translate(-235.31 97.259)" fill="#263238"/>
      <path id="Path_5068" data-name="Path 5068" d="M538.746,261.1c-.47.409-.906.758.138,2.177s4.339,2.7,5.127,3.029a12.354,12.354,0,0,0,5.082.466,17.066,17.066,0,0,0,2.475-.385c.571-.146.981.5.537.731.841-.147,1.248-.414,1.1-1.038a.924.924,0,0,0-.745-.782,12.076,12.076,0,0,1-1.933.111c-1.644-.138-5.188-.855-5.188-.855a23.608,23.608,0,0,1-3.362-2.252c-.534-.678-2.035-2.245-3.234-1.2" transform="translate(-240.215 142.344)" fill="#ffa98f"/>
      <path id="Path_5069" data-name="Path 5069" d="M538.149,260.437a1.4,1.4,0,0,0-.709,1.431,3.246,3.246,0,0,0,1.273,1.824,15.966,15.966,0,0,0,4.889,2.357,31.525,31.525,0,0,0,6.375.581l.132-1.567a35.47,35.47,0,0,1-6.129-1.855,12.317,12.317,0,0,1-3.049-1.793c-1.325-1.249-2.255-1.185-2.783-.98" transform="translate(-239.557 142.69)" fill="#263238"/>
      <path id="Path_5070" data-name="Path 5070" d="M546.591,210.62a3.031,3.031,0,0,0-.7-.827,2.522,2.522,0,0,0-1.959-.72,3.2,3.2,0,0,0-.621.149,3.016,3.016,0,0,0-.672.326l.013-.043h0l.336-1.189.216-.768v0a2.524,2.524,0,0,1,.662-.162,1.43,1.43,0,0,1,.259-.006,3.27,3.27,0,0,1,2.237,1.575,4.236,4.236,0,0,1,.172,1.193c0,.036,0,.073,0,.11a2.114,2.114,0,0,0,.053.366" transform="translate(-243.763 185.43)" fill="#edc909"/>
      <path id="Path_5071" data-name="Path 5071" d="M546.08,218.019a2.635,2.635,0,0,0-1.111-.4c-.062-.01-.125-.02-.191-.029-1.037-.135-2.3.827-2.763.556-.139-.082-.348-.208-.569-.343l-.278-.169-.218-.132.208-.737.118-.419.013-.043h0a3.031,3.031,0,0,1,.677-.343,2.8,2.8,0,0,1,.624-.146,2.716,2.716,0,0,1,1.734.425s0,0,0,0a3.551,3.551,0,0,1,.7.556l.145.148.954.978s.215.271-.045.1" transform="translate(-242.4 178.629)" fill="#f7f05e"/>
      <g id="Group_355" data-name="Group 355" transform="translate(301.57 391.71)" opacity="0.19">
        <g id="Group_354" data-name="Group 354" transform="translate(0 0)">
          <g id="Group_353" data-name="Group 353" clip-path="url(#clip-path)">
            <path id="Path_5072" data-name="Path 5072" d="M567.739,212.818,556.621,201.7h1.635l9.267,9.268.08.682Z" transform="translate(-556.621 -201.701)" fill="#f4ede6"/>
          </g>
        </g>
      </g>
      <path id="Path_5073" data-name="Path 5073" d="M526.788,204.837l-.05.04a.678.678,0,0,0-.057.055c-.016.016-.031.033-.046.05a.775.775,0,0,0-.079.1c-.014.022-.027.045-.04.067l-.027.057a.8.8,0,0,0-.053.165.242.242,0,0,0-.008.044.349.349,0,0,0,0,.037.873.873,0,0,0,0,.1c0,.039,0,.086.008.141,0,.014,0,.029,0,.045.013.175.039.413.075.67l.327-1.161.152-.542a1.133,1.133,0,0,0-.2.123m-.515,2.3c0,.033,0,.066,0,.1l.033-.11-.036.013m.515-2.3-.05.04a.678.678,0,0,0-.057.055c-.016.016-.031.033-.046.05a.775.775,0,0,0-.079.1c-.014.022-.027.045-.04.067l-.027.057a.8.8,0,0,0-.053.165.242.242,0,0,0-.008.044.349.349,0,0,0,0,.037.873.873,0,0,0,0,.1c0,.039,0,.086.008.141,0,.014,0,.029,0,.045.013.175.039.413.075.67l.327-1.161.152-.542a1.133,1.133,0,0,0-.2.123m-.515,2.3c0,.033,0,.066,0,.1l.033-.11-.036.013m.515-2.3-.05.04a.678.678,0,0,0-.057.055c-.016.016-.031.033-.046.05a.775.775,0,0,0-.079.1c-.014.022-.027.045-.04.067l-.027.057a.8.8,0,0,0-.053.165.242.242,0,0,0-.008.044.349.349,0,0,0,0,.037.873.873,0,0,0,0,.1c0,.039,0,.086.008.141,0,.014,0,.029,0,.045.013.175.039.413.075.67l.327-1.161.152-.542a1.133,1.133,0,0,0-.2.123m-.515,2.3c0,.033,0,.066,0,.1l.033-.11-.036.013m.515-2.3-.05.04a.678.678,0,0,0-.057.055c-.016.016-.031.033-.046.05a.775.775,0,0,0-.079.1c-.014.022-.027.045-.04.067l-.027.057a.8.8,0,0,0-.053.165.242.242,0,0,0-.008.044.349.349,0,0,0,0,.037.873.873,0,0,0,0,.1c0,.039,0,.086.008.141,0,.014,0,.029,0,.045.013.175.039.413.075.67l.327-1.161.152-.542a1.133,1.133,0,0,0-.2.123m-.515,2.3c0,.033,0,.066,0,.1l.033-.11-.036.013m.515-2.3-.05.04a.678.678,0,0,0-.057.055c-.016.016-.031.033-.046.05a.775.775,0,0,0-.079.1c-.014.022-.027.045-.04.067l-.027.057a.8.8,0,0,0-.053.165.242.242,0,0,0-.008.044.349.349,0,0,0,0,.037.873.873,0,0,0,0,.1c0,.039,0,.086.008.141,0,.014,0,.029,0,.045.013.175.039.413.075.67l.327-1.161.152-.542a1.133,1.133,0,0,0-.2.123m-.515,2.3c0,.033,0,.066,0,.1l.033-.11-.036.013m.515-2.3-.05.04a.678.678,0,0,0-.057.055c-.016.016-.031.033-.046.05a.775.775,0,0,0-.079.1c-.014.022-.027.045-.04.067l-.027.057a.8.8,0,0,0-.053.165.242.242,0,0,0-.008.044.349.349,0,0,0,0,.037.873.873,0,0,0,0,.1c0,.039,0,.086.008.141,0,.014,0,.029,0,.045.013.175.039.413.075.67l.327-1.161.152-.542a1.133,1.133,0,0,0-.2.123m-.515,2.3c0,.033,0,.066,0,.1l.033-.11-.036.013m.515-2.3-.05.04a.678.678,0,0,0-.057.055c-.016.016-.031.033-.046.05a.775.775,0,0,0-.079.1c-.014.022-.027.045-.04.067l-.027.057a.8.8,0,0,0-.053.165.242.242,0,0,0-.008.044.349.349,0,0,0,0,.037.873.873,0,0,0,0,.1c0,.039,0,.086.008.141,0,.014,0,.029,0,.045.013.175.039.413.075.67l.327-1.161.152-.542a1.133,1.133,0,0,0-.2.123m-.515,2.3c0,.033,0,.066,0,.1l.033-.11-.036.013m.515-2.3-.05.04a.678.678,0,0,0-.057.055c-.016.016-.031.033-.046.05a.775.775,0,0,0-.079.1c-.014.022-.027.045-.04.067l-.027.057a.8.8,0,0,0-.053.165.242.242,0,0,0-.008.044.349.349,0,0,0,0,.037.873.873,0,0,0,0,.1c0,.039,0,.086.008.141,0,.014,0,.029,0,.045.013.175.039.413.075.67l.327-1.161.152-.542a1.133,1.133,0,0,0-.2.123m-.512,2.393.033-.11-.036.013c0,.033,0,.066,0,.1m15.594,14.434-2.278-19.516a2.145,2.145,0,0,0-2.132-1.9h-8.206a2.105,2.105,0,0,0-2.02,1.528l0,.016h0l-.216.769-.336,1.189h0l-.013.043-.118.419-.208.737-.36,1.278-.235.833-.03.11v0l-.155.548-1.357,4.812-1.24,4.4c-.016.056-.03.112-.043.169a3.073,3.073,0,0,0,.037,1.457,2.833,2.833,0,0,0,.118.351l1.572,3.856.021.051,1.735,4.259,2.865,7.031a2.4,2.4,0,0,0,2.231,1.5h5.773a2.623,2.623,0,0,0,2.582-2.159l1.995-11.057a2.541,2.541,0,0,0,.023-.737m-.572.638L539.3,233.359a2.064,2.064,0,0,1-2.033,1.7H531.5a1.845,1.845,0,0,1-1.715-1.151l-2.773-6.8-1.747-4.287-.027-.066-1.646-4.041a2.5,2.5,0,0,1-.09-1.615l1.645-5.836.78-2.768h0l.227-.807.126-.449s0,0,0,0l.033-.11.2-.7s0,0,0,0l.327-1.161.152-.542.205-.727.145-.513.017-.062.271-.961.146-.519a1.52,1.52,0,0,1,.12-.3,1.545,1.545,0,0,1,1.362-.824h8.206a1.588,1.588,0,0,1,1.577,1.4l2.279,19.516a1.926,1.926,0,0,1-.017.574m-15.025-15.169c0,.033,0,.066,0,.1l.033-.11-.036.013m.515-2.3-.05.04a.678.678,0,0,0-.057.055c-.016.016-.031.033-.046.05a.775.775,0,0,0-.079.1c-.014.022-.027.045-.04.067l-.027.057a.8.8,0,0,0-.053.165.242.242,0,0,0-.008.044.349.349,0,0,0,0,.037.873.873,0,0,0,0,.1c0,.039,0,.086.008.141,0,.014,0,.029,0,.045.013.175.039.413.075.67l.327-1.161.152-.542a1.133,1.133,0,0,0-.2.123m-.515,2.3c0,.033,0,.066,0,.1l.033-.11-.036.013m.515-2.3-.05.04a.678.678,0,0,0-.057.055c-.016.016-.031.033-.046.05a.775.775,0,0,0-.079.1c-.014.022-.027.045-.04.067l-.027.057a.8.8,0,0,0-.053.165.242.242,0,0,0-.008.044.349.349,0,0,0,0,.037.873.873,0,0,0,0,.1c0,.039,0,.086.008.141,0,.014,0,.029,0,.045.013.175.039.413.075.67l.327-1.161.152-.542a1.133,1.133,0,0,0-.2.123m-.515,2.3c0,.033,0,.066,0,.1l.033-.11-.036.013m.515-2.3-.05.04a.678.678,0,0,0-.057.055c-.016.016-.031.033-.046.05a.775.775,0,0,0-.079.1c-.014.022-.027.045-.04.067l-.027.057a.8.8,0,0,0-.053.165.242.242,0,0,0-.008.044.349.349,0,0,0,0,.037.873.873,0,0,0,0,.1c0,.039,0,.086.008.141,0,.014,0,.029,0,.045.013.175.039.413.075.67l.327-1.161.152-.542a1.133,1.133,0,0,0-.2.123m-.515,2.3c0,.033,0,.066,0,.1l.033-.11-.036.013m.515-2.3-.05.04a.678.678,0,0,0-.057.055c-.016.016-.031.033-.046.05a.775.775,0,0,0-.079.1c-.014.022-.027.045-.04.067l-.027.057a.8.8,0,0,0-.053.165.242.242,0,0,0-.008.044.349.349,0,0,0,0,.037.873.873,0,0,0,0,.1c0,.039,0,.086.008.141,0,.014,0,.029,0,.045.013.175.039.413.075.67l.327-1.161.152-.542a1.133,1.133,0,0,0-.2.123m-.515,2.3c0,.033,0,.066,0,.1l.033-.11-.036.013m.515-2.3-.05.04a.678.678,0,0,0-.057.055c-.016.016-.031.033-.046.05a.775.775,0,0,0-.079.1c-.014.022-.027.045-.04.067l-.027.057a.8.8,0,0,0-.053.165.242.242,0,0,0-.008.044.349.349,0,0,0,0,.037.873.873,0,0,0,0,.1c0,.039,0,.086.008.141,0,.014,0,.029,0,.045.013.175.039.413.075.67l.327-1.161.152-.542a1.133,1.133,0,0,0-.2.123m-.515,2.3c0,.033,0,.066,0,.1l.033-.11-.036.013m.515-2.3-.05.04a.678.678,0,0,0-.057.055c-.016.016-.031.033-.046.05a.775.775,0,0,0-.079.1c-.014.022-.027.045-.04.067l-.027.057a.8.8,0,0,0-.053.165.242.242,0,0,0-.008.044.349.349,0,0,0,0,.037.873.873,0,0,0,0,.1c0,.039,0,.086.008.141,0,.014,0,.029,0,.045.013.175.039.413.075.67l.327-1.161.152-.542a1.133,1.133,0,0,0-.2.123m-.515,2.3c0,.033,0,.066,0,.1l.033-.11-.036.013m.515-2.3-.05.04a.678.678,0,0,0-.057.055c-.016.016-.031.033-.046.05a.775.775,0,0,0-.079.1c-.014.022-.027.045-.04.067l-.027.057a.8.8,0,0,0-.053.165.242.242,0,0,0-.008.044.349.349,0,0,0,0,.037.873.873,0,0,0,0,.1c0,.039,0,.086.008.141,0,.014,0,.029,0,.045.013.175.039.413.075.67l.327-1.161.152-.542a1.133,1.133,0,0,0-.2.123" transform="translate(-227.789 191.18)" fill="#455a64"/>
      <path id="Path_5074" data-name="Path 5074" d="M490.275,203.119l-2.384,8.566-.277,1-.461,1.658-.541,1.95-.071.255a2.224,2.224,0,0,1-2.143,1.63h-3.33a1.282,1.282,0,0,1-1.282-1.3l.1-7.308.033-2.456.03-2.089.017-1.258.009-.6a1.484,1.484,0,0,1,1.485-1.462h7.732a1.121,1.121,0,0,1,1.081,1.421" transform="translate(-193.028 190.012)" fill="#e58f6b"/>
      <path id="Path_5075" data-name="Path 5075" d="M497.944,182.421c0-.028-.006-.054-.011-.082s-.008-.045-.013-.065h0a1.87,1.87,0,0,0-1.07-1.352l-.329-.147a3.283,3.283,0,0,0-1.182-.277l-25.152-1.146a1.588,1.588,0,0,0-1.661,1.587v.4l26.938.917a1.424,1.424,0,0,1,1.367,1.262l2.5,21.927-.7,21.268a1.642,1.642,0,0,0,.365,1.087l.571.706a2.642,2.642,0,0,0,.969-2.048V206.012Z" transform="translate(-183.938 208.051)" fill="#e58f6b"/>
      <path id="Path_5076" data-name="Path 5076" d="M608.9,216.651h-2.465l.067-2.613a1.069,1.069,0,0,0-1.069-1.1h-.428a.5.5,0,0,0-.5.5v8.87a.426.426,0,0,0,.426.426h.5a.868.868,0,0,0,.869-.844l.057-2.232,2.264-.535A1.19,1.19,0,0,0,609.58,218v-.74a.647.647,0,0,0-.676-.614" transform="translate(-293.702 180.936)" fill="#455a64"/>
      <path id="Path_5077" data-name="Path 5077" d="M640.988,356.436l2.752-2.113a1.62,1.62,0,0,1,.987-.335h1.458l4.825-2.535a1.115,1.115,0,0,1,.519-.128h5.221a.753.753,0,0,1,.174.02l8.722,2.07a.558.558,0,0,0,.128.015h.8a.612.612,0,0,1,.41.157l5.581,5.022,2.333.725a.816.816,0,0,1,.486.411l1.317,2.6a.9.9,0,0,1,.093.489l-.15,1.6a.744.744,0,0,1-.689.673l-1.843.128-2.534-4.682-2.62-.623-.26-.866a.3.3,0,0,1,.2-.372.421.421,0,0,0,.3-.4v-.262a.493.493,0,0,0-.168-.371l-3.085-2.7a.954.954,0,0,0-.533-.232l-6.337-.64a1.214,1.214,0,0,1-.324-.079l-4.658-1.844a.543.543,0,0,0-.528.072l-1.023.775a.522.522,0,0,0-.206.416v.1a.413.413,0,0,0,.413.413h1.91a1.237,1.237,0,0,1,.875.362l.489.49a.891.891,0,0,0,.48.248l2.214.377a.8.8,0,0,1,.664.786v.638l-6.7-.409-1.138,1.138Z" transform="translate(-323.152 69.232)" fill="#455a64"/>
      <path id="Path_5078" data-name="Path 5078" d="M622.724,172.294l-1.109,1.643a.476.476,0,0,1-.7.1l-.119-.1-1.049-.848-.128-.1a.628.628,0,0,1-.126-.841l.845-1.256a.656.656,0,0,1,.859-.206l1.314.729a.613.613,0,0,1,.21.876" transform="translate(-305.717 215.109)" fill="#455a64"/>
      <path id="Path_5079" data-name="Path 5079" d="M616.639,184.327l-.35,1.016a.614.614,0,0,1-.579.411h-1.477v-.781l.843-.13a.584.584,0,0,0,.495-.577v-.8l.018.009Z" transform="translate(-301.556 204.726)" fill="#455a64"/>
      <path id="Path_5080" data-name="Path 5080" d="M188.841,347.871v7.386l-3.74,8.1-1.265,2.741a2.288,2.288,0,0,1-2.078,1.33H152.805l-1.176-4.071-2.043-7.068a1.905,1.905,0,0,0-1.833-1.379H135.611a2.515,2.515,0,0,0-2.177,1.256l-4.16,7.191-1.855,3.206a1.729,1.729,0,0,1-1.5.865h-1.5a1.435,1.435,0,0,1-1.435-1.435V347.871Z" transform="translate(94.982 72.02)" fill="#a84a52"/>
      <path id="Path_5081" data-name="Path 5081" d="M112.9,424.561h-1.537a1.056,1.056,0,0,1-1.056-1.056v-2.143a1.328,1.328,0,0,1,.947-1.272l1.5-.449v4.285a1.43,1.43,0,0,0,.149.636" transform="translate(105.217 14.087)" fill="#455a64"/>
      <path id="Path_5082" data-name="Path 5082" d="M112.752,361.44h-1.917a.528.528,0,0,0-.528.528V363a.967.967,0,0,0,.967.967h.33V372.1h1.3V361.44Z" transform="translate(105.217 61.067)" fill="#455a64"/>
      <path id="Path_5083" data-name="Path 5083" d="M653.434,439.792a2.9,2.9,0,1,1-2.9-2.9,2.9,2.9,0,0,1,2.9,2.9" transform="translate(-328.514 0.163)" fill="#455a64"/>
      <path id="Path_5084" data-name="Path 5084" d="M709.223,390.011h-4.536l-2.88-4.365h-3.888l-.664-.662-.309-.309-14.869-.541-.647-.584v-3.591l5.544.441,2.592,1.323,15.481.971Z" transform="translate(-355.796 46.118)" fill="#a84a52"/>
      <path id="Path_5085" data-name="Path 5085" d="M656.53,443.858a1.931,1.931,0,1,1-1.931-1.931,1.931,1.931,0,0,1,1.931,1.931" transform="translate(-332.581 -3.903)" fill="#2d5c70"/>
      <rect id="Rectangle_1204" data-name="Rectangle 1204" width="9.686" height="4.824" transform="translate(316.594 425.427)" fill="#455a64"/>
      <rect id="Rectangle_1205" data-name="Rectangle 1205" width="3.528" height="1.303" transform="translate(327.073 427.365)" fill="#e58f6b"/>
      <path id="Path_5086" data-name="Path 5086" d="M489.195,201.984h-.705l-2.3,8.269-.277,1-.462,1.658-.541,1.95-.071.255a2.225,2.225,0,0,1-2.143,1.63h-2.9l-.006.416a1.282,1.282,0,0,0,1.282,1.3h3.33a2.225,2.225,0,0,0,2.143-1.63l.071-.255.542-1.95.461-1.658.277-1,2.383-8.566a1.121,1.121,0,0,0-1.081-1.421" transform="translate(-193.029 189.781)" fill="#a84a52"/>
      <rect id="Rectangle_1206" data-name="Rectangle 1206" width="1" height="12.097" transform="translate(333.318 429.288) rotate(-86.4)" fill="#e58f6b"/>
      <path id="Path_5087" data-name="Path 5087" d="M772.674,411.051h-1.728l-2.88-4.365h-3.888l-.664-.662h5.038Z" transform="translate(-422.056 25.078)" fill="#e58f6b"/>
      <path id="Path_5088" data-name="Path 5088" d="M650.83,408v.43h-5.07V407.7l-2.448-1.116-1.392.772v1.634l-4.135-.173a.425.425,0,0,0-.443.425v.587l1.181,2.343a.592.592,0,0,1-.2.759l-.128.086a.922.922,0,0,1-1.248-.21l-1.6-2.112a.752.752,0,0,1-.152-.453v-.99a.452.452,0,0,0-.452-.452h-3.06a2.648,2.648,0,0,0,.553-1.62v-3.643h1.241l.344.772h2.192l1.888-1.074h2.964Z" transform="translate(-315.64 27.33)" fill="#a84a52"/>
      <g id="Group_358" data-name="Group 358" transform="translate(286.859 397.12)" opacity="0.19">
        <g id="Group_357" data-name="Group 357" transform="translate(0 0)">
          <g id="Group_356" data-name="Group 356" clip-path="url(#clip-path-2)">
            <path id="Path_5089" data-name="Path 5089" d="M487.582,236.993l-.541,1.95-6.724-6.726.034-2.456Z" transform="translate(-480.317 -229.761)" fill="#f4ede6"/>
          </g>
        </g>
      </g>
      <g id="Group_361" data-name="Group 361" transform="translate(286.923 393.773)" opacity="0.19">
        <g id="Group_360" data-name="Group 360" transform="translate(0 0)">
          <g id="Group_359" data-name="Group 359" clip-path="url(#clip-path-3)">
            <path id="Path_5090" data-name="Path 5090" d="M488.586,220.324l-.277,1-7.663-7.663.017-1.258Z" transform="translate(-480.645 -212.4)" fill="#f4ede6"/>
          </g>
        </g>
      </g>
      <path id="Path_5091" data-name="Path 5091" d="M646.781,413.044v1.117h2.749V413.5h4.123v-1.568l-1.761-1.117-2.792,2.062Z" transform="translate(-327.828 21.214)" fill="#e58f6b"/>
      <path id="Path_5092" data-name="Path 5092" d="M688.657,408v.43h-1.574l-8.393-4.125-.147-1.074h.147Z" transform="translate(-353.467 27.33)" fill="#e58f6b"/>
      <rect id="Rectangle_1210" data-name="Rectangle 1210" width="13.989" height="0.794" transform="translate(326.142 435.798)" fill="#455a64"/>
      <path id="Path_5102" data-name="Path 5102" d="M673.594,440.062v-.7a.375.375,0,0,0-.75,0v.7h-1.533l2.233-5.562h14.444l2.233,5.562h-1.542v-.341a.375.375,0,0,0-.75,0v.341h-1.1v-.825a.375.375,0,1,0-.75,0v.825h-1.02v-.783a.375.375,0,0,0-.75,0v.783h-1.146v-1.28a.375.375,0,0,0-.75,0v1.28h-1.268v-.783a.375.375,0,0,0-.75,0v.783h-.814v-1.187a.375.375,0,0,0-.75,0v1.187h-1.02v-.993a.375.375,0,0,0-.75,0v.993h-1.315v-.909a.375.375,0,1,0-.75,0v.909Z" transform="translate(-347.629 2.092)" fill="#455a64"/>
      <path id="Path_5103" data-name="Path 5103" d="M751.333,440.883h0a.233.233,0,0,0,.134-.3l-1.191-3.109a.232.232,0,0,0-.433.166l1.191,3.108a.232.232,0,0,0,.3.134" transform="translate(-411.008 -0.19)" fill="#455a64"/>
      <path id="Path_5104" data-name="Path 5104" d="M741.977,441.172h0a.218.218,0,0,0,.136-.276l-1.008-2.958a.218.218,0,0,0-.412.141l1.009,2.958a.218.218,0,0,0,.276.136" transform="translate(-403.625 -0.564)" fill="#455a64"/>
      <path id="Path_5105" data-name="Path 5105" d="M733.094,442.026h0a.232.232,0,0,0,.192-.265l-.528-3.287a.232.232,0,0,0-.458.073l.528,3.287a.232.232,0,0,0,.266.192" transform="translate(-396.858 -0.958)" fill="#455a64"/>
      <path id="Path_5106" data-name="Path 5106" d="M723.565,441.5h0a.232.232,0,0,0,.214-.248l-.242-3.32a.232.232,0,0,0-.462.034l.243,3.32a.232.232,0,0,0,.248.214" transform="translate(-389.413 -0.504)" fill="#455a64"/>
      <path id="Path_5107" data-name="Path 5107" d="M715.734,441.253h0a.21.21,0,0,0,.227-.191l.252-3a.21.21,0,1,0-.418-.035l-.252,3a.21.21,0,0,0,.191.227" transform="translate(-383.333 -0.599)" fill="#455a64"/>
      <path id="Path_5108" data-name="Path 5108" d="M706.723,441.276h0a.21.21,0,0,0,.235-.18l.394-2.985a.21.21,0,1,0-.416-.055l-.393,2.986a.21.21,0,0,0,.18.235" transform="translate(-376.067 -0.63)" fill="#455a64"/>
      <path id="Path_5109" data-name="Path 5109" d="M695.434,441.67h0a.233.233,0,0,0,.294-.145l1.071-3.154a.232.232,0,0,0-.439-.149l-1.071,3.154a.233.233,0,0,0,.145.294" transform="translate(-366.974 -0.785)" fill="#455a64"/>
      <path id="Path_5110" data-name="Path 5110" d="M684.144,441.963h0a.237.237,0,0,0,.319-.1l1.581-3.008a.237.237,0,0,0-.419-.22l-1.581,3.008a.237.237,0,0,0,.1.319" transform="translate(-357.886 -1.144)" fill="#455a64"/>
      <path id="Path_5111" data-name="Path 5111" d="M483.224,217.283H479.9a1.562,1.562,0,0,1-1.562-1.584l.193-13.712a1.771,1.771,0,0,1,1.763-1.738h7.734a1.4,1.4,0,0,1,1.349,1.776l-3.734,13.425a2.513,2.513,0,0,1-2.413,1.833m-2.935-16.476a1.21,1.21,0,0,0-1.2,1.188l-.193,13.712a1,1,0,0,0,1,1.018h3.329A1.952,1.952,0,0,0,485.1,215.3l3.734-13.425a.842.842,0,0,0-.811-1.068Z" transform="translate(-191.856 191.182)" fill="#455a64"/>
      <path id="Path_5112" data-name="Path 5112" d="M192.073,352.935H130.517a.805.805,0,0,1,0-1.611h61.556a.805.805,0,1,1,0,1.611" transform="translate(89.553 69.232)" fill="#e58f6b"/>
      <path id="Path_5113" data-name="Path 5113" d="M489.9,380.441h-.607a1.241,1.241,0,0,1-1.241-1.241v-3.044a2.761,2.761,0,0,0-1.178-2.26l-7.031-4.919a2.467,2.467,0,0,0-1.412-.445h-9.9v-1.619l10.325-.087a1.555,1.555,0,0,1,.885.268l9.188,6.232a1.814,1.814,0,0,1,.794,1.443Z" transform="translate(-183.938 56.719)" fill="#e58f6b"/>
      <path id="Path_5114" data-name="Path 5114" d="M122.987,428.19h6.287l-1.855,3.206a1.729,1.729,0,0,1-1.5.865h-1.5a1.434,1.434,0,0,1-1.434-1.435Z" transform="translate(94.982 7.186)" fill="#e58f6b"/>
      <path id="Path_5115" data-name="Path 5115" d="M305.025,428.19l-1.265,2.741a2.288,2.288,0,0,1-2.078,1.33H272.729l-1.176-4.071Z" transform="translate(-24.942 7.186)" fill="#e58f6b"/>
      <path id="Path_5116" data-name="Path 5116" d="M171.949,180.343v1.027H107.991v-1.155a1.244,1.244,0,0,1,1.245-1.243h61.343a1.371,1.371,0,0,1,1.371,1.371" transform="translate(107.087 208.356)" fill="#a84a52"/>
      <path id="Path_5117" data-name="Path 5117" d="M479.7,299.082l.013,8.674a1.7,1.7,0,0,0,1.7,1.7h5.528a1.106,1.106,0,0,0,1.073-1.371l-2.324-9.4a1.615,1.615,0,0,0-1.568-1.227H481.32a1.62,1.62,0,0,0-1.62,1.622" transform="translate(-192.96 112.712)" fill="#e58f6b"/>
      <path id="Path_5118" data-name="Path 5118" d="M589.531,421.127h-5.924a.993.993,0,0,1-.993-.993v-.569a.6.6,0,0,1,.636-.6l6.331.336a.542.542,0,0,1,.514.542v.723a.565.565,0,0,1-.565.565" transform="translate(-276.033 14.636)" fill="#455a64"/>
      <path id="Path_5119" data-name="Path 5119" d="M475.842,395.4a8.764,8.764,0,1,1-8.764-8.764,8.763,8.763,0,0,1,8.764,8.764" transform="translate(-175.697 40.724)" fill="#455a64"/>
      <path id="Path_5120" data-name="Path 5120" d="M487.089,410.181a5.234,5.234,0,1,1-5.235-5.234,5.235,5.235,0,0,1,5.235,5.234" transform="translate(-190.473 25.948)" fill="#263238"/>
      <path id="Path_5121" data-name="Path 5121" d="M491.9,416.507a3.723,3.723,0,1,1-3.724-3.724,3.723,3.723,0,0,1,3.724,3.724" transform="translate(-196.799 19.622)" fill="#455a64"/>
      <path id="Path_5122" data-name="Path 5122" d="M502.723,417.918a.329.329,0,1,1-.329-.329.328.328,0,0,1,.329.329" transform="translate(-211.014 15.743)" fill="#263238"/>
      <path id="Path_5123" data-name="Path 5123" d="M495.133,420.17a.329.329,0,1,1-.459-.072.329.329,0,0,1,.459.072" transform="translate(-204.937 13.769)" fill="#263238"/>
      <path id="Path_5124" data-name="Path 5124" d="M490.319,426.453a.329.329,0,1,1-.414.211.329.329,0,0,1,.414-.211" transform="translate(-201.183 8.601)" fill="#263238"/>
      <path id="Path_5125" data-name="Path 5125" d="M490.116,434.366a.329.329,0,1,1-.211.414.329.329,0,0,1,.211-.414" transform="translate(-201.184 2.213)" fill="#263238"/>
      <path id="Path_5126" data-name="Path 5126" d="M494.6,440.888a.329.329,0,1,1,.073.459.33.33,0,0,1-.073-.459" transform="translate(-204.938 -2.955)" fill="#263238"/>
      <path id="Path_5127" data-name="Path 5127" d="M502.067,443.526a.329.329,0,1,1,.328.329.328.328,0,0,1-.328-.329" transform="translate(-211.014 -4.928)" fill="#263238"/>
      <path id="Path_5128" data-name="Path 5128" d="M509.656,441.273a.329.329,0,1,1,.459.073.33.33,0,0,1-.459-.073" transform="translate(-217.089 -2.954)" fill="#263238"/>
      <path id="Path_5129" data-name="Path 5129" d="M514.469,434.99a.329.329,0,1,1,.414-.211.328.328,0,0,1-.414.211" transform="translate(-220.842 2.214)" fill="#263238"/>
      <path id="Path_5130" data-name="Path 5130" d="M514.673,427.078a.329.329,0,1,1,.211-.414.329.329,0,0,1-.211.414" transform="translate(-220.843 8.601)" fill="#263238"/>
      <path id="Path_5131" data-name="Path 5131" d="M510.186,420.557a.329.329,0,1,1-.073-.459.328.328,0,0,1,.073.459" transform="translate(-217.088 13.768)" fill="#263238"/>
      <path id="Path_5132" data-name="Path 5132" d="M498.676,425.4a1.6,1.6,0,1,1-1.6-1.6,1.6,1.6,0,0,1,1.6,1.6" transform="translate(-205.696 10.724)" fill="#263238"/>
      <path id="Path_5133" data-name="Path 5133" d="M190.862,395.4a8.763,8.763,0,1,1-8.764-8.764,8.763,8.763,0,0,1,8.764,8.764" transform="translate(54.341 40.724)" fill="#455a64"/>
      <path id="Path_5134" data-name="Path 5134" d="M202.109,410.181a5.234,5.234,0,1,1-5.235-5.234,5.235,5.235,0,0,1,5.235,5.234" transform="translate(39.565 25.948)" fill="#263238"/>
      <path id="Path_5135" data-name="Path 5135" d="M206.924,416.507a3.724,3.724,0,1,1-3.724-3.724,3.724,3.724,0,0,1,3.724,3.724" transform="translate(33.239 19.622)" fill="#455a64"/>
      <path id="Path_5136" data-name="Path 5136" d="M217.743,417.918a.329.329,0,1,1-.329-.329.328.328,0,0,1,.329.329" transform="translate(19.024 15.743)" fill="#263238"/>
      <path id="Path_5137" data-name="Path 5137" d="M210.154,420.17a.329.329,0,1,1-.459-.072.329.329,0,0,1,.459.072" transform="translate(25.1 13.769)" fill="#263238"/>
      <path id="Path_5138" data-name="Path 5138" d="M205.34,426.453a.329.329,0,1,1-.414.211.329.329,0,0,1,.414-.211" transform="translate(28.854 8.601)" fill="#263238"/>
      <path id="Path_5139" data-name="Path 5139" d="M205.136,434.366a.329.329,0,1,1-.211.414.329.329,0,0,1,.211-.414" transform="translate(28.854 2.213)" fill="#263238"/>
      <path id="Path_5140" data-name="Path 5140" d="M209.623,440.888a.329.329,0,1,1,.073.459.33.33,0,0,1-.073-.459" transform="translate(25.099 -2.955)" fill="#263238"/>
      <path id="Path_5141" data-name="Path 5141" d="M217.088,443.526a.329.329,0,1,1,.328.329.328.328,0,0,1-.328-.329" transform="translate(19.023 -4.928)" fill="#263238"/>
      <path id="Path_5142" data-name="Path 5142" d="M224.676,441.273a.329.329,0,1,1,.459.073.33.33,0,0,1-.459-.073" transform="translate(12.948 -2.954)" fill="#263238"/>
      <path id="Path_5143" data-name="Path 5143" d="M229.49,434.99a.329.329,0,1,1,.414-.211.328.328,0,0,1-.414.211" transform="translate(9.195 2.214)" fill="#263238"/>
      <path id="Path_5144" data-name="Path 5144" d="M229.693,427.078a.329.329,0,1,1,.211-.414.329.329,0,0,1-.211.414" transform="translate(9.195 8.601)" fill="#263238"/>
      <path id="Path_5145" data-name="Path 5145" d="M225.207,420.557a.329.329,0,1,1-.073-.459.328.328,0,0,1,.073.459" transform="translate(12.949 13.768)" fill="#263238"/>
      <path id="Path_5146" data-name="Path 5146" d="M213.7,425.4a1.6,1.6,0,1,1-1.6-1.6,1.6,1.6,0,0,1,1.6,1.6" transform="translate(24.341 10.724)" fill="#263238"/>
      <path id="Path_5147" data-name="Path 5147" d="M175.715,335.574h-61.13a.5.5,0,1,1,0-1.01h61.13a.5.5,0,0,1,0,1.01" transform="translate(102.172 82.761)" fill="#e58f6b"/>
      <path id="Path_5148" data-name="Path 5148" d="M111.384,300.179h-3.394v-2.586h.809Z" transform="translate(107.087 112.604)" fill="#edc909"/>
      <path id="Path_5149" data-name="Path 5149" d="M132.089,300.179h-3.6l-2.584-2.586h3.6Z" transform="translate(92.629 112.604)" fill="#edc909"/>
      <path id="Path_5150" data-name="Path 5150" d="M165.314,300.179h-4.422l-2.584-2.586h4.422Z" transform="translate(66.471 112.604)" fill="#edc909"/>
      <path id="Path_5151" data-name="Path 5151" d="M203.234,300.179h-5.7l-2.586-2.586h5.7Z" transform="translate(36.894 112.604)" fill="#edc909"/>
      <path id="Path_5152" data-name="Path 5152" d="M240.805,300.184h34.663l-2.233-2.586H238.219Z" transform="translate(1.966 112.6)" fill="#edc909"/>
      <path id="Path_5153" data-name="Path 5153" d="M549.86,340.076v1.467a.789.789,0,0,1-.789.789h-2.3v4.329l-.607,0a2.115,2.115,0,0,1-.288-.5l-2.844-6.975h5.938a.89.89,0,0,1,.891.891" transform="translate(-244.082 79.031)" fill="#455a64"/>
      <g id="Group_364" data-name="Group 364" transform="translate(299.94 420.642)" opacity="0.19">
        <g id="Group_363" data-name="Group 363" transform="translate(0 0)">
          <g id="Group_362" data-name="Group 362" clip-path="url(#clip-path-4)">
            <path id="Path_5154" data-name="Path 5154" d="M554.039,357.645H551.99a2.135,2.135,0,0,1-1.972-1.326l-1.854-4.548Z" transform="translate(-548.164 -351.77)" fill="#f4ede6"/>
          </g>
        </g>
      </g>
      <g id="Group_367" data-name="Group 367" transform="translate(298.172 416.306)" opacity="0.19">
        <g id="Group_366" data-name="Group 366" transform="translate(0 0)">
          <g id="Group_365" data-name="Group 365" clip-path="url(#clip-path-5)">
            <path id="Path_5155" data-name="Path 5155" d="M549.2,339.49h-1.767l-7.228-7.228-.437-1.073-.779-1.91Z" transform="translate(-538.994 -329.279)" fill="#f4ede6"/>
          </g>
        </g>
      </g>
      <rect id="Rectangle_1203" data-name="Rectangle 1203" width="1.056" height="7.001" transform="translate(342.028 422.167)" fill="#336880"/>
      <rect id="Rectangle_1209" data-name="Rectangle 1209" width="13.989" height="0.794" transform="translate(344.002 436.129)" fill="#455a64"/>
      <path id="Path_5093" data-name="Path 5093" d="M780.576,441.78v-.7a.375.375,0,0,1,.75,0v.7h1.533l-2.233-5.562H766.183l-2.233,5.562h1.542v-.341a.375.375,0,0,1,.75,0v.341h1.1v-.825a.375.375,0,1,1,.75,0v.825h1.02V441a.375.375,0,0,1,.75,0v.783h1.146V440.5a.375.375,0,0,1,.75,0v1.28h1.268V441a.375.375,0,0,1,.75,0v.783h.814v-1.187a.375.375,0,0,1,.75,0v1.187h1.02v-.993a.375.375,0,0,1,.75,0v.993h1.315v-.909a.375.375,0,0,1,.75,0v.909Z" transform="translate(-422.408 0.705)" fill="#455a64"/>
      <path id="Path_5094" data-name="Path 5094" d="M775.083,442.6h0a.233.233,0,0,1-.134-.3l1.191-3.109a.232.232,0,0,1,.433.166l-1.191,3.108a.232.232,0,0,1-.3.134" transform="translate(-431.275 -1.576)" fill="#455a64"/>
      <path id="Path_5095" data-name="Path 5095" d="M785.32,442.889h0a.218.218,0,0,1-.136-.276l1.008-2.958a.218.218,0,1,1,.412.141l-1.008,2.958a.218.218,0,0,1-.276.136" transform="translate(-439.539 -1.95)" fill="#455a64"/>
      <path id="Path_5096" data-name="Path 5096" d="M796.094,443.743h0a.233.233,0,0,1-.192-.266l.528-3.286a.232.232,0,0,1,.458.073l-.528,3.287a.233.233,0,0,1-.266.192" transform="translate(-448.198 -2.344)" fill="#455a64"/>
      <path id="Path_5097" data-name="Path 5097" d="M806.821,443.216h0a.232.232,0,0,1-.214-.248l.242-3.32a.232.232,0,0,1,.462.034l-.243,3.32a.232.232,0,0,1-.248.214" transform="translate(-456.84 -1.891)" fill="#455a64"/>
      <path id="Path_5098" data-name="Path 5098" d="M814.8,442.971h0a.21.21,0,0,1-.227-.191l-.252-3a.21.21,0,1,1,.418-.035l.252,3a.21.21,0,0,1-.191.227" transform="translate(-463.064 -1.985)" fill="#455a64"/>
      <path id="Path_5099" data-name="Path 5099" d="M823.215,442.994h0a.21.21,0,0,1-.235-.18l-.393-2.985a.21.21,0,0,1,.416-.055l.393,2.986a.21.21,0,0,1-.18.235" transform="translate(-469.738 -2.018)" fill="#455a64"/>
      <path id="Path_5100" data-name="Path 5100" d="M831.481,443.388h0a.233.233,0,0,1-.294-.145l-1.071-3.154a.232.232,0,0,1,.439-.149l1.071,3.154a.233.233,0,0,1-.145.294" transform="translate(-475.808 -2.172)" fill="#455a64"/>
      <path id="Path_5101" data-name="Path 5101" d="M840.6,443.681h0a.237.237,0,0,1-.319-.1l-1.581-3.008a.237.237,0,0,1,.419-.22l1.581,3.008a.237.237,0,0,1-.1.319" transform="translate(-482.724 -2.531)" fill="#455a64"/>
    </g>
  </g>
</svg>
