<svg xmlns="http://www.w3.org/2000/svg" width="329.985" height="299.716" viewBox="0 0 329.985 299.716">
  <g id="Group_409" data-name="Group 409" transform="translate(-50.007 -229.247)">
    <g id="Verified-rafiki" transform="translate(-6.103 153.896)">
      <g id="freepik--background-simple--inject-20" transform="translate(76.118 75.351)">
        <path id="Path_5252" data-name="Path 5252" d="M187.658,75.9c37.051,4.017,61.422,33.077,73.54,66.375,8.348,22.9,5.667,53.959,28.822,68.587,11.258,7.106,24.78,4.816,37.264,6.978,37.5,6.5,47.883,47.526,32,78.654-18.721,36.7-68.46,49.764-102.039,25.716-11.718-8.4-20.934-19.9-28.328-32.277-13.675-22.882-22.048-37.17-51.509-31.528-32.192,6.161-64.358-1.7-82.756-31.017a100.209,100.209,0,0,1-8.62-88.074C101.652,98.028,143.621,71.1,187.658,75.9Z" transform="translate(-79.622 -75.351)" fill="#e58f6b"/>
        <path id="Path_5253" data-name="Path 5253" d="M187.658,75.9c37.051,4.017,61.422,33.077,73.54,66.375,8.348,22.9,5.667,53.959,28.822,68.587,11.258,7.106,24.78,4.816,37.264,6.978,37.5,6.5,47.883,47.526,32,78.654-18.721,36.7-68.46,49.764-102.039,25.716-11.718-8.4-20.934-19.9-28.328-32.277-13.675-22.882-22.048-37.17-51.509-31.528-32.192,6.161-64.358-1.7-82.756-31.017a100.209,100.209,0,0,1-8.62-88.074C101.652,98.028,143.621,71.1,187.658,75.9Z" transform="translate(-79.622 -75.351)" fill="#fff" opacity="0.9"/>
      </g>
      <g id="freepik--Shadow--inject-20" transform="translate(56.11 355.801)">
        <ellipse id="freepik--path--inject-20" cx="164.993" cy="9.633" rx="164.993" ry="9.633" fill="#f5f5f5"/>
      </g>
      <g id="freepik--Device--inject-20" transform="translate(175.684 109.542)">
        <path id="Path_5254" data-name="Path 5254" d="M332.528,119.019v239.52a3.736,3.736,0,0,1-3.8,3.736h-128.7a3.353,3.353,0,0,1-3.4-3.4V118.713a3.021,3.021,0,0,1,2.91-3.14h30.592a2.374,2.374,0,0,1,2.17,1.523l1.4,3.4a2.374,2.374,0,0,0,2.178,1.506h57.533a2.357,2.357,0,0,0,2.17-1.481l1.4-3.463a2.383,2.383,0,0,1,2.17-1.532h30.073a3.4,3.4,0,0,1,3.293,3.489Z" transform="translate(-196.627 -115.53)" fill="#263238"/>
        <rect id="Rectangle_1287" data-name="Rectangle 1287" width="135.89" height="213.735" transform="translate(0.019 16.024)" fill="#e58f6b"/>
        <rect id="Rectangle_1288" data-name="Rectangle 1288" width="135.89" height="213.735" transform="translate(0.019 16.024)" fill="#fff" opacity="0.7" style="isolation: isolate"/>
        <rect id="Rectangle_1289" data-name="Rectangle 1289" width="1.761" height="2.34" transform="translate(17.83 10.348) rotate(180)" fill="#fff" opacity="0.6" style="isolation: isolate"/>
        <rect id="Rectangle_1290" data-name="Rectangle 1290" width="1.761" height="3.123" transform="translate(14.962 10.348) rotate(180)" fill="#fff" opacity="0.6" style="isolation: isolate"/>
        <rect id="Rectangle_1291" data-name="Rectangle 1291" width="1.761" height="3.906" transform="translate(12.095 10.348) rotate(180)" fill="#fff" opacity="0.6" style="isolation: isolate"/>
        <rect id="Rectangle_1292" data-name="Rectangle 1292" width="1.761" height="4.689" transform="translate(9.227 10.348) rotate(180)" fill="#fff" opacity="0.6" style="isolation: isolate"/>
        <rect id="Rectangle_1293" data-name="Rectangle 1293" width="1.038" height="2.34" transform="translate(119.12 7.148)" fill="#fff" opacity="0.6" style="isolation: isolate"/>
        <rect id="Rectangle_1294" data-name="Rectangle 1294" width="8.305" height="4.059" transform="translate(129.178 10.348) rotate(180)" fill="#fff" opacity="0.6" style="isolation: isolate"/>
        <rect id="Rectangle_1295" data-name="Rectangle 1295" width="132.648" height="132.648" transform="translate(1.636 70.859)" fill="#e58f6b"/>
        <g id="Group_384" data-name="Group 384" transform="translate(7.321 76.637)" opacity="0.3" style="isolation: isolate">
          <path id="Path_5261" data-name="Path 5261" d="M322.6,211.92h5.021l-2.51,6.51Z" transform="translate(-222.723 -206.533)" fill="#fff" opacity="0.7" style="isolation: isolate"/>
          <path id="Path_5262" data-name="Path 5262" d="M340.658,250l1.523,4.782-6.961-.425Z" transform="translate(-224.604 -212.209)" fill="#fff" opacity="0.7" style="isolation: isolate"/>
          <path id="Path_5263" data-name="Path 5263" d="M338.893,225.34l-2.383,5.846,7.242,2.527v-4.731Z" transform="translate(-224.796 -208.534)" fill="#fff"/>
          <path id="Path_5264" data-name="Path 5264" d="M228.97,210.08h3.685L228.97,214.9Z" transform="translate(-208.768 -206.259)" fill="#fff"/>
          <path id="Path_5265" data-name="Path 5265" d="M212.69,237.863l4.17-.953,1.166,3.583-4.808,1.676Z" transform="translate(-206.342 -210.258)" fill="#fff"/>
          <circle id="Ellipse_37" data-name="Ellipse 37" cx="1.625" cy="1.625" r="1.625" transform="translate(46.913 5.395)" fill="#fff"/>
          <path id="Path_5266" data-name="Path 5266" d="M233.31,341.345a3.217,3.217,0,1,1-.939-2.28,3.225,3.225,0,0,1,.939,2.28Z" transform="translate(-208.454 -225.342)" fill="#fff"/>
          <path id="Path_5267" data-name="Path 5267" d="M215.16,308.98,216.351,311l-5.761,2.468-1.31-1.345Z" transform="translate(-205.834 -220.999)" fill="#fff"/>
          <path id="Path_5268" data-name="Path 5268" d="M260.163,347.281l-1.123-2.851h4.382Z" transform="translate(-213.25 -226.283)" fill="#fff"/>
          <path id="Path_5269" data-name="Path 5269" d="M315.07,343.874l.34-3.174,6.008,1.583v4.638Z" transform="translate(-221.601 -225.727)" fill="#fff"/>
          <path id="Path_5270" data-name="Path 5270" d="M330.24,325.2h5.37l-2.681,3.174Z" transform="translate(-223.862 -223.417)" fill="#fff"/>
          <path id="Path_5271" data-name="Path 5271" d="M340.425,286.82l-1.115,6.74,1.234,1.123,1.157-7.863Z" transform="translate(-225.213 -217.697)" fill="#fff"/>
          <path id="Path_5272" data-name="Path 5272" d="M205.23,263.62l4.757,3.455-3.4,2.5Z" transform="translate(-205.23 -214.239)" fill="#fff"/>
          <circle id="Ellipse_38" data-name="Ellipse 38" cx="0.536" cy="0.536" r="0.536" transform="translate(20.568 20.959)" fill="#fff"/>
          <circle id="Ellipse_39" data-name="Ellipse 39" cx="0.749" cy="0.749" r="0.749" transform="translate(89.249 14.143)" fill="#fff"/>
          <path id="Path_5273" data-name="Path 5273" d="M287.158,343.6a.6.6,0,1,1-.6-.6.6.6,0,0,1,.6.6Z" transform="translate(-217.261 -226.07)" fill="#fff"/>
          <path id="Path_5274" data-name="Path 5274" d="M295.7,206.492l5.991-.9v2.919l-5.991.9Z" transform="translate(-218.714 -205.59)" fill="#fff"/>
          <path id="Path_5275" data-name="Path 5275" d="M342.12,210.08h1.966l-.987,2.408Z" transform="translate(-225.632 -206.259)" fill="#fff"/>
          <path id="Path_5276" data-name="Path 5276" d="M209.28,213.84h2.9l-1.455,1.625Z" transform="translate(-205.834 -206.82)" fill="#fff"/>
          <path id="Path_5277" data-name="Path 5277" d="M338.5,346.8l-.281-5.582,4.3,1.515Z" transform="translate(-225.051 -225.804)" fill="#fff"/>
          <path id="Path_5278" data-name="Path 5278" d="M343.007,309.716l-2.247-1.8v1.8l2.247,1.353Z" transform="translate(-225.429 -220.841)" fill="#fff"/>
          <path id="Path_5279" data-name="Path 5279" d="M207.656,288.93l2.519,2.136-1.259,1.906L205.58,290.3Z" transform="translate(-205.282 -218.011)" fill="#fff"/>
          <path id="Path_5280" data-name="Path 5280" d="M205.528,230.22h3.149l-3.446,1.072Z" transform="translate(-205.23 -209.261)" fill="#fff"/>
        </g>
        <path id="Path_5281" data-name="Path 5281" d="M262.248,223.293l5.693-5.353,5.633,5.4,6.842-3.77,4.119,6.637,7.565-1.94,2.332,7.446h7.812l.417,7.795,7.565,1.94-1.549,7.659,6.85,3.761-3.4,7.029,5.693,5.344-5.038,5.965,4.187,6.595-6.365,4.527,2.417,7.42-7.284,2.8.494,7.795-7.761.9-1.455,7.676-7.744-1.064-3.319,7.072-7.233-2.953L273.745,318l-6.272-4.655-6.314,4.6-4.919-6.067-7.259,2.876-3.251-7.1-7.744.979-1.387-7.684-7.752-.979.57-7.786-7.259-2.868,2.485-7.4-6.323-4.587,4.255-6.552-4.987-6.016,5.752-5.284-3.327-7.071,6.884-3.693-1.472-7.667,7.582-1.864.485-7.795,7.812.077,2.408-7.429,7.548,2.017,4.178-6.595Z" transform="translate(-199.751 -130.793)" fill="#e58f6b"/>
        <path id="Path_5282" data-name="Path 5282" d="M313.787,273.212l5.038-5.957-5.693-5.344,3.4-7.029-6.85-3.761,1.549-7.659-7.565-1.94-.417-7.795H295.44l-2.332-7.446-7.565,1.94-4.119-6.637-6.808,3.77-5.633-5.4-5.693,5.353-6.808-3.838-4.178,6.6-7.548-2.025-2.408,7.429-7.812-.077-.485,7.795-7.582,1.864,1.472,7.659-6.884,3.693,3.327,7.071-5.8,5.319,4.987,6.016-4.255,6.552,6.323,4.587-2.485,7.4,7.259,2.868-.57,7.786,7.752.979,1.379,7.659,7.752-.979,3.251,7.1,7.259-2.876,4.919,6.067,6.314-4.6,6.272,4.655,4.978-6.025,7.233,2.953,3.319-7.071,7.735,1.064,1.464-7.659,7.761-.9-.5-7.795,7.293-2.8-2.417-7.429,6.365-4.519Zm-1.566,5.5-5.625,4,2.136,6.561-6.442,2.468.442,6.884-6.859.8-1.285,6.808-6.808-.936-2.936,6.246-6.382-2.6-4.4,5.31-5.54-4.11-5.574,4.059-4.34-5.361-6.416,2.553-2.868-6.272-6.85.851-1.217-6.808-6.808-.851.511-6.876-6.416-2.553,2.2-6.535-5.582-4.051,3.761-5.786-4.408-5.31,5.106-4.672-3.021-6.28,6.084-3.259-1.3-6.808,6.706-1.642.425-6.884,6.893.068,2.127-6.561,6.663,1.787,3.693-5.829,6.016,3.4,5.021-4.731,4.978,4.774,6.042-3.327,3.642,5.863,6.68-1.7,2.059,6.586h6.9l.366,6.893,6.68,1.7-1.362,6.757,6.042,3.319-3,6.212,5.029,4.723-4.451,5.267Z" transform="translate(-199.9 -131.093)" opacity="0.4" style="isolation: isolate"/>
        <path id="Path_5283" data-name="Path 5283" d="M262.248,223.293l5.693-5.353,5.633,5.4,6.842-3.77,4.119,6.637,7.565-1.94,2.332,7.446h7.812l.417,7.795,7.565,1.94-1.549,7.659,6.85,3.761-3.4,7.029,5.693,5.344-5.038,5.965,4.187,6.595-6.365,4.527,2.417,7.42-7.284,2.8.494,7.795-7.761.9-1.455,7.676-7.744-1.064-3.319,7.072-7.233-2.953L273.745,318l-6.272-4.655-6.314,4.6-4.919-6.067-7.259,2.876-3.251-7.1-7.744.979-1.387-7.684-7.752-.979.57-7.786-7.259-2.868,2.485-7.4-6.323-4.587,4.255-6.552-4.987-6.016,5.752-5.284-3.327-7.071,6.884-3.693-1.472-7.667,7.582-1.864.485-7.795,7.812.077,2.408-7.429,7.548,2.017,4.178-6.595Z" transform="translate(-199.751 -130.793)" opacity="0.4" style="isolation: isolate"/>
        <path id="Path_5284" data-name="Path 5284" d="M312.787,271.212l5.038-5.957-5.693-5.344,3.4-7.029-6.85-3.761,1.549-7.659-7.565-1.94-.417-7.795H294.44l-2.332-7.446-7.565,1.94-4.119-6.637-6.808,3.77-5.633-5.4-5.693,5.353-6.808-3.838-4.178,6.6-7.548-2.025-2.408,7.429-7.812-.077-.485,7.795-7.582,1.864,1.472,7.659-6.884,3.693,3.327,7.071-5.8,5.319,4.987,6.016-4.255,6.552,6.323,4.587-2.485,7.4,7.259,2.868-.57,7.786,7.752.979,1.379,7.659,7.752-.979,3.251,7.1,7.259-2.876,4.919,6.067,6.314-4.6,6.272,4.655,4.978-6.025,7.233,2.953,3.319-7.071,7.735,1.064,1.464-7.659,7.761-.9-.5-7.795,7.293-2.8-2.417-7.429,6.365-4.519Zm-1.566,5.5-5.625,4,2.136,6.561-6.442,2.468.442,6.884-6.859.8-1.285,6.808-6.808-.936-2.936,6.246-6.382-2.6-4.4,5.31-5.54-4.11-5.574,4.059-4.34-5.361-6.416,2.553-2.868-6.272-6.85.851-1.217-6.808-6.808-.851.511-6.876-6.416-2.553,2.2-6.535-5.582-4.051,3.761-5.786-4.408-5.31,5.106-4.672-3.021-6.28,6.084-3.259-1.3-6.808,6.706-1.642.425-6.884,6.893.068,2.127-6.561,6.663,1.787,3.693-5.829,6.016,3.4,5.021-4.731,4.978,4.774,6.042-3.327,3.642,5.863,6.68-1.7,2.059,6.586h6.9l.366,6.893,6.68,1.7-1.362,6.757,6.042,3.319-3,6.212,5.029,4.723-4.451,5.267Z" transform="translate(-199.751 -130.795)" fill="#e58f6b"/>
        <path id="Path_5285" data-name="Path 5285" d="M312.787,271.212l5.038-5.957-5.693-5.344,3.4-7.029-6.85-3.761,1.549-7.659-7.565-1.94-.417-7.795H294.44l-2.332-7.446-7.565,1.94-4.119-6.637-6.808,3.77-5.633-5.4-5.693,5.353-6.808-3.838-4.178,6.6-7.548-2.025-2.408,7.429-7.812-.077-.485,7.795-7.582,1.864,1.472,7.659-6.884,3.693,3.327,7.071-5.8,5.319,4.987,6.016-4.255,6.552,6.323,4.587-2.485,7.4,7.259,2.868-.57,7.786,7.752.979,1.379,7.659,7.752-.979,3.251,7.1,7.259-2.876,4.919,6.067,6.314-4.6,6.272,4.655,4.978-6.025,7.233,2.953,3.319-7.071,7.735,1.064,1.464-7.659,7.761-.9-.5-7.795,7.293-2.8-2.417-7.429,6.365-4.519Zm-1.566,5.5-5.625,4,2.136,6.561-6.442,2.468.442,6.884-6.859.8-1.285,6.808-6.808-.936-2.936,6.246-6.382-2.6-4.4,5.31-5.54-4.11-5.574,4.059-4.34-5.361-6.416,2.553-2.868-6.272-6.85.851-1.217-6.808-6.808-.851.511-6.876-6.416-2.553,2.2-6.535-5.582-4.051,3.761-5.786-4.408-5.31,5.106-4.672-3.021-6.28,6.084-3.259-1.3-6.808,6.706-1.642.425-6.884,6.893.068,2.127-6.561,6.663,1.787,3.693-5.829,6.016,3.4,5.021-4.731,4.978,4.774,6.042-3.327,3.642,5.863,6.68-1.7,2.059,6.586h6.9l.366,6.893,6.68,1.7-1.362,6.757,6.042,3.319-3,6.212,5.029,4.723-4.451,5.267Z" transform="translate(-199.751 -130.795)" fill="#fff" opacity="0.6" style="isolation: isolate"/>
        <path id="Path_5286" data-name="Path 5286" d="M246.881,270.571s4.34-.749,6.476,0S264.53,286.74,264.53,286.74s17.53-24.116,31.545-34.66a122.951,122.951,0,0,0-28.728,43.629s-3.549,1.566-6.059-1.234c-.723-.851-8.867-14.73-10.441-15.249-1.234-.417-5.216-.213-5.216-.213Z" transform="translate(-203.931 -135.881)" opacity="0.4" style="isolation: isolate"/>
        <path id="Path_5287" data-name="Path 5287" d="M245.881,269.571s4.34-.749,6.476,0S263.53,285.74,263.53,285.74s17.53-24.116,31.545-34.66a122.951,122.951,0,0,0-28.728,43.629s-3.549,1.566-6.059-1.234c-.723-.851-8.867-14.73-10.441-15.249-1.234-.417-5.216-.213-5.216-.213Z" transform="translate(-203.781 -135.732)" fill="#fff"/>
      </g>
      <g id="freepik--Plant--inject-20" transform="translate(316.334 266.041)">
        <path id="Path_5316" data-name="Path 5316" d="M384.18,375.269s-4.961-10.816.706-21.478,7.3-13.173,3.693-15.36-5.267,8.51-5.267,8.51a24.051,24.051,0,0,1-.528-15.087c2.519-7.71,4.085-20.278.655-21.631s-.655,15.675-3.634,21.478a49.868,49.868,0,0,1-2.91-12.654c-.417-6.195.23-16.092-2.485-18.628s-4.442-.783-1.779,12.892A142.664,142.664,0,0,1,375.27,338.1s-5.88-17.938-9.829-18.457-3.94,5.284-.562,10.322,9.9,14.066,10.969,18.721c0,0-6.459-13.5-12.271-9.361s5.055,12.288,9.9,15.241,8.212,21.41,8.212,21.41Z" transform="translate(-361.91 -299.439)" fill="#e58f6b"/>
        <path id="Path_5317" data-name="Path 5317" d="M384.18,375.269s-4.961-10.816.706-21.478,7.3-13.173,3.693-15.36-5.267,8.51-5.267,8.51a24.051,24.051,0,0,1-.528-15.087c2.519-7.71,4.085-20.278.655-21.631s-.655,15.675-3.634,21.478a49.868,49.868,0,0,1-2.91-12.654c-.417-6.195.23-16.092-2.485-18.628s-4.442-.783-1.779,12.892A142.664,142.664,0,0,1,375.27,338.1s-5.88-17.938-9.829-18.457-3.94,5.284-.562,10.322,9.9,14.066,10.969,18.721c0,0-6.459-13.5-12.271-9.361s5.055,12.288,9.9,15.241,8.212,21.41,8.212,21.41Z" transform="translate(-361.91 -299.439)" fill="#edc909" opacity="0.2" style="isolation: isolate"/>
        <path id="Path_5318" data-name="Path 5318" d="M382.3,380.46s4.825-10.892-.97-21.47-7.463-13.062-3.872-15.317,5.37,8.45,5.37,8.45a24.116,24.116,0,0,0,.349-15.1c-2.6-7.676-4.331-20.219-.919-21.614s.851,15.666,3.889,21.419a50.079,50.079,0,0,0,2.766-12.7c.332-6.2-.425-16.083,2.255-18.662s4.434-.851,1.932,12.867a143.4,143.4,0,0,0-2.34,24.873s5.667-18.023,9.607-18.6,4.008,5.225.689,10.314-9.735,14.211-10.748,18.866c0,0,6.3-13.615,12.152-9.539s-4.9,12.364-9.709,15.377-7.948,21.538-7.948,21.538Z" transform="translate(-363.947 -300.188)" fill="#edc909"/>
        <path id="Path_5319" data-name="Path 5319" d="M402.656,384.64H362.78l3.225,28.541h33.426Z" transform="translate(-362.04 -312.137)" fill="#263238"/>
      </g>
      <g id="freepik--Character--inject-20" transform="translate(57.745 171.4)">
        <path id="Path_5320" data-name="Path 5320" d="M98.4,389.727l24.55-2.408V357.11h9.718V387.3l24.618,2.425a4.765,4.765,0,0,1,4.306,4.748v3.685H94.09v-3.7A4.765,4.765,0,0,1,98.4,389.727Z" transform="translate(-63.405 -213.393)" fill="#263238"/>
        <path id="Path_5321" data-name="Path 5321" d="M98.4,389.727l24.55-2.408V357.11h9.718V387.3l24.618,2.425a4.765,4.765,0,0,1,4.306,4.748v3.685H94.09v-3.7A4.765,4.765,0,0,1,98.4,389.727Z" transform="translate(-63.405 -213.393)" fill="#fff" opacity="0.1" style="isolation: isolate"/>
        <circle id="Ellipse_40" data-name="Ellipse 40" cx="6.357" cy="6.357" r="6.357" transform="translate(88.283 184.065) rotate(-9.22)" fill="#263238"/>
        <circle id="Ellipse_41" data-name="Ellipse 41" cx="6.357" cy="6.357" r="6.357" transform="translate(25.986 194.604) rotate(-80.78)" fill="#263238"/>
        <path id="Path_5322" data-name="Path 5322" d="M3.514,0H9.548a3.514,3.514,0,0,1,3.514,3.514V30.686H0V3.514A3.514,3.514,0,0,1,3.514,0Z" transform="translate(70.901 151.129) rotate(180)" fill="#263238"/>
        <path id="Path_5323" data-name="Path 5323" d="M3.514,0H9.548a3.514,3.514,0,0,1,3.514,3.514V30.686H0V3.514A3.514,3.514,0,0,1,3.514,0Z" transform="translate(70.901 151.129) rotate(180)" fill="#fff" opacity="0.2" style="isolation: isolate"/>
        <path id="Path_5324" data-name="Path 5324" d="M91.743,267.14s7.276,45.45,21.64,53.279h-14.6S84.357,304.931,80,267.14Z" transform="translate(-61.305 -199.984)" fill="#263238"/>
        <path id="Path_5325" data-name="Path 5325" d="M91.743,267.14s7.276,45.45,21.64,53.279h-14.6S84.357,304.931,80,267.14Z" transform="translate(-61.305 -199.984)" fill="#fff" opacity="0.1" style="isolation: isolate"/>
        <path id="Path_5326" data-name="Path 5326" d="M100.485,322.2h56.946a4.255,4.255,0,0,1,4.255,4.255v5.693H96.23v-5.693A4.255,4.255,0,0,1,100.485,322.2Z" transform="translate(-63.724 -208.19)" fill="#e58f6b"/>
        <rect id="Rectangle_1296" data-name="Rectangle 1296" width="70.91" height="4.97" rx="2.01" transform="translate(29.774 118.98)" fill="#263238"/>
        <rect id="Rectangle_1297" data-name="Rectangle 1297" width="70.91" height="4.97" rx="2.01" transform="translate(29.774 118.98)" fill="#fff" opacity="0.6" style="isolation: isolate"/>
        <path id="Path_5327" data-name="Path 5327" d="M74.956,272.114h23.4c6.808,0,11.309-5.5,9.939-12.279l-1.787-9.054A15.814,15.814,0,0,0,91.635,238.51H68.216c-6.808,0-11.309,5.5-9.939,12.271l1.813,9.054A15.8,15.8,0,0,0,74.956,272.114Z" transform="translate(-58.031 -195.717)" fill="#e58f6b"/>
        <path id="Path_5328" data-name="Path 5328" d="M103.81,225.34h14.909l1.37,8.893-13.258,2.315Z" transform="translate(-64.854 -193.754)" fill="#e58f6b"/>
        <path id="Path_5329" data-name="Path 5329" d="M217.926,367.827l-5.353,2.093-3.846-7.259-3.5-6.595,5.931-3.557,3.583,8.1Z" transform="translate(-79.97 -212.707)" fill="#e4897b"/>
        <path id="Path_5330" data-name="Path 5330" d="M214.744,360.611l-6.016,2.051-3.5-6.595,5.931-3.557Z" transform="translate(-79.97 -212.707)" opacity="0.2" style="isolation: isolate"/>
        <path id="Path_5331" data-name="Path 5331" d="M197.394,344.987l-7.284,3.931S162.6,300.55,158.369,300.949s-44.361,25.954-56.6,16.483-.332-37.876-.332-37.876,23.912-9.088,26.661-3.531a66,66,0,0,1,3.217,6.944c.536,1.7.945,3.208.945,3.208h0c.774-.315,25.776-10.569,36.94-5.106C180.554,286.713,197.394,344.987,197.394,344.987Z" transform="translate(-63.727 -201.04)" fill="#e58f6b"/>
        <path id="Path_5332" data-name="Path 5332" d="M197.394,344.987l-7.284,3.931S162.6,300.55,158.369,300.949s-44.361,25.954-56.6,16.483-.332-37.876-.332-37.876,23.912-9.088,26.661-3.531a66,66,0,0,1,3.217,6.944c.536,1.7.945,3.208.945,3.208h0c.774-.315,25.776-10.569,36.94-5.106C180.554,286.713,197.394,344.987,197.394,344.987Z" transform="translate(-63.727 -201.04)" fill="#fff" opacity="0.3" style="isolation: isolate"/>
        <path id="Path_5333" data-name="Path 5333" d="M167.624,400.853l-5.71-.655-.026-8.05-.009-7.395,6.9-.323-.613,8.7Z" transform="translate(-73.509 -217.465)" fill="#e4897b"/>
        <path id="Path_5334" data-name="Path 5334" d="M168.15,393.313l-6.28-1v-7.463l6.9-.366Z" transform="translate(-73.507 -217.472)" opacity="0.2" style="isolation: isolate"/>
        <path id="Path_5335" data-name="Path 5335" d="M202.37,358.215l10.654-5.336,1.106,4.51-8.067,4.161Z" transform="translate(-79.544 -212.763)" fill="#263238"/>
        <path id="Path_5336" data-name="Path 5336" d="M125,321.6s1.753-.2,28.66-5.182c0,0,.613,34.421,1.889,60.069l8.288.272s11.913-56.946,10.492-65.524-11.633-9.76-11.633-9.76S144.9,315.256,125,321.6Z" transform="translate(-68.012 -205.1)" fill="#e58f6b"/>
        <path id="Path_5337" data-name="Path 5337" d="M125,321.6s1.753-.2,28.66-5.182c0,0,.613,34.421,1.889,60.069l8.288.272s11.913-56.946,10.492-65.524-11.633-9.76-11.633-9.76S144.9,315.256,125,321.6Z" transform="translate(-68.012 -205.1)" fill="#fff" opacity="0.4" style="isolation: isolate"/>
        <path id="Path_5338" data-name="Path 5338" d="M125,321.6s1.753-.2,28.66-5.182c0,0,.613,34.421,1.889,60.069l8.288.272s11.913-56.946,10.492-65.524-11.633-9.76-11.633-9.76S144.9,315.256,125,321.6Z" transform="translate(-68.012 -205.1)" opacity="0.3" style="isolation: isolate"/>
        <path id="Path_5339" data-name="Path 5339" d="M159.07,386.884l11.3-.264-1.54,4.655-9.173.085Z" transform="translate(-73.09 -217.791)" fill="#263238"/>
        <path id="Path_5340" data-name="Path 5340" d="M136,287.738l-14.671,5.225s7.718-5.761,13.726-8.433C135.592,286.266,136,287.738,136,287.738Z" transform="translate(-67.465 -202.576)" opacity="0.3" style="isolation: isolate"/>
        <path id="Path_5341" data-name="Path 5341" d="M101.2,277.02l-.213,4.357,27.495-5.829-.638-4.808Z" transform="translate(-64.434 -200.52)" fill="#263238"/>
        <path id="Path_5342" data-name="Path 5342" d="M101.2,277.02l-.213,4.357,27.495-5.829-.638-4.808Z" transform="translate(-64.434 -200.52)" opacity="0.2" style="isolation: isolate"/>
        <rect id="Rectangle_1298" data-name="Rectangle 1298" width="1.396" height="7.088" transform="translate(43.752 74.088) rotate(-10.51)" fill="#e58f6b"/>
        <rect id="Rectangle_1299" data-name="Rectangle 1299" width="6.152" height="4.663" transform="matrix(0.976, -0.22, 0.22, 0.976, 51.12, 73.415)" fill="#fff"/>
        <rect id="Rectangle_1300" data-name="Rectangle 1300" width="1.396" height="7.088" transform="matrix(0.983, -0.182, 0.182, 0.983, 60.451, 69.974)" fill="#e58f6b"/>
        <rect id="Rectangle_1301" data-name="Rectangle 1301" width="1.396" height="7.088" transform="translate(43.752 74.088) rotate(-10.51)" fill="#fff" opacity="0.3" style="isolation: isolate"/>
        <rect id="Rectangle_1302" data-name="Rectangle 1302" width="1.396" height="7.088" transform="matrix(0.983, -0.182, 0.182, 0.983, 60.451, 69.974)" fill="#fff" opacity="0.3" style="isolation: isolate"/>
        <path id="Path_5343" data-name="Path 5343" d="M229.765,380.149a7.59,7.59,0,0,0-2.766-.315h0s-3.446-1.438-7.659-8.314l-3.566.468a2.961,2.961,0,0,0-2.459,2.34,1.42,1.42,0,0,0,0,.5,19.58,19.58,0,0,0,.621,2.553,72.506,72.506,0,0,0,3.234,8.1l.587-.238-1.83-5.165c-.613-1.753,1.523-.272,2.655,1.43s2.732,3.344,6.544,1.906C229.561,381.689,231.314,380.77,229.765,380.149Z" transform="translate(-81.172 -215.541)" fill="#e58f6b"/>
        <path id="Path_5344" data-name="Path 5344" d="M218.471,369.38s5.727,8.688,8.51,10.135c0,0-3.149,2.553-7.352-1.549-5.429-5.25-6.331-3.455-6.331-3.455a16.43,16.43,0,0,1,.145-3.08C213.892,369.44,218.471,369.38,218.471,369.38Z" transform="translate(-81.169 -215.222)" fill="#e4897b"/>
        <path id="Path_5345" data-name="Path 5345" d="M176.083,413.66a7.8,7.8,0,0,0-2.612-.961h0s-3.012-2.221-5.438-9.88l-3.574-.391a2.953,2.953,0,0,0-2.953,1.7,1.616,1.616,0,0,0-.153.485,20.422,20.422,0,0,0,0,2.6,72.706,72.706,0,0,0,1.225,8.629l.621-.094-.553-5.446c-.179-1.855,1.549.094,2.247,2.017s1.855,3.9,5.9,3.4C175.513,415.107,177.436,414.631,176.083,413.66Z" transform="translate(-73.424 -220.145)" fill="#e58f6b"/>
        <path id="Path_5346" data-name="Path 5346" d="M167.583,400.5s3.506,9.8,5.889,11.871c0,0-3.659,1.7-6.808-3.242-4.034-6.4-5.344-4.859-5.344-4.859a16.724,16.724,0,0,1,.851-2.961C163.124,399.47,167.583,400.5,167.583,400.5Z" transform="translate(-73.425 -219.817)" fill="#e4897b"/>
        <path id="Path_5347" data-name="Path 5347" d="M115.844,189.735s-13.437-6.527-17.87,7.531,1.251,23.759,1.251,23.759,15.547-3.982,28.635-1.2c0,0-2.825-11.982-2.144-18.857S115.844,189.735,115.844,189.735Z" transform="translate(-63.732 -188.222)" fill="#263238"/>
        <path id="Path_5348" data-name="Path 5348" d="M131.59,227.39c2.953.128,15.317,16.747,15.317,16.747l4.6-5.957s7.08,13.76,3.574,20.312S133.1,247.141,133.1,247.141Z" transform="translate(-68.994 -194.06)" fill="#e58f6b"/>
        <path id="Path_5349" data-name="Path 5349" d="M131.58,227.39l1.208,13.283.306,6.476s3.038,2.944,6.876,6.008c5.642,4.5,13.011,9.25,15.1,5.353,3.506-6.544-3.583-20.312-3.583-20.312l-4.587,5.957V244.1C146.182,243.082,134.439,227.518,131.58,227.39Z" transform="translate(-68.993 -194.06)" fill="#fff" opacity="0.6" style="isolation: isolate"/>
        <path id="Path_5350" data-name="Path 5350" d="M133,241.84l.306,6.476s3.038,2.944,6.876,6.008c.366-7.778-6.876-19.1-6.876-19.1Z" transform="translate(-69.205 -195.227)" opacity="0.2" style="isolation: isolate"/>
        <path id="Path_5351" data-name="Path 5351" d="M149.286,246.928l-.664,1.268,1.923,7.488s-5.31-4.833-1.923-9.565Z" transform="translate(-71.365 -196.851)" opacity="0.2" style="isolation: isolate"/>
        <path id="Path_5352" data-name="Path 5352" d="M127.515,242.109v.63c0,.919,0,1.889-.06,2.919v2.264c0,.851-.06,1.7-.094,2.553v.357c0,1.157-.094,2.374-.153,3.659-.136,2.885-.3,6.084-.5,9.633h0l-.383.094-26,6.161h-.1s1.047-13.9-.749-21.776a1.79,1.79,0,0,0-.051-.2,1.364,1.364,0,0,0-.085-.357c-.034-.119-.119-.443-.17-.672s-.119-.46-.187-.7c-.23-.851-.477-1.7-.74-2.638-.17-.613-.357-1.242-.553-1.889l-.1-.323c-.23-.766-.477-1.557-.732-2.374-.077-.238-.145-.468-.221-.715-.374-1.166-.774-2.4-1.208-3.693q-.715-2.187-1.566-4.638a74.437,74.437,0,0,1,9.1-2.281l1.319-.238,1.4-.23c2.332-.374,4.689-.638,7.046-.808q1.421-.1,2.834-.153h1.94l1.7.051h1.838l.851.051h.647l1.166.077.46.043h1.089l.74.068h.068l.06.06a1.106,1.106,0,0,1,.145.221,6.859,6.859,0,0,1,.553,1.744,3.1,3.1,0,0,0,.111.562c.043.2.1.638.162,1.013s.077.545.111.851.06.553.085.851a93.464,93.464,0,0,1,.238,9.829Z" transform="translate(-63.371 -193.955)" fill="#263238"/>
        <path id="Path_5353" data-name="Path 5353" d="M115.41,230.934c-6.195-.791-8.05-3.446-8.05-3.446,2.553-2.383,2.068-5.9,1.421-8.093a12.178,12.178,0,0,0-.766-2.025l7.454,1.4a21.333,21.333,0,0,0-.289,3.132,9.063,9.063,0,0,0,.213,2.306c.5,2.229,1.77,2.264,1.77,2.264C118.474,228.909,115.41,230.934,115.41,230.934Z" transform="translate(-65.383 -192.566)" fill="#e4897b"/>
        <path id="Path_5354" data-name="Path 5354" d="M115.3,221.9a9.063,9.063,0,0,0,.213,2.306c-2.961-.383-5.2-2.757-6.612-4.808a12.179,12.179,0,0,0-.766-2.025l7.454,1.4a21.333,21.333,0,0,0-.289,3.131Z" transform="translate(-65.498 -192.566)" opacity="0.2" style="isolation: isolate"/>
        <path id="Path_5355" data-name="Path 5355" d="M116.871,194.409c6.859,1.4,8.314,5.523,7.378,12.688-1.174,8.961-4.408,14.832-12.6,11.2C100.533,213.36,105.486,192.086,116.871,194.409Z" transform="translate(-65.092 -189.118)" fill="#e4897b"/>
        <path id="Path_5356" data-name="Path 5356" d="M122.335,207.84a14.8,14.8,0,0,0,1.421,3.251,1.932,1.932,0,0,1-1.966.4Z" transform="translate(-67.534 -191.146)" fill="#de5753"/>
        <path id="Path_5357" data-name="Path 5357" d="M114.942,201.243a.315.315,0,0,1-.238-.111.3.3,0,0,1,0-.434,3.889,3.889,0,0,1,3.48-.485.307.307,0,0,1-.2.579,3.4,3.4,0,0,0-2.885.383A.341.341,0,0,1,114.942,201.243Z" transform="translate(-66.464 -189.978)" fill="#263238"/>
        <path id="Path_5358" data-name="Path 5358" d="M127.178,202.825a.306.306,0,0,1-.213-.094,3.029,3.029,0,0,0-2.357-1.038.306.306,0,1,1-.094-.6A3.548,3.548,0,0,1,127.4,202.3a.306.306,0,0,1,0,.434.323.323,0,0,1-.221.094Z" transform="translate(-67.901 -190.139)" fill="#263238"/>
        <path id="Path_5359" data-name="Path 5359" d="M106.789,203.907s4.357-4.978,4.757-9.429c0,0,14.713-2.774,12.577,11.156,0,0,3.821-11.982-7.905-14.654s-15.2,14.577-10.16,20.951C106.057,211.932,104.083,207.03,106.789,203.907Z" transform="translate(-64.855 -188.592)" fill="#263238"/>
        <path id="Path_5360" data-name="Path 5360" d="M107.42,207.593a3.063,3.063,0,0,0-2.681-3.4c-2.17-.2-4.076,3.948,1,6.076C106.467,210.571,107.046,209.916,107.42,207.593Z" transform="translate(-64.661 -190.601)" fill="#e4897b"/>
        <path id="Path_5361" data-name="Path 5361" d="M120.777,214.054a17.98,17.98,0,0,0-1.608,2l-.408-.2c-1.838-.9-2.391-1.923-2.451-2.783a2.732,2.732,0,0,1,.247-1.234,2.629,2.629,0,0,1,.366-.613,9.633,9.633,0,0,0,3.234,2.553C120.539,213.943,120.777,214.054,120.777,214.054Z" transform="translate(-66.717 -191.65)" fill="#263238"/>
        <path id="Path_5362" data-name="Path 5362" d="M120.2,213.739l-.485.579c-1.7-.851-2.834-1.7-3.115-2.485a2.63,2.63,0,0,1,.366-.613A9.633,9.633,0,0,0,120.2,213.739Z" transform="translate(-66.76 -191.65)" fill="#fff"/>
        <path id="Path_5363" data-name="Path 5363" d="M118.761,216.173c-1.838-.9-2.391-1.923-2.451-2.783a6.3,6.3,0,0,1,1.847,1.4A2.425,2.425,0,0,1,118.761,216.173Z" transform="translate(-66.717 -191.973)" fill="#de5753"/>
        <path id="Path_5364" data-name="Path 5364" d="M116.116,194.169s-5.106,10.722-12.135,9.131,6.808-13.615,6.808-13.615,12.484-2.034,16.943,5.336-3.88,10.467-3.88,10.467S126.064,196.79,116.116,194.169Z" transform="translate(-64.583 -188.402)" fill="#263238"/>
        <path id="Path_5365" data-name="Path 5365" d="M110.553,203.664a.221.221,0,0,1-.2-.162.2.2,0,0,1,.153-.255c5.957-1.506,6.74-9.173,6.748-9.25a.213.213,0,0,1,.23-.187.2.2,0,0,1,.187.23c0,.077-.851,8.042-7.063,9.616Z" transform="translate(-65.827 -189.055)" fill="#263238"/>
        <path id="Path_5366" data-name="Path 5366" d="M117.49,206.433c0,.545-.332.97-.689.962s-.647-.468-.621-1.013.332-.979.7-.962S117.516,205.913,117.49,206.433Z" transform="translate(-66.697 -190.785)" fill="#263238"/>
        <path id="Path_5367" data-name="Path 5367" d="M116.82,205.367l1.2-.417S117.39,205.929,116.82,205.367Z" transform="translate(-66.793 -190.715)" fill="#263238"/>
        <path id="Path_5368" data-name="Path 5368" d="M125.449,206.614c0,.545-.34.979-.7.962s-.638-.468-.621-1.013.332-.97.7-.953S125.466,206.069,125.449,206.614Z" transform="translate(-67.882 -190.813)" fill="#263238"/>
        <path id="Path_5369" data-name="Path 5369" d="M124.77,205.557l1.2-.417S125.34,206.11,124.77,205.557Z" transform="translate(-67.978 -190.743)" fill="#263238"/>
        <path id="Path_5370" data-name="Path 5370" d="M136.879,237.672a.63.63,0,0,0,.647.715h7.114a.851.851,0,0,0,.808-.715l1.583-14.041a.706.706,0,0,0-.638-.851h-7.114a.919.919,0,0,0-.808.851Z" transform="translate(-69.782 -193.372)" fill="#263238"/>
        <path id="Path_5371" data-name="Path 5371" d="M139.394,223.543l-1.617,14.177a.545.545,0,0,0,.562.672h6.033c.408,0,1.149-.221,1.191-.621l1.617-14.228c0-.4-.647-.723-1.055-.723h-6.033A.732.732,0,0,0,139.394,223.543Z" transform="translate(-69.914 -193.378)" fill="#fff" opacity="0.5"/>
        <path id="Path_5372" data-name="Path 5372" d="M152.755,239.437l-3.71-6.3a20.883,20.883,0,0,0-.315-4.085c-.323-.783-3.957-2.553-4.672-2.281s-.97,6.757-.323,7.659a9.157,9.157,0,0,0,2.919,1.847l-.153,1.234,2.17,6.552Z" transform="translate(-70.749 -193.964)" fill="#e4897b"/>
        <path id="Path_5373" data-name="Path 5373" d="M154.911,240.6l-1.225-1.234-5.846,6.552.834,2.6Z" transform="translate(-71.416 -195.845)" fill="#e58f6b"/>
        <path id="Path_5374" data-name="Path 5374" d="M121.2,225.34l-.74,2.723,1.506,2.213,3.336,31.111,9.131-1.344c-.63-24.244-.851-24.371-4.374-33.094l-8.178-.57Z" transform="translate(-67.336 -193.754)" fill="#e58f6b"/>
        <path id="Path_5375" data-name="Path 5375" d="M121.2,225.34l-.74,2.723,1.506,2.213,3.336,31.111,9.131-1.344c-.63-24.244-.851-24.371-4.374-33.094l-8.178-.57Z" transform="translate(-67.336 -193.754)" fill="#fff" opacity="0.6" style="isolation: isolate"/>
        <path id="Path_5376" data-name="Path 5376" d="M102.084,225.34l8.11,3.4-1.991,3.4L110.168,264,97.88,267.6s-8.918-23.4-4.348-37.289l8.05-2.323Z" transform="translate(-63.128 -193.754)" fill="#e58f6b"/>
        <path id="Path_5377" data-name="Path 5377" d="M109.853,258.927l.315,5.046-5.48,1.6-6.808,1.991a101.885,101.885,0,0,1-5.242-21.393c-.655-5.54-.638-11.25.893-15.9l8.05-2.323.5-2.612,8.11,3.4-1.991,3.4.783,12.645Z" transform="translate(-63.128 -193.754)" fill="#fff" opacity="0.6" style="isolation: isolate"/>
        <path id="Path_5378" data-name="Path 5378" d="M117.116,251.333s-3.055,4.451-7.191,9.948c-1.6,2.127-3.4,4.408-5.165,6.646l-6.808,1.991a101.886,101.886,0,0,1-5.242-21.393c3.336-3.344,7.42-7.395,7.42-7.395s1.872,5.787,1.047,10.816l7.88-4.825,2.451-1.5Z" transform="translate(-63.2 -196.107)" opacity="0.2" style="isolation: isolate"/>
        <path id="Path_5379" data-name="Path 5379" d="M113.57,246.415l8.433-6.62a28.848,28.848,0,0,1,1.8-4.161c.511-.621,7.905-3.344,8.51-3.4s0,6.059-.928,7.1-6.876,3.1-6.876,3.1l-8.816,8.331Z" transform="translate(-66.309 -194.781)" fill="#e4897b"/>
        <path id="Path_5380" data-name="Path 5380" d="M93,231.14c-4.953,2.485-7.157,30.447,1.447,35.272s21.444-17.019,21.444-17.019l-5-5.3s-10.467,8.765-11.726,7.956.17-9.361.17-9.361,1.472-2.553-1.625-6.663S93,231.14,93,231.14Z" transform="translate(-62.592 -194.618)" fill="#e58f6b"/>
        <path id="Path_5381" data-name="Path 5381" d="M93,231.14c-4.953,2.485-7.157,30.447,1.447,35.272s21.444-17.019,21.444-17.019l-5-5.3s-10.467,8.765-11.726,7.956.17-9.361.17-9.361,1.472-2.553-1.625-6.663S93,231.14,93,231.14Z" transform="translate(-62.592 -194.618)" fill="#fff" opacity="0.6" style="isolation: isolate"/>
        <path id="Path_5382" data-name="Path 5382" d="M119.689,253.312l1.5-.9-5.608-8.22-2.059,1.149Z" transform="translate(-66.301 -196.563)" fill="#e58f6b"/>
      </g>
    </g>
  </g>
</svg>
